<svg width="124" height="31" viewBox="0 0 124 31" fill="none" xmlns="http://www.w3.org/2000/svg">
<path d="M20.9012 1.07686C8.15342 9.01039 7.95001 25.0129 17.3074 30.1662C11.7472 17.1473 13.5102 11.4514 20.9012 1.07686Z" fill="#3063E9"/>
<path d="M14.5285 4.39934C3.47585 12.6718 2.05189 23.1819 12.7655 29.9627C6.7306 21.8936 6.72179 13.9601 14.5285 4.39934Z" fill="#303778"/>
<path d="M8.76505 7.38298C-0.93141 14.5706 -2.89783 24.267 8.76505 29.7595C0.720916 20.8767 2.59458 15.0452 8.76505 7.38298Z" fill="#FF9635"/>
<path d="M29.3883 10.986C30.775 10.986 32.035 11.2993 33.1684 11.926C34.315 12.5527 35.215 13.4127 35.8684 14.506C36.5217 15.5993 36.8483 16.8127 36.8483 18.146C36.8483 19.4793 36.5217 20.6993 35.8684 21.806C35.215 22.8993 34.315 23.766 33.1684 24.406C32.035 25.046 30.775 25.366 29.3883 25.366C28.0017 25.366 26.735 25.046 25.5883 24.406C24.455 23.766 23.5617 22.8993 22.9083 21.806C22.255 20.6993 21.9283 19.4793 21.9283 18.146C21.9283 16.8127 22.255 15.5993 22.9083 14.506C23.5617 13.4127 24.455 12.5527 25.5883 11.926C26.735 11.2993 28.0017 10.986 29.3883 10.986ZM29.4283 13.386C28.575 13.386 27.7817 13.5993 27.0483 14.026C26.315 14.4393 25.735 15.0127 25.3083 15.746C24.8817 16.466 24.6683 17.266 24.6683 18.146C24.6683 19.026 24.8817 19.8327 25.3083 20.566C25.7483 21.2993 26.3283 21.8793 27.0483 22.306C27.7817 22.7327 28.575 22.946 29.4283 22.946C30.2683 22.946 31.0483 22.7327 31.7683 22.306C32.4883 21.8793 33.055 21.2993 33.4684 20.566C33.895 19.8327 34.1084 19.026 34.1084 18.146C34.1084 17.266 33.895 16.466 33.4684 15.746C33.055 15.0127 32.4883 14.4393 31.7683 14.026C31.0483 13.5993 30.2683 13.386 29.4283 13.386ZM45.5402 14.366C46.7669 14.366 47.7336 14.7393 48.4402 15.486C49.1469 16.2193 49.5002 17.2193 49.5002 18.486V25.166H46.8802V19.246C46.8802 18.4993 46.6669 17.9127 46.2402 17.486C45.8136 17.046 45.2336 16.826 44.5002 16.826C43.6336 16.8393 42.9469 17.1327 42.4402 17.706C41.9469 18.2793 41.7002 19.0127 41.7002 19.906V25.166H39.1002V14.466H41.7002V16.466C42.4336 15.0927 43.7136 14.3927 45.5402 14.366ZM52.4205 14.466H55.0205V25.166H52.4205V14.466ZM53.7005 9.86601C54.1272 9.86601 54.4805 10.0127 54.7605 10.306C55.0405 10.5993 55.1805 10.9727 55.1805 11.426C55.1805 11.866 55.0405 12.2327 54.7605 12.526C54.4805 12.8193 54.1272 12.966 53.7005 12.966C53.2739 12.966 52.9205 12.8193 52.6405 12.526C52.3605 12.2327 52.2205 11.866 52.2205 11.426C52.2205 10.9727 52.3605 10.5993 52.6405 10.306C52.9205 10.0127 53.2739 9.86601 53.7005 9.86601ZM62.9209 14.386C64.0275 14.386 65.0009 14.6127 65.8409 15.066C66.6942 15.5193 67.3542 16.1593 67.8208 16.986C68.3008 17.7993 68.5408 18.7393 68.5408 19.806C68.5408 20.886 68.3008 21.8393 67.8208 22.666C67.3542 23.4927 66.6942 24.1327 65.8409 24.586C65.0009 25.0393 64.0275 25.266 62.9209 25.266C61.8008 25.266 60.8142 25.0393 59.9608 24.586C59.1075 24.1327 58.4408 23.4927 57.9608 22.666C57.4942 21.8393 57.2608 20.886 57.2608 19.806C57.2608 18.7393 57.4942 17.7993 57.9608 16.986C58.4408 16.1593 59.1075 15.5193 59.9608 15.066C60.8142 14.6127 61.8008 14.386 62.9209 14.386ZM62.9209 16.606C62.0142 16.606 61.2808 16.906 60.7208 17.506C60.1608 18.106 59.8808 18.886 59.8808 19.846C59.8808 20.806 60.1608 21.586 60.7208 22.186C61.2808 22.786 62.0142 23.086 62.9209 23.086C63.8008 23.086 64.5208 22.786 65.0808 22.186C65.6409 21.586 65.9209 20.806 65.9209 19.846C65.9209 18.886 65.6409 18.106 65.0808 17.506C64.5208 16.906 63.8008 16.606 62.9209 16.606ZM77.2394 14.366C78.4661 14.366 79.4328 14.7393 80.1394 15.486C80.8461 16.2193 81.1994 17.2193 81.1994 18.486V25.166H78.5794V19.246C78.5794 18.4993 78.3661 17.9127 77.9394 17.486C77.5128 17.046 76.9328 16.826 76.1994 16.826C75.3328 16.8393 74.6461 17.1327 74.1394 17.706C73.6461 18.2793 73.3994 19.0127 73.3994 19.906V25.166H70.7994V14.466H73.3994V16.466C74.1328 15.0927 75.4128 14.3927 77.2394 14.366ZM94.8621 11.166C96.6221 11.166 97.9821 11.586 98.9421 12.426C99.9154 13.266 100.402 14.4527 100.402 15.986C100.402 17.586 99.9154 18.8327 98.9421 19.726C97.9821 20.606 96.6221 21.046 94.8621 21.046H91.8021V25.166H89.1221V11.166H94.8621ZM94.7221 18.686C95.7354 18.686 96.5088 18.466 97.0421 18.026C97.5888 17.586 97.8621 16.9327 97.8621 16.066C97.8621 15.2127 97.5888 14.5727 97.0421 14.146C96.5088 13.7193 95.7354 13.506 94.7221 13.506H91.8021V18.686H94.7221ZM108.838 25.166V23.866C108.465 24.3327 107.985 24.686 107.398 24.926C106.812 25.166 106.138 25.286 105.378 25.286C104.632 25.286 103.972 25.146 103.398 24.866C102.838 24.5727 102.405 24.1727 102.098 23.666C101.792 23.1593 101.638 22.5927 101.638 21.966C101.638 20.966 101.992 20.186 102.698 19.626C103.405 19.0527 104.405 18.7593 105.698 18.746H108.818V18.466C108.818 17.8393 108.612 17.3527 108.198 17.006C107.785 16.6593 107.185 16.486 106.398 16.486C105.385 16.486 104.325 16.8193 103.218 17.486L102.278 15.686C103.118 15.2193 103.878 14.886 104.558 14.686C105.252 14.4727 106.058 14.366 106.978 14.366C108.365 14.366 109.438 14.6993 110.198 15.366C110.972 16.0327 111.365 16.966 111.378 18.166L111.398 25.166H108.838ZM105.998 23.286C106.745 23.286 107.385 23.1127 107.918 22.766C108.452 22.406 108.752 21.966 108.818 21.446V20.486H106.118C105.425 20.486 104.912 20.5927 104.578 20.806C104.258 21.006 104.098 21.3393 104.098 21.806C104.098 22.2593 104.265 22.6193 104.598 22.886C104.945 23.1527 105.412 23.286 105.998 23.286ZM118.622 26.506C118.288 27.386 117.808 28.046 117.182 28.486C116.568 28.9393 115.835 29.166 114.982 29.166C114.462 29.166 113.988 29.086 113.562 28.926C113.148 28.7793 112.735 28.5393 112.322 28.206L113.442 26.226C113.695 26.4127 113.928 26.546 114.142 26.626C114.355 26.7193 114.582 26.766 114.822 26.766C115.528 26.766 116.048 26.406 116.382 25.686L116.702 24.986L112.282 14.466H114.982L118.022 22.246L120.802 14.466H123.422L118.622 26.506Z" fill="#3063E9"/>
</svg>
