<svg width="127" height="31" viewBox="0 0 127 31" fill="none" xmlns="http://www.w3.org/2000/svg">
<path d="M20.9012 1.07686C8.15342 9.01039 7.95001 25.0129 17.3074 30.1662C11.7472 17.1473 13.5102 11.4514 20.9012 1.07686Z" fill="white"/>
<path d="M14.5283 4.39951C3.47573 12.672 2.05177 23.1821 12.7653 29.9629C6.73048 21.8938 6.72167 13.9603 14.5283 4.39951Z" fill="white"/>
<path d="M8.7653 7.3829C-0.931166 14.5705 -2.89759 24.267 8.76529 29.7594C0.72116 20.8766 2.59483 15.0452 8.7653 7.3829Z" fill="white"/>
<path d="M29.7281 25.3262C28.6614 25.3262 27.6681 25.1462 26.7481 24.7862C25.8414 24.4262 25.0548 23.9262 24.3881 23.2862C23.7214 22.6329 23.2014 21.8729 22.8281 21.0062C22.4548 20.1396 22.2681 19.1929 22.2681 18.1662C22.2681 17.1396 22.4548 16.1929 22.8281 15.3262C23.2014 14.4596 23.7214 13.7062 24.3881 13.0662C25.0548 12.4129 25.8414 11.9062 26.7481 11.5462C27.6548 11.1862 28.6481 11.0062 29.7281 11.0062C30.7948 11.0062 31.7748 11.1862 32.6681 11.5462C33.5748 11.8929 34.3614 12.3929 35.0281 13.0462C35.7081 13.6862 36.2281 14.4396 36.5881 15.3062C36.9614 16.1729 37.1481 17.1262 37.1481 18.1662C37.1481 19.2062 36.9614 20.1596 36.5881 21.0262C36.2281 21.8929 35.7081 22.6529 35.0281 23.3062C34.3614 23.9462 33.5748 24.4462 32.6681 24.8062C31.7748 25.1529 30.7948 25.3262 29.7281 25.3262ZM29.7281 23.5462C30.5014 23.5462 31.2148 23.4129 31.8681 23.1462C32.5348 22.8796 33.1081 22.5062 33.5881 22.0262C34.0814 21.5329 34.4614 20.9596 34.7281 20.3062C35.0081 19.6529 35.1481 18.9396 35.1481 18.1662C35.1481 17.3929 35.0081 16.6796 34.7281 16.0262C34.4614 15.3729 34.0814 14.8062 33.5881 14.3262C33.1081 13.8329 32.5348 13.4529 31.8681 13.1862C31.2148 12.9196 30.5014 12.7862 29.7281 12.7862C28.9414 12.7862 28.2148 12.9196 27.5481 13.1862C26.8948 13.4529 26.3214 13.8329 25.8281 14.3262C25.3348 14.8062 24.9481 15.3729 24.6681 16.0262C24.4014 16.6796 24.2681 17.3929 24.2681 18.1662C24.2681 18.9396 24.4014 19.6529 24.6681 20.3062C24.9481 20.9596 25.3348 21.5329 25.8281 22.0262C26.3214 22.5062 26.8948 22.8796 27.5481 23.1462C28.2148 23.4129 28.9414 23.5462 29.7281 23.5462ZM45.585 14.4662C46.4516 14.4662 47.2116 14.6329 47.865 14.9662C48.5316 15.2996 49.0516 15.8062 49.425 16.4862C49.7983 17.1662 49.985 18.0262 49.985 19.0662V25.1662H48.065V19.2862C48.065 18.2596 47.8116 17.4862 47.305 16.9662C46.8116 16.4462 46.1116 16.1862 45.205 16.1862C44.525 16.1862 43.9316 16.3196 43.425 16.5862C42.9183 16.8529 42.525 17.2462 42.245 17.7662C41.9783 18.2862 41.845 18.9329 41.845 19.7062V25.1662H39.925V14.5662H41.765V17.4262L41.465 16.6662C41.8116 15.9729 42.345 15.4329 43.065 15.0462C43.785 14.6596 44.625 14.4662 45.585 14.4662ZM53.5383 25.1662V14.5662H55.4583V25.1662H53.5383ZM54.4983 12.5262C54.1249 12.5262 53.8116 12.4062 53.5583 12.1662C53.3183 11.9262 53.1983 11.6329 53.1983 11.2862C53.1983 10.9262 53.3183 10.6262 53.5583 10.3862C53.8116 10.1462 54.1249 10.0262 54.4983 10.0262C54.8716 10.0262 55.1783 10.1462 55.4183 10.3862C55.6716 10.6129 55.7983 10.8996 55.7983 11.2462C55.7983 11.6062 55.6783 11.9129 55.4383 12.1662C55.1983 12.4062 54.8849 12.5262 54.4983 12.5262ZM63.6642 25.2862C62.5975 25.2862 61.6509 25.0529 60.8242 24.5862C59.9975 24.1196 59.3442 23.4796 58.8642 22.6662C58.3842 21.8396 58.1442 20.9062 58.1442 19.8662C58.1442 18.8129 58.3842 17.8796 58.8642 17.0662C59.3442 16.2529 59.9975 15.6196 60.8242 15.1662C61.6509 14.6996 62.5975 14.4662 63.6642 14.4662C64.7175 14.4662 65.6575 14.6996 66.4842 15.1662C67.3242 15.6196 67.9775 16.2529 68.4442 17.0662C68.9242 17.8662 69.1642 18.7996 69.1642 19.8662C69.1642 20.9196 68.9242 21.8529 68.4442 22.6662C67.9775 23.4796 67.3242 24.1196 66.4842 24.5862C65.6575 25.0529 64.7175 25.2862 63.6642 25.2862ZM63.6642 23.6062C64.3442 23.6062 64.9509 23.4529 65.4842 23.1462C66.0309 22.8396 66.4575 22.4062 66.7642 21.8462C67.0709 21.2729 67.2242 20.6129 67.2242 19.8662C67.2242 19.1062 67.0709 18.4529 66.7642 17.9062C66.4575 17.3462 66.0309 16.9129 65.4842 16.6062C64.9509 16.2996 64.3442 16.1462 63.6642 16.1462C62.9842 16.1462 62.3775 16.2996 61.8442 16.6062C61.3109 16.9129 60.8842 17.3462 60.5642 17.9062C60.2442 18.4529 60.0842 19.1062 60.0842 19.8662C60.0842 20.6129 60.2442 21.2729 60.5642 21.8462C60.8842 22.4062 61.3109 22.8396 61.8442 23.1462C62.3775 23.4529 62.9842 23.6062 63.6642 23.6062ZM77.4795 14.4662C78.3462 14.4662 79.1062 14.6329 79.7595 14.9662C80.4262 15.2996 80.9462 15.8062 81.3195 16.4862C81.6928 17.1662 81.8795 18.0262 81.8795 19.0662V25.1662H79.9595V19.2862C79.9595 18.2596 79.7062 17.4862 79.1995 16.9662C78.7062 16.4462 78.0062 16.1862 77.0995 16.1862C76.4195 16.1862 75.8262 16.3196 75.3195 16.5862C74.8128 16.8529 74.4195 17.2462 74.1395 17.7662C73.8728 18.2862 73.7395 18.9329 73.7395 19.7062V25.1662H71.8195V14.5662H73.6595V17.4262L73.3595 16.6662C73.7062 15.9729 74.2395 15.4329 74.9595 15.0462C75.6795 14.6596 76.5195 14.4662 77.4795 14.4662ZM91.0839 25.1662V11.1662H96.5439C97.7706 11.1662 98.8172 11.3596 99.6839 11.7462C100.551 12.1329 101.217 12.6929 101.684 13.4262C102.151 14.1596 102.384 15.0329 102.384 16.0462C102.384 17.0596 102.151 17.9329 101.684 18.6662C101.217 19.3862 100.551 19.9462 99.6839 20.3462C98.8172 20.7329 97.7706 20.9262 96.5439 20.9262H92.1839L93.0839 19.9862V25.1662H91.0839ZM93.0839 20.1862L92.1839 19.1862H96.4839C97.7639 19.1862 98.7306 18.9129 99.3839 18.3662C100.051 17.8196 100.384 17.0462 100.384 16.0462C100.384 15.0462 100.051 14.2729 99.3839 13.7262C98.7306 13.1796 97.7639 12.9062 96.4839 12.9062H92.1839L93.0839 11.9062V20.1862ZM111.525 25.1662V22.9262L111.425 22.5062V18.6862C111.425 17.8729 111.185 17.2462 110.705 16.8062C110.238 16.3529 109.531 16.1262 108.585 16.1262C107.958 16.1262 107.345 16.2329 106.745 16.4462C106.145 16.6462 105.638 16.9196 105.225 17.2662L104.425 15.8262C104.971 15.3862 105.625 15.0529 106.385 14.8262C107.158 14.5862 107.965 14.4662 108.805 14.4662C110.258 14.4662 111.378 14.8196 112.165 15.5262C112.951 16.2329 113.345 17.3129 113.345 18.7662V25.1662H111.525ZM108.045 25.2862C107.258 25.2862 106.565 25.1529 105.965 24.8862C105.378 24.6196 104.925 24.2529 104.605 23.7862C104.285 23.3062 104.125 22.7662 104.125 22.1662C104.125 21.5929 104.258 21.0729 104.525 20.6062C104.805 20.1396 105.251 19.7662 105.865 19.4862C106.491 19.2062 107.331 19.0662 108.385 19.0662H111.745V20.4462H108.465C107.505 20.4462 106.858 20.6062 106.525 20.9262C106.191 21.2462 106.025 21.6329 106.025 22.0862C106.025 22.6062 106.231 23.0262 106.645 23.3462C107.058 23.6529 107.631 23.8062 108.365 23.8062C109.085 23.8062 109.711 23.6462 110.245 23.3262C110.791 23.0062 111.185 22.5396 111.425 21.9262L111.805 23.2462C111.551 23.8729 111.105 24.3729 110.465 24.7462C109.825 25.1062 109.018 25.2862 108.045 25.2862ZM117.162 29.1662C116.656 29.1662 116.162 29.0796 115.682 28.9062C115.202 28.7462 114.789 28.5062 114.442 28.1862L115.262 26.7462C115.529 26.9996 115.822 27.1929 116.142 27.3262C116.462 27.4596 116.802 27.5262 117.162 27.5262C117.629 27.5262 118.016 27.4062 118.322 27.1662C118.629 26.9262 118.916 26.4996 119.182 25.8862L119.842 24.4262L120.042 24.1862L124.202 14.5662H126.082L120.942 26.2262C120.636 26.9729 120.289 27.5596 119.902 27.9862C119.529 28.4129 119.116 28.7129 118.662 28.8862C118.209 29.0729 117.709 29.1662 117.162 29.1662ZM119.682 25.5062L114.842 14.5662H116.842L120.962 24.0062L119.682 25.5062Z" fill="white"/>
</svg>
