<svg width="124" height="32" viewBox="0 0 124 32" fill="none" xmlns="http://www.w3.org/2000/svg">
<path d="M20.9012 1.99386C8.15342 9.92738 7.95001 25.9299 17.3074 31.0832C11.7472 18.0642 13.5102 12.3684 20.9012 1.99386Z" fill="#3063E9"/>
<path d="M14.5283 5.31633C3.47573 13.5888 2.05177 24.0989 12.7653 30.8797C6.73048 22.8106 6.72167 14.8771 14.5283 5.31633Z" fill="#303778"/>
<path d="M8.7653 8.29997C-0.931166 15.4876 -2.89759 25.184 8.76529 30.6765C0.72116 21.7937 2.59483 15.9622 8.7653 8.29997Z" fill="#FF9635"/>
<path d="M29.3881 11.903C30.7748 11.903 32.0348 12.2163 33.1681 12.843C34.3148 13.4697 35.2148 14.3297 35.8681 15.423C36.5214 16.5163 36.8481 17.7297 36.8481 19.063C36.8481 20.3963 36.5214 21.6163 35.8681 22.723C35.2148 23.8163 34.3148 24.683 33.1681 25.323C32.0348 25.963 30.7748 26.283 29.3881 26.283C28.0014 26.283 26.7348 25.963 25.5881 25.323C24.4548 24.683 23.5614 23.8163 22.9081 22.723C22.2548 21.6163 21.9281 20.3963 21.9281 19.063C21.9281 17.7297 22.2548 16.5163 22.9081 15.423C23.5614 14.3297 24.4548 13.4697 25.5881 12.843C26.7348 12.2163 28.0014 11.903 29.3881 11.903ZM29.4281 14.303C28.5748 14.303 27.7814 14.5163 27.0481 14.943C26.3148 15.3563 25.7348 15.9297 25.3081 16.663C24.8814 17.383 24.6681 18.183 24.6681 19.063C24.6681 19.943 24.8814 20.7497 25.3081 21.483C25.7481 22.2163 26.3281 22.7963 27.0481 23.223C27.7814 23.6497 28.5748 23.863 29.4281 23.863C30.2681 23.863 31.0481 23.6497 31.7681 23.223C32.4881 22.7963 33.0548 22.2163 33.4681 21.483C33.8948 20.7497 34.1081 19.943 34.1081 19.063C34.1081 18.183 33.8948 17.383 33.4681 16.663C33.0548 15.9297 32.4881 15.3563 31.7681 14.943C31.0481 14.5163 30.2681 14.303 29.4281 14.303ZM45.54 15.283C46.7666 15.283 47.7333 15.6563 48.44 16.403C49.1466 17.1363 49.5 18.1363 49.5 19.403V26.083H46.88V20.163C46.88 19.4163 46.6666 18.8297 46.24 18.403C45.8133 17.963 45.2333 17.743 44.5 17.743C43.6333 17.7563 42.9466 18.0497 42.44 18.623C41.9466 19.1963 41.7 19.9297 41.7 20.823V26.083H39.1V15.383H41.7V17.383C42.4333 16.0097 43.7133 15.3097 45.54 15.283ZM52.4203 15.383H55.0203V26.083H52.4203V15.383ZM53.7003 10.783C54.127 10.783 54.4803 10.9297 54.7603 11.223C55.0403 11.5163 55.1803 11.8897 55.1803 12.343C55.1803 12.783 55.0403 13.1497 54.7603 13.443C54.4803 13.7363 54.127 13.883 53.7003 13.883C53.2736 13.883 52.9203 13.7363 52.6403 13.443C52.3603 13.1497 52.2203 12.783 52.2203 12.343C52.2203 11.8897 52.3603 11.5163 52.6403 11.223C52.9203 10.9297 53.2736 10.783 53.7003 10.783ZM62.9206 15.303C64.0273 15.303 65.0006 15.5297 65.8406 15.983C66.6939 16.4363 67.3539 17.0763 67.8206 17.903C68.3006 18.7163 68.5406 19.6563 68.5406 20.723C68.5406 21.803 68.3006 22.7563 67.8206 23.583C67.3539 24.4097 66.6939 25.0497 65.8406 25.503C65.0006 25.9563 64.0273 26.183 62.9206 26.183C61.8006 26.183 60.8139 25.9563 59.9606 25.503C59.1073 25.0497 58.4406 24.4097 57.9606 23.583C57.4939 22.7563 57.2606 21.803 57.2606 20.723C57.2606 19.6563 57.4939 18.7163 57.9606 17.903C58.4406 17.0763 59.1073 16.4363 59.9606 15.983C60.8139 15.5297 61.8006 15.303 62.9206 15.303ZM62.9206 17.523C62.0139 17.523 61.2806 17.823 60.7206 18.423C60.1606 19.023 59.8806 19.803 59.8806 20.763C59.8806 21.723 60.1606 22.503 60.7206 23.103C61.2806 23.703 62.0139 24.003 62.9206 24.003C63.8006 24.003 64.5206 23.703 65.0806 23.103C65.6406 22.503 65.9206 21.723 65.9206 20.763C65.9206 19.803 65.6406 19.023 65.0806 18.423C64.5206 17.823 63.8006 17.523 62.9206 17.523ZM77.2392 15.283C78.4659 15.283 79.4325 15.6563 80.1392 16.403C80.8459 17.1363 81.1992 18.1363 81.1992 19.403V26.083H78.5792V20.163C78.5792 19.4163 78.3659 18.8297 77.9392 18.403C77.5125 17.963 76.9325 17.743 76.1992 17.743C75.3325 17.7563 74.6459 18.0497 74.1392 18.623C73.6459 19.1963 73.3992 19.9297 73.3992 20.823V26.083H70.7992V15.383H73.3992V17.383C74.1325 16.0097 75.4125 15.3097 77.2392 15.283ZM94.8619 12.083C96.6219 12.083 97.9819 12.503 98.9419 13.343C99.9152 14.183 100.402 15.3697 100.402 16.903C100.402 18.503 99.9152 19.7497 98.9419 20.643C97.9819 21.523 96.6219 21.963 94.8619 21.963H91.8019V26.083H89.1219V12.083H94.8619ZM94.7219 19.603C95.7352 19.603 96.5085 19.383 97.0419 18.943C97.5885 18.503 97.8619 17.8497 97.8619 16.983C97.8619 16.1297 97.5885 15.4897 97.0419 15.063C96.5085 14.6363 95.7352 14.423 94.7219 14.423H91.8019V19.603H94.7219ZM108.838 26.083V24.783C108.465 25.2497 107.985 25.603 107.398 25.843C106.811 26.083 106.138 26.203 105.378 26.203C104.631 26.203 103.971 26.063 103.398 25.783C102.838 25.4897 102.405 25.0897 102.098 24.583C101.791 24.0763 101.638 23.5097 101.638 22.883C101.638 21.883 101.991 21.103 102.698 20.543C103.405 19.9697 104.405 19.6763 105.698 19.663H108.818V19.383C108.818 18.7563 108.611 18.2697 108.198 17.923C107.785 17.5763 107.185 17.403 106.398 17.403C105.385 17.403 104.325 17.7363 103.218 18.403L102.278 16.603C103.118 16.1363 103.878 15.803 104.558 15.603C105.251 15.3897 106.058 15.283 106.978 15.283C108.365 15.283 109.438 15.6163 110.198 16.283C110.971 16.9497 111.365 17.883 111.378 19.083L111.398 26.083H108.838ZM105.998 24.203C106.745 24.203 107.385 24.0297 107.918 23.683C108.451 23.323 108.751 22.883 108.818 22.363V21.403H106.118C105.425 21.403 104.911 21.5097 104.578 21.723C104.258 21.923 104.098 22.2563 104.098 22.723C104.098 23.1763 104.265 23.5363 104.598 23.803C104.945 24.0697 105.411 24.203 105.998 24.203ZM118.621 27.423C118.288 28.303 117.808 28.963 117.181 29.403C116.568 29.8563 115.835 30.083 114.981 30.083C114.461 30.083 113.988 30.003 113.561 29.843C113.148 29.6963 112.735 29.4563 112.321 29.123L113.441 27.143C113.695 27.3297 113.928 27.463 114.141 27.543C114.355 27.6363 114.581 27.683 114.821 27.683C115.528 27.683 116.048 27.323 116.381 26.603L116.701 25.903L112.281 15.383H114.981L118.021 23.163L120.801 15.383H123.421L118.621 27.423Z" fill="#3063E9"/>
</svg>
