<?xml version="1.0" encoding="UTF-8"?>
<!DOCTYPE svg PUBLIC "-//W3C//DTD SVG 1.1//EN" "http://www.w3.org/Graphics/SVG/1.1/DTD/svg11.dtd">
<!-- Creator: CorelDRAW 2021 (64-Bit) -->
<svg xmlns="http://www.w3.org/2000/svg" xml:space="preserve" width="16.6667in" height="16.6667in" version="1.1" style="shape-rendering:geometricPrecision; text-rendering:geometricPrecision; image-rendering:optimizeQuality; fill-rule:evenodd; clip-rule:evenodd"
viewBox="0 0 16666.67 16666.67"
 xmlns:xlink="http://www.w3.org/1999/xlink"
 xmlns:xodm="http://www.corel.com/coreldraw/odm/2003">
 <defs>
  <style type="text/css">
   <![CDATA[
    .fil0 {fill:none}
    .fil8 {fill:#303778}
    .fil3 {fill:#3063E9}
    .fil4 {fill:#C9D4F0}
    .fil5 {fill:#E1E4ED}
    .fil6 {fill:#F8ECF0}
    .fil7 {fill:#FF9635}
    .fil2 {fill:#FF9635;fill-rule:nonzero}
    .fil1 {fill:url(#id0);fill-rule:nonzero}
   ]]>
  </style>
  <linearGradient id="id0" gradientUnits="userSpaceOnUse" x1="6236.09" y1="7531.46" x2="6307.11" y2="9660.2">
   <stop offset="0" style="stop-opacity:1; stop-color:#3063E9"/>
   <stop offset="0.890196" style="stop-opacity:1; stop-color:#304DB1"/>
   <stop offset="1" style="stop-opacity:1; stop-color:#303778"/>
  </linearGradient>
 </defs>
 <g id="Layer_x0020_1">
  <metadata id="CorelCorpID_0Corel-Layer"/>
  <rect class="fil0" x="-0" y="-0" width="16666.67" height="16666.67"/>
  <path class="fil1" d="M3433.09 8108.9l393.63 0 0 209.94 8.75 0c52.48,-85.53 120.52,-148.7 204.11,-189.53 83.58,-40.82 169.11,-61.23 256.59,-61.23 110.8,0 201.68,15.06 272.63,45.19 70.95,30.13 126.84,71.92 167.66,125.38 40.82,53.46 69.49,118.57 86.02,195.36 16.52,76.78 24.78,161.82 24.78,255.13l0 927.21 -414.04 0 0 -851.41c0,-124.41 -19.93,-217.22 -59.77,-278.45 -39.85,-61.23 -108.37,-91.85 -205.56,-91.85 -112.74,0 -194.39,33.53 -244.93,100.59 -50.54,67.06 -75.81,177.38 -75.81,330.94l0 790.17 -414.04 0 0 -1507.45zm2154.76 -233.26l-414.04 0 0 -341.15 414.04 0 0 341.15zm-414.04 233.26l414.04 0 0 1507.45 -414.04 0 0 -1507.45zm1107.99 755.19c0,60.26 5.83,119.06 17.5,176.41 11.66,57.34 31.59,108.85 59.77,154.54 28.19,45.68 65.61,82.13 112.26,109.34 46.65,27.22 104.97,40.82 174.95,40.82 69.98,0 128.78,-13.61 176.4,-40.82 47.63,-27.21 85.53,-63.66 113.72,-109.34 28.19,-45.68 48.11,-97.19 59.77,-154.54 11.67,-57.35 17.5,-116.15 17.5,-176.41 0,-60.26 -5.83,-119.55 -17.5,-177.86 -11.66,-58.31 -31.59,-109.83 -59.77,-154.54 -28.19,-44.71 -66.09,-81.16 -113.72,-109.34 -47.62,-28.19 -106.43,-42.28 -176.4,-42.28 -69.98,0 -128.3,14.09 -174.95,42.28 -46.65,28.19 -84.07,64.63 -112.26,109.34 -28.19,44.71 -48.11,96.22 -59.77,154.54 -11.67,58.31 -17.5,117.6 -17.5,177.86zm-414.04 0c0,-120.52 18.46,-229.86 55.4,-328.02 36.93,-98.17 89.42,-181.75 157.45,-250.76 68.04,-69.01 149.68,-122.46 244.93,-160.37 95.25,-37.91 202.16,-56.86 320.74,-56.86 118.57,0 225.97,18.95 322.19,56.86 96.22,37.9 178.35,91.36 246.39,160.37 68.04,69 120.52,152.59 157.45,250.76 36.93,98.17 55.4,207.5 55.4,328.02 0,120.52 -18.47,229.37 -55.4,326.57 -36.93,97.19 -89.42,180.29 -157.45,249.3 -68.04,69.01 -150.17,122.46 -246.39,160.37 -96.22,37.91 -203.62,56.85 -322.19,56.85 -118.57,0 -225.49,-18.95 -320.74,-56.85 -95.25,-37.91 -176.89,-91.36 -244.93,-160.37 -68.04,-69 -120.52,-152.1 -157.45,-249.3 -36.93,-97.19 -55.4,-206.05 -55.4,-326.57zm1828.19 -755.19l393.63 0 0 209.94 8.75 0c52.48,-85.53 120.52,-148.7 204.11,-189.53 83.58,-40.82 169.11,-61.23 256.59,-61.23 110.8,0 201.67,15.06 272.62,45.19 70.95,30.13 126.84,71.92 167.66,125.38 40.82,53.46 69.49,118.57 86.02,195.36 16.52,76.78 24.78,161.82 24.78,255.13l0 927.21 -414.04 0 0 -851.41c0,-124.41 -19.93,-217.22 -59.77,-278.45 -39.85,-61.23 -108.37,-91.85 -205.56,-91.85 -112.74,0 -194.39,33.53 -244.93,100.59 -50.54,67.06 -75.81,177.38 -75.81,330.94l0 790.17 -414.04 0 0 -1507.45z"/>
  <path class="fil2" d="M9941.59 7534.49l918.47 0c147.73,0 268.25,21.38 361.56,64.15 93.3,42.77 165.22,96.22 215.76,160.37 50.54,64.15 85.04,134.12 103.51,209.93 18.46,75.81 27.7,145.79 27.7,209.94 0,64.15 -9.24,133.64 -27.7,208.48 -18.47,74.84 -52.97,144.33 -103.51,208.48 -50.54,64.15 -122.46,117.12 -215.76,158.91 -93.31,41.8 -213.82,62.69 -361.56,62.69l-554 0 0 798.92 -364.47 0 0 -2081.86zm364.47 985.53l533.58 0c40.82,0 82.61,-5.83 125.38,-17.5 42.77,-11.67 82.13,-30.61 118.09,-56.86 35.96,-26.24 65.12,-61.23 87.47,-104.97 22.35,-43.74 33.53,-98.65 33.53,-164.74 0,-68.04 -9.72,-124.41 -29.16,-169.11 -19.44,-44.71 -45.68,-80.19 -78.72,-106.43 -33.05,-26.24 -70.95,-44.22 -113.72,-53.94 -42.76,-9.72 -88.44,-14.58 -137.04,-14.58l-539.42 0 0 688.12zm2796.22 761.01c0,40.82 5.35,69.98 16.04,87.48 10.69,17.49 31.59,26.24 62.69,26.24 0,0 11.66,0 34.99,0 13.61,0 29.16,-1.94 46.65,-5.83l0 230.35c-11.67,3.89 -26.73,8.26 -45.2,13.12 -18.46,4.86 -37.42,9.24 -56.86,13.12 -19.44,3.89 -38.87,6.8 -58.31,8.75 -19.44,1.94 -35.96,2.91 -49.57,2.91 -68.04,0 -124.41,-13.61 -169.11,-40.82 -44.71,-27.21 -73.87,-74.84 -87.47,-142.87 -66.09,64.15 -147.25,110.8 -243.47,139.96 -96.22,29.16 -189.04,43.74 -278.46,43.74 -68.03,0 -133.15,-9.23 -195.35,-27.7 -62.2,-18.47 -117.12,-45.68 -164.74,-81.64 -47.63,-35.96 -85.53,-81.64 -113.72,-137.04 -28.19,-55.4 -42.28,-120.03 -42.28,-193.9 0,-93.3 17.01,-169.11 51.03,-227.43 34.02,-58.31 78.72,-104 134.13,-137.04 55.4,-33.04 117.6,-56.85 186.61,-71.43 69.01,-14.58 138.5,-25.76 208.48,-33.53 60.26,-11.67 117.61,-19.93 172.03,-24.78 54.43,-4.86 102.54,-13.12 144.33,-24.79 41.8,-11.66 74.84,-29.64 99.14,-53.94 24.3,-24.3 36.45,-60.74 36.45,-109.34 0,-42.77 -10.21,-77.76 -30.62,-104.97 -20.41,-27.22 -45.68,-48.11 -75.81,-62.69 -30.13,-14.58 -63.66,-24.3 -100.59,-29.16 -36.93,-4.86 -71.93,-7.29 -104.97,-7.29 -93.31,0 -170.09,19.44 -230.35,58.31 -60.26,38.88 -94.28,99.14 -102.05,180.78l-332.4 0c5.83,-97.19 29.16,-177.86 69.98,-242.01 40.82,-64.15 92.82,-115.66 156,-154.54 63.17,-38.88 134.61,-66.09 214.31,-81.64 79.7,-15.55 161.34,-23.33 244.93,-23.33 73.87,0 146.76,7.78 218.68,23.33 71.93,15.55 136.56,40.82 193.9,75.81 57.34,34.99 103.51,80.19 138.5,135.58 34.99,55.4 52.48,122.95 52.48,202.65l0 775.59zm-332.4 -419.87c-50.54,33.05 -112.74,52.97 -186.61,59.78 -73.87,6.8 -147.74,17.01 -221.6,30.61 -34.99,5.83 -69.01,14.09 -102.06,24.78 -33.04,10.69 -62.2,25.27 -87.47,43.74 -25.27,18.47 -45.19,42.76 -59.77,72.89 -14.58,30.13 -21.87,66.58 -21.87,109.34 0,36.93 10.69,68.04 32.07,93.3 21.38,25.27 47.14,45.2 77.27,59.78 30.13,14.58 63.17,24.78 99.14,30.61 35.96,5.83 68.52,8.75 97.68,8.75 36.93,0 76.78,-4.86 119.55,-14.58 42.76,-9.72 83.1,-26.24 121,-49.57 37.91,-23.33 69.49,-52.97 94.76,-88.93 25.27,-35.96 37.91,-80.18 37.91,-132.67l0 -247.84zm524.84 -752.27l364.47 0 393.63 1125.49 5.83 0 381.97 -1125.49 346.98 0 -586.07 1589.09c-27.21,68.04 -53.94,133.15 -80.19,195.35 -26.24,62.2 -58.31,117.12 -96.22,164.74 -37.91,47.62 -85.04,85.53 -141.41,113.71 -56.37,28.19 -128.3,42.28 -215.77,42.28 -77.75,0 -154.54,-5.83 -230.35,-17.5l0 -279.91c27.22,3.89 53.46,8.26 78.73,13.12 25.27,4.86 51.51,7.29 78.72,7.29 38.88,0 70.95,-4.86 96.22,-14.58 25.27,-9.72 46.17,-23.81 62.69,-42.28 16.52,-18.47 30.61,-40.33 42.28,-65.61 11.66,-25.27 22.35,-54.43 32.07,-87.47l37.9 -116.63 -571.49 -1501.62z"/>
  <path class="fil3" d="M2114.82 6446.75c26.95,861.35 1782.65,1843.93 888.5,2867.73 -227.75,260.8 -563.46,448.04 -913.06,438 -255.91,-7.36 -635.5,-90.07 -888.28,-468.14 -41.75,-62.43 -80.05,-132.94 -113.74,-212.48 0,0 -49.23,-82.87 -79.35,-226.06 -55.15,-262.19 -46.25,-726.67 445.98,-1255.15 761.1,-817.11 659.95,-1143.9 659.95,-1143.9z"/>
  <path class="fil4" d="M2114.7 6608.2c25.32,809.19 1674.7,1732.26 834.7,2694.06 -213.96,245 -529.34,420.91 -857.77,411.48 -240.41,-6.91 -597.02,-84.61 -834.49,-439.79 -39.22,-58.65 -75.2,-124.89 -106.86,-199.61 0,0 -46.25,-77.85 -74.55,-212.37 -51.8,-246.31 -43.45,-682.67 418.97,-1179.14 715.01,-767.62 619.99,-1074.63 619.99,-1074.63z"/>
  <path class="fil3" d="M2125.86 7242.52c237.52,363.78 485.28,686.98 685.52,1009.35 0,0 70.93,125.69 112.47,288.8 22.74,89.26 16.96,193.08 -17.36,300.57 -58.09,181.93 -191.81,355.33 -347.55,465.95 -131.72,93.55 -288.44,151.57 -449.53,146.94 -138.79,-3.99 -331.94,-41.12 -490.22,-189.78 -177.8,-167.08 -265.88,-428.05 -259.57,-668.26 4.4,-166.75 57.85,-375.93 247.51,-610.31 418.43,-517.1 518.73,-743.26 518.73,-743.26z"/>
  <path class="fil5" d="M2127.89 7341.81c216.2,331.13 441.71,625.31 623.97,918.73 0,0 64.56,114.4 102.37,262.87 20.69,81.24 15.44,175.75 -15.8,273.59 -52.88,165.6 -174.59,323.43 -316.35,424.12 -119.89,85.15 -262.54,137.96 -409.17,133.75 -126.33,-3.64 -302.14,-37.43 -446.21,-172.75 -161.84,-152.08 -242.01,-389.62 -236.28,-608.26 4.01,-151.78 52.66,-342.18 225.29,-555.52 380.87,-470.68 472.16,-676.53 472.16,-676.53z"/>
  <path class="fil3" d="M2133.98 7763.52c151.98,232.76 310.5,439.56 438.62,645.81 0,0 45.38,80.42 71.96,184.78 14.55,57.11 10.85,123.54 -11.11,192.32 -37.17,116.41 -122.73,227.35 -222.37,298.13 -84.28,59.86 -184.56,96.98 -287.62,94.02 -88.8,-2.56 -212.39,-26.31 -313.66,-121.43 -113.76,-106.9 -170.12,-273.88 -166.09,-427.57 2.82,-106.69 37.02,-240.53 158.37,-390.5 267.73,-330.86 331.9,-475.56 331.9,-475.56z"/>
  <path class="fil6" d="M2135.95 7901.29c131.17,200.9 267.99,379.38 378.57,557.4 0,0 39.17,69.41 62.11,159.48 12.56,49.29 9.37,106.63 -9.58,165.99 -32.08,100.47 -105.93,196.22 -191.93,257.31 -72.74,51.67 -159.29,83.7 -248.25,81.15 -76.64,-2.21 -183.31,-22.71 -270.72,-104.81 -98.19,-92.27 -146.83,-236.39 -143.35,-369.04 2.43,-92.09 31.95,-207.61 136.69,-337.04 231.07,-285.56 286.46,-410.46 286.46,-410.46z"/>
  <path class="fil3" d="M2143.31 8262.52c53.59,82.07 109.49,155 154.67,227.72 0,0 16,28.36 25.37,65.16 5.13,20.14 3.83,43.56 -3.92,67.81 -13.11,41.05 -43.28,80.17 -78.41,105.13 -29.72,21.11 -65.08,34.2 -101.42,33.15 -31.31,-0.9 -74.89,-9.28 -110.6,-42.82 -40.11,-37.7 -59.99,-96.57 -58.57,-150.77 1,-37.62 13.06,-84.82 55.85,-137.7 94.4,-116.67 117.03,-167.69 117.03,-167.69z"/>
  <path class="fil7" d="M1069.22 8933.25c-193.97,424.83 -72.48,646.49 99.01,730.39 295.07,144.42 898,-135.86 1447.46,-611.45 345.71,-299.2 620.01,-613.41 728.65,-999.3 166.83,-592.61 -286.49,-637.63 -286.49,-637.63 0,0 -257.27,-6.67 -379.34,79.35 951.09,-102.21 524.76,818.41 -151.18,1461.42 -494.82,470.74 -1149.35,765.1 -1365.86,539.61 -199.12,-207.34 -92.26,-562.4 -92.26,-562.4z"/>
  <polygon class="fil8" points="14658.9,7531.39 15034.26,8066.26 15318.9,8066.26 14949.8,7528.26 "/>
  <polygon class="fil3" points="14664.62,8597.09 14947.74,8597.09 15318.9,8066.26 15034.26,8066.26 "/>
  <polygon class="fil7" points="15199.86,7670.2 15482.42,8072.84 15696.69,8072.84 15418.84,7667.85 "/>
  <polygon class="fil7" points="15204.17,8472.44 15417.29,8472.44 15696.69,8072.84 15482.42,8072.84 "/>
 </g>
</svg>
