<svg width="218" height="100" viewBox="0 0 218 100" fill="none" xmlns="http://www.w3.org/2000/svg">
<circle cx="144" cy="40.2001" r="16.6" fill="white" stroke="#FF9635" stroke-width="2"/>
<path d="M117.8 70.1999C117.8 66.9967 120.397 64.3999 123.6 64.3999H164.4C167.603 64.3999 170.2 66.9966 170.2 70.1999C170.2 80.9142 161.514 89.5999 150.8 89.5999H137.2C126.486 89.5999 117.8 80.9142 117.8 70.1999Z" fill="white" stroke="#FF9635" stroke-width="2"/>
<circle cx="74" cy="40.2001" r="16.6" fill="white" stroke="#FF9635" stroke-width="2"/>
<path d="M47.8 70.1999C47.8 66.9967 50.3968 64.3999 53.6001 64.3999H94.4001C97.6033 64.3999 100.2 66.9966 100.2 70.1999C100.2 80.9142 91.5144 89.5999 80.8 89.5999H67.2C56.4857 89.5999 47.8 80.9142 47.8 70.1999Z" fill="white" stroke="#FF9635" stroke-width="2"/>
<circle cx="109" cy="29" r="22" fill="#3063E9"/>
<path d="M75 66.5C75 61.8056 78.8056 58 83.5 58H134.5C139.194 58 143 61.8056 143 66.5C143 80.5833 131.583 92 117.5 92H100.5C86.4167 92 75 80.5833 75 66.5Z" fill="#3063E9"/>
</svg>
