<svg width="126" height="190" viewBox="0 0 126 190" fill="none" xmlns="http://www.w3.org/2000/svg">
<path d="M2.34616 0.919312C2.3016 0.45199 1.88663 0.109276 1.41931 0.153838C0.95199 0.198401 0.609276 0.613366 0.653838 1.08069L2.34616 0.919312ZM123.5 73L124.328 72.8083L123.5 73ZM57.0934 189.746C57.5057 189.971 58.0219 189.819 58.2464 189.407L61.9057 182.689C62.1303 182.276 61.9781 181.76 61.5659 181.535C61.1536 181.311 60.6374 181.463 60.4128 181.875L57.1601 187.847L51.1885 184.594C50.7763 184.37 50.26 184.522 50.0355 184.934C49.8109 185.346 49.9631 185.863 50.3754 186.087L57.0934 189.746ZM1.09654 4.61517C1.16961 5.07889 1.60477 5.39557 2.06849 5.32249C2.53221 5.24941 2.84889 4.81425 2.77581 4.35053L1.09654 4.61517ZM4.30064 10.7854C4.15221 10.34 3.67084 10.0993 3.22549 10.2478C2.78013 10.3962 2.53943 10.8776 2.68786 11.3229L4.30064 10.7854ZM5.71432 17.6894C5.97299 18.0812 6.50026 18.189 6.892 17.9304C7.28375 17.6717 7.39162 17.1444 7.13295 16.7527L5.71432 17.6894ZM11.5581 21.4647C11.181 21.1851 10.6487 21.2641 10.3691 21.6412C10.0895 22.0183 10.1685 22.5507 10.5456 22.8303L11.5581 21.4647ZM16.8409 26.0215C17.2871 26.1673 17.767 25.9238 17.9128 25.4775C18.0586 25.0313 17.815 24.5514 17.3688 24.4056L16.8409 26.0215ZM23.8828 25.7308C23.4159 25.6817 22.9977 26.0204 22.9487 26.4873C22.8996 26.9542 23.2383 27.3724 23.7052 27.4215L23.8828 25.7308ZM30.5997 27.6914C31.0691 27.6845 31.4439 27.2983 31.437 26.8289C31.43 26.3595 31.0439 25.9847 30.5745 25.9916L30.5997 27.6914ZM37.3508 25.6501C36.8828 25.6869 36.5333 26.0961 36.5701 26.5641C36.6069 27.0321 37.0162 27.3817 37.4842 27.3448L37.3508 25.6501ZM44.2943 26.6984C44.7611 26.6488 45.0993 26.2302 45.0498 25.7633C45.0002 25.2965 44.5816 24.9583 44.1147 25.0079L44.2943 26.6984ZM50.9111 24.2689C50.4443 24.319 50.1065 24.738 50.1566 25.2047C50.2066 25.6715 50.6256 26.0093 51.0924 25.9592L50.9111 24.2689ZM57.8653 25.2927C58.333 25.2524 58.6796 24.8407 58.6393 24.373C58.5991 23.9052 58.1873 23.5587 57.7196 23.5989L57.8653 25.2927ZM64.5675 23.1433C64.0985 23.1637 63.7349 23.5604 63.7553 24.0294C63.7757 24.4984 64.1725 24.8621 64.6415 24.8417L64.5675 23.1433ZM71.4089 24.753C71.8782 24.763 72.2668 24.3907 72.2768 23.9213C72.2868 23.452 71.9144 23.0634 71.4451 23.0534L71.4089 24.753ZM78.3339 23.4955C77.8674 23.4433 77.447 23.7793 77.3948 24.2459C77.3427 24.7124 77.6787 25.1328 78.1452 25.1849L78.3339 23.4955ZM84.7715 26.305C85.2287 26.4113 85.6856 26.1267 85.7918 25.6695C85.8981 25.2122 85.6136 24.7554 85.1563 24.6491L84.7715 26.305ZM91.7894 26.6869C91.352 26.5164 90.8592 26.7328 90.6887 27.1702C90.5182 27.6076 90.7346 28.1004 91.172 28.2708L91.7894 26.6869ZM97.1713 31.1787C97.5756 31.4173 98.0967 31.2829 98.3353 30.8786C98.5738 30.4743 98.4395 29.9531 98.0351 29.7146L97.1713 31.1787ZM103.711 33.7328C103.351 33.431 102.815 33.4778 102.513 33.8373C102.211 34.1968 102.258 34.733 102.618 35.0348L103.711 33.7328ZM107.4 39.737C107.709 40.0905 108.246 40.1266 108.599 39.8176C108.953 39.5087 108.989 38.9717 108.68 38.6183L107.4 39.737ZM112.875 44.1355C112.615 43.7443 112.088 43.6375 111.697 43.897C111.305 44.1564 111.199 44.6839 111.458 45.0751L112.875 44.1355ZM114.85 50.8787C115.065 51.296 115.578 51.4599 115.995 51.2449C116.412 51.0298 116.576 50.5172 116.361 50.0999L114.85 50.8787ZM119.243 56.3942C119.067 55.9594 118.571 55.7501 118.136 55.9269C117.701 56.1036 117.492 56.5995 117.669 57.0344L119.243 56.3942ZM119.961 63.3409C120.106 63.7874 120.585 64.032 121.032 63.8871C121.478 63.7422 121.723 63.2628 121.578 62.8163L119.961 63.3409ZM123.483 69.3636C123.365 68.9092 122.9 68.6367 122.446 68.7547C121.992 68.8728 121.719 69.3369 121.837 69.7912L123.483 69.3636ZM123.4 76.7571C123.482 77.2194 123.923 77.5281 124.385 77.4466C124.847 77.365 125.156 76.9241 125.075 76.4618L123.4 76.7571ZM125.92 83.7266C125.895 83.2578 125.495 82.8979 125.026 82.9228C124.557 82.9477 124.197 83.3479 124.222 83.8167L125.92 83.7266ZM124.091 90.9294C124.047 91.3968 124.39 91.8114 124.858 91.8554C125.325 91.8994 125.74 91.5563 125.784 91.0889L124.091 90.9294ZM124.491 98.3519C124.612 97.8983 124.343 97.4326 123.889 97.3117C123.435 97.1908 122.97 97.4605 122.849 97.9141L124.491 98.3519ZM120.443 104.576C120.247 105.003 120.433 105.508 120.859 105.704C121.286 105.901 121.791 105.714 121.987 105.288L120.443 104.576ZM118.374 111.71C118.635 111.32 118.53 110.792 118.14 110.531C117.75 110.27 117.222 110.375 116.961 110.765L118.374 111.71ZM112.605 116.405C112.295 116.757 112.33 117.295 112.683 117.604C113.035 117.914 113.572 117.879 113.882 117.527L112.605 116.405ZM108.76 122.772C109.104 122.452 109.123 121.914 108.804 121.57C108.484 121.227 107.946 121.207 107.602 121.527L108.76 122.772ZM102.161 126.216C101.795 126.51 101.737 127.045 102.032 127.411C102.326 127.777 102.861 127.834 103.227 127.54L102.161 126.216ZM97.4353 131.964C97.8144 131.687 97.8972 131.155 97.6202 130.776C97.3433 130.397 96.8115 130.314 96.4325 130.591L97.4353 131.964ZM90.5388 134.774C90.1533 135.042 90.0579 135.571 90.3257 135.957C90.5935 136.342 91.1232 136.438 91.5087 136.17L90.5388 134.774ZM85.5414 140.292C85.9274 140.024 86.0237 139.495 85.7565 139.109C85.4893 138.723 84.9598 138.627 84.5738 138.894L85.5414 140.292ZM78.6429 143.078C78.2629 143.353 78.1782 143.885 78.4538 144.265C78.7294 144.645 79.2609 144.729 79.6409 144.454L78.6429 143.078ZM73.8976 148.819C74.2633 148.525 74.3211 147.99 74.0267 147.624C73.7323 147.259 73.1972 147.201 72.8315 147.495L73.8976 148.819ZM67.3192 152.31C66.9806 152.635 66.9697 153.173 67.2949 153.512C67.6201 153.851 68.1581 153.862 68.4967 153.536L67.3192 152.31ZM63.6863 158.783C63.9774 158.415 63.915 157.88 63.5467 157.589C63.1785 157.298 62.6439 157.36 62.3528 157.728L63.6863 158.783ZM58.3236 163.933C58.1097 164.351 58.275 164.863 58.6929 165.077C59.1108 165.291 59.6229 165.126 59.8368 164.708L58.3236 163.933ZM57.3993 171.294C57.5069 170.837 57.2236 170.38 56.7666 170.272C56.3097 170.165 55.8521 170.448 55.7445 170.905L57.3993 171.294ZM54.9409 178.273C54.9452 178.743 55.3293 179.12 55.7987 179.116C56.2682 179.111 56.6452 178.727 56.6408 178.258L54.9409 178.273ZM57.4328 185.27C57.3365 184.81 56.8859 184.516 56.4265 184.612C55.967 184.709 55.6726 185.159 55.7689 185.619L57.4328 185.27ZM0.653838 1.08069C0.771183 2.31127 0.91902 3.48874 1.09654 4.61517L2.77581 4.35053C2.60405 3.26061 2.46043 2.11766 2.34616 0.919312L0.653838 1.08069ZM2.68786 11.3229C3.50085 13.7622 4.51444 15.8723 5.71432 17.6894L7.13295 16.7527C6.0246 15.0742 5.07252 13.1013 4.30064 10.7854L2.68786 11.3229ZM10.5456 22.8303C12.4449 24.2386 14.5578 25.2757 16.8409 26.0215L17.3688 24.4056C15.235 23.7085 13.291 22.7495 11.5581 21.4647L10.5456 22.8303ZM23.7052 27.4215C25.9081 27.6529 28.2143 27.7267 30.5997 27.6914L30.5745 25.9916C28.2385 26.0262 26.0023 25.9534 23.8828 25.7308L23.7052 27.4215ZM37.4842 27.3448C39.7078 27.1699 41.9836 26.9438 44.2943 26.6984L44.1147 25.0079C41.8103 25.2527 39.552 25.4769 37.3508 25.6501L37.4842 27.3448ZM51.0924 25.9592C53.3333 25.7189 55.5941 25.488 57.8653 25.2927L57.7196 23.5989C55.4313 23.7958 53.157 24.028 50.9111 24.2689L51.0924 25.9592ZM64.6415 24.8417C66.9042 24.7431 69.1636 24.7052 71.4089 24.753L71.4451 23.0534C69.1568 23.0047 66.8601 23.0435 64.5675 23.1433L64.6415 24.8417ZM78.1452 25.1849C80.3854 25.4352 82.5979 25.7999 84.7715 26.305L85.1563 24.6491C82.9109 24.1273 80.6323 23.7522 78.3339 23.4955L78.1452 25.1849ZM91.172 28.2708C93.223 29.0703 95.2264 30.0312 97.1713 31.1787L98.0351 29.7146C96.0075 28.5182 93.9213 27.5179 91.7894 26.6869L91.172 28.2708ZM102.618 35.0348C104.269 36.4209 105.866 37.9817 107.4 39.737L108.68 38.6183C107.089 36.7984 105.43 35.1761 103.711 33.7328L102.618 35.0348ZM111.458 45.0751C112.64 46.8562 113.772 48.7868 114.85 50.8787L116.361 50.0999C115.256 47.9557 114.092 45.9711 112.875 44.1355L111.458 45.0751ZM117.669 57.0344C118.474 59.0168 119.24 61.1168 119.961 63.3409L121.578 62.8163C120.845 60.5555 120.066 58.4168 119.243 56.3942L117.669 57.0344ZM121.837 69.7912C122.125 70.8982 122.403 72.0315 122.672 73.1917L124.328 72.8083C124.056 71.6337 123.774 70.4856 123.483 69.3636L121.837 69.7912ZM122.672 73.1917C122.953 74.4043 123.195 75.5925 123.4 76.7571L125.075 76.4618C124.864 75.2668 124.615 74.0492 124.328 72.8083L122.672 73.1917ZM124.222 83.8167C124.354 86.3011 124.304 88.6685 124.091 90.9294L125.784 91.0889C126.005 88.7419 126.056 86.291 125.92 83.7266L124.222 83.8167ZM122.849 97.9141C122.226 100.25 121.416 102.466 120.443 104.576L121.987 105.288C122.999 103.092 123.843 100.785 124.491 98.3519L122.849 97.9141ZM116.961 110.765C115.645 112.733 114.184 114.607 112.605 116.405L113.882 117.527C115.504 115.68 117.012 113.746 118.374 111.71L116.961 110.765ZM107.602 121.527C105.864 123.144 104.042 124.702 102.161 126.216L103.227 127.54C105.134 126.006 106.988 124.421 108.76 122.772L107.602 121.527ZM96.4325 130.591C94.4898 132.01 92.5172 133.399 90.5388 134.774L91.5087 136.17C93.4925 134.792 95.4773 133.394 97.4353 131.964L96.4325 130.591ZM84.5738 138.894C82.5661 140.284 80.579 141.674 78.6429 143.078L79.6409 144.454C81.5621 143.061 83.5373 141.679 85.5414 140.292L84.5738 138.894ZM72.8315 147.495C70.8927 149.056 69.043 150.655 67.3192 152.31L68.4967 153.536C70.1774 151.922 71.9883 150.357 73.8976 148.819L72.8315 147.495ZM62.3528 157.728C60.7996 159.693 59.44 161.753 58.3236 163.933L59.8368 164.708C60.8959 162.639 62.1922 160.672 63.6863 158.783L62.3528 157.728ZM55.7445 170.905C55.1973 173.23 54.9168 175.68 54.9409 178.273L56.6408 178.258C56.618 175.798 56.8839 173.485 57.3993 171.294L55.7445 170.905ZM55.7689 185.619C56.0162 186.799 56.3207 188.005 56.6847 189.24L58.3153 188.76C57.9636 187.566 57.6704 186.404 57.4328 185.27L55.7689 185.619Z" fill="#3063E9"/>
</svg>
