<svg width="80" height="94" viewBox="0 0 80 94" fill="none" xmlns="http://www.w3.org/2000/svg">
<ellipse cx="40" cy="83.5996" rx="40" ry="10" fill="#FF9635"/>
<rect y="80" width="80" height="3.2" fill="#FF9635"/>
<path d="M9.59998 89.6855L9.59998 85.7868" stroke="#303778" stroke-width="0.16"/>
<path d="M7.19995 88.7969L7.19995 84.8944" stroke="#303778" stroke-width="0.16"/>
<path d="M5.19995 87.9004L5.19995 83.9941" stroke="#303778" stroke-width="0.16"/>
<path d="M3.19995 86.7637L3.19995 82.8573" stroke="#303778" stroke-width="0.16"/>
<path d="M1.59998 85.5122L1.59998 81.6021" stroke="#303778" stroke-width="0.16"/>
<path d="M38.4 93.5918L38.4 89.6931" stroke="#303778" stroke-width="0.16"/>
<path d="M36 93.5478L36 89.6318" stroke="#303778" stroke-width="0.16"/>
<path d="M33.6 93.4546L33.6 89.5483" stroke="#303778" stroke-width="0.16"/>
<path d="M31.2 93.3247L31.2 89.4184" stroke="#303778" stroke-width="0.16"/>
<path d="M28.8 93.1533L28.8 89.2355" stroke="#303778" stroke-width="0.16"/>
<path d="M26.4 92.9282L26.4 89.0295" stroke="#303778" stroke-width="0.16"/>
<path d="M24 92.665L24 88.7511" stroke="#303778" stroke-width="0.16"/>
<path d="M21.6 92.3481L21.6 88.438" stroke="#303778" stroke-width="0.16"/>
<path d="M19.2 91.9629L19.2 88.0489" stroke="#303778" stroke-width="0.16"/>
<path d="M16.8 91.5205L16.8 87.6142" stroke="#303778" stroke-width="0.16"/>
<path d="M14.4 90.998L14.4 87.0803" stroke="#303778" stroke-width="0.16"/>
<path d="M12 90.3877L12 86.4852" stroke="#303778" stroke-width="0.16"/>
<path d="M69.6 89.918L69.6 86.0002" stroke="#303778" stroke-width="0.16"/>
<path d="M72 89.1133L72 85.1917" stroke="#303778" stroke-width="0.16"/>
<path d="M74 88.2969L74 84.3676" stroke="#303778" stroke-width="0.16"/>
<path d="M76 87.252L76 83.3456" stroke="#303778" stroke-width="0.16"/>
<path d="M77.6 86.2114L77.6 82.281" stroke="#303778" stroke-width="0.16"/>
<path d="M79.2 84.6055L79.2 80.3282" stroke="#303778" stroke-width="0.16"/>
<path d="M40.8 93.5996L40.8 89.693" stroke="#303778" stroke-width="0.16"/>
<path d="M43.2 93.5566L43.2 89.6439" stroke="#303778" stroke-width="0.16"/>
<path d="M45.6 93.4927L45.6 89.5749" stroke="#303778" stroke-width="0.16"/>
<path d="M48 93.3784L48 89.4683" stroke="#303778" stroke-width="0.16"/>
<path d="M50.4 93.2144L50.4 89.3042" stroke="#303778" stroke-width="0.16"/>
<path d="M52.8 93.0156L52.8 89.0902" stroke="#303778" stroke-width="0.16"/>
<path d="M55.2 92.7642L55.2 88.8349" stroke="#303778" stroke-width="0.16"/>
<path d="M57.6 92.459L57.6 88.5221" stroke="#303778" stroke-width="0.16"/>
<path d="M60 92.0967L60 88.1822" stroke="#303778" stroke-width="0.16"/>
<path d="M62.4 91.6694L62.4 87.7572" stroke="#303778" stroke-width="0.16"/>
<path d="M64.8 91.1812L64.8 87.2519" stroke="#303778" stroke-width="0.16"/>
<path d="M67.2 90.6089L67.2 86.6873" stroke="#303778" stroke-width="0.16"/>
<ellipse cx="40" cy="79.5999" rx="40" ry="9.2" fill="#3063E9"/>
<ellipse cx="40" cy="77.1997" rx="40" ry="10" fill="#FF9635"/>
<rect y="73.5996" width="80" height="3.2" fill="#FF9635"/>
<path d="M9.59998 83.2856L9.59998 79.3869" stroke="#303778" stroke-width="0.16"/>
<path d="M7.19995 82.3965L7.19995 78.494" stroke="#303778" stroke-width="0.16"/>
<path d="M5.19995 81.5L5.19995 77.5937" stroke="#303778" stroke-width="0.16"/>
<path d="M3.19995 80.3633L3.19995 76.4569" stroke="#303778" stroke-width="0.16"/>
<path d="M1.59998 79.1123L1.59998 75.2022" stroke="#303778" stroke-width="0.16"/>
<path d="M38.4 87.1919L38.4 83.2932" stroke="#303778" stroke-width="0.16"/>
<path d="M36 87.1479L36 83.2319" stroke="#303778" stroke-width="0.16"/>
<path d="M33.6 87.0547L33.6 83.1483" stroke="#303778" stroke-width="0.16"/>
<path d="M31.2 86.9248L31.2 83.0185" stroke="#303778" stroke-width="0.16"/>
<path d="M28.8 86.7534L28.8 82.8356" stroke="#303778" stroke-width="0.16"/>
<path d="M26.4 86.5283L26.4 82.6296" stroke="#303778" stroke-width="0.16"/>
<path d="M24 86.2651L24 82.3512" stroke="#303778" stroke-width="0.16"/>
<path d="M21.6 85.9482L21.6 82.0381" stroke="#303778" stroke-width="0.16"/>
<path d="M19.2 85.563L19.2 81.649" stroke="#303778" stroke-width="0.16"/>
<path d="M16.8 85.1206L16.8 81.2143" stroke="#303778" stroke-width="0.16"/>
<path d="M14.4 84.5977L14.4 80.6799" stroke="#303778" stroke-width="0.16"/>
<path d="M12 83.9878L12 80.0853" stroke="#303778" stroke-width="0.16"/>
<path d="M69.6 83.5181L69.6 79.6003" stroke="#303778" stroke-width="0.16"/>
<path d="M72 82.7134L72 78.7918" stroke="#303778" stroke-width="0.16"/>
<path d="M74 81.897L74 77.9677" stroke="#303778" stroke-width="0.16"/>
<path d="M76 80.8516L76 76.9452" stroke="#303778" stroke-width="0.16"/>
<path d="M77.6 79.8115L77.6 75.8811" stroke="#303778" stroke-width="0.16"/>
<path d="M79.2 78.2052L79.2 73.9278" stroke="#303778" stroke-width="0.16"/>
<path d="M40.8 87.1997L40.8 83.2931" stroke="#303778" stroke-width="0.16"/>
<path d="M43.2 87.1562L43.2 83.2435" stroke="#303778" stroke-width="0.16"/>
<path d="M45.6 87.0928L45.6 83.175" stroke="#303778" stroke-width="0.16"/>
<path d="M48 86.9785L48 83.0684" stroke="#303778" stroke-width="0.16"/>
<path d="M50.4 86.8145L50.4 82.9043" stroke="#303778" stroke-width="0.16"/>
<path d="M52.8 86.6157L52.8 82.6903" stroke="#303778" stroke-width="0.16"/>
<path d="M55.2 86.3643L55.2 82.435" stroke="#303778" stroke-width="0.16"/>
<path d="M57.6 86.0586L57.6 82.1217" stroke="#303778" stroke-width="0.16"/>
<path d="M60 85.6968L60 81.7823" stroke="#303778" stroke-width="0.16"/>
<path d="M62.4 85.2695L62.4 81.3573" stroke="#303778" stroke-width="0.16"/>
<path d="M64.8 84.7812L64.8 80.852" stroke="#303778" stroke-width="0.16"/>
<path d="M67.2 84.209L67.2 80.2874" stroke="#303778" stroke-width="0.16"/>
<ellipse cx="40" cy="73.2" rx="40" ry="9.2" fill="#3063E9"/>
<ellipse cx="40" cy="70.7998" rx="40" ry="10" fill="#FF9635"/>
<rect y="67.1997" width="80" height="3.2" fill="#FF9635"/>
<path d="M9.59998 76.8857L9.59998 72.987" stroke="#303778" stroke-width="0.16"/>
<path d="M7.19995 75.9966L7.19995 72.0941" stroke="#303778" stroke-width="0.16"/>
<path d="M5.19995 75.1001L5.19995 71.1938" stroke="#303778" stroke-width="0.16"/>
<path d="M3.19995 73.9634L3.19995 70.057" stroke="#303778" stroke-width="0.16"/>
<path d="M1.59998 72.7124L1.59998 68.8022" stroke="#303778" stroke-width="0.16"/>
<path d="M38.4 80.792L38.4 76.8933" stroke="#303778" stroke-width="0.16"/>
<path d="M36 80.748L36 76.832" stroke="#303778" stroke-width="0.16"/>
<path d="M33.6 80.6543L33.6 76.748" stroke="#303778" stroke-width="0.16"/>
<path d="M31.2 80.5249L31.2 76.6186" stroke="#303778" stroke-width="0.16"/>
<path d="M28.8 80.3535L28.8 76.4357" stroke="#303778" stroke-width="0.16"/>
<path d="M26.4 80.1284L26.4 76.2297" stroke="#303778" stroke-width="0.16"/>
<path d="M24 79.8652L24 75.9513" stroke="#303778" stroke-width="0.16"/>
<path d="M21.6 79.5483L21.6 75.6382" stroke="#303778" stroke-width="0.16"/>
<path d="M19.2 79.1631L19.2 75.2491" stroke="#303778" stroke-width="0.16"/>
<path d="M16.8 78.7207L16.8 74.8144" stroke="#303778" stroke-width="0.16"/>
<path d="M14.4 78.1978L14.4 74.28" stroke="#303778" stroke-width="0.16"/>
<path d="M12 77.5879L12 73.6854" stroke="#303778" stroke-width="0.16"/>
<path d="M69.6 77.1182L69.6 73.2004" stroke="#303778" stroke-width="0.16"/>
<path d="M72 76.3135L72 72.3919" stroke="#303778" stroke-width="0.16"/>
<path d="M74 75.4971L74 71.5678" stroke="#303778" stroke-width="0.16"/>
<path d="M76 74.4517L76 70.5453" stroke="#303778" stroke-width="0.16"/>
<path d="M77.6 73.4116L77.6 69.4812" stroke="#303778" stroke-width="0.16"/>
<path d="M79.2 71.8052L79.2 67.5279" stroke="#303778" stroke-width="0.16"/>
<path d="M40.8 80.7998L40.8 76.8932" stroke="#303778" stroke-width="0.16"/>
<path d="M43.2 80.7563L43.2 76.8436" stroke="#303778" stroke-width="0.16"/>
<path d="M45.6 80.6929L45.6 76.7751" stroke="#303778" stroke-width="0.16"/>
<path d="M48 80.5781L48 76.668" stroke="#303778" stroke-width="0.16"/>
<path d="M50.4 80.4141L50.4 76.5039" stroke="#303778" stroke-width="0.16"/>
<path d="M52.8 80.2158L52.8 76.2904" stroke="#303778" stroke-width="0.16"/>
<path d="M55.2 79.9644L55.2 76.0351" stroke="#303778" stroke-width="0.16"/>
<path d="M57.6 79.6587L57.6 75.7218" stroke="#303778" stroke-width="0.16"/>
<path d="M60 79.2969L60 75.3824" stroke="#303778" stroke-width="0.16"/>
<path d="M62.4 78.8691L62.4 74.9569" stroke="#303778" stroke-width="0.16"/>
<path d="M64.8 78.3809L64.8 74.4516" stroke="#303778" stroke-width="0.16"/>
<path d="M67.2 77.8086L67.2 73.887" stroke="#303778" stroke-width="0.16"/>
<ellipse cx="40" cy="66.7996" rx="40" ry="9.2" fill="#3063E9"/>
<ellipse cx="40" cy="64.3999" rx="40" ry="10" fill="#FF9635"/>
<rect y="60.7998" width="80" height="3.2" fill="#FF9635"/>
<path d="M9.59998 70.4858L9.59998 66.5871" stroke="#303778" stroke-width="0.16"/>
<path d="M7.19995 69.5967L7.19995 65.6942" stroke="#303778" stroke-width="0.16"/>
<path d="M5.19995 68.7002L5.19995 64.7939" stroke="#303778" stroke-width="0.16"/>
<path d="M3.19995 67.5635L3.19995 63.6571" stroke="#303778" stroke-width="0.16"/>
<path d="M1.59998 66.3125L1.59998 62.4023" stroke="#303778" stroke-width="0.16"/>
<path d="M38.4 74.3921L38.4 70.4934" stroke="#303778" stroke-width="0.16"/>
<path d="M36 74.3476L36 70.4316" stroke="#303778" stroke-width="0.16"/>
<path d="M33.6 74.2544L33.6 70.3481" stroke="#303778" stroke-width="0.16"/>
<path d="M31.2 74.125L31.2 70.2187" stroke="#303778" stroke-width="0.16"/>
<path d="M28.8 73.9531L28.8 70.0353" stroke="#303778" stroke-width="0.16"/>
<path d="M26.4 73.7285L26.4 69.8298" stroke="#303778" stroke-width="0.16"/>
<path d="M24 73.4648L24 69.5509" stroke="#303778" stroke-width="0.16"/>
<path d="M21.6 73.1484L21.6 69.2383" stroke="#303778" stroke-width="0.16"/>
<path d="M19.2 72.7632L19.2 68.8492" stroke="#303778" stroke-width="0.16"/>
<path d="M16.8 72.3203L16.8 68.414" stroke="#303778" stroke-width="0.16"/>
<path d="M14.4 71.7979L14.4 67.8801" stroke="#303778" stroke-width="0.16"/>
<path d="M12 71.1875L12 67.285" stroke="#303778" stroke-width="0.16"/>
<path d="M69.6 70.7183L69.6 66.8005" stroke="#303778" stroke-width="0.16"/>
<path d="M72 69.9136L72 65.992" stroke="#303778" stroke-width="0.16"/>
<path d="M74 69.0972L74 65.1679" stroke="#303778" stroke-width="0.16"/>
<path d="M76 68.0518L76 64.1454" stroke="#303778" stroke-width="0.16"/>
<path d="M77.6 67.0117L77.6 63.0813" stroke="#303778" stroke-width="0.16"/>
<path d="M79.2 65.4053L79.2 61.128" stroke="#303778" stroke-width="0.16"/>
<path d="M40.8 74.3999L40.8 70.4933" stroke="#303778" stroke-width="0.16"/>
<path d="M43.2 74.3564L43.2 70.4437" stroke="#303778" stroke-width="0.16"/>
<path d="M45.6 74.293L45.6 70.3752" stroke="#303778" stroke-width="0.16"/>
<path d="M48 74.1782L48 70.2681" stroke="#303778" stroke-width="0.16"/>
<path d="M50.4 74.0142L50.4 70.104" stroke="#303778" stroke-width="0.16"/>
<path d="M52.8 73.8159L52.8 69.8905" stroke="#303778" stroke-width="0.16"/>
<path d="M55.2 73.5645L55.2 69.6352" stroke="#303778" stroke-width="0.16"/>
<path d="M57.6 73.2588L57.6 69.3219" stroke="#303778" stroke-width="0.16"/>
<path d="M60 72.8965L60 68.982" stroke="#303778" stroke-width="0.16"/>
<path d="M62.4 72.4692L62.4 68.557" stroke="#303778" stroke-width="0.16"/>
<path d="M64.8 71.981L64.8 68.0517" stroke="#303778" stroke-width="0.16"/>
<path d="M67.2 71.4087L67.2 67.4871" stroke="#303778" stroke-width="0.16"/>
<ellipse cx="40" cy="60.3997" rx="40" ry="9.2" fill="#3063E9"/>
<ellipse cx="40" cy="58" rx="40" ry="10" fill="#FF9635"/>
<rect y="54.3999" width="80" height="3.2" fill="#FF9635"/>
<path d="M9.59998 64.0859L9.59998 60.1872" stroke="#303778" stroke-width="0.16"/>
<path d="M7.19995 63.1968L7.19995 59.2943" stroke="#303778" stroke-width="0.16"/>
<path d="M5.19995 62.3003L5.19995 58.394" stroke="#303778" stroke-width="0.16"/>
<path d="M3.19995 61.1636L3.19995 57.2572" stroke="#303778" stroke-width="0.16"/>
<path d="M1.59998 59.9121L1.59998 56.002" stroke="#303778" stroke-width="0.16"/>
<path d="M38.4 67.9922L38.4 64.0935" stroke="#303778" stroke-width="0.16"/>
<path d="M36 67.9477L36 64.0317" stroke="#303778" stroke-width="0.16"/>
<path d="M33.6 67.8545L33.6 63.9482" stroke="#303778" stroke-width="0.16"/>
<path d="M31.2 67.7246L31.2 63.8183" stroke="#303778" stroke-width="0.16"/>
<path d="M28.8 67.5532L28.8 63.6354" stroke="#303778" stroke-width="0.16"/>
<path d="M26.4 67.3281L26.4 63.4294" stroke="#303778" stroke-width="0.16"/>
<path d="M24 67.0649L24 63.151" stroke="#303778" stroke-width="0.16"/>
<path d="M21.6 66.748L21.6 62.8379" stroke="#303778" stroke-width="0.16"/>
<path d="M19.2 66.3633L19.2 62.4493" stroke="#303778" stroke-width="0.16"/>
<path d="M16.8 65.9204L16.8 62.0141" stroke="#303778" stroke-width="0.16"/>
<path d="M14.4 65.3979L14.4 61.4802" stroke="#303778" stroke-width="0.16"/>
<path d="M12 64.7876L12 60.8851" stroke="#303778" stroke-width="0.16"/>
<path d="M69.6 64.3184L69.6 60.4006" stroke="#303778" stroke-width="0.16"/>
<path d="M72 63.5137L72 59.5921" stroke="#303778" stroke-width="0.16"/>
<path d="M74 62.6973L74 58.768" stroke="#303778" stroke-width="0.16"/>
<path d="M76 61.6519L76 57.7455" stroke="#303778" stroke-width="0.16"/>
<path d="M77.6 60.6113L77.6 56.6809" stroke="#303778" stroke-width="0.16"/>
<path d="M79.2 59.0054L79.2 54.7281" stroke="#303778" stroke-width="0.16"/>
<path d="M40.8 68L40.8 64.0934" stroke="#303778" stroke-width="0.16"/>
<path d="M43.2 67.9565L43.2 64.0438" stroke="#303778" stroke-width="0.16"/>
<path d="M45.6 67.8926L45.6 63.9748" stroke="#303778" stroke-width="0.16"/>
<path d="M48 67.7783L48 63.8682" stroke="#303778" stroke-width="0.16"/>
<path d="M50.4 67.6143L50.4 63.7041" stroke="#303778" stroke-width="0.16"/>
<path d="M52.8 67.416L52.8 63.4906" stroke="#303778" stroke-width="0.16"/>
<path d="M55.2 67.1641L55.2 63.2348" stroke="#303778" stroke-width="0.16"/>
<path d="M57.6 66.8589L57.6 62.922" stroke="#303778" stroke-width="0.16"/>
<path d="M60 66.4966L60 62.5821" stroke="#303778" stroke-width="0.16"/>
<path d="M62.4 66.0693L62.4 62.1571" stroke="#303778" stroke-width="0.16"/>
<path d="M64.8 65.5811L64.8 61.6518" stroke="#303778" stroke-width="0.16"/>
<path d="M67.2 65.0088L67.2 61.0872" stroke="#303778" stroke-width="0.16"/>
<ellipse cx="40" cy="53.9998" rx="40" ry="9.2" fill="#3063E9"/>
<ellipse cx="40" cy="51.5996" rx="40" ry="10" fill="#FF9635"/>
<rect y="48" width="80" height="3.2" fill="#FF9635"/>
<path d="M9.59998 57.6855L9.59998 53.7868" stroke="#303778" stroke-width="0.16"/>
<path d="M7.19995 56.7969L7.19995 52.8944" stroke="#303778" stroke-width="0.16"/>
<path d="M5.19995 55.9004L5.19995 51.9941" stroke="#303778" stroke-width="0.16"/>
<path d="M3.19995 54.7637L3.19995 50.8573" stroke="#303778" stroke-width="0.16"/>
<path d="M1.59998 53.5122L1.59998 49.6021" stroke="#303778" stroke-width="0.16"/>
<path d="M38.4 61.5918L38.4 57.6931" stroke="#303778" stroke-width="0.16"/>
<path d="M36 61.5478L36 57.6318" stroke="#303778" stroke-width="0.16"/>
<path d="M33.6 61.4546L33.6 57.5483" stroke="#303778" stroke-width="0.16"/>
<path d="M31.2 61.3247L31.2 57.4184" stroke="#303778" stroke-width="0.16"/>
<path d="M28.8 61.1533L28.8 57.2355" stroke="#303778" stroke-width="0.16"/>
<path d="M26.4 60.9282L26.4 57.0295" stroke="#303778" stroke-width="0.16"/>
<path d="M24 60.665L24 56.7511" stroke="#303778" stroke-width="0.16"/>
<path d="M21.6 60.3481L21.6 56.438" stroke="#303778" stroke-width="0.16"/>
<path d="M19.2 59.9629L19.2 56.0489" stroke="#303778" stroke-width="0.16"/>
<path d="M16.8 59.5205L16.8 55.6142" stroke="#303778" stroke-width="0.16"/>
<path d="M14.4 58.998L14.4 55.0803" stroke="#303778" stroke-width="0.16"/>
<path d="M12 58.3877L12 54.4852" stroke="#303778" stroke-width="0.16"/>
<path d="M69.6 57.918L69.6 54.0002" stroke="#303778" stroke-width="0.16"/>
<path d="M72 57.1133L72 53.1917" stroke="#303778" stroke-width="0.16"/>
<path d="M74 56.2969L74 52.3676" stroke="#303778" stroke-width="0.16"/>
<path d="M76 55.252L76 51.3456" stroke="#303778" stroke-width="0.16"/>
<path d="M77.6 54.2114L77.6 50.281" stroke="#303778" stroke-width="0.16"/>
<path d="M79.2 52.6055L79.2 48.3282" stroke="#303778" stroke-width="0.16"/>
<path d="M40.8 61.5996L40.8 57.693" stroke="#303778" stroke-width="0.16"/>
<path d="M43.2 61.5566L43.2 57.6439" stroke="#303778" stroke-width="0.16"/>
<path d="M45.6 61.4927L45.6 57.5749" stroke="#303778" stroke-width="0.16"/>
<path d="M48 61.3784L48 57.4683" stroke="#303778" stroke-width="0.16"/>
<path d="M50.4 61.2144L50.4 57.3042" stroke="#303778" stroke-width="0.16"/>
<path d="M52.8 61.0156L52.8 57.0902" stroke="#303778" stroke-width="0.16"/>
<path d="M55.2 60.7642L55.2 56.8349" stroke="#303778" stroke-width="0.16"/>
<path d="M57.6 60.459L57.6 56.5221" stroke="#303778" stroke-width="0.16"/>
<path d="M60 60.0967L60 56.1822" stroke="#303778" stroke-width="0.16"/>
<path d="M62.4 59.6694L62.4 55.7572" stroke="#303778" stroke-width="0.16"/>
<path d="M64.8 59.1812L64.8 55.2519" stroke="#303778" stroke-width="0.16"/>
<path d="M67.2 58.6089L67.2 54.6873" stroke="#303778" stroke-width="0.16"/>
<ellipse cx="40" cy="47.5999" rx="40" ry="9.2" fill="#3063E9"/>
<ellipse cx="40" cy="45.1997" rx="40" ry="10" fill="#FF9635"/>
<rect y="41.5996" width="80" height="3.2" fill="#FF9635"/>
<path d="M9.59998 51.2856L9.59998 47.3869" stroke="#303778" stroke-width="0.16"/>
<path d="M7.19995 50.3965L7.19995 46.494" stroke="#303778" stroke-width="0.16"/>
<path d="M5.19995 49.5L5.19995 45.5937" stroke="#303778" stroke-width="0.16"/>
<path d="M3.19995 48.3633L3.19995 44.4569" stroke="#303778" stroke-width="0.16"/>
<path d="M1.59998 47.1123L1.59998 43.2022" stroke="#303778" stroke-width="0.16"/>
<path d="M38.4 55.1919L38.4 51.2932" stroke="#303778" stroke-width="0.16"/>
<path d="M36 55.1479L36 51.2319" stroke="#303778" stroke-width="0.16"/>
<path d="M33.6 55.0547L33.6 51.1483" stroke="#303778" stroke-width="0.16"/>
<path d="M31.2 54.9248L31.2 51.0185" stroke="#303778" stroke-width="0.16"/>
<path d="M28.8 54.7534L28.8 50.8356" stroke="#303778" stroke-width="0.16"/>
<path d="M26.4 54.5283L26.4 50.6296" stroke="#303778" stroke-width="0.16"/>
<path d="M24 54.2651L24 50.3512" stroke="#303778" stroke-width="0.16"/>
<path d="M21.6 53.9482L21.6 50.0381" stroke="#303778" stroke-width="0.16"/>
<path d="M19.2 53.563L19.2 49.649" stroke="#303778" stroke-width="0.16"/>
<path d="M16.8 53.1206L16.8 49.2143" stroke="#303778" stroke-width="0.16"/>
<path d="M14.4 52.5977L14.4 48.6799" stroke="#303778" stroke-width="0.16"/>
<path d="M12 51.9878L12 48.0853" stroke="#303778" stroke-width="0.16"/>
<path d="M69.6 51.5181L69.6 47.6003" stroke="#303778" stroke-width="0.16"/>
<path d="M72 50.7134L72 46.7918" stroke="#303778" stroke-width="0.16"/>
<path d="M74 49.897L74 45.9677" stroke="#303778" stroke-width="0.16"/>
<path d="M76 48.8516L76 44.9452" stroke="#303778" stroke-width="0.16"/>
<path d="M77.6 47.8115L77.6 43.8811" stroke="#303778" stroke-width="0.16"/>
<path d="M79.2 46.2052L79.2 41.9278" stroke="#303778" stroke-width="0.16"/>
<path d="M40.8 55.1997L40.8 51.2931" stroke="#303778" stroke-width="0.16"/>
<path d="M43.2 55.1562L43.2 51.2435" stroke="#303778" stroke-width="0.16"/>
<path d="M45.6 55.0928L45.6 51.175" stroke="#303778" stroke-width="0.16"/>
<path d="M48 54.9785L48 51.0684" stroke="#303778" stroke-width="0.16"/>
<path d="M50.4 54.8145L50.4 50.9043" stroke="#303778" stroke-width="0.16"/>
<path d="M52.8 54.6157L52.8 50.6903" stroke="#303778" stroke-width="0.16"/>
<path d="M55.2 54.3643L55.2 50.435" stroke="#303778" stroke-width="0.16"/>
<path d="M57.6 54.0586L57.6 50.1217" stroke="#303778" stroke-width="0.16"/>
<path d="M60 53.6968L60 49.7823" stroke="#303778" stroke-width="0.16"/>
<path d="M62.4 53.2695L62.4 49.3573" stroke="#303778" stroke-width="0.16"/>
<path d="M64.8 52.7812L64.8 48.852" stroke="#303778" stroke-width="0.16"/>
<path d="M67.2 52.209L67.2 48.2874" stroke="#303778" stroke-width="0.16"/>
<ellipse cx="40" cy="41.2" rx="40" ry="9.2" fill="#3063E9"/>
<ellipse cx="40" cy="38.7998" rx="40" ry="10" fill="#FF9635"/>
<rect y="35.1997" width="80" height="3.2" fill="#FF9635"/>
<path d="M9.59998 44.8857L9.59998 40.987" stroke="#303778" stroke-width="0.16"/>
<path d="M7.19995 43.9966L7.19995 40.0941" stroke="#303778" stroke-width="0.16"/>
<path d="M5.19995 43.1001L5.19995 39.1938" stroke="#303778" stroke-width="0.16"/>
<path d="M3.19995 41.9634L3.19995 38.057" stroke="#303778" stroke-width="0.16"/>
<path d="M1.59998 40.7124L1.59998 36.8022" stroke="#303778" stroke-width="0.16"/>
<path d="M38.4 48.792L38.4 44.8933" stroke="#303778" stroke-width="0.16"/>
<path d="M36 48.748L36 44.832" stroke="#303778" stroke-width="0.16"/>
<path d="M33.6 48.6543L33.6 44.748" stroke="#303778" stroke-width="0.16"/>
<path d="M31.2 48.5249L31.2 44.6186" stroke="#303778" stroke-width="0.16"/>
<path d="M28.8 48.3535L28.8 44.4357" stroke="#303778" stroke-width="0.16"/>
<path d="M26.4 48.1284L26.4 44.2297" stroke="#303778" stroke-width="0.16"/>
<path d="M24 47.8652L24 43.9513" stroke="#303778" stroke-width="0.16"/>
<path d="M21.6 47.5483L21.6 43.6382" stroke="#303778" stroke-width="0.16"/>
<path d="M19.2 47.1631L19.2 43.2491" stroke="#303778" stroke-width="0.16"/>
<path d="M16.8 46.7207L16.8 42.8144" stroke="#303778" stroke-width="0.16"/>
<path d="M14.4 46.1978L14.4 42.28" stroke="#303778" stroke-width="0.16"/>
<path d="M12 45.5879L12 41.6854" stroke="#303778" stroke-width="0.16"/>
<path d="M69.6 45.1182L69.6 41.2004" stroke="#303778" stroke-width="0.16"/>
<path d="M72 44.3135L72 40.3919" stroke="#303778" stroke-width="0.16"/>
<path d="M74 43.4971L74 39.5678" stroke="#303778" stroke-width="0.16"/>
<path d="M76 42.4517L76 38.5453" stroke="#303778" stroke-width="0.16"/>
<path d="M77.6 41.4116L77.6 37.4812" stroke="#303778" stroke-width="0.16"/>
<path d="M79.2 39.8052L79.2 35.5279" stroke="#303778" stroke-width="0.16"/>
<path d="M40.8 48.7998L40.8 44.8932" stroke="#303778" stroke-width="0.16"/>
<path d="M43.2 48.7563L43.2 44.8436" stroke="#303778" stroke-width="0.16"/>
<path d="M45.6 48.6929L45.6 44.7751" stroke="#303778" stroke-width="0.16"/>
<path d="M48 48.5781L48 44.668" stroke="#303778" stroke-width="0.16"/>
<path d="M50.4 48.4141L50.4 44.5039" stroke="#303778" stroke-width="0.16"/>
<path d="M52.8 48.2158L52.8 44.2904" stroke="#303778" stroke-width="0.16"/>
<path d="M55.2 47.9644L55.2 44.0351" stroke="#303778" stroke-width="0.16"/>
<path d="M57.6 47.6587L57.6 43.7218" stroke="#303778" stroke-width="0.16"/>
<path d="M60 47.2969L60 43.3824" stroke="#303778" stroke-width="0.16"/>
<path d="M62.4 46.8691L62.4 42.9569" stroke="#303778" stroke-width="0.16"/>
<path d="M64.8 46.3809L64.8 42.4516" stroke="#303778" stroke-width="0.16"/>
<path d="M67.2 45.8086L67.2 41.887" stroke="#303778" stroke-width="0.16"/>
<ellipse cx="40" cy="34.7996" rx="40" ry="9.2" fill="#3063E9"/>
<ellipse cx="40" cy="32.3999" rx="40" ry="10" fill="#FF9635"/>
<rect y="28.7998" width="80" height="3.2" fill="#FF9635"/>
<path d="M9.59998 38.4858L9.59998 34.5871" stroke="#303778" stroke-width="0.16"/>
<path d="M7.19995 37.5967L7.19995 33.6942" stroke="#303778" stroke-width="0.16"/>
<path d="M5.19995 36.7002L5.19995 32.7939" stroke="#303778" stroke-width="0.16"/>
<path d="M3.19995 35.5635L3.19995 31.6571" stroke="#303778" stroke-width="0.16"/>
<path d="M1.59998 34.3125L1.59998 30.4023" stroke="#303778" stroke-width="0.16"/>
<path d="M38.4 42.3921L38.4 38.4934" stroke="#303778" stroke-width="0.16"/>
<path d="M36 42.3476L36 38.4316" stroke="#303778" stroke-width="0.16"/>
<path d="M33.6 42.2544L33.6 38.3481" stroke="#303778" stroke-width="0.16"/>
<path d="M31.2 42.125L31.2 38.2187" stroke="#303778" stroke-width="0.16"/>
<path d="M28.8 41.9531L28.8 38.0353" stroke="#303778" stroke-width="0.16"/>
<path d="M26.4 41.7285L26.4 37.8298" stroke="#303778" stroke-width="0.16"/>
<path d="M24 41.4648L24 37.5509" stroke="#303778" stroke-width="0.16"/>
<path d="M21.6 41.1484L21.6 37.2383" stroke="#303778" stroke-width="0.16"/>
<path d="M19.2 40.7632L19.2 36.8492" stroke="#303778" stroke-width="0.16"/>
<path d="M16.8 40.3203L16.8 36.414" stroke="#303778" stroke-width="0.16"/>
<path d="M14.4 39.7979L14.4 35.8801" stroke="#303778" stroke-width="0.16"/>
<path d="M12 39.1875L12 35.285" stroke="#303778" stroke-width="0.16"/>
<path d="M69.6 38.7183L69.6 34.8005" stroke="#303778" stroke-width="0.16"/>
<path d="M72 37.9136L72 33.992" stroke="#303778" stroke-width="0.16"/>
<path d="M74 37.0972L74 33.1679" stroke="#303778" stroke-width="0.16"/>
<path d="M76 36.0518L76 32.1454" stroke="#303778" stroke-width="0.16"/>
<path d="M77.6 35.0117L77.6 31.0813" stroke="#303778" stroke-width="0.16"/>
<path d="M79.2 33.4053L79.2 29.128" stroke="#303778" stroke-width="0.16"/>
<path d="M40.8 42.3999L40.8 38.4933" stroke="#303778" stroke-width="0.16"/>
<path d="M43.2 42.3564L43.2 38.4437" stroke="#303778" stroke-width="0.16"/>
<path d="M45.6 42.293L45.6 38.3752" stroke="#303778" stroke-width="0.16"/>
<path d="M48 42.1782L48 38.2681" stroke="#303778" stroke-width="0.16"/>
<path d="M50.4 42.0142L50.4 38.104" stroke="#303778" stroke-width="0.16"/>
<path d="M52.8 41.8159L52.8 37.8905" stroke="#303778" stroke-width="0.16"/>
<path d="M55.2 41.5645L55.2 37.6352" stroke="#303778" stroke-width="0.16"/>
<path d="M57.6 41.2588L57.6 37.3219" stroke="#303778" stroke-width="0.16"/>
<path d="M60 40.8965L60 36.982" stroke="#303778" stroke-width="0.16"/>
<path d="M62.4 40.4692L62.4 36.557" stroke="#303778" stroke-width="0.16"/>
<path d="M64.8 39.981L64.8 36.0517" stroke="#303778" stroke-width="0.16"/>
<path d="M67.2 39.4087L67.2 35.4871" stroke="#303778" stroke-width="0.16"/>
<ellipse cx="40" cy="28.3997" rx="40" ry="9.2" fill="#3063E9"/>
<ellipse cx="40" cy="26" rx="40" ry="10" fill="#FF9635"/>
<rect y="22.3999" width="80" height="3.2" fill="#FF9635"/>
<path d="M9.59998 32.0859L9.59998 28.1872" stroke="#303778" stroke-width="0.16"/>
<path d="M7.19995 31.1968L7.19995 27.2943" stroke="#303778" stroke-width="0.16"/>
<path d="M5.19995 30.3003L5.19995 26.394" stroke="#303778" stroke-width="0.16"/>
<path d="M3.19995 29.1636L3.19995 25.2572" stroke="#303778" stroke-width="0.16"/>
<path d="M1.59998 27.9121L1.59998 24.002" stroke="#303778" stroke-width="0.16"/>
<path d="M38.4 35.9922L38.4 32.0935" stroke="#303778" stroke-width="0.16"/>
<path d="M36 35.9477L36 32.0317" stroke="#303778" stroke-width="0.16"/>
<path d="M33.6 35.8545L33.6 31.9482" stroke="#303778" stroke-width="0.16"/>
<path d="M31.2 35.7246L31.2 31.8183" stroke="#303778" stroke-width="0.16"/>
<path d="M28.8 35.5532L28.8 31.6354" stroke="#303778" stroke-width="0.16"/>
<path d="M26.4 35.3281L26.4 31.4294" stroke="#303778" stroke-width="0.16"/>
<path d="M24 35.0649L24 31.151" stroke="#303778" stroke-width="0.16"/>
<path d="M21.6 34.748L21.6 30.8379" stroke="#303778" stroke-width="0.16"/>
<path d="M19.2 34.3633L19.2 30.4493" stroke="#303778" stroke-width="0.16"/>
<path d="M16.8 33.9204L16.8 30.0141" stroke="#303778" stroke-width="0.16"/>
<path d="M14.4 33.3979L14.4 29.4802" stroke="#303778" stroke-width="0.16"/>
<path d="M12 32.7876L12 28.8851" stroke="#303778" stroke-width="0.16"/>
<path d="M69.6 32.3184L69.6 28.4006" stroke="#303778" stroke-width="0.16"/>
<path d="M72 31.5137L72 27.5921" stroke="#303778" stroke-width="0.16"/>
<path d="M74 30.6973L74 26.768" stroke="#303778" stroke-width="0.16"/>
<path d="M76 29.6519L76 25.7455" stroke="#303778" stroke-width="0.16"/>
<path d="M77.6 28.6113L77.6 24.6809" stroke="#303778" stroke-width="0.16"/>
<path d="M79.2 27.0054L79.2 22.7281" stroke="#303778" stroke-width="0.16"/>
<path d="M40.8 36L40.8 32.0934" stroke="#303778" stroke-width="0.16"/>
<path d="M43.2 35.9565L43.2 32.0438" stroke="#303778" stroke-width="0.16"/>
<path d="M45.6 35.8926L45.6 31.9748" stroke="#303778" stroke-width="0.16"/>
<path d="M48 35.7783L48 31.8682" stroke="#303778" stroke-width="0.16"/>
<path d="M50.4 35.6143L50.4 31.7041" stroke="#303778" stroke-width="0.16"/>
<path d="M52.8 35.416L52.8 31.4906" stroke="#303778" stroke-width="0.16"/>
<path d="M55.2 35.1641L55.2 31.2348" stroke="#303778" stroke-width="0.16"/>
<path d="M57.6 34.8589L57.6 30.922" stroke="#303778" stroke-width="0.16"/>
<path d="M60 34.4966L60 30.5821" stroke="#303778" stroke-width="0.16"/>
<path d="M62.4 34.0693L62.4 30.1571" stroke="#303778" stroke-width="0.16"/>
<path d="M64.8 33.5811L64.8 29.6518" stroke="#303778" stroke-width="0.16"/>
<path d="M67.2 33.0088L67.2 29.0872" stroke="#303778" stroke-width="0.16"/>
<ellipse cx="40" cy="21.9998" rx="40" ry="9.2" fill="#3063E9"/>
<ellipse cx="40" cy="19.5996" rx="40" ry="10" fill="#FF9635"/>
<rect y="16" width="80" height="3.2" fill="#FF9635"/>
<path d="M9.59998 25.6855L9.59998 21.7868" stroke="#303778" stroke-width="0.16"/>
<path d="M7.19995 24.7969L7.19995 20.8944" stroke="#303778" stroke-width="0.16"/>
<path d="M5.19995 23.9004L5.19995 19.9941" stroke="#303778" stroke-width="0.16"/>
<path d="M3.19995 22.7637L3.19995 18.8573" stroke="#303778" stroke-width="0.16"/>
<path d="M1.59998 21.5122L1.59998 17.6021" stroke="#303778" stroke-width="0.16"/>
<path d="M38.4 29.5918L38.4 25.6931" stroke="#303778" stroke-width="0.16"/>
<path d="M36 29.5478L36 25.6318" stroke="#303778" stroke-width="0.16"/>
<path d="M33.6 29.4546L33.6 25.5483" stroke="#303778" stroke-width="0.16"/>
<path d="M31.2 29.3247L31.2 25.4184" stroke="#303778" stroke-width="0.16"/>
<path d="M28.8 29.1533L28.8 25.2355" stroke="#303778" stroke-width="0.16"/>
<path d="M26.4 28.9282L26.4 25.0295" stroke="#303778" stroke-width="0.16"/>
<path d="M24 28.665L24 24.7511" stroke="#303778" stroke-width="0.16"/>
<path d="M21.6 28.3481L21.6 24.438" stroke="#303778" stroke-width="0.16"/>
<path d="M19.2 27.9629L19.2 24.0489" stroke="#303778" stroke-width="0.16"/>
<path d="M16.8 27.5205L16.8 23.6142" stroke="#303778" stroke-width="0.16"/>
<path d="M14.4 26.998L14.4 23.0803" stroke="#303778" stroke-width="0.16"/>
<path d="M12 26.3877L12 22.4852" stroke="#303778" stroke-width="0.16"/>
<path d="M69.6 25.918L69.6 22.0002" stroke="#303778" stroke-width="0.16"/>
<path d="M72 25.1133L72 21.1917" stroke="#303778" stroke-width="0.16"/>
<path d="M74 24.2969L74 20.3676" stroke="#303778" stroke-width="0.16"/>
<path d="M76 23.252L76 19.3456" stroke="#303778" stroke-width="0.16"/>
<path d="M77.6 22.2114L77.6 18.281" stroke="#303778" stroke-width="0.16"/>
<path d="M79.2 20.6055L79.2 16.3282" stroke="#303778" stroke-width="0.16"/>
<path d="M40.8 29.5996L40.8 25.693" stroke="#303778" stroke-width="0.16"/>
<path d="M43.2 29.5566L43.2 25.6439" stroke="#303778" stroke-width="0.16"/>
<path d="M45.6 29.4927L45.6 25.5749" stroke="#303778" stroke-width="0.16"/>
<path d="M48 29.3784L48 25.4683" stroke="#303778" stroke-width="0.16"/>
<path d="M50.4 29.2144L50.4 25.3042" stroke="#303778" stroke-width="0.16"/>
<path d="M52.8 29.0156L52.8 25.0902" stroke="#303778" stroke-width="0.16"/>
<path d="M55.2 28.7642L55.2 24.8349" stroke="#303778" stroke-width="0.16"/>
<path d="M57.6 28.459L57.6 24.5221" stroke="#303778" stroke-width="0.16"/>
<path d="M60 28.0967L60 24.1822" stroke="#303778" stroke-width="0.16"/>
<path d="M62.4 27.6694L62.4 23.7572" stroke="#303778" stroke-width="0.16"/>
<path d="M64.8 27.1812L64.8 23.2519" stroke="#303778" stroke-width="0.16"/>
<path d="M67.2 26.6089L67.2 22.6873" stroke="#303778" stroke-width="0.16"/>
<ellipse cx="40" cy="15.5999" rx="40" ry="9.2" fill="#3063E9"/>
<ellipse cx="40" cy="13.1997" rx="40" ry="10" fill="#FF9635"/>
<rect y="9.59961" width="80" height="3.2" fill="#FF9635"/>
<path d="M9.59998 19.2856L9.59998 15.3869" stroke="#303778" stroke-width="0.16"/>
<path d="M7.19995 18.3965L7.19995 14.494" stroke="#303778" stroke-width="0.16"/>
<path d="M5.19995 17.5L5.19995 13.5937" stroke="#303778" stroke-width="0.16"/>
<path d="M3.19995 16.3633L3.19995 12.4569" stroke="#303778" stroke-width="0.16"/>
<path d="M1.59998 15.1123L1.59998 11.2022" stroke="#303778" stroke-width="0.16"/>
<path d="M38.4 23.1919L38.4 19.2932" stroke="#303778" stroke-width="0.16"/>
<path d="M36 23.1479L36 19.2319" stroke="#303778" stroke-width="0.16"/>
<path d="M33.6 23.0547L33.6 19.1483" stroke="#303778" stroke-width="0.16"/>
<path d="M31.2 22.9248L31.2 19.0185" stroke="#303778" stroke-width="0.16"/>
<path d="M28.8 22.7534L28.8 18.8356" stroke="#303778" stroke-width="0.16"/>
<path d="M26.4 22.5283L26.4 18.6296" stroke="#303778" stroke-width="0.16"/>
<path d="M24 22.2651L24 18.3512" stroke="#303778" stroke-width="0.16"/>
<path d="M21.6 21.9482L21.6 18.0381" stroke="#303778" stroke-width="0.16"/>
<path d="M19.2 21.563L19.2 17.649" stroke="#303778" stroke-width="0.16"/>
<path d="M16.8 21.1206L16.8 17.2143" stroke="#303778" stroke-width="0.16"/>
<path d="M14.4 20.5977L14.4 16.6799" stroke="#303778" stroke-width="0.16"/>
<path d="M12 19.9878L12 16.0853" stroke="#303778" stroke-width="0.16"/>
<path d="M69.6 19.5181L69.6 15.6003" stroke="#303778" stroke-width="0.16"/>
<path d="M72 18.7134L72 14.7918" stroke="#303778" stroke-width="0.16"/>
<path d="M74 17.897L74 13.9677" stroke="#303778" stroke-width="0.16"/>
<path d="M76 16.8516L76 12.9452" stroke="#303778" stroke-width="0.16"/>
<path d="M77.6 15.8115L77.6 11.8811" stroke="#303778" stroke-width="0.16"/>
<path d="M79.2 14.2052L79.2 9.92776" stroke="#303778" stroke-width="0.16"/>
<path d="M40.8 23.1997L40.8 19.2931" stroke="#303778" stroke-width="0.16"/>
<path d="M43.2 23.1562L43.2 19.2435" stroke="#303778" stroke-width="0.16"/>
<path d="M45.6 23.0928L45.6 19.175" stroke="#303778" stroke-width="0.16"/>
<path d="M48 22.9785L48 19.0684" stroke="#303778" stroke-width="0.16"/>
<path d="M50.4 22.8145L50.4 18.9043" stroke="#303778" stroke-width="0.16"/>
<path d="M52.8 22.6157L52.8 18.6903" stroke="#303778" stroke-width="0.16"/>
<path d="M55.2 22.3643L55.2 18.435" stroke="#303778" stroke-width="0.16"/>
<path d="M57.6 22.0586L57.6 18.1217" stroke="#303778" stroke-width="0.16"/>
<path d="M60 21.6968L60 17.7823" stroke="#303778" stroke-width="0.16"/>
<path d="M62.4 21.2695L62.4 17.3573" stroke="#303778" stroke-width="0.16"/>
<path d="M64.8 20.7812L64.8 16.852" stroke="#303778" stroke-width="0.16"/>
<path d="M67.2 20.209L67.2 16.2874" stroke="#303778" stroke-width="0.16"/>
<ellipse cx="40" cy="9.2" rx="40" ry="9.2" fill="#3063E9"/>
</svg>
