<svg width="491" height="504" viewBox="0 0 491 504" fill="none" xmlns="http://www.w3.org/2000/svg">
<path d="M3.48892 1.81802C3.38842 0.995713 2.64033 0.410575 1.81802 0.51108C0.995713 0.611584 0.410575 1.35967 0.51108 2.18198L3.48892 1.81802ZM478 200L476.562 200.427L478 200ZM258.939 490.939C258.354 491.525 258.354 492.475 258.939 493.061L268.485 502.607C269.071 503.192 270.021 503.192 270.607 502.607C271.192 502.021 271.192 501.071 270.607 500.485L262.121 492L270.607 483.515C271.192 482.929 271.192 481.979 270.607 481.393C270.021 480.808 269.071 480.808 268.485 481.393L258.939 490.939ZM1.44359 8.43182C1.58842 9.24749 2.36706 9.79132 3.18273 9.64649C3.9984 9.50166 4.54222 8.72303 4.39739 7.90736L1.44359 8.43182ZM7.11254 19.2498C6.86849 18.4582 6.02888 18.0142 5.23721 18.2583C4.44555 18.5023 4.00162 19.3419 4.24567 20.1336L7.11254 19.2498ZM8.67429 31.4324C9.03691 32.1772 9.93469 32.4871 10.6795 32.1245C11.4244 31.7619 11.7342 30.8641 11.3716 30.1192L8.67429 31.4324ZM17.4346 40.1745C16.9426 39.5079 16.0034 39.3665 15.3369 39.8584C14.6704 40.3504 14.5289 41.2896 15.0209 41.9561L17.4346 40.1745ZM23.22 51.069C23.831 51.6285 24.7799 51.5867 25.3393 50.9757C25.8987 50.3646 25.8569 49.4158 25.2459 48.8564L23.22 51.069ZM34.558 55.9156C33.856 55.4757 32.9303 55.6882 32.4904 56.3902C32.0506 57.0922 32.2631 58.0179 32.9651 58.4578L34.558 55.9156ZM43.7689 64.0886C44.5298 64.4161 45.4122 64.0647 45.7397 63.3038C46.0672 62.5428 45.7158 61.6605 44.9548 61.333L43.7689 64.0886ZM56.0392 65.2935C55.2442 65.0604 54.4108 65.516 54.1778 66.311C53.9448 67.106 54.4004 67.9393 55.1953 68.1723L56.0392 65.2935ZM66.9651 71.0073C67.7784 71.1652 68.5656 70.6339 68.7235 69.8207C68.8814 69.0074 68.3501 68.2202 67.5368 68.0623L66.9651 71.0073ZM79.2897 69.8915C78.4673 69.7921 77.72 70.3782 77.6206 71.2006C77.5211 72.0231 78.1073 72.7704 78.9297 72.8698L79.2897 69.8915ZM91.0133 73.9811C91.8399 74.0354 92.554 73.4092 92.6083 72.5826C92.6626 71.756 92.0365 71.0418 91.2098 70.9876L91.0133 73.9811ZM103.098 71.5091C102.27 71.4893 101.583 72.1445 101.563 72.9727C101.543 73.8009 102.198 74.4884 103.026 74.5083L103.098 71.5091ZM115.023 74.597C115.852 74.5905 116.518 73.9138 116.511 73.0854C116.505 72.257 115.828 71.5906 115 71.5971L115.023 74.597ZM126.988 71.3518C126.16 71.3783 125.51 72.071 125.537 72.899C125.563 73.727 126.256 74.3767 127.084 74.3502L126.988 71.3518ZM139.117 73.8516C139.944 73.8103 140.581 73.106 140.54 72.2786C140.499 71.4512 139.794 70.814 138.967 70.8553L139.117 73.8516ZM150.876 70.1799C150.049 70.2317 149.421 70.944 149.473 71.7708C149.525 72.5976 150.237 73.2259 151.064 73.174L150.876 70.1799ZM163.076 72.3662C163.903 72.3074 164.525 71.5899 164.466 70.7636C164.407 69.9372 163.69 69.315 162.863 69.3738L163.076 72.3662ZM174.81 68.4933C173.984 68.5558 173.365 69.2762 173.428 70.1022C173.49 70.9283 174.211 71.5473 175.037 71.4848L174.81 68.4933ZM186.985 70.5709C187.811 70.5075 188.429 69.7865 188.366 68.9605C188.303 68.1345 187.582 67.5163 186.756 67.5797L186.985 70.5709ZM198.751 66.6685C197.925 66.7302 197.305 67.4499 197.367 68.276C197.428 69.1021 198.148 69.7218 198.974 69.6602L198.751 66.6685ZM210.902 68.7975C211.728 68.7401 212.352 68.0236 212.294 67.1971C212.237 66.3707 211.52 65.7473 210.694 65.8048L210.902 68.7975ZM222.683 65.017C221.856 65.0677 221.227 65.7792 221.278 66.6061C221.328 67.433 222.04 68.0621 222.867 68.0113L222.683 65.017ZM234.823 67.3398C235.65 67.2981 236.287 66.5936 236.245 65.7662C236.204 64.9388 235.499 64.3019 234.672 64.3436L234.823 67.3398ZM246.677 63.8192C245.849 63.8494 245.202 64.545 245.233 65.3729C245.263 66.2007 245.958 66.8474 246.786 66.8172L246.677 63.8192ZM258.743 66.4801C259.571 66.464 260.229 65.7795 260.213 64.9513C260.197 64.123 259.513 63.4646 258.684 63.4807L258.743 66.4801ZM270.716 63.3656C269.887 63.3649 269.215 64.0359 269.214 64.8644C269.214 65.6928 269.885 66.3649 270.713 66.3656L270.716 63.3656ZM282.668 66.514C283.496 66.5344 284.184 65.8795 284.204 65.0513C284.224 64.2231 283.569 63.5353 282.741 63.5149L282.668 66.514ZM294.758 63.9713C293.931 63.9282 293.225 64.564 293.182 65.3913C293.139 66.2186 293.775 66.9242 294.602 66.9672L294.758 63.9713ZM306.535 67.7725C307.36 67.8416 308.085 67.2284 308.154 66.4028C308.224 65.5773 307.61 64.852 306.785 64.783L306.535 67.7725ZM318.741 65.9947C317.919 65.8961 317.172 66.483 317.074 67.3055C316.975 68.1281 317.562 68.8748 318.385 68.9734L318.741 65.9947ZM330.219 70.6311C331.037 70.763 331.807 70.207 331.939 69.3891C332.071 68.5713 331.515 67.8013 330.697 67.6694L330.219 70.6311ZM342.553 69.8553C341.742 69.6861 340.948 70.2065 340.779 71.0174C340.609 71.8284 341.13 72.623 341.941 72.7921L342.553 69.8553ZM353.516 75.5102C354.317 75.7204 355.137 75.2413 355.348 74.44C355.558 73.6387 355.079 72.8187 354.277 72.6084L353.516 75.5102ZM365.884 76.003C365.096 75.7476 364.25 76.1794 363.994 76.9675C363.739 77.7556 364.171 78.6015 364.959 78.8569L365.884 76.003ZM376.142 82.8644C376.913 83.1684 377.784 82.7901 378.088 82.0194C378.392 81.2487 378.014 80.3776 377.243 80.0737L376.142 82.8644ZM388.333 84.8818C387.585 84.5265 386.69 84.845 386.335 85.5933C385.979 86.3417 386.298 87.2364 387.046 87.5918L388.333 84.8818ZM397.574 93.0615C398.295 93.47 399.21 93.2169 399.619 92.4962C400.028 91.7755 399.774 90.8601 399.054 90.4516L397.574 93.0615ZM409.346 96.8105C408.658 96.3484 407.726 96.5312 407.264 97.2188C406.802 97.9064 406.985 98.8384 407.672 99.3005L409.346 96.8105ZM417.253 106.297C417.902 106.811 418.845 106.702 419.36 106.053C419.874 105.404 419.765 104.46 419.116 103.946L417.253 106.297ZM428.266 111.802C427.659 111.238 426.71 111.272 426.146 111.879C425.582 112.486 425.617 113.435 426.223 113.999L428.266 111.802ZM434.646 122.469C435.207 123.079 436.156 123.119 436.766 122.558C437.375 121.997 437.415 121.049 436.855 120.439L434.646 122.469ZM444.632 129.564C444.119 128.914 443.175 128.804 442.525 129.317C441.875 129.831 441.765 130.774 442.278 131.424L444.632 129.564ZM449.312 141.023C449.778 141.708 450.711 141.886 451.396 141.421C452.081 140.955 452.259 140.022 451.794 139.337L449.312 141.023ZM458.233 149.542C457.814 148.827 456.895 148.587 456.18 149.005C455.466 149.424 455.225 150.343 455.644 151.058L458.233 149.542ZM461.309 161.467C461.682 162.207 462.584 162.503 463.324 162.13C464.063 161.756 464.36 160.854 463.986 160.115L461.309 161.467ZM469.132 171.081C468.802 170.322 467.918 169.974 467.158 170.304C466.399 170.635 466.051 171.519 466.382 172.278L469.132 171.081ZM470.818 183.251C471.109 184.027 471.974 184.42 472.749 184.129C473.525 183.838 473.918 182.974 473.627 182.198L470.818 183.251ZM477.596 193.613C477.342 192.825 476.497 192.391 475.709 192.645C474.92 192.898 474.487 193.743 474.74 194.532L477.596 193.613ZM478.193 206.135C478.412 206.934 479.237 207.404 480.036 207.184C480.835 206.965 481.305 206.139 481.085 205.341L478.193 206.135ZM483.963 216.74C483.777 215.933 482.972 215.429 482.165 215.615C481.357 215.801 480.854 216.606 481.039 217.413L483.963 216.74ZM483.424 228.935C483.573 229.75 484.355 230.289 485.17 230.139C485.985 229.99 486.524 229.208 486.374 228.393L483.424 228.935ZM488.244 240.092C488.132 239.271 487.377 238.696 486.556 238.808C485.735 238.919 485.16 239.675 485.271 240.496L488.244 240.092ZM486.561 252.088C486.632 252.913 487.359 253.525 488.184 253.453C489.01 253.382 489.621 252.655 489.549 251.83L486.561 252.088ZM490.27 263.635C490.241 262.807 489.546 262.16 488.718 262.189C487.89 262.219 487.243 262.913 487.272 263.741L490.27 263.635ZM487.378 275.462C487.363 276.29 488.022 276.974 488.851 276.988C489.679 277.003 490.362 276.343 490.377 275.515L487.378 275.462ZM489.845 287.359C489.905 286.532 489.283 285.814 488.457 285.754C487.631 285.694 486.912 286.315 486.853 287.142L489.845 287.359ZM485.683 298.757C485.576 299.578 486.156 300.331 486.978 300.437C487.8 300.543 488.552 299.963 488.658 299.142L485.683 298.757ZM486.806 310.834C486.959 310.019 486.423 309.235 485.609 309.082C484.794 308.929 484.01 309.465 483.857 310.279L486.806 310.834ZM481.369 321.682C481.169 322.486 481.658 323.3 482.462 323.5C483.266 323.7 484.08 323.211 484.28 322.407L481.369 321.682ZM481.076 333.838C481.323 333.047 480.882 332.206 480.091 331.959C479.3 331.712 478.459 332.153 478.212 332.944L481.076 333.838ZM474.403 343.992C474.11 344.767 474.501 345.632 475.275 345.925C476.05 346.218 476.916 345.827 477.209 345.052L474.403 343.992ZM472.694 356.017C473.032 355.26 472.692 354.373 471.936 354.035C471.179 353.698 470.292 354.037 469.954 354.794L472.694 356.017ZM464.887 365.318C464.506 366.054 464.794 366.959 465.53 367.34C466.265 367.721 467.17 367.433 467.551 366.697L464.887 365.318ZM461.806 377.063C462.228 376.351 461.992 375.431 461.279 375.009C460.566 374.587 459.646 374.822 459.224 375.535L461.806 377.063ZM452.994 385.419C452.533 386.107 452.717 387.039 453.405 387.5C454.093 387.961 455.025 387.777 455.486 387.089L452.994 385.419ZM448.624 396.749C449.122 396.087 448.989 395.146 448.327 394.648C447.664 394.15 446.724 394.284 446.226 394.946L448.624 396.749ZM438.954 404.096C438.421 404.731 438.504 405.677 439.139 406.209C439.774 406.742 440.72 406.659 441.252 406.024L438.954 404.096ZM433.403 414.9C433.968 414.293 433.934 413.344 433.328 412.78C432.722 412.215 431.773 412.249 431.208 412.855L433.403 414.9ZM423.021 421.209C422.426 421.786 422.412 422.735 422.989 423.33C423.566 423.924 424.515 423.939 425.11 423.362L423.021 421.209ZM416.406 431.398C417.029 430.851 417.09 429.903 416.543 429.281C415.996 428.659 415.048 428.598 414.426 429.144L416.406 431.398ZM405.453 436.653C404.805 437.169 404.699 438.113 405.215 438.761C405.731 439.409 406.675 439.516 407.323 438.999L405.453 436.653ZM397.888 446.158C398.56 445.673 398.711 444.736 398.226 444.064C397.741 443.392 396.803 443.241 396.132 443.726L397.888 446.158ZM386.488 450.357C385.795 450.81 385.6 451.74 386.054 452.433C386.507 453.126 387.437 453.321 388.13 452.867L386.488 450.357ZM378.074 459.119C378.787 458.698 379.024 457.778 378.603 457.065C378.182 456.351 377.262 456.115 376.549 456.536L378.074 459.119ZM366.337 462.255C365.606 462.643 365.327 463.551 365.715 464.283C366.104 465.015 367.012 465.293 367.743 464.905L366.337 462.255ZM357.161 470.216C357.91 469.861 358.229 468.967 357.874 468.218C357.52 467.469 356.625 467.15 355.877 467.504L357.161 470.216ZM345.188 472.272C344.424 472.592 344.064 473.471 344.384 474.235C344.705 474.999 345.583 475.359 346.348 475.039L345.188 472.272ZM335.323 479.361C336.101 479.076 336.502 478.215 336.217 477.437C335.933 476.659 335.072 476.259 334.293 476.543L335.323 479.361ZM323.212 480.3C322.421 480.547 321.981 481.389 322.228 482.179C322.476 482.97 323.317 483.411 324.108 483.163L323.212 480.3ZM312.72 486.424C313.522 486.216 314.003 485.397 313.794 484.595C313.586 483.793 312.767 483.312 311.965 483.521L312.72 486.424ZM300.574 486.179C299.763 486.346 299.241 487.14 299.409 487.951C299.576 488.763 300.37 489.284 301.181 489.117L300.574 486.179ZM289.514 491.207C290.333 491.083 290.896 490.318 290.772 489.499C290.648 488.68 289.883 488.116 289.064 488.241L289.514 491.207ZM277.463 489.666C276.638 489.743 276.032 490.474 276.11 491.299C276.187 492.124 276.918 492.73 277.743 492.653L277.463 489.666ZM265.902 493.404C266.73 493.377 267.38 492.684 267.353 491.856C267.326 491.028 266.633 490.379 265.805 490.405L265.902 493.404ZM0.51108 2.18198C0.772841 4.32367 1.08398 6.40647 1.44359 8.43182L4.39739 7.90736C4.04759 5.93729 3.74437 3.90806 3.48892 1.81802L0.51108 2.18198ZM4.24567 20.1336C5.48998 24.1699 6.96964 27.9309 8.67429 31.4324L11.3716 30.1192C9.7382 26.764 8.31405 23.1473 7.11254 19.2498L4.24567 20.1336ZM15.0209 41.9561C17.4909 45.3024 20.2302 48.3316 23.22 51.069L25.2459 48.8564C22.3971 46.2481 19.788 43.3628 17.4346 40.1745L15.0209 41.9561ZM32.9651 58.4578C36.3564 60.5827 39.964 62.451 43.7689 64.0886L44.9548 61.333C41.2785 59.7507 37.8084 57.9523 34.558 55.9156L32.9651 58.4578ZM55.1953 68.1723C58.9735 69.2797 62.9012 70.2184 66.9651 71.0073L67.5368 68.0623C63.5545 67.2892 59.7183 66.3718 56.0392 65.2935L55.1953 68.1723ZM78.9297 72.8698C82.856 73.3444 86.8871 73.7102 91.0133 73.9811L91.2098 70.9876C87.132 70.7198 83.1558 70.3588 79.2897 69.8915L78.9297 72.8698ZM103.026 74.5083C106.955 74.6025 110.956 74.6286 115.023 74.597L115 71.5971C110.961 71.6284 106.991 71.6025 103.098 71.5091L103.026 74.5083ZM127.084 74.3502C131.043 74.2236 135.056 74.0544 139.117 73.8516L138.967 70.8553C134.922 71.0574 130.927 71.2258 126.988 71.3518L127.084 74.3502ZM151.064 73.174C155.031 72.9253 159.037 72.6535 163.076 72.3662L162.863 69.3738C158.831 69.6606 154.833 69.9318 150.876 70.1799L151.064 73.174ZM175.037 71.4848C178.994 71.1853 182.979 70.8784 186.985 70.5709L186.756 67.5797C182.749 67.8872 178.766 68.194 174.81 68.4933L175.037 71.4848ZM198.974 69.6602C202.935 69.3645 206.912 69.0749 210.902 68.7975L210.694 65.8048C206.698 66.0825 202.715 66.3726 198.751 66.6685L198.974 69.6602ZM222.867 68.0113C226.846 67.7669 230.832 67.541 234.823 67.3398L234.672 64.3436C230.669 64.5454 226.671 64.772 222.683 65.017L222.867 68.0113ZM246.786 66.8172C250.774 66.6719 254.761 66.5574 258.743 66.4801L258.684 63.4807C254.684 63.5584 250.68 63.6733 246.677 63.8192L246.786 66.8172ZM270.713 66.3656C274.709 66.369 278.695 66.4164 282.668 66.514L282.741 63.5149C278.743 63.4167 274.733 63.3691 270.716 63.3656L270.713 66.3656ZM294.602 66.9672C298.6 67.1752 302.579 67.4414 306.535 67.7725L306.785 64.783C302.796 64.4491 298.785 64.1808 294.758 63.9713L294.602 66.9672ZM318.385 68.9734C322.36 69.4497 326.306 70 330.219 70.6311L330.697 67.6694C326.742 67.0314 322.755 66.4755 318.741 65.9947L318.385 68.9734ZM341.941 72.7921C345.84 73.6053 349.7 74.5089 353.516 75.5102L354.277 72.6084C350.41 71.5935 346.5 70.6783 342.553 69.8553L341.941 72.7921ZM364.959 78.8569C368.739 80.082 372.469 81.4154 376.142 82.8644L377.243 80.0737C373.509 78.6008 369.721 77.2466 365.884 76.003L364.959 78.8569ZM387.046 87.5918C390.618 89.2881 394.129 91.1088 397.574 93.0615L399.054 90.4516C395.544 88.4622 391.969 86.6082 388.333 84.8818L387.046 87.5918ZM407.672 99.3005C410.936 101.494 414.131 103.824 417.253 106.297L419.116 103.946C415.932 101.423 412.673 99.0471 409.346 96.8105L407.672 99.3005ZM426.223 113.999C429.106 116.678 431.915 119.499 434.646 122.469L436.855 120.439C434.07 117.411 431.206 114.534 428.266 111.802L426.223 113.999ZM442.278 131.424C444.696 134.484 447.042 137.682 449.312 141.023L451.794 139.337C449.484 135.937 447.095 132.682 444.632 129.564L442.278 131.424ZM455.644 151.058C457.601 154.399 459.49 157.868 461.309 161.467L463.986 160.115C462.14 156.461 460.222 152.938 458.233 149.542L455.644 151.058ZM466.382 172.278C467.923 175.82 469.403 179.477 470.818 183.251L473.627 182.198C472.194 178.376 470.695 174.672 469.132 171.081L466.382 172.278ZM474.74 194.532C475.363 196.468 475.97 198.433 476.562 200.427L479.438 199.573C478.84 197.558 478.226 195.572 477.596 193.613L474.74 194.532ZM476.562 200.427C477.129 202.338 477.672 204.24 478.193 206.135L481.085 205.341C480.56 203.426 480.011 201.504 479.438 199.573L476.562 200.427ZM481.039 217.413C481.931 221.29 482.725 225.13 483.424 228.935L486.374 228.393C485.668 224.544 484.865 220.66 483.963 216.74L481.039 217.413ZM485.271 240.496C485.801 244.4 486.23 248.264 486.561 252.088L489.549 251.83C489.215 247.957 488.78 244.044 488.244 240.092L485.271 240.496ZM487.272 263.741C487.412 267.694 487.446 271.601 487.378 275.462L490.377 275.515C490.446 271.601 490.412 267.64 490.27 263.635L487.272 263.741ZM486.853 287.142C486.568 291.064 486.177 294.936 485.683 298.757L488.658 299.142C489.159 295.265 489.556 291.337 489.845 287.359L486.853 287.142ZM483.857 310.279C483.132 314.136 482.301 317.937 481.369 321.682L484.28 322.407C485.226 318.605 486.07 314.747 486.806 310.834L483.857 310.279ZM478.212 332.944C477.043 336.686 475.772 340.369 474.403 343.992L477.209 345.052C478.599 341.376 479.889 337.637 481.076 333.838L478.212 332.944ZM469.954 354.794C468.36 358.366 466.669 361.874 464.887 365.318L467.551 366.697C469.36 363.203 471.076 359.642 472.694 356.017L469.954 354.794ZM459.224 375.535C457.234 378.897 455.155 382.192 452.994 385.419L455.486 387.089C457.678 383.816 459.787 380.474 461.806 377.063L459.224 375.535ZM446.226 394.946C443.879 398.067 441.453 401.117 438.954 404.096L441.252 406.024C443.785 403.005 446.244 399.913 448.624 396.749L446.226 394.946ZM431.208 412.855C428.545 415.713 425.815 418.498 423.021 421.209L425.11 423.362C427.939 420.617 430.706 417.796 433.403 414.9L431.208 412.855ZM414.426 429.144C411.491 431.724 408.498 434.227 405.453 436.653L407.323 438.999C410.404 436.544 413.434 434.01 416.406 431.398L414.426 429.144ZM396.132 443.726C392.961 446.017 389.745 448.227 386.488 450.357L388.13 452.867C391.425 450.713 394.68 448.476 397.888 446.158L396.132 443.726ZM376.549 456.536C373.177 458.526 369.771 460.433 366.337 462.255L367.743 464.905C371.217 463.062 374.663 461.133 378.074 459.119L376.549 456.536ZM355.877 467.504C352.334 469.183 348.769 470.772 345.188 472.272L346.348 475.039C349.97 473.522 353.577 471.914 357.161 470.216L355.877 467.504ZM334.293 476.543C330.606 477.891 326.909 479.144 323.212 480.3L324.108 483.163C327.85 481.993 331.591 480.725 335.323 479.361L334.293 476.543ZM311.965 483.521C308.159 484.511 304.359 485.397 300.574 486.179L301.181 489.117C305.016 488.325 308.865 487.427 312.72 486.424L311.965 483.521ZM289.064 488.241C285.169 488.831 281.299 489.306 277.463 489.666L277.743 492.653C281.637 492.287 285.563 491.805 289.514 491.207L289.064 488.241ZM265.805 490.405C263.858 490.468 261.922 490.5 260 490.5V493.5C261.955 493.5 263.923 493.468 265.902 493.404L265.805 490.405Z" fill="#3063E9"/>
</svg>
