<svg width="199" height="241" viewBox="0 0 199 241" fill="none" xmlns="http://www.w3.org/2000/svg">
<path d="M45.9984 3.11944C46.6167 2.56803 46.6708 1.61983 46.1194 1.00158C45.568 0.383326 44.6198 0.329144 44.0016 0.880558L45.9984 3.11944ZM198.275 228.791C198.711 228.087 198.495 227.162 197.791 226.725L186.319 219.608C185.615 219.171 184.691 219.388 184.254 220.092C183.817 220.796 184.034 221.721 184.738 222.157L194.935 228.484L188.608 238.681C188.171 239.385 188.388 240.309 189.092 240.746C189.796 241.183 190.721 240.966 191.157 240.262L198.275 228.791ZM39.5386 5.12741C38.9567 5.71709 38.963 6.66682 39.5527 7.24868C40.1424 7.83054 41.0921 7.8242 41.674 7.23452L39.5386 5.12741ZM33.7465 16.2766C34.2568 15.624 34.1415 14.6813 33.4889 14.171C32.8363 13.6607 31.8936 13.776 31.3833 14.4286L33.7465 16.2766ZM24.2977 24.5142C23.8553 25.2147 24.0646 26.1411 24.765 26.5834C25.4655 27.0257 26.3919 26.8165 26.8342 26.116L24.2977 24.5142ZM20.8773 36.5764C21.2551 35.8391 20.9638 34.9352 20.2266 34.5573C19.4894 34.1794 18.5854 34.4707 18.2075 35.2079L20.8773 36.5764ZM13.0536 46.3816C12.7373 47.1473 13.1016 48.0244 13.8673 48.3407C14.6329 48.657 15.51 48.2927 15.8263 47.5271L13.0536 46.3816ZM11.6515 58.8546C11.9083 58.067 11.478 57.2203 10.6904 56.9635C9.90273 56.7067 9.05607 57.1371 8.79927 57.9247L11.6515 58.8546ZM5.42036 69.7499C5.22194 70.5542 5.71311 71.3671 6.51742 71.5655C7.32174 71.764 8.13461 71.2728 8.33304 70.4685L5.42036 69.7499ZM5.86267 82.2933C6.00296 81.4768 5.45482 80.7012 4.63836 80.561C3.8219 80.4207 3.04629 80.9688 2.906 81.7853L5.86267 82.2933ZM1.25847 93.9671C1.17693 94.7915 1.77914 95.5259 2.60354 95.6075C3.42795 95.689 4.16236 95.0868 4.2439 94.2624L1.25847 93.9671ZM3.49179 106.312C3.51313 105.483 2.85909 104.795 2.03094 104.773C1.20278 104.752 0.514129 105.406 0.492782 106.234L3.49179 106.312ZM0.636007 118.53C0.677068 119.357 1.3811 119.995 2.20851 119.954C3.03592 119.913 3.67338 119.209 3.63232 118.381L0.636007 118.53ZM4.70195 130.399C4.59564 129.578 3.84344 128.998 3.02186 129.104C2.20028 129.21 1.62044 129.963 1.72675 130.784L4.70195 130.399ZM3.81178 142.915C3.9866 143.725 4.78478 144.239 5.59455 144.065C6.40432 143.89 6.91904 143.092 6.74421 142.282L3.81178 142.915ZM9.80605 153.933C9.55934 153.142 8.71823 152.701 7.9274 152.947C7.13656 153.194 6.69547 154.035 6.94218 154.826L9.80605 153.933ZM11.1674 166.402C11.489 167.165 12.3686 167.524 13.132 167.202C13.8955 166.88 14.2537 166.001 13.9322 165.237L11.1674 166.402ZM19.1568 176.066C18.7586 175.34 17.8468 175.074 17.1204 175.472C16.394 175.87 16.128 176.782 16.5263 177.508L19.1568 176.066ZM23.0358 187.994C23.5107 188.673 24.4459 188.838 25.1247 188.363C25.8035 187.889 25.9688 186.953 25.4939 186.274L23.0358 187.994ZM32.9254 195.714C32.3767 195.093 31.4287 195.035 30.8081 195.584C30.1874 196.132 30.1292 197.08 30.6779 197.701L32.9254 195.714ZM39.3734 206.461C39.99 207.015 40.9383 206.963 41.4916 206.347C42.0449 205.73 41.9936 204.782 41.377 204.228L39.3734 206.461ZM50.7504 211.714C50.0746 211.235 49.1384 211.394 48.6591 212.07C48.1799 212.746 48.3392 213.682 49.0149 214.161L50.7504 211.714ZM59.4574 220.726C60.1818 221.128 61.0948 220.866 61.4967 220.142C61.8985 219.417 61.637 218.504 60.9126 218.103L59.4574 220.726ZM71.7153 223.372C70.9531 223.048 70.0721 223.403 69.7475 224.165C69.423 224.927 69.7778 225.808 70.54 226.133L71.7153 223.372ZM82.1085 230.407C82.8983 230.657 83.7413 230.219 83.9914 229.429C84.2415 228.64 83.8041 227.797 83.0143 227.547L82.1085 230.407ZM94.6864 230.682C93.8779 230.501 93.0761 231.011 92.8956 231.819C92.7151 232.628 93.2242 233.429 94.0327 233.61L94.6864 230.682ZM106.083 235.804C106.903 235.922 107.663 235.352 107.78 234.532C107.897 233.712 107.327 232.952 106.507 232.835L106.083 235.804ZM118.457 234.116C117.63 234.055 116.912 234.676 116.851 235.502C116.791 236.329 117.412 237.047 118.238 237.108L118.457 234.116ZM130.48 237.614C131.308 237.623 131.987 236.959 131.996 236.131C132.005 235.302 131.341 234.623 130.513 234.614L130.48 237.614ZM142.673 234.404C141.846 234.441 141.205 235.142 141.241 235.969C141.278 236.797 141.979 237.438 142.807 237.401L142.673 234.404ZM155.025 236.55C155.85 236.473 156.455 235.741 156.378 234.916C156.3 234.092 155.569 233.486 154.744 233.563L155.025 236.55ZM166.694 232.171C165.874 232.284 165.3 233.042 165.414 233.862C165.527 234.683 166.285 235.256 167.105 235.143L166.694 232.171ZM179.297 233.202C180.112 233.056 180.655 232.276 180.509 231.461C180.362 230.645 179.583 230.103 178.767 230.249L179.297 233.202ZM190.583 227.908C189.773 228.084 189.259 228.882 189.434 229.692C189.609 230.501 190.407 231.016 191.217 230.841L190.583 227.908ZM44.0016 0.880558C42.4802 2.23744 40.9922 3.65425 39.5386 5.12741L41.674 7.23452C43.0841 5.80541 44.526 4.43265 45.9984 3.11944L44.0016 0.880558ZM31.3833 14.4286C28.8879 17.6195 26.5235 20.9894 24.2977 24.5142L26.8342 26.116C29.009 22.6721 31.3159 19.3848 33.7465 16.2766L31.3833 14.4286ZM18.2075 35.2079C16.3564 38.8194 14.6363 42.5506 13.0536 46.3816L15.8263 47.5271C17.3786 43.7696 19.0646 40.1128 20.8773 36.5764L18.2075 35.2079ZM8.79927 57.9247C7.53676 61.797 6.40844 65.7447 5.42036 69.7499L8.33304 70.4685C9.30373 66.5338 10.4119 62.6565 11.6515 58.8546L8.79927 57.9247ZM2.906 81.7853C2.21394 85.8128 1.66282 89.879 1.25847 93.9671L4.2439 94.2624C4.64116 90.2461 5.18265 86.2507 5.86267 82.2933L2.906 81.7853ZM0.492782 106.234C0.387126 110.333 0.432905 114.437 0.636007 118.53L3.63232 118.381C3.43303 114.366 3.38803 110.337 3.49179 106.312L0.492782 106.234ZM1.72675 130.784C2.2544 134.862 2.94737 138.911 3.81178 142.915L6.74421 142.282C5.89805 138.363 5.21914 134.396 4.70195 130.399L1.72675 130.784ZM6.94218 154.826C8.16773 158.754 9.57402 162.619 11.1674 166.402L13.9322 165.237C12.3774 161.546 11.0039 157.772 9.80605 153.933L6.94218 154.826ZM16.5263 177.508C18.5007 181.109 20.6685 184.611 23.0358 187.994L25.4939 186.274C23.1908 182.983 21.0803 179.574 19.1568 176.066L16.5263 177.508ZM30.6779 197.701C33.3794 200.756 36.276 203.682 39.3734 206.461L41.377 204.228C38.3667 201.527 35.5513 198.684 32.9254 195.714L30.6779 197.701ZM49.0149 214.161C52.3117 216.499 55.7911 218.692 59.4574 220.726L60.9126 218.103C57.3423 216.122 53.9566 213.988 50.7504 211.714L49.0149 214.161ZM70.54 226.133C74.2351 227.706 78.0901 229.134 82.1085 230.407L83.0143 227.547C79.0854 226.302 75.3203 224.907 71.7153 223.372L70.54 226.133ZM94.0327 233.61C97.9151 234.477 101.931 235.211 106.083 235.804L106.507 232.835C102.43 232.252 98.4909 231.531 94.6864 230.682L94.0327 233.61ZM118.238 237.108C122.206 237.397 126.286 237.568 130.48 237.614L130.513 234.614C126.379 234.569 122.361 234.401 118.457 234.116L118.238 237.108ZM142.807 237.401C146.785 237.224 150.857 236.942 155.025 236.55L154.744 233.563C150.624 233.95 146.601 234.229 142.673 234.404L142.807 237.401ZM167.105 235.143C171.088 234.591 175.151 233.946 179.297 233.202L178.767 230.249C174.66 230.986 170.636 231.625 166.694 232.171L167.105 235.143ZM191.217 230.841C193.24 230.403 195.282 229.943 197.342 229.46L196.658 226.54C194.614 227.018 192.589 227.474 190.583 227.908L191.217 230.841Z" fill="#FF9635"/>
</svg>
