<svg width="601" height="208" viewBox="0 0 601 208" fill="none" xmlns="http://www.w3.org/2000/svg">
<path d="M-28.5856 1.5004C-28.8616 0.719275 -29.7185 0.309724 -30.4996 0.585644C-31.2807 0.861565 -31.6903 1.71847 -31.4144 2.4996L-28.5856 1.5004ZM600.5 149.965C600.48 149.137 599.793 148.481 598.964 148.501L585.468 148.822C584.64 148.842 583.985 149.529 584.004 150.358C584.024 151.186 584.711 151.841 585.54 151.821L597.536 151.536L597.822 163.532C597.842 164.361 598.529 165.016 599.357 164.996C600.185 164.977 600.841 164.289 600.821 163.461L600.5 149.965ZM284.912 48.336L283.696 47.4577L284.912 48.336ZM288.699 49.2115L287.217 49.4413L288.699 49.2115ZM-29.3586 8.20056C-29.0724 8.97799 -28.2102 9.37624 -27.4328 9.09007C-26.6553 8.8039 -26.2571 7.94169 -26.5433 7.16426L-29.3586 8.20056ZM-22.3367 18.1355C-22.6439 17.3662 -23.5166 16.9915 -24.286 17.2987C-25.0553 17.6059 -25.43 18.4787 -25.1228 19.248L-22.3367 18.1355ZM-20.5122 30.3181C-20.1821 31.078 -19.2986 31.4264 -18.5388 31.0963C-17.7789 30.7663 -17.4305 29.8828 -17.7606 29.1229L-20.5122 30.3181ZM-12.8973 39.8509C-13.2516 39.1021 -14.1458 38.7822 -14.8947 39.1365C-15.6435 39.4908 -15.9634 40.3851 -15.6091 41.1339L-12.8973 39.8509ZM-10.3483 51.7747C-9.96806 52.5107 -9.06314 52.799 -8.32715 52.4187C-7.59117 52.0385 -7.3028 51.1336 -7.68308 50.3976L-10.3483 51.7747ZM-2.03419 60.8385C-2.44262 60.1177 -3.358 59.8645 -4.07875 60.273C-4.7995 60.6814 -5.05268 61.5968 -4.64426 62.3175L-2.03419 60.8385ZM1.44736 72.5656C1.8858 73.2685 2.81104 73.4829 3.51393 73.0444C4.21682 72.606 4.43121 71.6808 3.99276 70.9779L1.44736 72.5656ZM10.4339 80.7996C9.96342 80.1177 9.02927 79.9463 8.34738 80.4168C7.66549 80.8872 7.49408 81.8214 7.96452 82.5032L10.4339 80.7996ZM14.9745 92.1374C15.4792 92.7944 16.4208 92.918 17.0778 92.4133C17.7348 91.9087 17.8584 90.967 17.3538 90.31L14.9745 92.1374ZM24.8103 99.4777C24.2692 98.8504 23.3221 98.7804 22.6947 99.3214C22.0674 99.8624 21.9974 100.81 22.5384 101.437L24.8103 99.4777ZM30.6302 110.257C31.2093 110.849 32.159 110.86 32.7514 110.281C33.3437 109.702 33.3544 108.752 32.7753 108.16L30.6302 110.257ZM41.2754 116.284C40.6569 115.733 39.7087 115.787 39.1576 116.406C38.6065 117.025 38.6612 117.973 39.2797 118.524L41.2754 116.284ZM48.5062 126.148C49.1646 126.651 50.106 126.525 50.6088 125.866C51.1116 125.208 50.9855 124.267 50.3271 123.764L48.5062 126.148ZM59.9312 130.499C59.2337 130.052 58.3059 130.255 57.859 130.952C57.4122 131.65 57.6154 132.578 58.313 133.025L59.9312 130.499ZM68.6808 139.04C69.4153 139.423 70.3214 139.139 70.7044 138.404C71.0875 137.669 70.8026 136.763 70.0681 136.38L68.6808 139.04ZM80.6938 141.302C79.9263 140.991 79.0513 141.36 78.7394 142.127C78.4275 142.895 78.7968 143.77 79.5643 144.082L80.6938 141.302ZM90.89 148.047C91.6846 148.282 92.5188 147.828 92.7533 147.033C92.9879 146.239 92.534 145.405 91.7394 145.17L90.89 148.047ZM103.114 147.912C102.3 147.759 101.515 148.295 101.362 149.109C101.209 149.923 101.745 150.707 102.559 150.86L103.114 147.912ZM114.456 152.478C115.282 152.548 116.008 151.935 116.078 151.11C116.148 150.284 115.535 149.558 114.71 149.488L114.456 152.478ZM126.413 149.896C125.585 149.908 124.923 150.589 124.935 151.417C124.947 152.246 125.628 152.907 126.456 152.895L126.413 149.896ZM138.44 152.147C139.263 152.056 139.858 151.315 139.767 150.492C139.676 149.668 138.936 149.074 138.112 149.165L138.44 152.147ZM149.695 147.357C148.883 147.521 148.358 148.312 148.522 149.124C148.685 149.936 149.477 150.462 150.289 150.298L149.695 147.357ZM161.923 147.434C162.718 147.203 163.176 146.371 162.945 145.575C162.714 144.78 161.882 144.322 161.086 144.553L161.923 147.434ZM172.227 140.841C171.451 141.133 171.059 141.998 171.351 142.773C171.642 143.549 172.507 143.941 173.283 143.649L172.227 140.841ZM184.326 139.038C185.079 138.692 185.409 137.802 185.063 137.049C184.717 136.296 183.827 135.966 183.074 136.312L184.326 139.038ZM193.6 131.051C192.871 131.445 192.6 132.355 192.993 133.084C193.387 133.813 194.297 134.084 195.026 133.69L193.6 131.051ZM205.37 127.688C206.074 127.251 206.291 126.326 205.854 125.622C205.417 124.918 204.493 124.702 203.789 125.138L205.37 127.688ZM213.633 118.646C212.954 119.121 212.788 120.056 213.263 120.735C213.737 121.414 214.673 121.579 215.352 121.105L213.633 118.646ZM224.945 114.026C225.599 113.518 225.717 112.576 225.209 111.922C224.701 111.267 223.758 111.149 223.104 111.657L224.945 114.026ZM232.23 104.214C231.6 104.752 231.526 105.699 232.064 106.329C232.603 106.958 233.549 107.033 234.179 106.494L232.23 104.214ZM243.065 98.5549C243.671 97.9898 243.704 97.0407 243.139 96.4349C242.574 95.8291 241.625 95.796 241.019 96.3611L243.065 98.5549ZM249.481 88.1382C248.898 88.7273 248.904 89.677 249.493 90.2595C250.082 90.8419 251.032 90.8366 251.614 90.2475L249.481 88.1382ZM259.838 81.605C260.398 80.9943 260.356 80.0455 259.746 79.4857C259.135 78.926 258.186 78.9674 257.626 79.5781L259.838 81.605ZM265.465 70.7091C264.928 71.3394 265.003 72.2861 265.633 72.8237C266.264 73.3613 267.21 73.2862 267.748 72.6559L265.465 70.7091ZM275.318 63.4697C275.834 62.8217 275.728 61.878 275.08 61.3618C274.432 60.8456 273.488 60.9525 272.972 61.6005L275.318 63.4697ZM280.171 52.2605C279.675 52.9245 279.812 53.8644 280.476 54.3598C281.14 54.8551 282.08 54.7184 282.575 54.0544L280.171 52.2605ZM286.39 49.0116C287.169 48.7305 287.573 47.8709 287.292 47.0916C287.011 46.3123 286.152 45.9085 285.372 46.1896L286.39 49.0116ZM289.241 47.0775C288.664 46.4822 287.715 46.4668 287.12 47.043C286.524 47.6191 286.509 48.5688 287.085 49.164L289.241 47.0775ZM288.261 55.3068C288.424 56.1189 289.215 56.6451 290.027 56.4819C290.839 56.3187 291.365 55.528 291.202 54.7158L288.261 55.3068ZM293.99 66.0699C293.76 65.2742 292.928 64.8162 292.132 65.0469C291.336 65.2775 290.878 66.1096 291.109 66.9052L293.99 66.0699ZM294.879 78.2293C295.171 79.0048 296.036 79.3971 296.811 79.1055C297.586 78.814 297.979 77.9491 297.687 77.1736L294.879 78.2293ZM302.204 87.9799C301.858 87.2273 300.967 86.8981 300.214 87.2445C299.462 87.5909 299.133 88.4818 299.479 89.2343L302.204 87.9799ZM304.827 99.8878C305.223 100.615 306.134 100.884 306.862 100.488C307.59 100.092 307.858 99.1814 307.462 98.4537L304.827 99.8878ZM313.393 108.569C312.952 107.868 312.026 107.657 311.324 108.098C310.623 108.539 310.412 109.465 310.853 110.166L313.393 108.569ZM317.497 120.051C317.979 120.724 318.916 120.879 319.59 120.397C320.263 119.915 320.418 118.978 319.936 118.304L317.497 120.051ZM327.041 127.641C326.52 126.997 325.576 126.896 324.931 127.416C324.287 127.936 324.186 128.881 324.706 129.526L327.041 127.641ZM332.439 138.575C332.994 139.19 333.943 139.238 334.557 138.682C335.172 138.127 335.22 137.178 334.664 136.564L332.439 138.575ZM342.77 145.054C342.181 144.47 341.232 144.474 340.648 145.062C340.065 145.65 340.069 146.6 340.657 147.184L342.77 145.054ZM349.329 155.334C349.947 155.885 350.896 155.83 351.446 155.211C351.997 154.592 351.942 153.644 351.324 153.093L349.329 155.334ZM360.298 160.661C359.651 160.144 358.707 160.25 358.19 160.898C357.673 161.545 357.779 162.489 358.426 163.006L360.298 160.661ZM367.924 170.177C368.598 170.659 369.535 170.502 370.016 169.827C370.497 169.153 370.341 168.216 369.666 167.735L367.924 170.177ZM379.404 174.289C378.705 173.846 377.778 174.053 377.334 174.753C376.891 175.453 377.098 176.38 377.798 176.823L379.404 174.289ZM388.025 182.914C388.749 183.318 389.663 183.059 390.066 182.335C390.47 181.612 390.211 180.698 389.488 180.295L388.025 182.914ZM399.892 185.719C399.147 185.357 398.249 185.668 397.888 186.414C397.526 187.159 397.837 188.056 398.582 188.418L399.892 185.719ZM409.444 193.299C410.209 193.616 411.087 193.252 411.404 192.487C411.721 191.722 411.357 190.844 410.592 190.527L409.444 193.299ZM421.558 194.682C420.774 194.412 419.921 194.829 419.651 195.612C419.382 196.396 419.798 197.249 420.582 197.519L421.558 194.682ZM431.964 201.035C432.763 201.254 433.588 200.784 433.807 199.985C434.026 199.186 433.556 198.361 432.757 198.142L431.964 201.035ZM444.154 200.867C443.342 200.702 442.55 201.225 442.384 202.037C442.218 202.849 442.742 203.641 443.554 203.807L444.154 200.867ZM455.307 205.791C456.128 205.9 456.883 205.323 456.992 204.502C457.102 203.681 456.525 202.926 455.704 202.817L455.307 205.791ZM467.358 203.953C466.531 203.902 465.82 204.531 465.769 205.358C465.718 206.185 466.347 206.897 467.174 206.947L467.358 203.953ZM479.098 207.243C479.926 207.232 480.589 206.553 480.579 205.724C480.569 204.896 479.889 204.233 479.061 204.243L479.098 207.243ZM490.752 203.661C489.926 203.734 489.316 204.461 489.388 205.287C489.461 206.112 490.188 206.722 491.014 206.65L490.752 203.661ZM502.855 205.154C503.672 205.018 504.225 204.246 504.09 203.429C503.955 202.611 503.183 202.059 502.365 202.194L502.855 205.154ZM513.833 199.839C513.028 200.037 512.537 200.849 512.734 201.654C512.932 202.458 513.744 202.95 514.549 202.752L513.833 199.839ZM526.009 199.466C526.796 199.207 527.224 198.359 526.966 197.572C526.707 196.785 525.859 196.357 525.072 196.616L526.009 199.466ZM536.033 192.55C535.267 192.867 534.904 193.744 535.221 194.51C535.538 195.275 536.415 195.638 537.181 195.321L536.033 192.55ZM548.01 190.362C548.75 189.99 549.048 189.089 548.676 188.348C548.304 187.608 547.402 187.31 546.662 187.682L548.01 190.362ZM556.922 182.06C556.21 182.484 555.975 183.404 556.399 184.116C556.822 184.828 557.742 185.063 558.454 184.639L556.922 182.06ZM568.489 178.207C569.171 177.737 569.343 176.803 568.872 176.12C568.402 175.438 567.468 175.266 566.786 175.736L568.489 178.207ZM576.244 168.76C575.593 169.273 575.481 170.216 575.993 170.866C576.506 171.517 577.449 171.629 578.1 171.117L576.244 168.76ZM587.231 163.469C587.85 162.918 587.906 161.97 587.355 161.351C586.805 160.732 585.856 160.676 585.237 161.227L587.231 163.469ZM593.744 153.224C593.156 153.808 593.154 154.758 593.738 155.345C594.322 155.933 595.271 155.936 595.859 155.352L593.744 153.224ZM-31.4144 2.4996C-30.7361 4.41969 -30.0508 6.31999 -29.3586 8.20056L-26.5433 7.16426C-27.2309 5.29616 -27.9117 3.40824 -28.5856 1.5004L-31.4144 2.4996ZM-25.1228 19.248C-23.6151 23.0236 -22.0779 26.7134 -20.5122 30.3181L-17.7606 29.1229C-19.3141 25.5463 -20.8399 21.8841 -22.3367 18.1355L-25.1228 19.248ZM-15.6091 41.1339C-13.8862 44.7755 -12.1322 48.3221 -10.3483 51.7747L-7.68308 50.3976C-9.4505 46.9769 -11.189 43.4617 -12.8973 39.8509L-15.6091 41.1339ZM-4.64426 62.3175C-2.6469 65.8423 -0.615868 69.2579 1.44736 72.5656L3.99276 70.9779C1.95246 67.7069 -0.0570431 64.3276 -2.03419 60.8385L-4.64426 62.3175ZM7.96452 82.5032C10.2659 85.839 12.6032 89.05 14.9745 92.1374L17.3538 90.31C15.0144 87.2642 12.7071 84.0946 10.4339 80.7996L7.96452 82.5032ZM22.5384 101.437C25.1983 104.521 27.8963 107.461 30.6302 110.257L32.7753 108.16C30.0864 105.409 27.4305 102.516 24.8103 99.4777L22.5384 101.437ZM39.2797 118.524C42.3173 121.23 45.3939 123.771 48.5062 126.148L50.3271 123.764C47.2764 121.434 44.2581 118.941 41.2754 116.284L39.2797 118.524ZM58.313 133.025C61.7328 135.215 65.1901 137.22 68.6808 139.04L70.0681 136.38C66.6578 134.602 63.2776 132.642 59.9312 130.499L58.313 133.025ZM79.5643 144.082C83.3092 145.604 87.086 146.924 90.89 148.047L91.7394 145.17C88.031 144.075 84.3476 142.787 80.6938 141.302L79.5643 144.082ZM102.559 150.86C106.504 151.602 110.471 152.14 114.456 152.478L114.71 149.488C110.825 149.159 106.958 148.635 103.114 147.912L102.559 150.86ZM126.456 152.895C130.441 152.838 134.437 152.587 138.44 152.147L138.112 149.165C134.202 149.594 130.301 149.839 126.413 149.896L126.456 152.895ZM150.289 150.298C154.167 149.515 158.046 148.559 161.923 147.434L161.086 144.553C157.288 145.656 153.489 146.591 149.695 147.357L150.289 150.298ZM173.283 143.649C176.972 142.262 180.654 140.724 184.326 139.038L183.074 136.312C179.464 137.969 175.847 139.48 172.227 140.841L173.283 143.649ZM195.026 133.69C198.488 131.819 201.937 129.817 205.37 127.688L203.789 125.138C200.405 127.238 197.007 129.209 193.6 131.051L195.026 133.69ZM215.352 121.105C218.567 118.857 221.766 116.497 224.945 114.026L223.104 111.657C219.964 114.098 216.806 116.428 213.633 118.646L215.352 121.105ZM234.179 106.494C237.162 103.945 240.125 101.298 243.065 98.5549L241.019 96.3611C238.109 99.0751 235.179 101.693 232.23 104.214L234.179 106.494ZM251.614 90.2475C254.378 87.4519 257.12 84.5705 259.838 81.605L257.626 79.5781C254.934 82.5162 252.218 85.3701 249.481 88.1382L251.614 90.2475ZM267.748 72.6559C270.296 69.6687 272.82 66.6062 275.318 63.4697L272.972 61.6005C270.494 64.7112 267.991 67.7478 265.465 70.7091L267.748 72.6559ZM282.575 54.0544C283.766 52.4582 284.95 50.8448 286.128 49.2143L283.696 47.4577C282.527 49.0758 281.352 50.6768 280.171 52.2605L282.575 54.0544ZM286.128 49.2143C286.207 49.1056 286.296 49.0454 286.39 49.0116L285.372 46.1896C284.728 46.4219 284.139 46.8448 283.696 47.4577L286.128 49.2143ZM287.085 49.164C287.147 49.2276 287.197 49.3127 287.217 49.4413L290.181 48.9817C290.064 48.2255 289.723 47.5759 289.241 47.0775L287.085 49.164ZM287.217 49.4413C287.52 51.397 287.868 53.3525 288.261 55.3068L291.202 54.7158C290.818 52.8045 290.477 50.8927 290.181 48.9817L287.217 49.4413ZM291.109 66.9052C292.208 70.6969 293.467 74.4746 294.879 78.2293L297.687 77.1736C296.302 73.4891 295.067 69.7849 293.99 66.0699L291.109 66.9052ZM299.479 89.2343C301.129 92.8176 302.914 96.3715 304.827 99.8878L307.462 98.4537C305.58 94.9948 303.825 91.5009 302.204 87.9799L299.479 89.2343ZM310.853 110.166C312.955 113.506 315.171 116.804 317.497 120.051L319.936 118.304C317.645 115.105 315.461 111.857 313.393 108.569L310.853 110.166ZM324.706 129.526C327.187 132.599 329.767 135.618 332.439 138.575L334.664 136.564C332.03 133.648 329.486 130.671 327.041 127.641L324.706 129.526ZM340.657 147.184C343.465 149.969 346.358 152.688 349.329 155.334L351.324 153.093C348.393 150.483 345.539 147.801 342.77 145.054L340.657 147.184ZM358.426 163.006C361.522 165.477 364.69 167.87 367.924 170.177L369.666 167.735C366.476 165.459 363.352 163.099 360.298 160.661L358.426 163.006ZM377.798 176.823C381.148 178.947 384.559 180.979 388.025 182.914L389.488 180.295C386.071 178.387 382.708 176.383 379.404 174.289L377.798 176.823ZM398.582 188.418C402.155 190.151 405.777 191.781 409.444 193.299L410.592 190.527C406.98 189.032 403.412 187.427 399.892 185.719L398.582 188.418ZM420.582 197.519C424.338 198.811 428.134 199.985 431.964 201.035L432.757 198.142C428.99 197.109 425.255 195.954 421.558 194.682L420.582 197.519ZM443.554 203.807C447.445 204.601 451.365 205.265 455.307 205.791L455.704 202.817C451.831 202.3 447.979 201.648 444.154 200.867L443.554 203.807ZM467.174 206.947C471.133 207.191 475.11 207.291 479.098 207.243L479.061 204.243C475.148 204.29 471.245 204.192 467.358 203.953L467.174 206.947ZM491.014 206.65C494.957 206.304 498.906 205.807 502.855 205.154L502.365 202.194C498.492 202.835 494.619 203.322 490.752 203.661L491.014 206.65ZM514.549 202.752C518.375 201.812 522.197 200.718 526.009 199.466L525.072 196.616C521.333 197.844 517.585 198.917 513.833 199.839L514.549 202.752ZM537.181 195.321C540.805 193.82 544.416 192.169 548.01 190.362L546.662 187.682C543.134 189.456 539.589 191.077 536.033 192.55L537.181 195.321ZM558.454 184.639C561.82 182.639 565.166 180.497 568.489 178.207L566.786 175.736C563.518 177.989 560.229 180.095 556.922 182.06L558.454 184.639ZM578.1 171.117C581.168 168.701 584.212 166.153 587.231 163.469L585.237 161.227C582.263 163.872 579.264 166.382 576.244 168.76L578.1 171.117ZM595.859 155.352C597.274 153.945 598.684 152.506 600.086 151.036L597.914 148.965C596.531 150.417 595.14 151.836 593.744 153.224L595.859 155.352Z" fill="#FF9635"/>
</svg>
