<svg width="1349" height="409" viewBox="0 0 1349 409" fill="none" xmlns="http://www.w3.org/2000/svg">
<path fill-rule="evenodd" clip-rule="evenodd" d="M388.396 271.64C388.044 269.95 389.129 268.295 390.818 267.944L430.591 259.663C432.28 259.312 433.935 260.396 434.287 262.086L438.746 283.502C439.097 285.191 438.013 286.846 436.323 287.198L396.551 295.478C394.861 295.83 393.206 294.745 392.855 293.056L388.396 271.64ZM431.228 262.723L391.455 271.003L395.914 292.419L435.686 284.139L431.228 262.723Z" fill="#303778"/>
<path fill-rule="evenodd" clip-rule="evenodd" d="M412.615 272.982C410.081 273.509 408.454 275.992 408.982 278.526C409.509 281.061 411.992 282.688 414.526 282.16C417.061 281.632 418.688 279.15 418.16 276.615C417.632 274.081 415.15 272.454 412.615 272.982ZM405.922 279.163C405.043 274.939 407.754 270.802 411.978 269.922C416.203 269.043 420.34 271.754 421.219 275.979C422.099 280.203 419.387 284.34 415.163 285.219C410.939 286.099 406.802 283.387 405.922 279.163Z" fill="#303778"/>
<path fill-rule="evenodd" clip-rule="evenodd" d="M418.84 262.655C419.264 261.903 420.217 261.638 420.969 262.062L435.436 270.222C436.187 270.646 436.453 271.599 436.029 272.35C435.605 273.102 434.652 273.367 433.9 272.944L419.434 264.783C418.682 264.359 418.416 263.406 418.84 262.655Z" fill="#303778"/>
<path fill-rule="evenodd" clip-rule="evenodd" d="M436.247 273.395C436.935 273.915 437.072 274.895 436.552 275.584L426.544 288.839C426.024 289.528 425.044 289.665 424.355 289.145C423.667 288.625 423.53 287.645 424.05 286.956L434.058 273.701C434.578 273.012 435.558 272.875 436.247 273.395Z" fill="#303778"/>
<path fill-rule="evenodd" clip-rule="evenodd" d="M402.786 265.997C403.475 266.517 403.612 267.497 403.092 268.186L393.083 281.441C392.564 282.13 391.584 282.267 390.895 281.747C390.206 281.227 390.07 280.247 390.59 279.558L400.598 266.303C401.118 265.614 402.098 265.477 402.786 265.997Z" fill="#303778"/>
<path fill-rule="evenodd" clip-rule="evenodd" d="M391.113 282.791C391.536 282.04 392.489 281.774 393.241 282.198L407.708 290.358C408.46 290.782 408.725 291.735 408.301 292.487C407.877 293.239 406.924 293.504 406.173 293.08L391.706 284.92C390.954 284.496 390.689 283.543 391.113 282.791Z" fill="#303778"/>
<path d="M429.021 250.494C429.825 253.34 428.037 247.477 427.135 246.736" stroke="#303778" stroke-width="3" stroke-linecap="round"/>
<path d="M1278.94 417.007C1131 0.999945 851 240.557 672.418 310.721C435 404 77.5566 298.083 35.8264 0.999942" stroke="#3063E9" stroke-width="2" stroke-linecap="round" stroke-linejoin="round" stroke-dasharray="10 10"/>
<path d="M1330.5 87L1339.37 81.1802C1340.32 80.5611 1341.59 80.8453 1342.18 81.8077L1347.5 90.5002" stroke="#FF9635" stroke-width="2" stroke-linecap="round"/>
<path d="M51 315C311 64 453 202 666.5 297C855 380.876 1257 370 1341 82" stroke="#FF9635" stroke-width="2" stroke-linecap="round" stroke-linejoin="round" stroke-dasharray="10 10"/>
<g filter="url(#filter0_d_0_1)">
<g clip-path="url(#clip0_0_1)">
<rect x="78.1377" y="168" width="298" height="256.032" rx="10" transform="rotate(24 78.1377 168)" fill="white"/>
<path d="M85.7057 233.091C83.5219 232.119 81.846 230.796 80.6779 229.122C79.5098 227.449 78.8717 225.533 78.7635 223.374C78.6657 221.192 79.1762 218.845 80.2948 216.333C81.3925 213.867 82.7965 211.946 84.5069 210.569C86.2407 209.203 88.1672 208.415 90.2865 208.205C92.4397 207.982 94.62 208.361 96.8272 209.344C99.2458 210.421 100.996 211.735 102.078 213.286C103.184 214.847 103.764 216.766 103.82 219.042L99.5963 219.144C99.7252 217.654 99.4141 216.362 98.6632 215.268C97.9463 214.161 96.8599 213.284 95.404 212.635C93.9482 211.987 92.5169 211.758 91.1101 211.948C89.7267 212.148 88.4371 212.769 87.2411 213.812C86.0556 214.832 85.0551 216.258 84.2397 218.089C83.4137 219.944 82.9781 221.649 82.9327 223.205C82.8978 224.737 83.2688 226.084 84.0458 227.246C84.8462 228.418 86.0448 229.359 87.6415 230.07C88.5103 230.457 89.3675 230.712 90.213 230.835C91.0689 230.935 91.8728 230.899 92.6245 230.727C93.3867 230.532 94.0668 230.174 94.6648 229.652C95.2967 229.118 95.8165 228.392 96.2242 227.477L96.5222 226.807L89.7596 223.796L91.1239 220.732L101.233 225.233L95.9008 237.208L93.083 235.954L94.9574 231.175L95.505 231.841C94.2828 233.069 92.8313 233.802 91.1504 234.038C89.493 234.285 87.6781 233.969 85.7057 233.091ZM108.974 243.451C107.213 242.667 105.826 241.613 104.811 240.289C103.797 238.965 103.217 237.455 103.072 235.759C102.961 234.049 103.329 232.244 104.176 230.342C105.023 228.44 106.113 226.97 107.447 225.932C108.816 224.881 110.319 224.284 111.958 224.142C113.597 223.999 115.251 224.299 116.918 225.042C118.632 225.805 119.931 226.805 120.815 228.043C121.699 229.28 122.186 230.651 122.276 232.154C122.367 233.658 122.067 235.184 121.377 236.734C121.189 237.156 120.999 237.55 120.808 237.916C120.618 238.281 120.436 238.594 120.264 238.855L106.104 232.551L107.39 229.663L119.894 235.23L117.776 234.962C118.487 233.365 118.632 231.967 118.21 230.766C117.798 229.542 116.9 228.621 115.514 228.004C114.505 227.555 113.52 227.397 112.559 227.532C111.599 227.668 110.71 228.116 109.892 228.877C109.085 229.615 108.384 230.654 107.788 231.992C107.203 233.307 106.917 234.516 106.932 235.62C106.947 236.724 107.238 237.684 107.803 238.498C108.369 239.313 109.18 239.955 110.237 240.426C111.411 240.949 112.461 241.149 113.388 241.027C114.314 240.905 115.167 240.539 115.945 239.929L118.312 242.67C117.513 243.328 116.608 243.811 115.598 244.121C114.621 244.418 113.567 244.511 112.434 244.401C111.302 244.29 110.149 243.974 108.974 243.451ZM136.621 228.032L128.827 245.537C128.44 246.406 128.381 247.14 128.649 247.737C128.941 248.346 129.475 248.822 130.25 249.167C130.884 249.45 131.477 249.601 132.031 249.623C132.594 249.62 133.154 249.532 133.71 249.358L133.332 252.481C132.583 252.71 131.747 252.788 130.823 252.714C129.933 252.628 129.007 252.37 128.044 251.941C127.034 251.492 126.18 250.915 125.481 250.209C124.782 249.504 124.36 248.683 124.214 247.746C124.079 246.786 124.266 245.702 124.776 244.494L132.382 227.411L136.621 228.032ZM140.374 235.907L139.057 238.866L125.848 232.985L127.166 230.026L140.374 235.907ZM162.453 239.533L154.659 257.039C154.272 257.907 154.213 258.641 154.481 259.238C154.773 259.847 155.307 260.323 156.081 260.668C156.715 260.951 157.309 261.102 157.862 261.124C158.426 261.121 158.986 261.033 159.542 260.859L159.164 263.982C158.415 264.211 157.578 264.289 156.655 264.215C155.765 264.129 154.838 263.871 153.876 263.442C152.866 262.993 152.012 262.416 151.313 261.71C150.614 261.005 150.191 260.184 150.046 259.247C149.911 258.287 150.098 257.203 150.608 255.995L158.214 238.912L162.453 239.533ZM166.206 247.408L164.888 250.367L151.68 244.486L152.997 241.527L166.206 247.408ZM177.733 252.118C179.447 252.882 180.8 253.92 181.791 255.233C182.781 256.547 183.332 258.058 183.444 259.768C183.589 261.464 183.238 263.263 182.391 265.165C181.544 267.067 180.437 268.544 179.068 269.594C177.734 270.632 176.247 271.222 174.608 271.365C172.969 271.507 171.293 271.197 169.579 270.434C167.864 269.671 166.512 268.632 165.521 267.319C164.53 266.006 163.962 264.501 163.817 262.804C163.683 261.084 164.039 259.273 164.886 257.371C165.732 255.469 166.835 254.005 168.192 252.977C169.561 251.926 171.064 251.33 172.703 251.187C174.342 251.045 176.019 251.355 177.733 252.118ZM176.416 255.077C175.359 254.607 174.345 254.451 173.374 254.609C172.437 254.755 171.565 255.197 170.759 255.935C169.952 256.673 169.25 257.711 168.654 259.049C168.069 260.364 167.767 261.58 167.748 262.697C167.739 263.791 167.989 264.746 168.497 265.563C169.04 266.367 169.839 267.005 170.896 267.475C171.952 267.946 172.949 268.108 173.886 267.963C174.834 267.794 175.711 267.34 176.518 266.602C177.335 265.84 178.037 264.802 178.622 263.487C179.218 262.149 179.52 260.933 179.529 259.839C179.537 258.746 179.282 257.802 178.763 257.009C178.255 256.191 177.473 255.548 176.416 255.077ZM154.973 348.479C155.496 347.305 155.57 346.255 155.195 345.328C154.853 344.388 154.119 343.667 152.992 343.165C151.936 342.695 150.922 342.539 149.951 342.698C148.98 342.856 148.073 343.409 147.229 344.356L144.655 341.606C145.739 340.372 147.12 339.608 148.798 339.315C150.5 339.031 152.384 339.35 154.45 340.27C155.859 340.897 156.999 341.686 157.87 342.636C158.752 343.563 159.294 344.621 159.497 345.808C159.723 347.006 159.517 348.321 158.879 349.754L155.382 357.608C154.996 358.477 155.237 359.105 156.105 359.492C156.528 359.68 156.965 359.804 157.417 359.865L156.045 362.377C155.39 362.395 154.651 362.221 153.829 361.855C153.078 361.52 152.455 361.088 151.959 360.558C151.497 360.015 151.211 359.395 151.099 358.698C151.021 357.988 151.165 357.222 151.531 356.4L151.641 356.154L152.432 356.463C151.812 357.285 151.038 357.855 150.109 358.172C149.19 358.467 148.228 358.573 147.224 358.492C146.229 358.387 145.286 358.135 144.394 357.738C143.29 357.247 142.371 356.626 141.635 355.877C140.923 355.138 140.466 354.301 140.263 353.367C140.094 352.419 140.244 351.417 140.715 350.36C141.3 349.045 142.204 348.154 143.426 347.685C144.671 347.226 146.148 347.194 147.857 347.59L155.286 349.293L154.075 351.919L148.654 350.73C147.584 350.478 146.724 350.419 146.074 350.552C145.424 350.685 144.948 351.091 144.644 351.772C144.352 352.43 144.363 353.068 144.678 353.687C145.028 354.292 145.625 354.783 146.47 355.16C147.057 355.421 147.652 355.602 148.255 355.701C148.881 355.811 149.485 355.813 150.068 355.706C150.66 355.576 151.183 355.317 151.638 354.928C152.126 354.527 152.527 353.974 152.841 353.269L154.973 348.479ZM174.88 340.292L165.707 360.897C165.32 361.765 165.206 362.432 165.365 362.897C165.524 363.361 165.955 363.751 166.66 364.064C167.082 364.252 167.445 364.386 167.748 364.464C168.084 364.53 168.512 364.58 169.032 364.614L167.354 367.243C166.872 367.253 166.351 367.191 165.793 367.054C165.224 366.942 164.681 366.771 164.164 366.541C162.591 365.84 161.607 364.923 161.211 363.79C160.849 362.645 161.044 361.226 161.797 359.536L171.112 338.614L174.88 340.292ZM185.853 345.177L176.679 365.782C176.292 366.651 176.178 367.317 176.337 367.782C176.496 368.247 176.928 368.636 177.632 368.949C178.055 369.138 178.417 369.271 178.72 369.349C179.057 369.415 179.485 369.465 180.004 369.499L178.327 372.129C177.844 372.139 177.323 372.076 176.765 371.94C176.196 371.827 175.653 371.656 175.137 371.426C173.564 370.725 172.579 369.809 172.183 368.676C171.821 367.53 172.016 366.112 172.769 364.421L182.084 343.499L185.853 345.177ZM214.796 367.559L198.316 383.814C197.193 384.946 196.149 385.775 195.183 386.302C194.24 386.839 193.303 387.111 192.372 387.118C191.44 387.125 190.458 386.899 189.424 386.439C188.579 386.062 187.845 385.595 187.221 385.036C186.611 384.511 186.119 383.94 185.747 383.324L187.964 380.809C188.243 381.383 188.587 381.874 188.996 382.281C189.429 382.699 189.939 383.039 190.526 383.3C191.16 383.582 191.802 383.657 192.452 383.524C193.115 383.426 193.871 382.96 194.72 382.128L196.342 380.571L196.419 375.373L196.868 359.577L201.095 361.459L200.08 374.259L199.628 378.025L202.405 374.915L210.886 365.819L214.796 367.559ZM225.708 371.995C227.422 372.759 228.774 373.797 229.765 375.11C230.756 376.424 231.307 377.935 231.418 379.644C231.563 381.341 231.212 383.14 230.366 385.042C229.519 386.944 228.411 388.421 227.043 389.471C225.709 390.509 224.222 391.099 222.583 391.242C220.944 391.384 219.267 391.074 217.553 390.311C215.839 389.548 214.487 388.509 213.496 387.196C212.505 385.883 211.937 384.378 211.792 382.681C211.657 380.961 212.013 379.15 212.86 377.248C213.707 375.346 214.809 373.882 216.167 372.854C217.535 371.803 219.039 371.207 220.678 371.064C222.317 370.922 223.994 371.232 225.708 371.995ZM224.39 374.954C223.334 374.484 222.32 374.328 221.349 374.486C220.412 374.632 219.54 375.073 218.733 375.812C217.926 376.55 217.225 377.588 216.629 378.926C216.043 380.241 215.741 381.457 215.722 382.574C215.714 383.668 215.964 384.623 216.472 385.44C217.014 386.244 217.814 386.882 218.87 387.352C219.927 387.823 220.924 387.985 221.861 387.84C222.808 387.67 223.686 387.217 224.493 386.479C225.31 385.717 226.011 384.679 226.597 383.364C227.193 382.026 227.495 380.81 227.503 379.716C227.512 378.623 227.257 377.679 226.738 376.885C226.23 376.068 225.447 375.424 224.39 374.954ZM237.299 399.102C236.148 398.59 235.174 397.903 234.376 397.041C233.601 396.19 233.13 395.164 232.961 393.963C232.792 392.763 233.042 391.411 233.711 389.908L238.886 378.285L242.655 379.963L237.903 390.635C237.193 392.232 237.042 393.487 237.451 394.401C237.87 395.291 238.691 396.008 239.912 396.551C240.499 396.813 241.104 396.97 241.728 397.022C242.385 397.062 243.031 396.97 243.666 396.746C244.311 396.498 244.902 396.086 245.44 395.51C246.001 394.944 246.486 394.203 246.894 393.287L251.144 383.742L254.912 385.42L247.071 403.031L243.76 401.557L244.855 398.626C243.753 399.457 242.57 399.902 241.307 399.958C240.044 400.015 238.708 399.729 237.299 399.102ZM252.959 405.653L260.8 388.042L264.005 389.469L262.946 392.795C263.928 391.854 265.008 391.293 266.185 391.114C267.396 390.922 268.682 391.129 270.044 391.735C270.396 391.892 270.733 392.084 271.054 392.311C271.385 392.515 271.642 392.728 271.825 392.95L269.822 396.026C269.606 395.817 269.344 395.616 269.036 395.422C268.762 395.216 268.355 394.992 267.815 394.752C267.087 394.428 266.282 394.309 265.4 394.394C264.528 394.456 263.685 394.77 262.87 395.336C262.079 395.912 261.417 396.799 260.884 397.997L256.728 407.33L252.959 405.653ZM17.692 359.026L28.8261 334.019L32.1722 335.508L30.2586 340.565L30.032 339.747C30.7215 338.956 31.5166 338.34 32.4173 337.897C33.318 337.454 34.2916 337.226 35.3381 337.213C36.4081 337.212 37.4715 337.446 38.5281 337.916C39.9605 338.554 41.1017 339.498 41.9516 340.749C42.8016 341.999 43.2639 343.457 43.3385 345.122C43.4235 346.764 43.0374 348.548 42.1801 350.473C41.3229 352.399 40.2336 353.897 38.9123 354.969C37.625 356.028 36.2205 356.654 34.6989 356.849C33.2007 357.054 31.7237 356.833 30.2679 356.185C28.7651 355.516 27.6579 354.558 26.9462 353.313C26.245 352.044 25.9431 350.7 26.0406 349.28L26.7299 348.87L21.4608 360.704L17.692 359.026ZM30.8221 352.76C32.3484 353.439 33.7747 353.427 35.1009 352.723C36.4506 352.03 37.5489 350.732 38.3957 348.83C39.2425 346.928 39.4837 345.249 39.1193 343.793C38.7653 342.313 37.837 341.238 36.3342 340.569C35.3479 340.13 34.3641 340.001 33.3827 340.183C32.4353 340.352 31.5463 340.801 30.7159 341.528C29.9195 342.243 29.239 343.234 28.6744 344.502C28.1203 345.747 27.839 346.916 27.8305 348.009C27.8219 349.103 28.0719 350.058 28.5802 350.875C29.0886 351.692 29.8359 352.321 30.8221 352.76ZM58.2464 354.672C58.7691 353.498 58.8429 352.447 58.4677 351.521C58.1264 350.581 57.3922 349.86 56.2651 349.358C55.2085 348.888 54.1947 348.732 53.2237 348.891C52.2528 349.049 51.3455 349.602 50.5019 350.549L47.9278 347.799C49.0117 346.565 50.3928 345.801 52.0711 345.508C53.7729 345.224 55.6569 345.542 57.7233 346.462C59.1322 347.09 60.2721 347.879 61.1432 348.829C62.0247 349.756 62.5668 350.814 62.7696 352.001C62.9959 353.199 62.7901 354.514 62.1524 355.947L58.6554 363.801C58.2685 364.67 58.5095 365.298 59.3784 365.685C59.801 365.873 60.2381 365.997 60.6895 366.057L59.3177 368.57C58.6627 368.588 57.9242 368.414 57.1024 368.048C56.351 367.713 55.7275 367.281 55.232 366.751C54.7704 366.208 54.4837 365.588 54.372 364.891C54.2941 364.181 54.4382 363.415 54.8041 362.593L54.9139 362.346L55.7044 362.656C55.0854 363.478 54.3112 364.048 53.3819 364.365C52.4631 364.66 51.5013 364.766 50.4966 364.685C49.5023 364.58 48.559 364.328 47.6667 363.931C46.5631 363.44 45.6436 362.819 44.9081 362.07C44.1961 361.331 43.7386 360.494 43.5357 359.56C43.3667 358.612 43.5174 357.61 43.9878 356.553C44.5733 355.238 45.4769 354.346 46.6986 353.878C47.9437 353.419 49.4209 353.387 51.1301 353.783L58.559 355.486L57.3477 358.112L51.9266 356.923C50.8567 356.671 49.9969 356.612 49.3469 356.745C48.697 356.877 48.2204 357.284 47.9173 357.965C47.6245 358.623 47.6359 359.261 47.9512 359.88C48.3006 360.485 48.8979 360.976 49.7432 361.353C50.3302 361.614 50.9252 361.795 51.528 361.894C52.1542 362.004 52.7584 362.006 53.3405 361.899C53.933 361.769 54.4564 361.51 54.9108 361.121C55.3991 360.72 55.8 360.167 56.1137 359.462L58.2464 354.672ZM85.358 359.188L68.8782 375.443C67.7553 376.575 66.7108 377.404 65.7448 377.931C64.8023 378.468 63.8652 378.74 62.9335 378.747C62.0018 378.754 61.0194 378.528 59.9862 378.068C59.1409 377.692 58.4065 377.224 57.7832 376.665C57.1728 376.14 56.6813 375.569 56.3085 374.953L58.5258 372.438C58.8047 373.012 59.1489 373.503 59.5583 373.91C59.9913 374.328 60.5013 374.668 61.0883 374.929C61.7223 375.211 62.3643 375.286 63.0142 375.153C63.6771 375.055 64.433 374.589 65.2817 373.757L66.9034 372.2L66.9812 367.002L67.43 351.206L71.6566 353.088L70.6422 365.888L70.1895 369.654L72.9671 366.544L81.4483 357.448L85.358 359.188ZM80.7319 378.231L88.5728 360.62L91.9189 362.109L90.7777 365.146C91.8901 364.291 93.0713 363.818 94.3215 363.728C95.5951 363.648 96.8072 363.864 97.9578 364.376C99.2258 364.941 100.257 365.752 101.053 366.809C101.882 367.854 102.31 369.071 102.338 370.462C103.059 369.855 103.863 369.439 104.751 369.215C105.638 368.991 106.533 368.94 107.436 369.06C108.349 369.157 109.194 369.379 109.968 369.724C111.096 370.225 112.048 370.931 112.825 371.839C113.602 372.748 114.081 373.82 114.263 375.054C114.445 376.289 114.202 377.657 113.533 379.16L108.452 390.572L104.683 388.894L109.497 378.081C110.135 376.649 110.254 375.464 109.856 374.527C109.457 373.59 108.729 372.886 107.673 372.415C106.851 372.049 105.999 371.909 105.117 371.995C104.258 372.091 103.44 372.444 102.661 373.054C101.894 373.641 101.254 374.509 100.742 375.66L96.4761 385.24L92.7074 383.562L97.5217 372.749C98.1594 371.317 98.2789 370.132 97.8803 369.195C97.4816 368.258 96.7539 367.554 95.6972 367.084C94.9928 366.77 94.2047 366.644 93.333 366.706C92.4613 366.768 91.6129 367.094 90.7878 367.683C89.9627 368.272 89.2575 369.225 88.672 370.54L84.5006 379.909L80.7319 378.231ZM121.757 396.918C119.996 396.134 118.608 395.08 117.594 393.756C116.58 392.433 116 390.922 115.855 389.226C115.744 387.517 116.112 385.711 116.959 383.809C117.805 381.907 118.896 380.437 120.23 379.399C121.598 378.348 123.102 377.752 124.741 377.609C126.38 377.467 128.033 377.767 129.7 378.509C131.415 379.272 132.714 380.272 133.598 381.51C134.481 382.748 134.969 384.118 135.059 385.621C135.149 387.125 134.85 388.651 134.16 390.201C133.971 390.624 133.782 391.018 133.591 391.383C133.4 391.748 133.219 392.061 133.046 392.322L118.887 386.018L120.173 383.13L132.677 388.697L130.559 388.429C131.27 386.832 131.415 385.434 130.993 384.233C130.581 383.009 129.682 382.088 128.297 381.471C127.287 381.022 126.302 380.865 125.342 381C124.381 381.135 123.492 381.583 122.675 382.345C121.868 383.083 121.167 384.121 120.571 385.459C119.985 386.774 119.7 387.984 119.715 389.088C119.73 390.192 120.02 391.151 120.586 391.965C121.152 392.78 121.963 393.423 123.02 393.893C124.194 394.416 125.244 394.616 126.171 394.494C127.097 394.372 127.95 394.006 128.728 393.396L131.094 396.138C130.295 396.795 129.391 397.278 128.38 397.588C127.404 397.885 126.35 397.978 125.217 397.868C124.085 397.758 122.931 397.441 121.757 396.918ZM134.528 402.182L142.369 384.571L145.715 386.061L143.923 390.75L143.649 390.037C144.428 389.174 145.268 388.549 146.172 388.163C147.109 387.765 148.068 387.601 149.049 387.672C150.054 387.754 151.038 388.009 152 388.437C153.245 388.991 154.251 389.735 155.017 390.667C155.818 391.586 156.297 392.658 156.456 393.882C156.614 395.106 156.364 396.458 155.705 397.937L150.624 409.349L146.856 407.671L151.419 397.421C152.193 395.684 152.362 394.324 151.927 393.342C151.525 392.348 150.785 391.61 149.705 391.129C148.93 390.784 148.095 390.637 147.2 390.689C146.315 390.717 145.448 391.021 144.6 391.6C143.774 392.189 143.064 393.153 142.468 394.491L138.297 403.86L134.528 402.182ZM171.417 391.3L163.624 408.806C163.237 409.675 163.178 410.408 163.446 411.006C163.738 411.614 164.271 412.091 165.046 412.436C165.68 412.718 166.274 412.87 166.827 412.891C167.391 412.889 167.951 412.8 168.507 412.626L168.129 415.749C167.38 415.979 166.543 416.056 165.619 415.983C164.729 415.896 163.803 415.638 162.84 415.21C161.831 414.76 160.976 414.183 160.277 413.478C159.578 412.773 159.156 411.952 159.011 411.015C158.876 410.054 159.063 408.97 159.573 407.762L167.178 390.679L171.417 391.3ZM175.17 399.175L173.853 402.134L160.645 396.253L161.962 393.295L175.17 399.175ZM177.592 421.778C175.831 420.994 174.374 419.937 173.222 418.608C172.069 417.279 171.347 415.804 171.056 414.183L174.666 413.089C174.754 414.282 175.149 415.386 175.85 416.402C176.585 417.404 177.634 418.209 178.996 418.815C180.076 419.296 181.017 419.49 181.818 419.396C182.619 419.303 183.171 418.916 183.475 418.235C183.673 417.789 183.693 417.333 183.534 416.869C183.409 416.391 182.978 415.875 182.239 415.322L178.886 412.9C177.175 411.688 176.103 410.493 175.671 409.316C175.249 408.115 175.325 406.869 175.9 405.578C176.329 404.615 177.008 403.848 177.937 403.277C178.867 402.706 179.981 402.415 181.281 402.402C182.615 402.377 184.045 402.704 185.571 403.384C187.332 404.168 188.694 405.154 189.656 406.342C190.629 407.507 191.187 408.811 191.333 410.254L187.754 411.277C187.726 410.139 187.377 409.154 186.707 408.321C186.047 407.465 185.248 406.827 184.308 406.409C183.557 406.075 182.869 405.881 182.246 405.828C181.622 405.776 181.096 405.851 180.668 406.054C180.24 406.258 179.926 406.582 179.728 407.029C179.519 407.498 179.512 407.988 179.707 408.497C179.903 409.006 180.416 409.558 181.248 410.153L184.887 412.787C186.432 413.868 187.367 414.959 187.692 416.061C188.052 417.15 187.98 418.257 187.479 419.384C186.977 420.512 186.239 421.379 185.265 421.986C184.302 422.57 183.164 422.851 181.851 422.83C180.538 422.808 179.119 422.457 177.592 421.778Z" fill="#1B1A1A"/>
<path d="M55.9713 268.689L71.7103 247.842L79.0717 251.12C81.5372 252.217 83.1961 253.673 84.0483 255.488C84.924 257.313 84.9228 259.211 84.0446 261.184C83.3441 262.757 82.3294 263.993 81.0004 264.893C79.6819 265.769 78.1614 266.245 76.4389 266.322C74.7268 266.376 72.9198 265.98 71.0178 265.133L63.903 261.965L66.0345 259.073L72.8675 262.116C74.0181 262.628 75.0632 262.84 76.0028 262.752C76.9424 262.664 77.7568 262.351 78.4462 261.814C79.146 261.253 79.684 260.55 80.0604 259.705C80.5413 258.625 80.5642 257.594 80.129 256.613C79.7173 255.641 78.7717 254.827 77.2924 254.168L73.3476 252.412L59.7753 270.383L55.9713 268.689ZM82.649 280.905C80.8879 280.12 79.8851 279.055 79.6407 277.708C79.3962 276.361 79.85 274.931 81.0019 273.419L94.6721 255.322L98.4408 257L84.7549 275.132C84.1124 275.943 83.8731 276.638 84.0372 277.218C84.2117 277.774 84.7333 278.245 85.6021 278.632C85.9309 278.778 86.2179 278.892 86.4631 278.973C86.7319 279.065 86.9706 279.129 87.1794 279.165L85.1461 281.552C84.7077 281.526 84.3019 281.458 83.9288 281.348C83.5687 281.272 83.1421 281.124 82.649 280.905ZM95.6013 286.671C94.3098 286.096 93.2951 285.279 92.5573 284.219C91.8298 283.135 91.4353 281.904 91.3735 280.526C91.3118 279.148 91.6207 277.696 92.3003 276.17C92.938 274.738 93.7557 273.47 94.7533 272.366C95.7745 271.274 96.892 270.407 98.106 269.765C99.3539 269.111 100.643 268.743 101.974 268.66C103.329 268.588 104.652 268.839 105.943 269.414C106.906 269.843 107.702 270.394 108.33 271.068C108.982 271.752 109.437 272.531 109.695 273.406C109.953 274.28 109.972 275.217 109.752 276.217L112.408 272.715L116.177 274.393L104.25 290.184L100.904 288.695L102.962 285.686C101.894 286.504 100.697 287.013 99.3708 287.21C98.0788 287.394 96.8223 287.215 95.6013 286.671ZM98.2375 284.258C98.9889 284.592 99.7822 284.706 100.617 284.6C101.476 284.504 102.309 284.213 103.116 283.728C103.946 283.254 104.706 282.622 105.395 281.831C106.119 281.028 106.705 280.121 107.155 279.112C107.573 278.172 107.757 277.284 107.708 276.446C107.693 275.595 107.464 274.846 107.021 274.199C106.601 273.562 105.98 273.06 105.158 272.694C104.29 272.307 103.414 272.157 102.532 272.242C101.673 272.338 100.829 272.624 99.9986 273.098C99.2023 273.559 98.4594 274.185 97.7699 274.976C97.0908 275.742 96.5317 276.619 96.0927 277.605C95.6431 278.615 95.4259 279.545 95.441 280.396C95.4561 281.247 95.697 282.001 96.1637 282.659C96.6304 283.317 97.3217 283.85 98.2375 284.258ZM109.893 292.697L121.819 276.905L125.13 278.379L122.415 282.487L122.172 282.084C123.334 280.801 124.705 280.06 126.284 279.863C127.873 279.642 129.42 279.867 130.922 280.536C132.237 281.121 133.222 281.911 133.876 282.906C134.541 283.877 134.821 284.987 134.716 286.234C134.621 287.458 134.058 288.755 133.026 290.124L125.742 299.753L121.974 298.075L129.144 288.607C130.045 287.404 130.381 286.302 130.152 285.299C129.934 284.273 129.214 283.489 127.993 282.945C127.053 282.527 126.114 282.362 125.174 282.45C124.258 282.549 123.371 282.899 122.512 283.501C121.663 284.08 120.814 284.912 119.966 285.997L113.661 294.374L109.893 292.697ZM149.879 310.837C148.587 310.262 147.573 309.445 146.835 308.385C146.107 307.301 145.713 306.07 145.651 304.692C145.589 303.314 145.898 301.862 146.578 300.336C147.216 298.903 148.033 297.636 149.031 296.532C150.052 295.44 151.17 294.573 152.384 293.931C153.632 293.277 154.921 292.909 156.252 292.826C157.607 292.754 158.93 293.005 160.221 293.58C161.184 294.009 161.979 294.56 162.608 295.234C163.26 295.918 163.715 296.697 163.973 297.572C164.23 298.446 164.249 299.383 164.03 300.383L166.686 296.881L170.455 298.559L158.528 314.35L155.182 312.861L157.239 309.852C156.171 310.67 154.974 311.179 153.648 311.376C152.356 311.56 151.1 311.381 149.879 310.837ZM152.515 308.424C153.266 308.758 154.06 308.872 154.895 308.766C155.754 308.67 156.586 308.379 157.393 307.894C158.223 307.42 158.983 306.788 159.673 305.997C160.396 305.194 160.983 304.287 161.432 303.278C161.85 302.338 162.035 301.45 161.986 300.612C161.971 299.761 161.742 299.012 161.298 298.365C160.879 297.728 160.258 297.226 159.436 296.86C158.567 296.473 157.692 296.323 156.81 296.408C155.951 296.504 155.106 296.789 154.276 297.264C153.48 297.725 152.737 298.351 152.047 299.142C151.368 299.908 150.809 300.785 150.37 301.771C149.921 302.781 149.704 303.711 149.719 304.562C149.734 305.413 149.975 306.167 150.441 306.825C150.908 307.483 151.599 308.016 152.515 308.424ZM164.17 316.862L176.097 301.071L179.408 302.545L176.692 306.653L176.45 306.25C177.612 304.967 178.983 304.226 180.562 304.029C182.151 303.808 183.697 304.032 185.2 304.702C186.515 305.287 187.5 306.077 188.154 307.072C188.819 308.043 189.099 309.152 188.994 310.4C188.899 311.624 188.336 312.921 187.304 314.29L180.02 323.919L176.251 322.241L183.421 312.772C184.323 311.57 184.659 310.468 184.43 309.465C184.211 308.439 183.491 307.655 182.27 307.111C181.331 306.693 180.392 306.528 179.452 306.616C178.536 306.715 177.648 307.065 176.789 307.667C175.941 308.246 175.092 309.078 174.243 310.163L167.939 318.54L164.17 316.862ZM192.703 329.904C191.411 329.329 190.396 328.511 189.658 327.451C188.931 326.367 188.536 325.137 188.475 323.759C188.413 322.381 188.722 320.928 189.401 319.402C190.039 317.97 190.857 316.702 191.855 315.599C192.876 314.506 193.993 313.639 195.207 312.998C196.455 312.343 197.745 311.975 199.076 311.892C200.43 311.82 201.753 312.071 203.045 312.646C204.007 313.075 204.803 313.626 205.432 314.3C206.084 314.984 206.538 315.764 206.796 316.638C207.054 317.512 207.073 318.449 206.853 319.449L214.834 308.822L218.603 310.5L201.352 333.417L198.006 331.927L200.063 328.918C198.995 329.737 197.798 330.245 196.472 330.442C195.18 330.627 193.924 330.447 192.703 329.904ZM195.303 327.474C196.078 327.819 196.895 327.944 197.754 327.848C198.612 327.752 199.445 327.461 200.252 326.976C201.059 326.491 201.807 325.854 202.496 325.064C203.22 324.26 203.806 323.354 204.256 322.344C204.674 321.405 204.859 320.516 204.81 319.678C204.794 318.828 204.565 318.078 204.122 317.431C203.702 316.794 203.081 316.292 202.26 315.926C201.391 315.54 200.515 315.389 199.633 315.475C198.774 315.571 197.93 315.856 197.1 316.33C196.303 316.792 195.561 317.418 194.871 318.208C194.192 318.975 193.633 319.851 193.194 320.837C192.744 321.847 192.527 322.777 192.542 323.628C192.557 324.479 192.798 325.233 193.265 325.891C193.732 326.549 194.411 327.077 195.303 327.474ZM44.728 313.28C43.507 312.736 42.5614 312.048 41.8912 311.215C41.255 310.369 40.9594 309.421 41.0044 308.372C41.0495 307.323 41.4952 306.227 42.3415 305.085L52.9948 290.92L57.5472 291.597L46.0241 306.766C45.3293 307.695 45.1356 308.509 45.4431 309.209C45.7611 309.885 46.331 310.406 47.1528 310.772C47.7164 311.023 48.2291 311.167 48.691 311.204C49.1764 311.251 49.6358 311.23 50.069 311.142L49.1119 314.05C48.3342 314.154 47.5852 314.13 46.865 313.978C46.1682 313.836 45.4559 313.604 44.728 313.28ZM44.9315 295.476L46.918 292.815L59.4218 298.382L57.4353 301.043L44.9315 295.476ZM51.6895 316.041L63.6162 300.25L66.7862 301.661L64.1056 306.165L63.875 305.64C64.6898 304.821 65.571 304.201 66.5186 303.779C67.4897 303.367 68.4816 303.161 69.4942 303.162C70.5172 303.139 71.4866 303.332 72.4024 303.739C72.7781 303.907 73.0964 304.077 73.3573 304.249C73.6416 304.432 73.8633 304.629 74.0224 304.841L71.4955 307.767C71.3129 307.545 71.0795 307.343 70.7951 307.16C70.5447 306.964 70.1965 306.767 69.7503 306.568C68.905 306.192 68.0178 306.036 67.0886 306.1C66.17 306.142 65.2511 306.436 64.3321 306.983C63.4131 307.531 62.5135 308.382 61.6332 309.538L55.4583 317.719L51.6895 316.041ZM72.7578 325.759C71.4663 325.184 70.4517 324.367 69.7138 323.307C68.9864 322.223 68.5918 320.992 68.5301 319.614C68.4683 318.236 68.7772 316.784 69.4568 315.258C70.0945 313.826 70.9122 312.558 71.9099 311.454C72.931 310.362 74.0486 309.495 75.2625 308.853C76.5105 308.199 77.7999 307.831 79.131 307.748C80.4855 307.676 81.8085 307.927 83.1 308.502C84.0627 308.931 84.8583 309.482 85.4869 310.156C86.1389 310.84 86.5938 311.619 86.8516 312.494C87.1094 313.368 87.1283 314.305 86.9084 315.305L89.5649 311.803L93.3337 313.481L81.407 329.273L78.0609 327.783L80.1181 324.774C79.0501 325.593 77.8532 326.101 76.5273 326.298C75.2353 326.483 73.9788 326.303 72.7578 325.759ZM75.394 323.346C76.1454 323.68 76.9387 323.794 77.7739 323.688C78.6326 323.592 79.4653 323.301 80.272 322.816C81.1023 322.342 81.8621 321.71 82.5516 320.919C83.2751 320.116 83.8616 319.209 84.3111 318.2C84.7293 317.261 84.9139 316.372 84.8648 315.534C84.8497 314.683 84.6206 313.934 84.1773 313.287C83.7576 312.65 83.1367 312.148 82.3149 311.782C81.4461 311.395 80.5706 311.245 79.6884 311.33C78.8298 311.426 77.9853 311.712 77.1551 312.186C76.3588 312.647 75.6159 313.273 74.9264 314.064C74.2473 314.83 73.6883 315.707 73.2492 316.693C72.7996 317.703 72.5824 318.633 72.5975 319.484C72.6126 320.335 72.8535 321.089 73.3202 321.747C73.787 322.405 74.4782 322.938 75.394 323.346ZM95.9952 336.147C94.3046 335.395 93.0056 334.394 92.0982 333.146C91.2143 331.909 90.7102 330.545 90.5859 329.054C90.4955 327.551 90.7796 326.06 91.4383 324.581C92.3269 322.585 93.4985 320.996 94.9529 319.815C96.4412 318.62 98.0885 317.891 99.8947 317.626C101.724 317.371 103.602 317.673 105.527 318.53C106.936 319.157 108.059 319.952 108.896 320.916C109.767 321.867 110.326 322.917 110.574 324.068C110.844 325.23 110.804 326.394 110.454 327.56L106.34 326.657C106.732 325.65 106.763 324.665 106.432 323.702C106.125 322.749 105.337 321.99 104.069 321.426C103.247 321.06 102.407 320.925 101.548 321.021C100.7 321.093 99.8661 321.355 99.0463 321.806C98.2605 322.244 97.5228 322.858 96.8333 323.648C96.1778 324.426 95.62 325.331 95.16 326.364C94.7418 327.303 94.5416 328.227 94.5592 329.135C94.5874 330.02 94.8361 330.82 95.3054 331.536C95.7981 332.261 96.5376 332.844 97.5238 333.283C98.3457 333.649 99.2199 333.771 100.146 333.649C101.083 333.503 101.898 333.064 102.59 332.331L105.563 335.132C104.302 336.259 102.83 336.911 101.146 337.09C99.4734 337.246 97.7563 336.932 95.9952 336.147ZM134.195 331.673L121.161 335.45L120.37 335.52L111.153 338.211L113.563 334.22L129.37 329.525L134.195 331.673ZM127.298 319.107L110.011 342.008L106.242 340.33L123.529 317.429L127.298 319.107ZM122.896 333.733L122.797 347.7L118.887 345.96L119.118 334.541L122.896 333.733Z" fill="#FF9635"/>
<path d="M13.3834 376.081C14.0389 376.373 14.5519 376.748 14.9224 377.206C15.3071 377.659 15.5384 378.166 15.6163 378.728C15.6942 379.29 15.5982 379.875 15.3281 380.481C15.058 381.088 14.688 381.551 14.218 381.869C13.748 382.187 13.214 382.36 12.6159 382.387C12.0319 382.408 11.4122 382.273 10.7567 381.981L8.51129 380.981L6.82549 384.767L5.65143 384.245L9.96393 374.559L13.3834 376.081ZM11.0706 380.802C11.8338 381.141 12.4612 381.233 12.9528 381.077C13.4487 380.911 13.8296 380.529 14.0953 379.933C14.3654 379.326 14.394 378.788 14.1812 378.318C13.9684 377.848 13.4804 377.443 12.7172 377.103L10.6479 376.182L9.00135 379.88L11.0706 380.802ZM20.7846 385.302C21.0285 384.755 21.069 384.268 20.9062 383.844C20.7477 383.41 20.3994 383.074 19.8613 382.834C19.3526 382.607 18.872 382.528 18.4196 382.596C17.9715 382.655 17.5554 382.892 17.1713 383.307L16.4787 382.295C16.9183 381.834 17.4764 381.555 18.1528 381.458C18.8336 381.351 19.5654 381.471 20.3481 381.82C20.8764 382.055 21.3144 382.361 21.6621 382.739C22.0142 383.107 22.2298 383.531 22.3089 384.012C22.4021 384.487 22.3202 385.013 22.0632 385.59L20.4819 389.142C20.3251 389.494 20.4326 389.753 20.8044 389.919C20.9903 390.001 21.1822 390.057 21.38 390.087L20.9097 390.985C20.6705 390.996 20.3943 390.932 20.0812 390.792C19.7975 390.666 19.5671 390.499 19.3899 390.291C19.2128 390.083 19.1086 389.843 19.0772 389.572C19.0502 389.29 19.1108 388.983 19.2589 388.65L19.3242 388.503L19.5982 388.678C19.3109 389.007 18.9709 389.231 18.5783 389.349C18.19 389.458 17.7936 389.492 17.3891 389.453C16.989 389.404 16.6177 389.303 16.2752 389.151C15.8448 388.959 15.4763 388.707 15.1698 388.395C14.8634 388.082 14.663 387.729 14.5686 387.336C14.4884 386.937 14.5463 386.517 14.7424 386.077C14.9863 385.529 15.3677 385.159 15.8865 384.968C16.4195 384.772 17.042 384.756 17.7542 384.92L20.9148 385.642L20.4836 386.61L17.9051 386.043C17.3822 385.927 16.9641 385.905 16.6509 385.977C16.3376 386.048 16.1113 386.241 15.9719 386.554C15.8369 386.857 15.8432 387.159 15.9909 387.459C16.1527 387.754 16.4538 387.999 16.8941 388.195C17.1778 388.321 17.4621 388.407 17.747 388.452C18.046 388.491 18.3309 388.483 18.6017 388.428C18.8769 388.363 19.1232 388.244 19.3408 388.071C19.5628 387.889 19.7435 387.641 19.8829 387.328L20.7846 385.302ZM31.57 386.992L24.3053 394.027C23.906 394.424 23.5328 394.709 23.1858 394.883C22.8442 395.071 22.5103 395.162 22.1841 395.158C21.8633 395.167 21.5268 395.094 21.1746 394.937C20.8419 394.789 20.5555 394.603 20.3153 394.378C20.0806 394.168 19.8905 393.937 19.7449 393.685L20.5252 392.801C20.6424 393.064 20.7913 393.283 20.9717 393.457C21.1575 393.645 21.358 393.788 21.5733 393.883C21.8277 393.997 22.1022 394.025 22.3969 393.969C22.6917 393.912 23.0387 393.686 23.438 393.289L24.2443 392.505L24.2881 390.432L24.4376 383.816L25.7731 384.411L25.4774 390.012L25.3509 391.521L26.5261 390.303L30.3079 386.43L31.57 386.992ZM29.8384 395.013L33.1055 387.676L34.1328 388.133L33.6965 389.31C34.1611 388.978 34.6494 388.803 35.1616 388.784C35.6836 388.771 36.1696 388.864 36.6197 389.064C37.1382 389.295 37.5751 389.63 37.9304 390.07C38.2857 390.509 38.4768 391.028 38.5036 391.626C38.8082 391.363 39.1481 391.192 39.5233 391.113C39.9029 391.024 40.2808 391.005 40.657 391.055C41.0474 391.1 41.3942 391.19 41.6975 391.325C42.1671 391.534 42.5687 391.83 42.9023 392.213C43.2457 392.601 43.4629 393.061 43.5539 393.594C43.6448 394.126 43.5466 394.716 43.2591 395.362L41.1682 400.058L39.9941 399.535L42.0328 394.956C42.329 394.291 42.3761 393.737 42.1741 393.296C41.9721 392.854 41.6266 392.524 41.1374 392.307C40.7558 392.137 40.3573 392.071 39.9419 392.109C39.5265 392.146 39.1354 392.3 38.7688 392.571C38.412 392.846 38.1159 393.247 37.8807 393.776L36.0903 397.797L34.9163 397.274L36.9549 392.695C37.2511 392.03 37.2983 391.477 37.0963 391.035C36.8943 390.593 36.5487 390.264 36.0595 390.046C35.7367 389.902 35.3648 389.842 34.944 389.866C34.5373 389.884 34.1386 390.029 33.7481 390.3C33.3575 390.572 33.0272 391.011 32.7571 391.618L31.0125 395.536L29.8384 395.013ZM46.8282 402.754C46.1336 402.444 45.5798 402.016 45.167 401.469C44.7639 400.926 44.537 400.303 44.4864 399.601C44.4401 398.888 44.5934 398.136 44.9462 397.344C45.2991 396.551 45.7535 395.939 46.3094 395.506C46.8697 395.064 47.4816 394.809 48.1449 394.741C48.8083 394.673 49.4775 394.789 50.1526 395.09C50.8375 395.394 51.3543 395.8 51.703 396.307C52.0615 396.819 52.2547 397.385 52.2826 398.007C52.3148 398.62 52.1915 399.239 51.9127 399.865C51.8387 400.031 51.7663 400.181 51.6955 400.313C51.6247 400.446 51.5556 400.562 51.4881 400.661L45.5591 398.021L46.023 396.979L51.4384 399.39L50.7844 399.24C51.098 398.535 51.1441 397.905 50.9226 397.349C50.711 396.798 50.292 396.383 49.6659 396.104C49.1865 395.89 48.7205 395.818 48.2681 395.886C47.8299 395.949 47.4192 396.147 47.0362 396.48C46.6674 396.809 46.3523 397.266 46.0909 397.853C45.8339 398.431 45.7096 398.973 45.718 399.481C45.7263 399.989 45.8565 400.434 46.1086 400.815C46.3747 401.192 46.7573 401.491 47.2563 401.713C47.7944 401.953 48.2755 402.044 48.6996 401.987C49.1336 401.934 49.5317 401.777 49.8939 401.516L50.5768 402.471C50.2428 402.721 49.8745 402.902 49.4721 403.016C49.0795 403.135 48.657 403.175 48.2047 403.138C47.7665 403.095 47.3077 402.967 46.8282 402.754ZM52.2965 405.012L55.5635 397.674L56.5908 398.132L55.9617 399.821L55.8428 399.575C56.1736 399.253 56.5234 399.034 56.8921 398.917C57.2651 398.79 57.6468 398.749 58.0372 398.793C58.4373 398.843 58.8233 398.95 59.1951 399.116C59.7234 399.351 60.1571 399.667 60.4961 400.064C60.8395 400.451 61.0469 400.907 61.1183 401.431C61.1995 401.96 61.0985 402.542 60.8154 403.178L58.7245 407.874L57.5504 407.352L59.4584 403.066C59.8199 402.254 59.8943 401.613 59.6815 401.143C59.4828 400.668 59.1291 400.317 58.6203 400.091C58.2681 399.934 57.8788 399.86 57.4526 399.87C57.0263 399.879 56.613 400.017 56.2126 400.285C55.8221 400.556 55.4874 401.005 55.2086 401.631L53.4705 405.535L52.2965 405.012ZM67.2092 400.362L63.916 407.759C63.7548 408.121 63.7378 408.436 63.8648 408.703C63.9919 408.971 64.2168 409.177 64.5397 409.32C64.8234 409.447 65.0898 409.507 65.3388 409.5C65.5879 409.494 65.8326 409.445 66.0729 409.352L66.0461 410.519C65.7296 410.624 65.3886 410.666 65.0233 410.644C64.6677 410.626 64.2893 410.528 63.8882 410.349C63.5164 410.184 63.1974 409.965 62.9312 409.695C62.6693 409.414 62.5037 409.088 62.4343 408.717C62.3791 408.341 62.4511 407.916 62.6505 407.442L65.8914 400.163L67.2092 400.362ZM68.9523 403.636L68.5015 404.648L63.1888 402.283L63.6397 401.27L68.9523 403.636ZM80.3848 405.912C81.0404 406.204 81.5534 406.579 81.9239 407.037C82.3085 407.49 82.5398 407.997 82.6177 408.559C82.6957 409.121 82.5996 409.706 82.3295 410.312C82.0594 410.919 81.6894 411.382 81.2195 411.7C80.7495 412.018 80.2154 412.191 79.6173 412.217C79.0334 412.239 78.4137 412.104 77.7581 411.812L75.5127 410.812L73.8269 414.598L72.6529 414.076L76.9654 404.39L80.3848 405.912ZM78.0721 410.633C78.8352 410.972 79.4626 411.064 79.9542 410.908C80.4502 410.742 80.831 410.36 81.0968 409.764C81.3668 409.157 81.3955 408.619 81.1826 408.149C80.9698 407.679 80.4818 407.274 79.7187 406.934L77.6494 406.013L76.0028 409.711L78.0721 410.633ZM87.2754 407.749L83.3353 416.598C83.1698 416.97 83.1229 417.26 83.1945 417.468C83.2705 417.666 83.4601 417.832 83.7634 417.967C83.9591 418.054 84.1271 418.112 84.2673 418.139C84.4076 418.166 84.6028 418.189 84.8529 418.206L84.2047 419.149C84.0177 419.147 83.8247 419.12 83.6257 419.067C83.4224 419.023 83.2229 418.958 83.0272 418.87C82.4304 418.605 82.0571 418.245 81.9073 417.792C81.7673 417.342 81.8455 416.785 82.1417 416.12L86.1013 407.226L87.2754 407.749ZM92.2719 417.131C92.5158 416.583 92.5564 416.097 92.3935 415.672C92.2351 415.239 91.8868 414.902 91.3486 414.662C90.8399 414.436 90.3593 414.356 89.9069 414.425C89.4588 414.483 89.0427 414.72 88.6586 415.135L87.966 414.123C88.4057 413.663 88.9637 413.383 89.6401 413.286C90.3209 413.179 91.0527 413.299 91.8354 413.648C92.3637 413.883 92.8017 414.19 93.1495 414.567C93.5015 414.935 93.7171 415.359 93.7962 415.84C93.8894 416.315 93.8075 416.841 93.5505 417.419L91.9692 420.97C91.8124 421.322 91.9199 421.581 92.2917 421.747C92.4776 421.829 92.6695 421.886 92.8674 421.915L92.397 422.814C92.1578 422.824 91.8816 422.76 91.5685 422.621C91.2848 422.494 91.0544 422.327 90.8773 422.119C90.7001 421.912 90.5959 421.672 90.5646 421.4C90.5376 421.118 90.5981 420.811 90.7462 420.478L90.8116 420.332L91.0855 420.506C90.7982 420.836 90.4582 421.059 90.0656 421.178C89.6773 421.286 89.2809 421.321 88.8764 421.281C88.4763 421.232 88.105 421.131 87.7626 420.979C87.3321 420.787 86.9636 420.535 86.6572 420.223C86.3507 419.911 86.1503 419.558 86.056 419.164C85.9758 418.765 86.0337 418.345 86.2297 417.905C86.4736 417.357 86.855 416.987 87.3738 416.796C87.9068 416.6 88.5293 416.584 89.2415 416.749L92.4021 417.47L91.9709 418.439L89.3925 417.871C88.8695 417.755 88.4514 417.733 88.1382 417.805C87.8249 417.876 87.5986 418.069 87.4592 418.382C87.3242 418.685 87.3305 418.987 87.4782 419.287C87.6401 419.582 87.9411 419.827 88.3814 420.023C88.6651 420.15 88.9494 420.235 89.2343 420.28C89.5333 420.319 89.8182 420.311 90.089 420.256C90.3642 420.191 90.6106 420.072 90.8281 419.899C91.0501 419.717 91.2308 419.469 91.3702 419.156L92.2719 417.131ZM94.1885 423.664L97.4555 416.326L98.4829 416.783L97.8538 418.473L97.7349 418.226C98.0656 417.905 98.4154 417.685 98.7841 417.568C99.1572 417.441 99.5389 417.4 99.9292 417.445C100.329 417.494 100.715 417.602 101.087 417.767C101.615 418.002 102.049 418.318 102.388 418.716C102.732 419.103 102.939 419.559 103.01 420.083C103.092 420.611 102.991 421.194 102.707 421.83L100.617 426.526L99.4424 426.003L101.35 421.718C101.712 420.906 101.786 420.265 101.573 419.795C101.375 419.32 101.021 418.969 100.512 418.742C100.16 418.585 99.7709 418.512 99.3446 418.521C98.9183 418.531 98.505 418.669 98.1047 418.936C97.7141 419.208 97.3794 419.657 97.1006 420.283L95.3626 424.187L94.1885 423.664ZM105.851 429.032C105.137 428.714 104.544 428.269 104.073 427.695C103.611 427.126 103.343 426.491 103.268 425.79L104.586 425.515C104.601 426.061 104.757 426.552 105.055 426.99C105.362 427.431 105.81 427.783 106.397 428.044C106.915 428.275 107.365 428.358 107.745 428.293C108.13 428.218 108.395 428.019 108.539 427.697C108.63 427.491 108.644 427.275 108.581 427.047C108.533 426.815 108.34 426.576 108.003 426.333L106.405 425.182C105.756 424.717 105.351 424.244 105.191 423.762C105.04 423.284 105.078 422.791 105.304 422.282C105.483 421.881 105.759 421.564 106.132 421.332C106.515 421.104 106.96 420.986 107.468 420.977C107.99 420.963 108.54 421.085 109.117 421.342C109.841 421.664 110.389 422.079 110.762 422.584C111.134 423.09 111.328 423.657 111.341 424.284L110.071 424.492C110.096 423.988 109.966 423.555 109.682 423.194C109.401 422.823 109.061 422.548 108.659 422.369C108.307 422.213 107.982 422.126 107.684 422.111C107.396 422.1 107.144 422.152 106.929 422.267C106.728 422.377 106.579 422.539 106.483 422.755C106.387 422.97 106.372 423.203 106.436 423.454C106.504 423.696 106.721 423.945 107.087 424.202L108.752 425.4C109.376 425.842 109.755 426.28 109.89 426.716C110.024 427.151 109.991 427.593 109.791 428.043C109.586 428.503 109.283 428.855 108.882 429.098C108.485 429.331 108.025 429.443 107.502 429.433C106.979 429.423 106.428 429.289 105.851 429.032Z" fill="#1B1A1A"/>
<rect x="-21.2075" y="389.686" width="299" height="125" transform="rotate(24 -21.2075 389.686)" fill="#303778"/>
</g>
</g>
<g filter="url(#filter1_d_0_1)">
<g clip-path="url(#clip1_0_1)">
<rect x="720" y="150.087" width="298" height="256.032" rx="10" transform="rotate(-18 720 150.087)" fill="white"/>
<path d="M768.885 193.49C767.003 194.102 765.149 194.259 763.322 193.96C761.487 193.637 759.848 192.832 758.402 191.545C756.949 190.234 755.857 188.453 755.126 186.204C754.499 184.273 754.188 182.361 754.195 180.467C754.201 178.573 754.515 176.795 755.137 175.134C755.76 173.472 756.73 172.008 758.048 170.742C759.383 169.443 761.065 168.465 763.094 167.805C764.976 167.194 766.81 167.057 768.596 167.396C770.406 167.727 772.021 168.54 773.442 169.835C774.879 171.097 775.967 172.865 776.706 175.139C777.326 177.046 777.648 178.954 777.675 180.865C777.693 182.75 777.379 184.528 776.732 186.198C776.11 187.859 775.143 189.335 773.833 190.626C772.539 191.884 770.89 192.839 768.885 193.49ZM768.059 189.948C769.403 189.511 770.477 188.824 771.281 187.888C772.101 186.919 772.687 185.809 773.038 184.56C773.381 183.287 773.513 181.947 773.434 180.54C773.355 179.133 773.101 177.769 772.673 176.449C772.18 174.934 771.49 173.726 770.603 172.825C769.716 171.924 768.692 171.351 767.531 171.107C766.395 170.854 765.179 170.938 763.884 171.359C762.539 171.796 761.457 172.499 760.637 173.468C759.809 174.413 759.211 175.526 758.843 176.808C758.493 178.057 758.356 179.385 758.435 180.792C758.506 182.174 758.76 183.537 759.197 184.882C759.689 186.398 760.379 187.606 761.266 188.507C762.154 189.408 763.177 189.98 764.338 190.225C765.498 190.469 766.739 190.377 768.059 189.948ZM783.41 188.366L781.706 168.649L785.153 167.53L785.884 172.4L785.434 172.262C785.439 170.531 785.962 169.064 787.004 167.861C788.037 166.633 789.336 165.765 790.901 165.257C792.27 164.812 793.53 164.74 794.682 165.041C795.826 165.318 796.776 165.956 797.533 166.953C798.281 167.926 798.73 169.266 798.88 170.975L799.91 183.004L795.987 184.279L794.979 172.445C794.845 170.948 794.357 169.904 793.516 169.312C792.667 168.696 791.607 168.595 790.336 169.008C789.358 169.325 788.549 169.831 787.91 170.525C787.295 171.212 786.87 172.066 786.635 173.088C786.392 174.086 786.318 175.273 786.413 176.647L787.333 187.091L783.41 188.366ZM814.855 178.513C813.119 179.077 811.513 179.207 810.036 178.904C808.551 178.575 807.264 177.899 806.174 176.875C805.084 175.85 804.285 174.556 803.777 172.991C803.142 171.036 802.953 169.124 803.211 167.257C803.461 165.365 804.173 163.687 805.346 162.225C806.52 160.763 808.158 159.69 810.26 159.007C811.825 158.499 813.272 158.38 814.603 158.65C815.934 158.92 817.08 159.534 818.04 160.493C818.992 161.426 819.714 162.651 820.207 164.167C820.365 164.656 820.492 165.169 820.585 165.706C820.703 166.235 820.76 166.784 820.755 167.353L805.978 172.155L805.001 169.148L817.652 165.037L816.555 166.529C816.558 166.204 816.527 165.903 816.465 165.626C816.394 165.325 816.319 165.052 816.239 164.807C815.977 164.001 815.592 163.355 815.083 162.872C814.599 162.381 814.012 162.071 813.322 161.944C812.632 161.817 811.884 161.885 811.077 162.147C809.977 162.504 809.112 163.042 808.48 163.761C807.866 164.447 807.453 165.257 807.243 166.19C807.024 167.099 806.968 168.049 807.075 169.042C807.181 170.034 807.381 170.983 807.675 171.887C808.009 172.914 808.494 173.742 809.131 174.373C809.785 174.972 810.534 175.363 811.378 175.549C812.246 175.726 813.17 175.656 814.147 175.338C815.296 174.965 816.146 174.418 816.696 173.699C817.27 172.972 817.655 172.158 817.848 171.257L821.55 171.919C821.331 172.909 820.918 173.841 820.309 174.714C819.718 175.555 818.96 176.301 818.037 176.952C817.138 177.596 816.077 178.116 814.855 178.513ZM778.953 237.576C777.56 238.028 776.209 238.237 774.9 238.203C773.616 238.161 772.419 237.888 771.31 237.383C770.2 236.879 769.23 236.181 768.399 235.289L770.786 232.527C771.704 233.607 772.763 234.33 773.964 234.697C775.18 235.031 776.485 234.972 777.879 234.519C779.003 234.154 779.8 233.652 780.268 233.013C780.736 232.375 780.851 231.689 780.613 230.955C780.438 230.418 780.128 230.045 779.682 229.839C779.229 229.608 778.616 229.51 777.843 229.544L774.624 229.617C772.868 229.702 771.459 229.443 770.399 228.842C769.355 228.208 768.647 227.316 768.273 226.168C767.916 225.067 767.896 224.007 768.212 222.985C768.521 221.939 769.146 220.992 770.087 220.146C771.028 219.3 772.244 218.634 773.736 218.15C775.52 217.57 777.216 217.424 778.823 217.713C780.43 218.001 781.778 218.739 782.867 219.926L780.663 222.75C780.187 222.202 779.63 221.775 778.99 221.469C778.35 221.164 777.656 220.984 776.909 220.929C776.186 220.867 775.433 220.963 774.651 221.217C773.453 221.606 772.629 222.104 772.177 222.71C771.717 223.292 771.599 223.925 771.821 224.609C772.02 225.221 772.403 225.61 772.971 225.776C773.538 225.943 774.172 226.021 774.871 226.01L778.773 225.918C780.163 225.872 781.344 226.137 782.315 226.713C783.278 227.265 783.935 228.079 784.284 229.154C784.689 230.401 784.733 231.576 784.416 232.679C784.099 233.782 783.469 234.757 782.528 235.603C781.587 236.449 780.395 237.107 778.953 237.576ZM798.541 231.13C796.732 231.718 795.073 231.851 793.564 231.531C792.079 231.203 790.792 230.526 789.702 229.502C788.604 228.453 787.809 227.171 787.317 225.655C786.642 223.578 786.446 221.601 786.728 219.725C787.035 217.842 787.759 216.201 788.899 214.804C790.064 213.398 791.636 212.374 793.617 211.731C795.426 211.143 797.073 211.013 798.558 211.341C800.067 211.662 801.354 212.338 802.419 213.37C803.484 214.402 804.267 215.689 804.768 217.229C805.427 219.258 805.619 221.222 805.345 223.122C805.087 224.99 804.379 226.638 803.222 228.068C802.057 229.474 800.497 230.494 798.541 231.13ZM797.614 228.026C798.421 227.764 799.103 227.326 799.66 226.712C800.242 226.091 800.674 225.342 800.957 224.467C801.265 223.583 801.402 222.633 801.369 221.617C801.353 220.568 801.17 219.506 800.82 218.43C800.503 217.452 800.049 216.64 799.461 215.994C798.897 215.339 798.189 214.907 797.337 214.697C796.502 214.455 795.559 214.505 794.507 214.846C793.701 215.108 793.006 215.55 792.425 216.172C791.843 216.793 791.41 217.542 791.127 218.418C790.836 219.269 790.699 220.219 790.715 221.267C790.724 222.292 790.907 223.354 791.264 224.454C791.566 225.383 792.015 226.183 792.612 226.854C793.208 227.525 793.924 227.982 794.759 228.224C795.611 228.433 796.563 228.367 797.614 228.026ZM816.339 225.306C814.506 225.902 813.048 225.781 811.965 224.944C810.882 224.107 810.263 222.74 810.106 220.845L808.156 198.25L812.08 196.975L814.042 219.607C814.107 220.64 814.394 221.317 814.904 221.638C815.406 221.934 816.109 221.935 817.013 221.641C817.356 221.53 817.645 221.423 817.882 221.319C818.142 221.207 818.363 221.095 818.542 220.982L818.628 224.117C818.285 224.39 817.938 224.611 817.587 224.779C817.269 224.964 816.853 225.139 816.339 225.306ZM829.303 221.094C827.983 221.523 826.727 221.607 825.534 221.346C824.365 221.077 823.382 220.464 822.585 219.507C821.812 218.542 821.355 217.217 821.213 215.534L820.171 203.467L824.094 202.193L825.103 213.905C825.237 215.483 825.737 216.564 826.602 217.148C827.484 217.699 828.548 217.772 829.795 217.367C830.773 217.049 831.561 216.563 832.159 215.909C832.774 215.223 833.203 214.381 833.446 213.383C833.682 212.361 833.731 211.183 833.595 209.848L832.711 199.393L836.635 198.118L838.338 217.834L834.855 218.966L834.124 214.096L834.586 214.27C834.597 215.969 834.107 217.412 833.114 218.599C832.138 219.754 830.868 220.586 829.303 221.094ZM852.351 213.605C851.08 214.019 849.916 214.14 848.861 213.969C847.822 213.766 846.968 213.26 846.3 212.45C845.631 211.64 845.229 210.528 845.094 209.112L843.533 191.458L847.369 188.914L848.956 207.898C849.061 209.053 849.462 209.788 850.158 210.102C850.847 210.391 851.619 210.397 852.475 210.119C853.061 209.929 853.539 209.693 853.907 209.411C854.299 209.121 854.627 208.799 854.889 208.443L856.124 211.244C855.615 211.842 855.043 212.325 854.406 212.694C853.794 213.056 853.109 213.359 852.351 213.605ZM840.589 200.238L840.285 196.932L853.302 192.702L853.606 196.009L840.589 200.238ZM859.639 187.238C858.905 187.476 858.255 187.471 857.688 187.223C857.121 186.975 856.751 186.501 856.577 185.801C856.324 184.937 856.378 184.19 856.741 183.558C857.103 182.927 857.675 182.484 858.458 182.23C859.215 181.984 859.866 181.989 860.408 182.245C860.967 182.469 861.342 182.915 861.532 183.583C861.777 184.503 861.718 185.279 861.356 185.91C860.993 186.541 860.421 186.984 859.639 187.238ZM861.556 190.02L863.26 209.737L859.336 211.011L857.633 191.295L861.556 190.02ZM878.753 205.067C876.944 205.655 875.285 205.789 873.776 205.469C872.291 205.14 871.003 204.464 869.914 203.44C868.816 202.391 868.021 201.109 867.529 199.593C866.854 197.515 866.657 195.538 866.94 193.663C867.247 191.779 867.97 190.139 869.111 188.741C870.276 187.336 871.848 186.311 873.828 185.668C875.637 185.08 877.284 184.951 878.769 185.279C880.279 185.599 881.566 186.276 882.631 187.308C883.696 188.34 884.479 189.626 884.979 191.166C885.639 193.195 885.831 195.16 885.556 197.06C885.298 198.927 884.591 200.576 883.434 202.006C882.269 203.411 880.709 204.432 878.753 205.067ZM877.826 201.963C878.632 201.701 879.314 201.263 879.872 200.65C880.454 200.028 880.886 199.28 881.169 198.404C881.477 197.52 881.614 196.571 881.581 195.554C881.564 194.506 881.382 193.443 881.032 192.368C880.714 191.39 880.261 190.578 879.673 189.931C879.109 189.277 878.401 188.844 877.549 188.635C876.714 188.393 875.77 188.442 874.719 188.784C873.912 189.046 873.218 189.488 872.636 190.109C872.054 190.731 871.622 191.479 871.339 192.355C871.048 193.206 870.911 194.156 870.927 195.205C870.936 196.229 871.119 197.291 871.476 198.392C871.778 199.32 872.227 200.12 872.823 200.792C873.42 201.463 874.136 201.919 874.971 202.161C875.823 202.371 876.775 202.305 877.826 201.963ZM890.956 200.738L889.252 181.022L892.699 179.902L893.43 184.772L892.98 184.634C892.985 182.903 893.508 181.436 894.55 180.233C895.583 179.005 896.882 178.137 898.447 177.629C899.816 177.184 901.076 177.112 902.228 177.413C903.372 177.69 904.322 178.328 905.079 179.325C905.827 180.298 906.276 181.638 906.426 183.347L907.456 195.376L903.533 196.651L902.525 184.817C902.39 183.32 901.902 182.276 901.062 181.684C900.213 181.068 899.153 180.967 897.882 181.38C896.904 181.697 896.095 182.203 895.456 182.898C894.841 183.584 894.416 184.438 894.181 185.46C893.937 186.458 893.863 187.645 893.959 189.019L894.879 199.463L890.956 200.738Z" fill="#3063E9"/>
<path d="M924.283 163.68L930.204 181.904C930.498 182.809 930.945 183.393 931.544 183.658C932.168 183.915 932.884 183.912 933.69 183.65C934.35 183.435 934.893 183.151 935.318 182.796C935.736 182.418 936.093 181.977 936.389 181.476L938.198 184.05C937.795 184.721 937.225 185.339 936.49 185.902C935.77 186.433 934.909 186.862 933.907 187.187C932.856 187.529 931.835 187.671 930.844 187.615C929.852 187.559 928.989 187.231 928.254 186.632C927.511 186.009 926.925 185.078 926.495 183.839L920.717 166.055L924.283 163.68ZM932.341 167.021L933.342 170.101L919.591 174.569L918.591 171.489L932.341 167.021ZM944.06 162.808C945.844 162.228 947.544 162.095 949.159 162.408C950.774 162.721 952.195 163.475 953.422 164.671C954.664 165.835 955.608 167.407 956.251 169.387C956.894 171.367 957.059 173.205 956.746 174.902C956.448 176.566 955.739 177.999 954.616 179.202C953.493 180.405 952.039 181.296 950.255 181.876C948.47 182.455 946.771 182.589 945.155 182.276C943.54 181.963 942.111 181.224 940.868 180.061C939.617 178.873 938.67 177.289 938.027 175.308C937.384 173.328 937.223 171.502 937.544 169.83C937.858 168.134 938.576 166.684 939.699 165.482C940.821 164.279 942.275 163.388 944.06 162.808ZM945.06 165.888C943.96 166.246 943.103 166.808 942.487 167.576C941.888 168.311 941.536 169.223 941.43 170.311C941.324 171.399 941.498 172.64 941.95 174.034C942.395 175.403 942.984 176.508 943.717 177.351C944.443 178.17 945.268 178.712 946.192 178.979C947.134 179.214 948.154 179.153 949.254 178.795C950.354 178.438 951.204 177.892 951.803 177.157C952.394 176.397 952.742 175.473 952.848 174.385C952.946 173.272 952.772 172.031 952.327 170.662C951.875 169.269 951.286 168.163 950.56 167.344C949.835 166.526 949.014 165.995 948.097 165.753C947.173 165.486 946.16 165.531 945.06 165.888ZM786.494 281.995L780.537 263.661L784.02 262.529L785.205 265.55C785.459 264.17 786.02 263.028 786.889 262.124C787.782 261.212 788.827 260.562 790.025 260.173C791.345 259.744 792.654 259.656 793.953 259.91C795.268 260.131 796.401 260.75 797.353 261.765C797.482 260.831 797.801 259.984 798.311 259.224C798.821 258.464 799.451 257.826 800.203 257.312C800.947 256.773 801.722 256.372 802.529 256.11C803.702 255.729 804.882 255.616 806.067 255.771C807.253 255.926 808.326 256.402 809.287 257.198C810.249 257.993 810.983 259.174 811.492 260.738L815.352 272.619L811.428 273.893L807.771 262.636C807.286 261.145 806.582 260.185 805.659 259.755C804.736 259.325 803.724 259.289 802.624 259.647C801.768 259.925 801.041 260.391 800.443 261.044C799.869 261.69 799.497 262.5 799.327 263.474C799.149 264.424 799.255 265.498 799.644 266.696L802.885 276.669L798.961 277.944L795.304 266.687C794.819 265.196 794.115 264.236 793.192 263.806C792.268 263.376 791.257 263.34 790.157 263.697C789.423 263.936 788.753 264.37 788.147 264.999C787.541 265.628 787.128 266.438 786.909 267.428C786.691 268.418 786.804 269.598 787.248 270.967L790.418 280.72L786.494 281.995ZM828.073 255.472C827.676 254.25 827.028 253.42 826.129 252.982C825.246 252.512 824.218 252.468 823.045 252.849C821.945 253.207 821.087 253.769 820.472 254.537C819.856 255.304 819.552 256.322 819.559 257.59L815.806 257.269C815.786 255.627 816.301 254.135 817.351 252.794C818.427 251.445 820.04 250.42 822.191 249.721C823.658 249.245 825.033 249.068 826.316 249.192C827.591 249.291 828.702 249.714 829.647 250.461C830.617 251.2 831.344 252.315 831.829 253.806L834.485 261.983C834.779 262.887 835.379 263.193 836.283 262.899C836.723 262.756 837.131 262.556 837.507 262.299L838.168 265.083C837.694 265.535 837.028 265.9 836.173 266.178C835.391 266.432 834.638 266.528 833.915 266.465C833.209 266.371 832.581 266.102 832.031 265.659C831.498 265.183 831.093 264.518 830.815 263.662L830.732 263.405L831.526 263.107C831.616 264.131 831.422 265.073 830.944 265.931C830.458 266.764 829.815 267.487 829.013 268.099C828.204 268.686 827.335 269.13 826.406 269.432C825.257 269.806 824.159 269.96 823.111 269.895C822.087 269.822 821.187 269.506 820.411 268.948C819.652 268.357 819.093 267.511 818.736 266.411C818.291 265.042 818.365 263.775 818.96 262.609C819.578 261.435 820.655 260.423 822.189 259.573L828.85 255.868L829.707 258.63L824.882 261.374C823.919 261.903 823.24 262.434 822.846 262.968C822.452 263.501 822.37 264.122 822.6 264.831C822.823 265.516 823.258 265.982 823.907 266.231C824.572 266.447 825.344 266.413 826.224 266.127C826.835 265.928 827.398 265.664 827.913 265.335C828.452 264.997 828.902 264.594 829.263 264.126C829.616 263.633 829.832 263.09 829.909 262.497C830.004 261.872 829.931 261.192 829.693 260.459L828.073 255.472ZM842.213 263.891L836.255 245.557L839.739 244.425L841.544 249.109L840.864 248.762C840.865 247.6 841.072 246.573 841.485 245.682C841.915 244.759 842.518 243.995 843.295 243.391C844.096 242.78 844.998 242.311 846 241.985C847.296 241.564 848.54 241.444 849.734 241.624C850.944 241.771 852.017 242.246 852.954 243.05C853.891 243.854 854.609 245.026 855.11 246.566L858.97 258.446L855.046 259.721L851.579 249.051C850.992 247.242 850.208 246.118 849.227 245.68C848.264 245.209 847.22 245.157 846.095 245.522C845.288 245.784 844.57 246.234 843.939 246.871C843.3 247.484 842.859 248.289 842.616 249.287C842.397 250.277 842.514 251.469 842.967 252.863L846.136 262.616L842.213 263.891ZM871.688 241.301C871.291 240.079 870.643 239.249 869.744 238.811C868.861 238.341 867.834 238.297 866.66 238.678C865.56 239.035 864.702 239.598 864.087 240.365C863.471 241.133 863.167 242.151 863.174 243.419L859.421 243.098C859.401 241.455 859.916 239.964 860.967 238.622C862.042 237.273 863.655 236.249 865.806 235.55C867.273 235.073 868.648 234.897 869.931 235.02C871.207 235.12 872.317 235.543 873.262 236.289C874.232 237.028 874.959 238.143 875.444 239.635L878.101 247.812C878.394 248.716 878.994 249.021 879.898 248.727C880.338 248.584 880.746 248.384 881.122 248.127L881.784 250.912C881.309 251.364 880.644 251.728 879.788 252.006C879.006 252.261 878.253 252.356 877.53 252.294C876.824 252.199 876.196 251.93 875.646 251.487C875.114 251.012 874.708 250.346 874.43 249.491L874.347 249.234L875.141 248.935C875.231 249.96 875.037 250.901 874.559 251.759C874.073 252.593 873.43 253.316 872.628 253.927C871.819 254.514 870.95 254.959 870.021 255.261C868.872 255.634 867.774 255.788 866.726 255.724C865.702 255.651 864.802 255.335 864.026 254.776C863.267 254.185 862.708 253.34 862.351 252.24C861.906 250.871 861.981 249.603 862.575 248.437C863.193 247.263 864.27 246.252 865.804 245.402L872.465 241.697L873.322 244.459L868.497 247.202C867.534 247.731 866.856 248.263 866.461 248.796C866.067 249.33 865.985 249.951 866.216 250.66C866.438 251.344 866.873 251.811 867.522 252.06C868.187 252.276 868.959 252.241 869.839 251.955C870.45 251.757 871.013 251.493 871.528 251.163C872.067 250.826 872.517 250.423 872.878 249.954C873.231 249.461 873.447 248.918 873.524 248.325C873.619 247.7 873.547 247.021 873.308 246.288L871.688 241.301ZM894.825 222.27L896.449 225.147C896.376 225.171 896.303 225.195 896.229 225.219C896.148 225.218 896.071 225.23 895.997 225.254C894.824 225.635 894.015 226.182 893.571 226.894C893.119 227.581 893.047 228.401 893.357 229.355L891.164 229.094C890.847 228.116 890.772 227.181 890.942 226.288C891.103 225.371 891.491 224.569 892.106 223.883C892.745 223.189 893.554 222.683 894.532 222.365C894.581 222.349 894.63 222.333 894.679 222.318C894.727 222.302 894.776 222.286 894.825 222.27ZM895.31 243.476C897.168 242.873 898.746 242.82 900.042 243.317C901.331 243.79 902.21 244.748 902.679 246.19C903.092 247.462 903.042 248.68 902.529 249.847C902.024 251.038 901.154 252.104 899.92 253.046C898.71 253.98 897.212 254.737 895.428 255.316C892.421 256.293 890.046 256.552 888.301 256.091C886.557 255.631 885.459 254.704 885.006 253.311C884.688 252.333 884.753 251.366 885.199 250.41C885.67 249.447 886.72 248.646 888.351 248.008L888.321 248.666C887.223 248.78 886.265 248.659 885.447 248.303C884.645 247.915 884.073 247.195 883.732 246.144C883.39 245.093 883.503 244.07 884.072 243.074C884.64 242.079 885.638 241.282 887.065 240.683L889.44 241.006L889 241.149C887.907 241.612 887.196 242.127 886.867 242.693C886.537 243.259 886.456 243.799 886.623 244.313C886.822 244.924 887.188 245.305 887.724 245.455C888.284 245.597 888.979 245.534 889.81 245.264L895.31 243.476ZM894.475 252.383C895.819 251.946 896.876 251.454 897.644 250.907C898.444 250.377 898.985 249.836 899.265 249.286C899.578 248.752 899.655 248.24 899.497 247.751C899.314 247.189 898.935 246.812 898.359 246.621C897.808 246.422 896.946 246.513 895.772 246.894L889.869 248.812C889.184 249.034 888.665 249.392 888.312 249.885C887.967 250.403 887.893 250.967 888.092 251.579C888.354 252.385 889.049 252.862 890.178 253.009C891.307 253.155 892.739 252.947 894.475 252.383ZM886.643 228.78C888.257 228.255 889.734 228.059 891.074 228.191C892.438 228.316 893.589 228.739 894.527 229.461C895.489 230.176 896.172 231.156 896.577 232.403C896.982 233.65 897.006 234.845 896.647 235.988C896.314 237.124 895.631 238.143 894.6 239.045C893.594 239.94 892.284 240.649 890.67 241.173C888.128 241.999 885.99 242.073 884.255 241.393C882.538 240.681 881.377 239.396 880.773 237.538C880.368 236.291 880.345 235.096 880.703 233.953C881.061 232.809 881.743 231.79 882.75 230.896C883.781 229.993 885.079 229.288 886.643 228.78ZM887.537 231.53C886.412 231.895 885.574 232.519 885.023 233.4C884.488 234.25 884.392 235.2 884.733 236.251C885.075 237.302 885.716 238.027 886.655 238.424C887.62 238.813 888.664 238.825 889.789 238.46C890.938 238.087 891.776 237.463 892.302 236.589C892.854 235.707 892.959 234.741 892.617 233.69C892.275 232.639 891.626 231.931 890.67 231.566C889.73 231.168 888.686 231.156 887.537 231.53ZM913.888 241.008C912.054 241.604 910.318 241.749 908.678 241.444C907.039 241.139 905.597 240.404 904.354 239.241C903.128 238.045 902.193 236.457 901.55 234.476C900.906 232.496 900.733 230.674 901.03 229.01C901.344 227.314 902.062 225.864 903.185 224.662C904.307 223.459 905.737 222.576 907.472 222.012C909.257 221.432 910.892 221.306 912.377 221.634C913.862 221.963 915.141 222.655 916.214 223.712C917.287 224.769 918.085 226.104 918.61 227.717C918.753 228.157 918.875 228.577 918.978 228.976C919.081 229.375 919.155 229.729 919.202 230.038L904.461 234.828L903.484 231.821L916.501 227.591L914.748 228.81C914.208 227.147 913.38 226.011 912.263 225.401C911.138 224.767 909.854 224.684 908.412 225.152C907.361 225.494 906.523 226.036 905.9 226.779C905.276 227.522 904.916 228.45 904.818 229.563C904.712 230.652 904.886 231.893 905.338 233.286C905.783 234.655 906.38 235.745 907.13 236.555C907.88 237.365 908.738 237.884 909.703 238.111C910.669 238.338 911.702 238.272 912.802 237.915C914.024 237.518 914.939 236.964 915.545 236.253C916.152 235.542 916.541 234.7 916.711 233.726L920.304 234.18C920.15 235.203 919.801 236.168 919.258 237.074C918.731 237.948 918.01 238.722 917.094 239.398C916.179 240.074 915.11 240.611 913.888 241.008ZM948.213 209.18L946.843 232.287C946.766 233.879 946.544 235.194 946.179 236.232C945.838 237.262 945.323 238.091 944.636 238.72C943.948 239.348 943.067 239.838 941.991 240.187C941.111 240.473 940.252 240.617 939.415 240.619C938.61 240.637 937.863 240.542 937.174 240.333L937.138 236.98C937.73 237.22 938.314 237.355 938.891 237.384C939.492 237.404 940.099 237.316 940.71 237.117C941.37 236.903 941.897 236.529 942.291 235.995C942.718 235.478 942.968 234.627 943.042 233.44L943.205 231.198L939.785 227.283L929.549 215.244L933.949 213.814L941.76 224.006L943.944 227.107L943.926 222.937L944.143 210.502L948.213 209.18ZM959.29 205.175C961.075 204.595 962.775 204.462 964.39 204.775C966.005 205.088 967.426 205.842 968.652 207.039C969.895 208.202 970.838 209.774 971.482 211.754C972.125 213.734 972.29 215.572 971.976 217.269C971.679 218.933 970.969 220.366 969.846 221.569C968.724 222.772 967.27 223.663 965.486 224.243C963.701 224.822 962.001 224.956 960.386 224.643C958.771 224.33 957.342 223.591 956.099 222.428C954.848 221.24 953.901 219.656 953.258 217.676C952.614 215.695 952.453 213.869 952.775 212.197C953.088 210.501 953.807 209.051 954.929 207.849C956.052 206.646 957.506 205.755 959.29 205.175ZM960.291 208.255C959.191 208.613 958.333 209.175 957.718 209.943C957.119 210.678 956.766 211.59 956.661 212.678C956.555 213.766 956.728 215.007 957.181 216.401C957.626 217.77 958.215 218.876 958.948 219.718C959.674 220.537 960.498 221.079 961.423 221.347C962.364 221.581 963.385 221.52 964.485 221.162C965.585 220.805 966.434 220.259 967.033 219.524C967.624 218.764 967.973 217.84 968.079 216.752C968.176 215.639 968.003 214.398 967.558 213.029C967.105 211.636 966.516 210.53 965.791 209.711C965.066 208.893 964.245 208.362 963.328 208.12C962.403 207.853 961.391 207.898 960.291 208.255ZM986.042 217.563C984.844 217.953 983.661 218.094 982.491 217.988C981.346 217.873 980.309 217.426 979.38 216.647C978.451 215.868 977.732 214.696 977.224 213.131L973.292 201.031L977.216 199.756L980.826 210.867C981.366 212.529 982.094 213.563 983.009 213.968C983.917 214.349 985.006 214.333 986.277 213.92C986.888 213.721 987.443 213.433 987.942 213.054C988.457 212.644 988.875 212.143 989.197 211.552C989.51 210.937 989.674 210.235 989.688 209.446C989.727 208.65 989.591 207.775 989.282 206.822L986.053 196.885L989.976 195.61L995.933 213.944L992.487 215.064L991.338 212.153C991.076 213.509 990.494 214.63 989.594 215.518C988.693 216.405 987.509 217.087 986.042 217.563ZM1002.06 211.952L996.106 193.618L999.443 192.534L1000.88 195.715C1000.98 194.358 1001.41 193.22 1002.16 192.299C1002.93 191.345 1004.03 190.638 1005.45 190.178C1005.81 190.059 1006.19 189.976 1006.58 189.93C1006.97 189.86 1007.3 189.846 1007.58 189.889L1008.15 193.515C1007.85 193.504 1007.52 193.53 1007.16 193.593C1006.82 193.623 1006.37 193.729 1005.81 193.911C1005.05 194.158 1004.37 194.608 1003.77 195.262C1003.17 195.891 1002.75 196.689 1002.53 197.654C1002.32 198.612 1002.42 199.714 1002.83 200.961L1005.99 210.678L1002.06 211.952ZM810.346 321.966C809.27 322.316 808.213 322.43 807.173 322.308C806.158 322.178 805.226 321.846 804.377 321.311C803.519 320.752 802.793 320.056 802.198 319.222L802.472 318.444L803.847 323.673L800.4 324.793L791.762 298.208L795.685 296.933L799.867 309.804L799.225 309.324C799.276 307.901 799.733 306.604 800.596 305.432C801.45 304.236 802.672 303.379 804.261 302.863C805.727 302.387 807.195 302.329 808.663 302.689C810.156 303.042 811.488 303.812 812.657 305C813.827 306.187 814.741 307.795 815.401 309.824C816.044 311.804 816.229 313.622 815.957 315.279C815.708 316.927 815.084 318.332 814.084 319.495C813.107 320.65 811.862 321.474 810.346 321.966ZM808.478 319.087C810.067 318.571 811.119 317.607 811.633 316.197C812.165 314.754 812.109 313.043 811.465 311.062C810.822 309.082 809.877 307.673 808.632 306.835C807.387 305.996 805.969 305.835 804.38 306.351C803.354 306.685 802.549 307.244 801.966 308.028C801.375 308.787 801.014 309.715 800.884 310.811C800.778 311.9 800.94 313.104 801.369 314.424C801.79 315.72 802.363 316.777 803.088 317.595C803.805 318.389 804.626 318.919 805.551 319.187C806.5 319.446 807.476 319.413 808.478 319.087ZM830.035 315.569C828.837 315.958 827.654 316.1 826.484 315.993C825.339 315.879 824.302 315.432 823.373 314.653C822.444 313.873 821.725 312.702 821.217 311.137L817.285 299.037L821.209 297.762L824.819 308.872C825.359 310.534 826.087 311.568 827.002 311.973C827.91 312.354 828.999 312.338 830.27 311.925C830.881 311.727 831.436 311.438 831.935 311.06C832.45 310.649 832.868 310.148 833.19 309.558C833.503 308.942 833.667 308.24 833.681 307.452C833.72 306.656 833.584 305.781 833.275 304.827L830.046 294.89L833.969 293.616L839.926 311.95L836.48 313.07L835.331 310.159C835.069 311.515 834.487 312.636 833.587 313.523C832.686 314.41 831.502 315.092 830.035 315.569ZM853.142 308.061C851.309 308.657 849.519 308.846 847.773 308.63C846.027 308.413 844.504 307.8 843.203 306.791L845.154 303.562C846.017 304.39 847.049 304.946 848.25 305.232C849.467 305.485 850.785 305.381 852.203 304.92C853.327 304.555 854.156 304.07 854.689 303.464C855.222 302.858 855.373 302.201 855.143 301.492C854.992 301.028 854.702 300.676 854.273 300.437C853.86 300.166 853.195 300.071 852.276 300.154L848.163 300.598C846.081 300.842 844.485 300.672 843.375 300.086C842.258 299.476 841.481 298.499 841.045 297.154C840.719 296.152 840.71 295.128 841.019 294.082C841.328 293.035 841.961 292.073 842.919 291.194C843.893 290.283 845.174 289.569 846.763 289.053C848.597 288.457 850.269 288.279 851.779 288.518C853.281 288.733 854.569 289.328 855.642 290.303L853.668 293.458C852.885 292.631 851.967 292.133 850.911 291.962C849.848 291.767 848.827 291.828 847.849 292.146C847.067 292.4 846.427 292.716 845.928 293.095C845.429 293.473 845.089 293.881 844.907 294.318C844.725 294.756 844.709 295.207 844.86 295.671C845.019 296.16 845.341 296.529 845.827 296.776C846.313 297.024 847.064 297.09 848.081 296.976L852.547 296.498C854.418 296.268 855.844 296.454 856.822 297.055C857.818 297.623 858.506 298.494 858.888 299.667C859.269 300.841 859.301 301.979 858.984 303.082C858.658 304.161 858.001 305.131 857.011 305.993C856.021 306.855 854.731 307.545 853.142 308.061ZM860.487 281.594C859.631 281.872 858.903 281.879 858.304 281.614C857.721 281.317 857.302 280.778 857.048 279.995C856.794 279.213 856.819 278.543 857.124 277.984C857.454 277.418 858.046 276.995 858.902 276.717C859.733 276.447 860.436 276.449 861.011 276.721C861.611 276.986 862.038 277.509 862.292 278.292C862.546 279.074 862.512 279.76 862.191 280.351C861.886 280.91 861.318 281.324 860.487 281.594ZM863.431 284.043L869.388 302.377L865.464 303.652L859.507 285.318L863.431 284.043ZM875.527 300.382L869.57 282.048L873.053 280.916L874.859 285.6L874.178 285.253C874.179 284.091 874.386 283.064 874.799 282.173C875.229 281.25 875.832 280.486 876.609 279.883C877.41 279.271 878.312 278.802 879.314 278.477C880.61 278.056 881.854 277.935 883.048 278.115C884.258 278.262 885.331 278.738 886.268 279.542C887.205 280.345 887.923 281.517 888.424 283.057L892.284 294.938L888.361 296.212L884.894 285.542C884.306 283.733 883.522 282.609 882.542 282.171C881.578 281.701 880.534 281.648 879.409 282.013C878.603 282.275 877.884 282.725 877.253 283.363C876.614 283.975 876.173 284.781 875.93 285.779C875.711 286.769 875.828 287.96 876.281 289.354L879.45 299.108L875.527 300.382ZM906.416 290.751C904.582 291.347 902.846 291.492 901.206 291.187C899.566 290.882 898.125 290.148 896.882 288.984C895.656 287.788 894.721 286.2 894.078 284.22C893.434 282.24 893.261 280.418 893.558 278.754C893.872 277.057 894.59 275.608 895.713 274.405C896.835 273.203 898.265 272.319 900 271.755C901.785 271.176 903.419 271.05 904.904 271.378C906.389 271.706 907.669 272.399 908.742 273.456C909.815 274.512 910.613 275.847 911.138 277.461C911.28 277.901 911.403 278.32 911.506 278.719C911.609 279.118 911.683 279.473 911.73 279.782L896.989 284.571L896.012 281.565L909.029 277.335L907.276 278.553C906.736 276.891 905.908 275.755 904.791 275.145C903.666 274.51 902.382 274.427 900.94 274.896C899.888 275.238 899.051 275.78 898.428 276.523C897.804 277.266 897.444 278.194 897.346 279.307C897.24 280.395 897.414 281.636 897.866 283.03C898.311 284.399 898.908 285.488 899.658 286.299C900.408 287.109 901.266 287.628 902.231 287.854C903.197 288.081 904.23 288.016 905.33 287.658C906.552 287.261 907.466 286.707 908.073 285.997C908.68 285.286 909.069 284.444 909.239 283.469L912.832 283.924C912.678 284.947 912.329 285.911 911.786 286.817C911.259 287.691 910.538 288.466 909.622 289.142C908.707 289.818 907.638 290.354 906.416 290.751ZM926.514 284.221C924.681 284.817 922.891 285.006 921.145 284.79C919.399 284.573 917.876 283.96 916.575 282.951L918.526 279.722C919.389 280.55 920.421 281.106 921.622 281.392C922.84 281.645 924.157 281.541 925.575 281.08C926.7 280.715 927.528 280.229 928.061 279.624C928.594 279.018 928.745 278.361 928.515 277.652C928.364 277.188 928.074 276.836 927.645 276.597C927.233 276.326 926.567 276.231 925.648 276.314L921.536 276.758C919.453 277.002 917.857 276.832 916.748 276.246C915.631 275.636 914.854 274.659 914.417 273.314C914.091 272.312 914.083 271.288 914.391 270.242C914.7 269.195 915.333 268.233 916.291 267.354C917.265 266.443 918.547 265.729 920.136 265.213C921.969 264.617 923.641 264.439 925.151 264.678C926.653 264.893 927.941 265.488 929.015 266.463L927.04 269.618C926.258 268.791 925.339 268.293 924.283 268.122C923.22 267.927 922.2 267.988 921.222 268.306C920.439 268.56 919.799 268.876 919.3 269.255C918.802 269.633 918.461 270.041 918.279 270.478C918.097 270.916 918.081 271.367 918.232 271.831C918.391 272.32 918.713 272.688 919.199 272.936C919.685 273.184 920.436 273.25 921.453 273.136L925.919 272.658C927.791 272.428 929.216 272.614 930.195 273.215C931.19 273.783 931.879 274.654 932.26 275.827C932.641 277.001 932.673 278.139 932.356 279.242C932.031 280.321 931.373 281.291 930.383 282.153C929.393 283.015 928.103 283.705 926.514 284.221ZM945.923 277.915C944.089 278.51 942.3 278.7 940.554 278.484C938.808 278.267 937.284 277.654 935.983 276.644L937.934 273.416C938.798 274.244 939.83 274.8 941.031 275.086C942.248 275.339 943.566 275.235 944.983 274.774C946.108 274.409 946.937 273.923 947.47 273.318C948.002 272.712 948.154 272.055 947.923 271.346C947.773 270.881 947.483 270.53 947.054 270.291C946.641 270.019 945.975 269.925 945.056 270.007L940.944 270.452C938.861 270.696 937.265 270.525 936.156 269.94C935.039 269.33 934.262 268.353 933.825 267.008C933.5 266.006 933.491 264.982 933.8 263.935C934.108 262.889 934.742 261.927 935.699 261.048C936.673 260.137 937.955 259.423 939.544 258.907C941.377 258.311 943.049 258.133 944.559 258.372C946.061 258.586 947.349 259.182 948.423 260.157L946.448 263.312C945.666 262.485 944.747 261.986 943.692 261.816C942.628 261.621 941.608 261.682 940.63 262C939.848 262.254 939.207 262.57 938.709 262.948C938.21 263.327 937.87 263.735 937.687 264.172C937.505 264.61 937.49 265.061 937.641 265.525C937.799 266.014 938.122 266.382 938.608 266.63C939.093 266.877 939.845 266.944 940.862 266.83L945.328 266.352C947.199 266.122 948.624 266.308 949.603 266.908C950.599 267.477 951.287 268.348 951.668 269.521C952.049 270.694 952.081 271.833 951.764 272.936C951.439 274.014 950.781 274.985 949.791 275.847C948.801 276.709 947.512 277.398 945.923 277.915ZM958.617 267.912C959.448 267.642 960.187 267.672 960.835 268.002C961.499 268.3 961.963 268.852 962.225 269.659C962.487 270.465 962.441 271.197 962.086 271.852C961.756 272.5 961.175 272.959 960.344 273.229C959.489 273.507 958.725 273.485 958.053 273.163C957.405 272.833 956.95 272.264 956.688 271.458C956.426 270.651 956.464 269.936 956.802 269.313C957.156 268.657 957.761 268.19 958.617 267.912Z" fill="#1B1A1A"/>
<path d="M811.111 348.051C811.794 347.829 812.426 347.764 813.008 347.857C813.597 347.936 814.108 348.158 814.542 348.524C814.976 348.89 815.296 349.388 815.501 350.02C815.706 350.651 815.741 351.242 815.605 351.794C815.468 352.345 815.187 352.83 814.76 353.25C814.341 353.657 813.79 353.971 813.107 354.193L810.77 354.952L812.05 358.894L810.828 359.291L807.552 349.207L811.111 348.051ZM812.551 353.106C813.346 352.848 813.874 352.497 814.134 352.052C814.392 351.596 814.42 351.058 814.218 350.437C814.013 349.805 813.674 349.386 813.201 349.179C812.728 348.972 812.095 348.998 811.3 349.256L809.146 349.956L810.397 353.806L812.551 353.106ZM822.782 349.951C822.597 349.381 822.301 348.993 821.897 348.786C821.488 348.57 821.004 348.553 820.444 348.735C819.914 348.907 819.504 349.169 819.214 349.523C818.92 349.866 818.769 350.32 818.761 350.886L817.57 350.598C817.588 349.961 817.816 349.38 818.254 348.855C818.688 348.32 819.312 347.92 820.127 347.655C820.677 347.476 821.208 347.411 821.719 347.459C822.226 347.497 822.671 347.668 823.051 347.972C823.438 348.263 823.729 348.709 823.925 349.31L825.126 353.007C825.245 353.374 825.498 353.494 825.885 353.368C826.079 353.306 826.259 353.219 826.426 353.108L826.678 354.091C826.507 354.259 826.259 354.396 825.933 354.502C825.637 354.598 825.354 354.628 825.084 354.592C824.813 354.556 824.575 354.447 824.37 354.266C824.161 354.075 824.001 353.806 823.888 353.46L823.839 353.307L824.159 353.254C824.166 353.691 824.063 354.084 823.85 354.435C823.634 354.776 823.363 355.066 823.036 355.308C822.706 355.539 822.362 355.712 822.006 355.828C821.558 355.974 821.115 356.033 820.678 356.006C820.242 355.979 819.857 355.851 819.523 355.621C819.196 355.379 818.959 355.028 818.81 354.57C818.624 353.999 818.661 353.469 818.918 352.98C819.183 352.478 819.635 352.049 820.274 351.695L823.106 350.116L823.433 351.125L821.137 352.428C820.671 352.692 820.346 352.956 820.161 353.218C819.976 353.481 819.937 353.775 820.043 354.101C820.145 354.417 820.352 354.637 820.662 354.761C820.98 354.872 821.368 354.853 821.826 354.704C822.122 354.608 822.39 354.482 822.632 354.324C822.88 354.153 823.087 353.957 823.251 353.735C823.412 353.502 823.516 353.249 823.562 352.975C823.604 352.691 823.573 352.386 823.467 352.06L822.782 349.951ZM831.928 343.99L831.236 354.079C831.205 354.641 831.118 355.103 830.977 355.464C830.849 355.832 830.662 356.124 830.416 356.339C830.184 356.56 829.885 356.731 829.518 356.85C829.172 356.963 828.835 357.016 828.506 357.01C828.191 357.011 827.895 356.966 827.618 356.876L827.607 355.698C827.87 355.815 828.127 355.878 828.378 355.886C828.642 355.902 828.886 355.873 829.11 355.8C829.375 355.714 829.598 355.552 829.779 355.313C829.96 355.074 830.067 354.673 830.098 354.111L830.173 352.989L828.818 351.419L824.502 346.403L825.893 345.951L829.421 350.311L830.336 351.517L830.395 349.826L830.614 344.417L831.928 343.99ZM836.008 351.11L833.526 343.471L834.596 343.123L835.059 344.29C835.182 343.732 835.428 343.275 835.796 342.919C836.175 342.559 836.598 342.303 837.067 342.151C837.607 341.976 838.156 341.932 838.714 342.021C839.272 342.11 839.761 342.368 840.181 342.795C840.232 342.395 840.37 342.041 840.596 341.731C840.818 341.411 841.086 341.144 841.399 340.929C841.72 340.701 842.037 340.536 842.353 340.433C842.842 340.275 843.339 340.226 843.843 340.287C844.357 340.345 844.826 340.542 845.251 340.877C845.675 341.212 845.996 341.716 846.215 342.388L847.803 347.277L846.581 347.674L845.032 342.908C844.807 342.215 844.472 341.772 844.026 341.579C843.58 341.386 843.103 341.372 842.594 341.538C842.196 341.667 841.856 341.884 841.573 342.19C841.289 342.496 841.102 342.873 841.01 343.319C840.929 343.762 840.978 344.259 841.157 344.809L842.517 348.995L841.295 349.392L839.746 344.625C839.521 343.933 839.185 343.49 838.74 343.297C838.294 343.104 837.817 343.09 837.307 343.255C836.971 343.365 836.655 343.569 836.358 343.868C836.068 344.154 835.868 344.528 835.76 344.991C835.651 345.454 835.7 346.002 835.905 346.633L837.23 350.713L836.008 351.11ZM853.813 345.493C853.09 345.728 852.392 345.781 851.719 345.65C851.056 345.517 850.471 345.206 849.963 344.717C849.452 344.219 849.063 343.557 848.795 342.732C848.527 341.907 848.454 341.148 848.578 340.455C848.699 339.751 848.983 339.152 849.43 338.658C849.878 338.163 850.453 337.802 851.155 337.573C851.868 337.342 852.524 337.298 853.123 337.441C853.731 337.581 854.254 337.873 854.691 338.317C855.124 338.75 855.447 339.293 855.659 339.945C855.715 340.118 855.761 340.277 855.798 340.423C855.834 340.569 855.86 340.701 855.876 340.82L849.703 342.826L849.351 341.741L854.989 339.909L854.402 340.235C854.164 339.501 853.776 339.002 853.24 338.737C852.713 338.469 852.124 338.441 851.472 338.653C850.973 338.815 850.578 339.073 850.288 339.426C850.004 339.766 849.832 340.188 849.77 340.692C849.716 341.183 849.788 341.734 849.986 342.345C850.182 342.946 850.452 343.432 850.798 343.804C851.144 344.176 851.539 344.419 851.982 344.535C852.431 344.636 852.916 344.603 853.435 344.434C853.995 344.252 854.414 343.998 854.691 343.671C854.978 343.341 855.169 342.959 855.263 342.522L856.41 342.775C856.329 343.184 856.177 343.566 855.954 343.92C855.741 344.27 855.454 344.583 855.093 344.858C854.739 345.119 854.312 345.331 853.813 345.493ZM859.388 343.513L856.906 335.874L857.976 335.526L858.639 337.203L858.385 337.099C858.416 336.639 858.529 336.242 858.725 335.908C858.917 335.564 859.173 335.278 859.493 335.05C859.824 334.819 860.182 334.64 860.569 334.515C861.119 334.336 861.653 334.281 862.171 334.349C862.685 334.407 863.144 334.607 863.548 334.949C863.962 335.287 864.277 335.788 864.492 336.45L866.08 341.339L864.858 341.736L863.408 337.275C863.134 336.429 862.76 335.903 862.288 335.696C861.822 335.476 861.324 335.452 860.795 335.624C860.428 335.743 860.089 335.949 859.779 336.241C859.468 336.533 859.254 336.913 859.135 337.379C859.027 337.842 859.078 338.4 859.29 339.052L860.611 343.116L859.388 343.513ZM867.359 330.079L869.861 337.779C869.984 338.156 870.182 338.401 870.455 338.515C870.729 338.629 871.033 338.631 871.369 338.522C871.665 338.426 871.903 338.293 872.084 338.121C872.265 337.95 872.413 337.749 872.53 337.52L873.291 338.405C873.126 338.695 872.9 338.954 872.614 339.182C872.338 339.407 871.991 339.587 871.574 339.723C871.187 339.848 870.804 339.9 870.424 339.877C870.042 339.843 869.701 339.712 869.401 339.483C869.108 339.24 868.877 338.876 868.708 338.39L866.246 330.812L867.359 330.079ZM870.845 331.345L871.187 332.399L865.657 334.196L865.314 333.142L870.845 331.345ZM880.864 325.387C881.547 325.165 882.179 325.1 882.76 325.193C883.349 325.272 883.861 325.494 884.295 325.86C884.729 326.226 885.049 326.724 885.254 327.356C885.459 327.987 885.493 328.579 885.357 329.13C885.221 329.681 884.939 330.166 884.513 330.586C884.093 330.993 883.542 331.307 882.86 331.529L880.522 332.288L881.803 336.23L880.581 336.627L877.304 326.544L880.864 325.387ZM882.304 330.442C883.099 330.184 883.626 329.833 883.887 329.388C884.144 328.932 884.172 328.394 883.97 327.773C883.765 327.141 883.426 326.722 882.954 326.515C882.481 326.308 881.848 326.334 881.053 326.592L878.899 327.292L880.15 331.142L882.304 330.442ZM887.214 322.141L890.207 331.354C890.333 331.741 890.492 331.988 890.684 332.094C890.873 332.191 891.126 332.188 891.441 332.085C891.645 332.019 891.808 331.949 891.931 331.875C892.053 331.802 892.213 331.688 892.411 331.533L892.56 332.667C892.42 332.792 892.258 332.901 892.075 332.994C891.894 333.098 891.702 333.183 891.499 333.249C890.877 333.451 890.359 333.433 889.944 333.196C889.54 332.956 889.225 332.49 889 331.797L885.992 322.538L887.214 322.141ZM897.205 325.77C897.019 325.199 896.724 324.811 896.319 324.605C895.911 324.388 895.427 324.371 894.867 324.553C894.337 324.725 893.927 324.988 893.636 325.341C893.343 325.685 893.192 326.139 893.184 326.705L891.992 326.416C892.011 325.78 892.239 325.199 892.676 324.674C893.11 324.139 893.735 323.739 894.55 323.474C895.1 323.295 895.63 323.23 896.141 323.278C896.649 323.315 897.093 323.486 897.474 323.791C897.861 324.081 898.152 324.527 898.347 325.128L899.549 328.826C899.668 329.192 899.921 329.313 900.308 329.187C900.502 329.124 900.682 329.037 900.849 328.927L901.1 329.909C900.93 330.077 900.681 330.214 900.355 330.32C900.06 330.416 899.777 330.446 899.506 330.41C899.236 330.374 898.998 330.266 898.792 330.085C898.584 329.894 898.423 329.625 898.311 329.279L898.261 329.126L898.582 329.072C898.588 329.509 898.486 329.903 898.273 330.254C898.057 330.594 897.786 330.885 897.459 331.126C897.128 331.358 896.785 331.531 896.428 331.647C895.98 331.793 895.538 331.852 895.101 331.825C894.664 331.798 894.279 331.67 893.946 331.44C893.619 331.197 893.381 330.847 893.232 330.388C893.047 329.818 893.083 329.288 893.341 328.799C893.606 328.296 894.058 327.868 894.697 327.514L897.528 325.935L897.856 326.943L895.56 328.247C895.094 328.511 894.769 328.774 894.584 329.037C894.399 329.3 894.359 329.594 894.465 329.92C894.568 330.236 894.775 330.456 895.085 330.58C895.403 330.691 895.791 330.672 896.249 330.523C896.544 330.427 896.813 330.3 897.055 330.143C897.303 329.972 897.509 329.775 897.674 329.553C897.835 329.321 897.938 329.067 897.984 328.793C898.027 328.509 897.996 328.204 897.89 327.878L897.205 325.77ZM903.001 329.343L900.518 321.703L901.588 321.356L902.251 323.032L901.998 322.929C902.028 322.468 902.141 322.071 902.337 321.738C902.529 321.394 902.785 321.108 903.105 320.88C903.436 320.649 903.794 320.47 904.181 320.344C904.731 320.166 905.265 320.11 905.783 320.179C906.297 320.237 906.756 320.437 907.16 320.778C907.574 321.117 907.889 321.617 908.104 322.279L909.692 327.168L908.47 327.565L907.021 323.104C906.746 322.259 906.372 321.733 905.9 321.526C905.434 321.305 904.936 321.281 904.407 321.453C904.04 321.573 903.701 321.778 903.391 322.071C903.081 322.363 902.866 322.742 902.747 323.209C902.639 323.672 902.69 324.23 902.902 324.881L904.223 328.945L903.001 329.343ZM915.26 325.528C914.516 325.77 913.777 325.835 913.043 325.725C912.319 325.611 911.695 325.318 911.17 324.847L911.966 323.761C912.342 324.156 912.787 324.417 913.301 324.543C913.825 324.666 914.393 324.628 915.004 324.429C915.544 324.254 915.933 324.014 916.173 323.711C916.409 323.398 916.472 323.074 916.363 322.737C916.294 322.524 916.159 322.353 915.961 322.226C915.769 322.086 915.466 322.038 915.052 322.082L913.095 322.296C912.302 322.385 911.684 322.304 911.242 322.053C910.811 321.799 910.509 321.408 910.337 320.878C910.201 320.46 910.194 320.04 910.316 319.618C910.448 319.192 910.7 318.806 911.071 318.46C911.45 318.101 911.94 317.823 912.541 317.628C913.295 317.383 913.979 317.324 914.595 317.451C915.21 317.577 915.733 317.869 916.163 318.326L915.358 319.331C915.039 318.939 914.653 318.704 914.2 318.626C913.743 318.538 913.306 318.562 912.888 318.698C912.522 318.817 912.222 318.97 911.991 319.158C911.769 319.343 911.617 319.55 911.534 319.78C911.458 319.996 911.456 320.216 911.529 320.44C911.602 320.664 911.746 320.848 911.962 320.992C912.174 321.126 912.502 321.165 912.946 321.111L914.985 320.888C915.744 320.799 916.32 320.871 916.711 321.104C917.102 321.337 917.374 321.688 917.526 322.157C917.681 322.636 917.691 323.1 917.556 323.549C917.417 323.988 917.15 324.379 916.754 324.722C916.359 325.064 915.861 325.333 915.26 325.528Z" fill="#1B1A1A"/>
<circle cx="928.65" cy="315.751" r="3.21294" transform="rotate(-18 928.65 315.751)" fill="#FF9635"/>
<path d="M943.084 305.171C944.112 304.836 945.023 304.833 945.817 305.161C946.61 305.489 947.154 306.106 947.449 307.012C947.743 307.919 947.658 308.729 947.192 309.444C946.732 310.145 945.988 310.662 944.96 310.997L944.878 311.108L942.403 311.912L943.763 316.098L942.54 316.495L939.264 306.412L943.084 305.171ZM944.612 309.927C945.335 309.692 945.822 309.371 946.073 308.963C946.33 308.541 946.361 308.03 946.165 307.429C945.97 306.828 945.646 306.438 945.194 306.258C944.748 306.065 944.164 306.086 943.441 306.321L940.859 307.16L942.03 310.766L944.612 309.927ZM945.394 309.943L950.378 313.949L948.927 314.42L944.589 310.948L945.394 309.943ZM955.461 312.466C954.738 312.701 954.04 312.753 953.367 312.623C952.704 312.489 952.119 312.178 951.611 311.69C951.1 311.192 950.711 310.53 950.443 309.705C950.174 308.88 950.102 308.121 950.226 307.427C950.347 306.724 950.631 306.125 951.078 305.63C951.525 305.136 952.101 304.774 952.803 304.546C953.516 304.314 954.172 304.27 954.77 304.414C955.379 304.554 955.902 304.846 956.339 305.289C956.772 305.723 957.095 306.265 957.307 306.917C957.363 307.09 957.409 307.25 957.445 307.396C957.482 307.542 957.508 307.674 957.524 307.793L951.351 309.798L950.999 308.713L956.636 306.882L956.05 307.207C955.812 306.474 955.424 305.975 954.888 305.71C954.361 305.442 953.772 305.414 953.12 305.626C952.621 305.788 952.226 306.045 951.936 306.399C951.652 306.739 951.48 307.161 951.418 307.665C951.364 308.156 951.436 308.707 951.634 309.318C951.83 309.919 952.1 310.405 952.446 310.777C952.792 311.149 953.187 311.392 953.629 311.507C954.079 311.609 954.564 311.575 955.083 311.407C955.643 311.224 956.062 310.97 956.339 310.644C956.626 310.314 956.817 309.931 956.911 309.495L958.058 309.748C957.977 310.157 957.825 310.538 957.602 310.892C957.389 311.243 957.102 311.556 956.741 311.831C956.387 312.092 955.96 312.304 955.461 312.466ZM961.667 301.666C962.197 301.494 962.687 301.425 963.137 301.459C963.597 301.489 964.025 301.609 964.419 301.819C964.814 302.029 965.171 302.312 965.49 302.671L964.508 303.598C964.186 303.162 963.815 302.871 963.397 302.726C962.985 302.567 962.514 302.573 961.984 302.746C961.475 302.911 961.075 303.17 960.784 303.524C960.49 303.867 960.318 304.289 960.267 304.79C960.212 305.281 960.284 305.832 960.483 306.443C960.678 307.044 960.944 307.532 961.279 307.907C961.615 308.282 962.005 308.527 962.447 308.642C962.887 308.747 963.361 308.717 963.871 308.551C964.268 308.422 964.589 308.25 964.835 308.035C965.09 307.817 965.272 307.561 965.379 307.267C965.496 306.97 965.536 306.642 965.498 306.283L966.758 306.313C966.737 306.837 966.628 307.317 966.432 307.753C966.246 308.185 965.969 308.562 965.6 308.885C965.239 309.193 964.788 309.435 964.249 309.611C963.536 309.843 962.848 309.892 962.185 309.758C961.522 309.624 960.937 309.313 960.429 308.825C959.918 308.327 959.529 307.665 959.26 306.84C958.992 306.015 958.92 305.256 959.044 304.562C959.165 303.859 959.454 303.258 959.911 302.76C960.369 302.262 960.954 301.898 961.667 301.666ZM972.828 306.823C972.105 307.058 971.407 307.11 970.734 306.98C970.071 306.846 969.486 306.535 968.978 306.047C968.467 305.549 968.078 304.887 967.81 304.062C967.542 303.237 967.47 302.478 967.593 301.784C967.714 301.081 967.998 300.482 968.445 299.987C968.893 299.493 969.468 299.131 970.171 298.903C970.884 298.671 971.539 298.627 972.138 298.771C972.746 298.911 973.269 299.203 973.706 299.646C974.14 300.08 974.462 300.622 974.674 301.274C974.73 301.447 974.777 301.607 974.813 301.753C974.849 301.899 974.875 302.031 974.891 302.15L968.718 304.155L968.366 303.07L974.004 301.239L973.417 301.564C973.179 300.831 972.791 300.332 972.255 300.067C971.729 299.799 971.139 299.771 970.488 299.983C969.989 300.145 969.594 300.403 969.303 300.756C969.019 301.096 968.847 301.518 968.785 302.022C968.731 302.513 968.803 303.064 969.002 303.675C969.197 304.276 969.467 304.762 969.813 305.134C970.159 305.506 970.554 305.749 970.997 305.864C971.446 305.966 971.931 305.932 972.45 305.764C973.011 305.582 973.429 305.327 973.706 305.001C973.993 304.671 974.184 304.288 974.279 303.852L975.425 304.105C975.344 304.514 975.192 304.895 974.969 305.249C974.756 305.6 974.47 305.913 974.108 306.188C973.754 306.449 973.328 306.661 972.828 306.823ZM976.056 295.538C975.781 295.628 975.53 295.619 975.304 295.512C975.085 295.392 974.931 295.194 974.841 294.919C974.752 294.644 974.762 294.399 974.872 294.183C974.989 293.954 975.185 293.794 975.46 293.705C975.735 293.615 975.982 293.631 976.202 293.751C976.428 293.858 976.585 294.049 976.675 294.324C976.764 294.599 976.75 294.851 976.634 295.08C976.524 295.296 976.331 295.449 976.056 295.538ZM977.144 296.806L979.626 304.446L978.404 304.843L975.921 297.204L977.144 296.806ZM983.504 306.733L979.98 295.885L981.049 295.537L981.762 297.367L981.524 297.207C981.541 296.808 981.639 296.433 981.817 296.082C981.993 295.721 982.244 295.403 982.571 295.127C982.899 294.852 983.281 294.643 983.719 294.501C984.34 294.299 984.962 294.272 985.584 294.419C986.216 294.562 986.786 294.878 987.294 295.366C987.802 295.855 988.191 296.516 988.463 297.351C988.731 298.176 988.8 298.942 988.669 299.649C988.545 300.343 988.27 300.933 987.843 301.421C987.416 301.909 986.886 302.255 986.255 302.461C985.623 302.666 985.018 302.693 984.44 302.543C983.869 302.38 983.404 302.092 983.045 301.679L983.123 301.4L984.727 306.335L983.504 306.733ZM985.785 301.431C986.539 301.186 987.038 300.731 987.284 300.065C987.54 299.397 987.525 298.625 987.241 297.749C986.956 296.873 986.519 296.238 985.929 295.844C985.35 295.446 984.688 295.369 983.944 295.61C983.456 295.769 983.067 296.03 982.78 296.394C982.49 296.747 982.314 297.176 982.252 297.68C982.188 298.174 982.251 298.717 982.443 299.307C982.632 299.888 982.894 300.366 983.23 300.741C983.576 301.113 983.967 301.363 984.403 301.491C984.846 301.607 985.306 301.586 985.785 301.431ZM990.522 290.061L993.024 297.761C993.147 298.138 993.345 298.383 993.618 298.497C993.892 298.611 994.196 298.613 994.533 298.504C994.828 298.408 995.066 298.275 995.247 298.103C995.428 297.932 995.576 297.731 995.693 297.502L996.454 298.387C996.289 298.677 996.063 298.936 995.777 299.164C995.501 299.389 995.154 299.569 994.737 299.705C994.35 299.83 993.967 299.882 993.587 299.858C993.205 299.825 992.864 299.694 992.564 299.465C992.271 299.222 992.041 298.858 991.871 298.372L989.409 290.794L990.522 290.061ZM994.008 291.327L994.35 292.381L988.82 294.178L988.477 293.124L994.008 291.327ZM1001.11 297.635C1000.36 297.876 999.625 297.942 998.891 297.831C998.167 297.717 997.542 297.425 997.018 296.954L997.813 295.867C998.19 296.263 998.635 296.524 999.148 296.65C999.673 296.772 1000.24 296.734 1000.85 296.536C1001.39 296.36 1001.78 296.121 1002.02 295.818C1002.26 295.505 1002.32 295.18 1002.21 294.844C1002.14 294.63 1002.01 294.46 1001.81 294.333C1001.62 294.193 1001.31 294.145 1000.9 294.189L998.942 294.403C998.149 294.491 997.531 294.411 997.09 294.16C996.658 293.906 996.356 293.514 996.184 292.985C996.048 292.567 996.041 292.147 996.163 291.725C996.295 291.299 996.547 290.913 996.919 290.567C997.297 290.207 997.787 289.93 998.388 289.735C999.142 289.49 999.826 289.431 1000.44 289.557C1001.06 289.684 1001.58 289.976 1002.01 290.433L1001.2 291.438C1000.89 291.046 1000.5 290.811 1000.05 290.733C999.59 290.645 999.153 290.669 998.736 290.804C998.369 290.923 998.07 291.077 997.838 291.265C997.616 291.449 997.464 291.657 997.381 291.886C997.305 292.102 997.303 292.322 997.376 292.547C997.449 292.771 997.593 292.955 997.809 293.099C998.021 293.232 998.349 293.272 998.794 293.218L1000.83 292.994C1001.59 292.905 1002.17 292.978 1002.56 293.211C1002.95 293.444 1003.22 293.795 1003.37 294.264C1003.53 294.742 1003.54 295.206 1003.4 295.656C1003.26 296.095 1003 296.486 1002.6 296.828C1002.21 297.171 1001.71 297.44 1001.11 297.635Z" fill="#1B1A1A"/>
<rect x="794.509" y="381.307" width="299" height="125" transform="rotate(-18 794.509 381.307)" fill="#303778"/>
<path d="M976.512 263.469C975.667 263.739 975.2 264.643 975.469 265.488C975.739 266.333 976.643 266.8 977.488 266.531L976.512 263.469ZM1038.99 246.425C1039.4 245.637 1039.09 244.668 1038.3 244.261L1025.46 237.626C1024.67 237.219 1023.7 237.528 1023.29 238.316C1022.89 239.105 1023.2 240.074 1023.98 240.481L1035.4 246.378L1029.51 257.797C1029.1 258.585 1029.41 259.554 1030.2 259.962C1030.98 260.369 1031.95 260.06 1032.36 259.271L1038.99 246.425ZM977.488 266.531L1038.06 247.219L1037.08 244.158L976.512 263.469L977.488 266.531Z" fill="#FF9635"/>
</g>
</g>
<defs>
<filter id="filter0_d_0_1" x="-41.2453" y="161.574" width="398.865" height="377.595" filterUnits="userSpaceOnUse" color-interpolation-filters="sRGB">
<feFlood flood-opacity="0" result="BackgroundImageFix"/>
<feColorMatrix in="SourceAlpha" type="matrix" values="0 0 0 0 0 0 0 0 0 0 0 0 0 0 0 0 0 0 127 0" result="hardAlpha"/>
<feOffset dx="-4" dy="4.81941"/>
<feGaussianBlur stdDeviation="5.62264"/>
<feComposite in2="hardAlpha" operator="out"/>
<feColorMatrix type="matrix" values="0 0 0 0 0 0 0 0 0 0 0 0 0 0 0 0 0 0 0.14 0"/>
<feBlend mode="normal" in2="BackgroundImageFix" result="effect1_dropShadow_0_1"/>
<feBlend mode="normal" in="SourceGraphic" in2="effect1_dropShadow_0_1" result="shape"/>
</filter>
<filter id="filter1_d_0_1" x="707.148" y="51.5741" width="385.024" height="358.079" filterUnits="userSpaceOnUse" color-interpolation-filters="sRGB">
<feFlood flood-opacity="0" result="BackgroundImageFix"/>
<feColorMatrix in="SourceAlpha" type="matrix" values="0 0 0 0 0 0 0 0 0 0 0 0 0 0 0 0 0 0 127 0" result="hardAlpha"/>
<feOffset dx="-1.60647" dy="4.81941"/>
<feGaussianBlur stdDeviation="5.62264"/>
<feComposite in2="hardAlpha" operator="out"/>
<feColorMatrix type="matrix" values="0 0 0 0 0 0 0 0 0 0 0 0 0 0 0 0 0 0 0.15 0"/>
<feBlend mode="normal" in2="BackgroundImageFix" result="effect1_dropShadow_0_1"/>
<feBlend mode="normal" in="SourceGraphic" in2="effect1_dropShadow_0_1" result="shape"/>
</filter>
<clipPath id="clip0_0_1">
<rect x="78.1377" y="168" width="298" height="256.032" rx="10" transform="rotate(24 78.1377 168)" fill="white"/>
</clipPath>
<clipPath id="clip1_0_1">
<rect x="720" y="150.087" width="298" height="256.032" rx="10" transform="rotate(-18 720 150.087)" fill="white"/>
</clipPath>
</defs>
</svg>
