<svg width="40" height="53" viewBox="0 0 40 53" fill="none" xmlns="http://www.w3.org/2000/svg">
<path fill-rule="evenodd" clip-rule="evenodd" d="M37.0945 6.98044C38.7518 7.46236 39.7045 9.19649 39.2226 10.8537L27.879 49.8629C27.3971 51.5201 25.663 52.4729 24.0058 51.991L3.00083 45.8829C1.34358 45.401 0.390793 43.6669 0.872708 42.0096L12.2163 3.00048C12.6982 1.34323 14.4323 0.39044 16.0896 0.872356L37.0945 6.98044ZM24.8783 48.9903L36.2219 9.98115L15.217 3.87306L3.87341 42.8822L24.8783 48.9903Z" fill="#3063E9"/>
<path fill-rule="evenodd" clip-rule="evenodd" d="M24.5487 27.7406C25.2716 25.2547 23.8424 22.6535 21.3565 21.9306C18.8707 21.2077 16.2695 22.6369 15.5466 25.1228C14.8237 27.6087 16.2529 30.2099 18.7388 30.9327C21.2247 31.6556 23.8259 30.2264 24.5487 27.7406ZM22.2291 18.9299C26.3722 20.1347 28.7542 24.47 27.5494 28.6131C26.3446 32.7562 22.0093 35.1382 17.8662 33.9334C13.7231 32.7286 11.3411 28.3933 12.5459 24.2502C13.7507 20.1071 18.086 17.7251 22.2291 18.9299Z" fill="#3063E9"/>
<path fill-rule="evenodd" clip-rule="evenodd" d="M30.749 38.0823C31.214 38.8093 31.0015 39.7755 30.2745 40.2405L16.2817 49.1892C15.5547 49.6542 14.5885 49.4417 14.1236 48.7147C13.6586 47.9877 13.8711 47.0215 14.5981 46.5566L28.5909 37.6078C29.3179 37.1429 30.2841 37.3553 30.749 38.0823Z" fill="#3063E9"/>
<path fill-rule="evenodd" clip-rule="evenodd" d="M13.0988 48.4168C12.3166 48.7811 11.3871 48.4422 11.0228 47.66L4.01065 32.6031C3.64634 31.8208 3.98516 30.8913 4.76743 30.527C5.5497 30.1627 6.4792 30.5015 6.84351 31.2838L13.8556 46.3407C14.2199 47.1229 13.8811 48.0524 13.0988 48.4168Z" fill="#3063E9"/>
<path fill-rule="evenodd" clip-rule="evenodd" d="M35.3279 22.3363C34.5456 22.7007 33.6161 22.3618 33.2518 21.5796L26.2397 6.5227C25.8753 5.74043 26.2142 4.81094 26.9964 4.44663C27.7787 4.08232 28.7082 4.42114 29.0725 5.20341L36.0846 20.2603C36.449 21.0425 36.1101 21.972 35.3279 22.3363Z" fill="#3063E9"/>
<path fill-rule="evenodd" clip-rule="evenodd" d="M25.9717 4.14864C26.4366 4.87563 26.2242 5.84188 25.4972 6.30681L11.5044 15.2556C10.7774 15.7205 9.81118 15.5081 9.34625 14.7811C8.88132 14.0541 9.09376 13.0878 9.82075 12.6229L23.8135 3.67414C24.5405 3.20921 25.5068 3.42165 25.9717 4.14864Z" fill="#3063E9"/>
</svg>
