<svg width="66" height="65" viewBox="0 0 66 65" fill="none" xmlns="http://www.w3.org/2000/svg">
<path fill-rule="evenodd" clip-rule="evenodd" d="M36.3565 56.6216C34.9764 57.4808 33.1612 57.0585 32.3021 55.6784L12.0792 23.1932C11.2201 21.8131 11.6424 19.9979 13.0225 19.1387L30.5145 8.24951C31.8946 7.39037 33.7099 7.81268 34.569 9.19277L54.7918 41.678C55.651 43.0581 55.2286 44.8733 53.8486 45.7324L36.3565 56.6216ZM14.5781 21.6376L34.8009 54.1228L52.293 43.2336L32.0701 10.7484L14.5781 21.6376Z" fill="#303778"/>
<path fill-rule="evenodd" clip-rule="evenodd" d="M29.6872 34.769C30.9759 36.8391 33.6988 37.4726 35.7689 36.1839C37.8391 34.8952 38.4725 32.1723 37.1838 30.1022C35.8951 28.032 33.1723 27.3986 31.1021 28.6873C29.032 29.976 28.3985 32.6989 29.6872 34.769ZM37.3245 38.6827C33.8743 40.8306 29.3362 39.7748 27.1884 36.3246C25.0405 32.8744 26.0963 28.3363 29.5465 26.1884C32.9967 24.0406 37.5348 25.0964 39.6827 28.5466C41.8305 31.9968 40.7747 36.5349 37.3245 38.6827Z" fill="#303778"/>
<path fill-rule="evenodd" clip-rule="evenodd" d="M18.5359 32.6138C17.7337 32.4827 17.1897 31.7261 17.3208 30.924L19.8444 15.4839C19.9755 14.6817 20.7321 14.1377 21.5343 14.2688C22.3365 14.4 22.8805 15.1565 22.7494 15.9587L20.2258 31.3988C20.0946 32.201 19.3381 32.745 18.5359 32.6138Z" fill="#303778"/>
<path fill-rule="evenodd" clip-rule="evenodd" d="M22.3876 13.7376C22.6241 12.9599 23.4462 12.5212 24.2239 12.7576L39.1923 17.3084C39.97 17.5449 40.4087 18.367 40.1723 19.1447C39.9359 19.9223 39.1137 20.3611 38.3361 20.1247L23.3676 15.5738C22.59 15.3374 22.1512 14.5153 22.3876 13.7376Z" fill="#303778"/>
<path fill-rule="evenodd" clip-rule="evenodd" d="M26.6988 45.7264C26.9352 44.9488 27.7573 44.51 28.535 44.7464L43.5034 49.2973C44.2811 49.5337 44.7199 50.3558 44.4834 51.1335C44.247 51.9112 43.4249 52.3499 42.6472 52.1135L27.6788 47.5627C26.9011 47.3262 26.4623 46.5041 26.6988 45.7264Z" fill="#303778"/>
<path fill-rule="evenodd" clip-rule="evenodd" d="M45.3368 50.6023C44.5346 50.4711 43.9906 49.7146 44.1217 48.9124L46.6453 33.4723C46.7764 32.6701 47.533 32.1261 48.3352 32.2572C49.1374 32.3884 49.6814 33.1449 49.5503 33.9471L47.0267 49.3872C46.8955 50.1894 46.139 50.7334 45.3368 50.6023Z" fill="#303778"/>
<path d="M4.48027 27.5562C6.7358 25.9221 2.13107 29.4045 1.76855 30.4424" stroke="#303778" stroke-width="2.82576" stroke-linecap="round"/>
</svg>
