<svg width="49" height="46" viewBox="0 0 49 46" fill="none" xmlns="http://www.w3.org/2000/svg">
<path fill-rule="evenodd" clip-rule="evenodd" d="M13.4848 1.32077C14.4848 0.0390447 16.3345 -0.189372 17.6162 0.810587L47.7862 24.3482C49.0679 25.3482 49.2964 27.1979 48.2964 28.4796L35.6223 44.725C34.6223 46.0067 32.7727 46.2351 31.4909 45.2352L1.3209 21.6975C0.039169 20.6976 -0.189249 18.8479 0.810711 17.5662L13.4848 1.32077ZM45.9756 26.669L15.8056 3.13136L3.13148 19.3768L33.3015 42.9144L45.9756 26.669Z" fill="#3063E9"/>
<path fill-rule="evenodd" clip-rule="evenodd" d="M27.2694 19.5417C25.3468 18.0418 22.5723 18.3844 21.0724 20.307C19.5725 22.2296 19.9151 25.0041 21.8377 26.504C23.7603 28.004 26.5348 27.6613 28.0347 25.7388C29.5347 23.8162 29.192 21.0417 27.2694 19.5417ZM18.7516 18.4964C21.2515 15.2921 25.8757 14.721 29.08 17.2209C32.2843 19.7208 32.8554 24.345 30.3555 27.5493C27.8556 30.7537 23.2314 31.3247 20.0271 28.8248C16.8228 26.3249 16.2517 21.7007 18.7516 18.4964Z" fill="#3063E9"/>
<path fill-rule="evenodd" clip-rule="evenodd" d="M38.4811 17.7262C39.2794 17.5731 40.0506 18.0962 40.2036 18.8944L43.1497 34.2595C43.3027 35.0578 42.7797 35.829 41.9814 35.9821C41.1831 36.1351 40.4119 35.6121 40.2588 34.8138L37.3128 19.4487C37.1597 18.6504 37.6828 17.8792 38.4811 17.7262Z" fill="#3063E9"/>
<path fill-rule="evenodd" clip-rule="evenodd" d="M41.3631 36.7746C41.4088 37.5861 40.788 38.2811 39.9765 38.3268L24.3563 39.2072C23.5448 39.2529 22.8498 38.6321 22.8041 37.8206C22.7584 37.009 23.3792 36.3141 24.1907 36.2683L39.8108 35.388C40.6224 35.3422 41.3173 35.963 41.3631 36.7746Z" fill="#3063E9"/>
<path fill-rule="evenodd" clip-rule="evenodd" d="M26.303 8.22524C26.3487 9.03678 25.7279 9.73174 24.9164 9.77748L9.29627 10.6578C8.48473 10.7036 7.78977 10.0828 7.74403 9.27122C7.69829 8.45969 8.3191 7.76473 9.13063 7.71899L24.7508 6.83864C25.5623 6.7929 26.2573 7.4137 26.303 8.22524Z" fill="#3063E9"/>
<path fill-rule="evenodd" clip-rule="evenodd" d="M7.12572 10.0638C7.92401 9.9107 8.69522 10.4338 8.84828 11.232L11.7943 26.5971C11.9474 27.3954 11.4243 28.1666 10.626 28.3197C9.82775 28.4727 9.05653 27.9497 8.90347 27.1514L5.95744 11.7863C5.80438 10.988 6.32744 10.2168 7.12572 10.0638Z" fill="#3063E9"/>
</svg>
