<svg width="344" height="109" viewBox="0 0 344 109" fill="none" xmlns="http://www.w3.org/2000/svg">
<path fill-rule="evenodd" clip-rule="evenodd" d="M62.6397 112.814C61.8881 111.253 62.5713 109.391 64.1657 108.655L101.696 91.3324C103.29 90.5965 105.192 91.2655 105.943 92.8266L115.47 112.613C116.221 114.174 115.538 116.037 113.944 116.772L76.4139 134.095C74.8195 134.831 72.9177 134.162 72.1661 132.601L62.6397 112.814ZM103.056 94.1591L65.5266 111.482L75.053 131.268L112.583 113.946L103.056 94.1591Z" fill="#F5F5F5"/>
<path fill-rule="evenodd" clip-rule="evenodd" d="M87.0133 108.474C84.6218 109.578 83.5969 112.371 84.7243 114.713C85.8518 117.054 88.7045 118.058 91.0961 116.954C93.4877 115.85 94.5125 113.057 93.3851 110.715C92.2577 108.373 89.4049 107.37 87.0133 108.474ZM81.8374 116.045C79.9584 112.142 81.6665 107.487 85.6524 105.647C89.6384 103.807 94.393 105.48 96.272 109.382C98.151 113.285 96.443 117.941 92.457 119.78C88.471 121.62 83.7165 119.948 81.8374 116.045Z" fill="#F5F5F5"/>
<path fill-rule="evenodd" clip-rule="evenodd" d="M90.7374 96.9803C90.9796 96.1505 91.8628 95.6701 92.7103 95.9072L109.021 100.47C109.868 100.708 110.359 101.572 110.117 102.402C109.875 103.232 108.992 103.712 108.144 103.475L91.8334 98.9119C90.986 98.6748 90.4953 97.81 90.7374 96.9803Z" fill="#F5F5F5"/>
<path fill-rule="evenodd" clip-rule="evenodd" d="M110.582 103.367C111.39 103.713 111.759 104.634 111.406 105.424L104.622 120.648C104.269 121.439 103.329 121.8 102.521 121.455C101.713 121.11 101.344 120.189 101.696 119.398L108.481 104.175C108.833 103.384 109.774 103.022 110.582 103.367Z" fill="#F5F5F5"/>
<path fill-rule="evenodd" clip-rule="evenodd" d="M75.5886 103.973C76.3964 104.318 76.7655 105.239 76.413 106.03L69.6285 121.253C69.276 122.044 68.3355 122.405 67.5277 122.06C66.7199 121.715 66.3508 120.794 66.7033 120.003L73.4878 104.78C73.8403 103.989 74.7808 103.627 75.5886 103.973Z" fill="#F5F5F5"/>
<path fill-rule="evenodd" clip-rule="evenodd" d="M67.9924 123.025C68.2346 122.196 69.1178 121.715 69.9653 121.952L86.2761 126.516C87.1235 126.753 87.6142 127.617 87.372 128.447C87.1299 129.277 86.2466 129.757 85.3992 129.52L69.0884 124.957C68.241 124.72 67.7503 123.855 67.9924 123.025Z" fill="#F5F5F5"/>
<path fill-rule="evenodd" clip-rule="evenodd" d="M34.6031 116.426C32.978 115.758 32.2141 113.926 32.8969 112.335L48.968 74.8811C49.6507 73.2899 51.5216 72.542 53.1467 73.2105L73.7438 81.6836C75.3689 82.3521 76.1328 84.1839 75.45 85.7751L59.379 123.229C58.6962 124.82 56.8253 125.568 55.2003 124.899L34.6031 116.426ZM51.9104 76.0915L35.8393 113.545L56.4365 122.018L72.5076 84.5646L51.9104 76.0915Z" fill="#F5F5F5"/>
<path fill-rule="evenodd" clip-rule="evenodd" d="M49.7598 97.2393C48.7356 99.626 49.8815 102.374 52.3191 103.376C54.7567 104.379 57.563 103.257 58.5871 100.871C59.6113 98.4838 58.4654 95.7361 56.0278 94.7333C53.5902 93.7306 50.7839 94.8525 49.7598 97.2393ZM51.0829 106.258C47.0202 104.586 45.1104 100.007 46.8173 96.0288C48.5242 92.0509 53.2014 90.181 57.2641 91.8523C61.3267 93.5236 63.2365 98.1031 61.5296 102.081C59.8227 106.059 55.1455 107.929 51.0829 106.258Z" fill="#F5F5F5"/>
<path fill-rule="evenodd" clip-rule="evenodd" d="M44.6784 86.2556C44.2917 85.4801 44.6202 84.5445 45.4122 84.1659L60.6557 76.8783C61.4477 76.4996 62.4032 76.8213 62.7899 77.5968C63.1766 78.3722 62.8481 79.3078 62.0561 79.6864L46.8126 86.9741C46.0206 87.3527 45.0651 87.031 44.6784 86.2556Z" fill="#F5F5F5"/>
<path fill-rule="evenodd" clip-rule="evenodd" d="M63.7947 78.0101C64.631 77.7378 65.5345 78.1808 65.8126 78.9996L71.1663 94.7604C71.4444 95.5792 70.9919 96.4638 70.1556 96.7362C69.3193 97.0085 68.4159 96.5655 68.1378 95.7466L62.7841 79.9859C62.506 79.167 62.9585 78.2825 63.7947 78.0101Z" fill="#F5F5F5"/>
<path fill-rule="evenodd" clip-rule="evenodd" d="M38.1913 101.374C39.0276 101.101 39.9311 101.544 40.2092 102.363L45.5628 118.124C45.841 118.943 45.3885 119.827 44.5522 120.1C43.7159 120.372 42.8125 119.929 42.5344 119.11L37.1807 103.349C36.9026 102.531 37.355 101.646 38.1913 101.374Z" fill="#F5F5F5"/>
<path fill-rule="evenodd" clip-rule="evenodd" d="M45.5571 120.513C45.1704 119.738 45.4989 118.802 46.2909 118.423L61.5344 111.136C62.3264 110.757 63.2819 111.079 63.6686 111.854C64.0553 112.63 63.7267 113.565 62.9348 113.944L47.6912 121.232C46.8993 121.61 45.9438 121.288 45.5571 120.513Z" fill="#F5F5F5"/>
<path fill-rule="evenodd" clip-rule="evenodd" d="M12.4393 125.841C10.7103 126.177 9.03076 125.077 8.68803 123.384L0.620658 83.534C0.277928 81.841 1.40175 80.1966 3.13078 79.861L25.0456 75.6077C26.7746 75.2721 28.4541 76.3724 28.7969 78.0654L36.8642 117.915C37.2069 119.608 36.0831 121.252 34.3541 121.588L12.4393 125.841ZM3.75135 82.9263L11.8187 122.776L33.7335 118.523L25.6662 78.673L3.75135 82.9263Z" fill="#F5F5F5"/>
<path fill-rule="evenodd" clip-rule="evenodd" d="M14.0464 101.636C14.5605 104.175 17.0797 105.826 19.6733 105.323C22.2668 104.819 23.9526 102.353 23.4385 99.8131C22.9244 97.2737 20.4051 95.6231 17.8116 96.1265C15.218 96.6298 13.5323 99.0965 14.0464 101.636ZM20.2939 108.388C15.9713 109.227 11.7725 106.476 10.9157 102.244C10.0589 98.0112 12.8684 93.9001 17.191 93.0611C21.5136 92.2222 25.7123 94.9731 26.5692 99.2055C27.426 103.438 24.6164 107.549 20.2939 108.388Z" fill="#F5F5F5"/>
<path fill-rule="evenodd" clip-rule="evenodd" d="M3.56073 95.3124C2.79727 94.8813 2.53532 93.9258 2.97564 93.1782L11.4508 78.7901C11.8911 78.0426 12.867 77.7861 13.6304 78.2173C14.3939 78.6484 14.6558 79.6039 14.2155 80.3514L5.74037 94.7395C5.30005 95.487 4.32419 95.7435 3.56073 95.3124Z" fill="#F5F5F5"/>
<path fill-rule="evenodd" clip-rule="evenodd" d="M14.6995 78.0098C15.2373 77.3261 16.2393 77.1987 16.9376 77.7252L30.3772 87.86C31.0755 88.3866 31.2056 89.3677 30.6678 90.0513C30.13 90.735 29.128 90.8624 28.4298 90.3358L14.9901 80.2011C14.2919 79.6745 14.1618 78.6934 14.6995 78.0098Z" fill="#F5F5F5"/>
<path fill-rule="evenodd" clip-rule="evenodd" d="M6.81711 111.398C7.35488 110.714 8.35687 110.587 9.05512 111.113L22.4948 121.248C23.1931 121.774 23.3231 122.756 22.7854 123.439C22.2476 124.123 21.2456 124.25 20.5474 123.724L7.10769 113.589C6.40943 113.062 6.27934 112.081 6.81711 111.398Z" fill="#F5F5F5"/>
<path fill-rule="evenodd" clip-rule="evenodd" d="M23.8545 123.232C23.091 122.801 22.8291 121.845 23.2694 121.098L31.7445 106.709C32.1849 105.962 33.1607 105.705 33.9242 106.137C34.6876 106.568 34.9496 107.523 34.5093 108.271L26.0341 122.659C25.5938 123.406 24.618 123.663 23.8545 123.232Z" fill="#F5F5F5"/>
<path d="M262.526 19.6138L229.265 11.0617C175.908 -2.65712 155.143 69.4857 210.578 83.7391L243.839 92.2911" stroke="white" stroke-width="14.2936" stroke-linecap="round"/>
<path d="M302.671 29.936L335.933 38.4881C389.289 52.2069 372.681 125.419 317.246 111.165L283.985 102.613" stroke="white" stroke-width="14.2936" stroke-linecap="round"/>
<line x1="215.716" y1="46.6883" x2="331.308" y2="76.409" stroke="white" stroke-width="14.2936" stroke-linecap="round"/>
</svg>
