<svg width="271" height="48" viewBox="0 0 271 48" fill="none" xmlns="http://www.w3.org/2000/svg">
<path fill-rule="evenodd" clip-rule="evenodd" d="M45.1589 47.0994C44.617 45.9739 45.1095 44.6314 46.259 44.1009L73.3154 31.6125C74.4648 31.0819 75.8359 31.5642 76.3778 32.6897L83.2456 46.9545C83.7875 48.0799 83.2949 49.4224 82.1455 49.953L55.0891 62.4414C53.9396 62.9719 52.5685 62.4896 52.0267 61.3642L45.1589 47.0994ZM74.2965 33.6503L47.2401 46.1387L54.1079 60.4035L81.1643 47.9151L74.2965 33.6503Z" fill="#F5F5F5"/>
<path fill-rule="evenodd" clip-rule="evenodd" d="M62.7305 43.9702C61.0064 44.766 60.2676 46.7797 61.0803 48.4679C61.8931 50.1561 63.9497 50.8795 65.6739 50.0837C67.3981 49.2878 68.1369 47.2741 67.3241 45.5859C66.5113 43.8978 64.4547 43.1743 62.7305 43.9702ZM58.9991 49.4285C57.6444 46.6149 58.8758 43.2587 61.7494 41.9323C64.6231 40.606 68.0507 41.8116 69.4054 44.6253C70.76 47.439 69.5286 50.7951 66.655 52.1215C63.7814 53.4479 60.3537 52.2422 58.9991 49.4285Z" fill="#F5F5F5"/>
<path fill-rule="evenodd" clip-rule="evenodd" d="M65.4154 35.6842C65.5899 35.086 66.2267 34.7396 66.8376 34.9106L78.5966 38.2004C79.2075 38.3713 79.5613 38.9948 79.3867 39.593C79.2121 40.1912 78.5754 40.5375 77.9644 40.3666L66.2055 37.0768C65.5945 36.9059 65.2408 36.2824 65.4154 35.6842Z" fill="#F5F5F5"/>
<path fill-rule="evenodd" clip-rule="evenodd" d="M79.7218 40.2889C80.3041 40.5377 80.5702 41.2016 80.3161 41.7718L75.425 52.7468C75.1708 53.317 74.4927 53.5776 73.9104 53.3287C73.328 53.0799 73.0619 52.416 73.3161 51.8458L78.2072 40.8708C78.4613 40.3006 79.1394 40.0401 79.7218 40.2889Z" fill="#F5F5F5"/>
<path fill-rule="evenodd" clip-rule="evenodd" d="M54.4941 40.7251C55.0765 40.9739 55.3425 41.6379 55.0884 42.2081L50.1973 53.183C49.9432 53.7532 49.2651 54.0138 48.6827 53.765C48.1004 53.5162 47.8343 52.8522 48.0884 52.282L52.9795 41.307C53.2337 40.7368 53.9118 40.4763 54.4941 40.7251Z" fill="#F5F5F5"/>
<path fill-rule="evenodd" clip-rule="evenodd" d="M49.0178 54.4609C49.1924 53.8627 49.8291 53.5163 50.4401 53.6873L62.199 56.9771C62.8099 57.148 63.1637 57.7715 62.9891 58.3697C62.8146 58.9678 62.1778 59.3142 61.5669 59.1433L49.8079 55.8535C49.197 55.6825 48.8432 55.0591 49.0178 54.4609Z" fill="#F5F5F5"/>
<path fill-rule="evenodd" clip-rule="evenodd" d="M24.9463 49.7022C23.7747 49.2203 23.224 47.8997 23.7162 46.7526L35.3023 19.7511C35.7945 18.6039 37.1433 18.0647 38.3149 18.5467L53.164 24.6552C54.3356 25.1371 54.8863 26.4577 54.3941 27.6048L42.8079 54.6063C42.3157 55.7535 40.9669 56.2927 39.7954 55.8107L24.9463 49.7022ZM37.4236 20.6237L25.8375 47.6252L40.6866 53.7337L52.2728 26.7322L37.4236 20.6237Z" fill="#F5F5F5"/>
<path fill-rule="evenodd" clip-rule="evenodd" d="M35.8732 35.8697C35.1348 37.5904 35.9609 39.5713 37.7183 40.2943C39.4756 41.0172 41.4988 40.2083 42.2371 38.4877C42.9754 36.767 42.1493 34.7861 40.392 34.0631C38.6346 33.3402 36.6115 34.1491 35.8732 35.8697ZM36.827 42.3713C33.8981 41.1664 32.5213 37.8649 33.7519 34.9971C34.9824 32.1293 38.3543 30.7812 41.2832 31.9861C44.2121 33.191 45.5889 36.4925 44.3584 39.3603C43.1278 42.2281 39.7559 43.5762 36.827 42.3713Z" fill="#F5F5F5"/>
<path fill-rule="evenodd" clip-rule="evenodd" d="M32.2098 27.9512C31.9311 27.3922 32.1679 26.7177 32.7389 26.4448L43.7284 21.1909C44.2994 20.9179 44.9882 21.1498 45.267 21.7089C45.5458 22.2679 45.3089 22.9424 44.738 23.2153L33.7484 28.4692C33.1775 28.7422 32.4886 28.5103 32.2098 27.9512Z" fill="#F5F5F5"/>
<path fill-rule="evenodd" clip-rule="evenodd" d="M45.9914 22.0069C46.5943 21.8105 47.2456 22.1299 47.4462 22.7202L51.3058 34.0826C51.5063 34.673 51.1801 35.3107 50.5772 35.507C49.9743 35.7034 49.3229 35.384 49.1224 34.7937L45.2628 23.4312C45.0623 22.8409 45.3885 22.2032 45.9914 22.0069Z" fill="#F5F5F5"/>
<path fill-rule="evenodd" clip-rule="evenodd" d="M27.5331 38.8503C28.136 38.654 28.7874 38.9734 28.9879 39.5637L32.8475 50.9261C33.048 51.5165 32.7218 52.1542 32.1189 52.3505C31.516 52.5469 30.8647 52.2275 30.6641 51.6371L26.8045 40.2747C26.604 39.6844 26.9302 39.0467 27.5331 38.8503Z" fill="#F5F5F5"/>
<path fill-rule="evenodd" clip-rule="evenodd" d="M32.8433 52.6485C32.5645 52.0895 32.8014 51.415 33.3723 51.142L44.3619 45.8881C44.9328 45.6152 45.6217 45.8471 45.9004 46.4061C46.1792 46.9652 45.9424 47.6397 45.3714 47.9126L34.3819 53.1665C33.8109 53.4395 33.1221 53.2076 32.8433 52.6485Z" fill="#F5F5F5"/>
<path fill-rule="evenodd" clip-rule="evenodd" d="M8.96795 56.4911C7.72143 56.7331 6.51064 55.9398 6.26355 54.7193L0.447539 25.9904C0.200454 24.7699 1.01065 23.5844 2.25716 23.3425L18.0562 20.2761C19.3027 20.0342 20.5135 20.8275 20.7606 22.048L26.5766 50.7768C26.8237 51.9973 26.0135 53.1829 24.767 53.4248L8.96795 56.4911ZM2.70455 25.5524L8.52056 54.2812L24.3196 51.2149L18.5036 22.486L2.70455 25.5524Z" fill="#F5F5F5"/>
<path fill-rule="evenodd" clip-rule="evenodd" d="M10.1266 39.0407C10.4972 40.8715 12.3134 42.0614 14.1832 41.6985C16.0529 41.3356 17.2682 39.5573 16.8976 37.7266C16.527 35.8958 14.7108 34.7059 12.841 35.0688C10.9712 35.4317 9.75595 37.21 10.1266 39.0407ZM14.6305 43.9084C11.5143 44.5132 8.48727 42.53 7.86956 39.4788C7.25185 36.4275 9.27734 33.4637 12.3936 32.8589C15.5099 32.254 18.5369 34.2373 19.1546 37.2885C19.7723 40.3398 17.7468 43.3036 14.6305 43.9084Z" fill="#F5F5F5"/>
<path fill-rule="evenodd" clip-rule="evenodd" d="M2.56713 34.4819C2.01673 34.1711 1.82787 33.4822 2.14532 32.9433L8.2553 22.5705C8.57275 22.0316 9.27627 21.8467 9.82667 22.1575C10.3771 22.4683 10.5659 23.1571 10.2485 23.6961L4.13849 34.0689C3.82105 34.6078 3.11753 34.7927 2.56713 34.4819Z" fill="#F5F5F5"/>
<path fill-rule="evenodd" clip-rule="evenodd" d="M10.5974 22.0079C10.9851 21.515 11.7075 21.4232 12.2109 21.8028L21.9 29.1092C22.4033 29.4888 22.4971 30.1961 22.1094 30.689C21.7218 31.1819 20.9994 31.2737 20.496 30.8941L10.8069 23.5877C10.3035 23.2081 10.2097 22.5008 10.5974 22.0079Z" fill="#F5F5F5"/>
<path fill-rule="evenodd" clip-rule="evenodd" d="M4.91475 46.0782C5.30244 45.5853 6.02481 45.4935 6.5282 45.8731L16.2173 53.1796C16.7207 53.5592 16.8145 54.2665 16.4268 54.7594C16.0391 55.2522 15.3167 55.3441 14.8133 54.9645L5.12424 47.658C4.62084 47.2784 4.52705 46.5711 4.91475 46.0782Z" fill="#F5F5F5"/>
<path fill-rule="evenodd" clip-rule="evenodd" d="M17.1975 54.6098C16.6471 54.299 16.4583 53.6101 16.7757 53.0712L22.8857 42.6984C23.2031 42.1595 23.9067 41.9745 24.4571 42.2854C25.0075 42.5962 25.1963 43.285 24.8789 43.8239L18.7689 54.1968C18.4514 54.7357 17.7479 54.9206 17.1975 54.6098Z" fill="#F5F5F5"/>
<path d="M189.263 12.9077L165.284 6.7423C126.818 -3.14805 111.847 48.862 151.812 59.1376L175.791 65.3031" stroke="white" stroke-width="10.3047" stroke-linecap="round"/>
<path d="M218.205 20.3486L242.184 26.514C280.651 36.4044 268.677 89.1851 228.713 78.9094L204.734 72.744" stroke="white" stroke-width="10.3047" stroke-linecap="round"/>
<line x1="155.517" y1="32.4263" x2="238.85" y2="53.8528" stroke="white" stroke-width="10.3047" stroke-linecap="round"/>
</svg>
