<svg width="182" height="78" viewBox="0 0 182 78" fill="none" xmlns="http://www.w3.org/2000/svg">
<path fill-rule="evenodd" clip-rule="evenodd" d="M120.283 11.4228C123.091 10.4956 124.615 7.46785 123.688 4.66009C123.688 4.66005 123.688 4.66001 123.688 4.65998L133.856 1.30237L180.023 141.11C180.95 143.917 179.426 146.945 176.618 147.872L54.6043 188.164C51.7965 189.091 48.7687 187.566 47.8416 184.759L1.67456 44.9512L11.8424 41.5936L11.8424 41.5936C12.7696 44.4014 15.7974 45.9259 18.6051 44.9988C21.4129 44.0716 22.9374 41.0438 22.0102 38.236L22.0102 38.236L32.1781 34.8783L32.1782 34.8786C33.1053 37.6864 36.1331 39.2109 38.9409 38.2837C41.7486 37.3566 43.2731 34.3288 42.346 31.521L42.3459 31.5207L52.5135 28.1632L52.5136 28.1633C53.4408 30.9711 56.4685 32.4956 59.2763 31.5684C62.0841 30.6413 63.6086 27.6135 62.6814 24.8057L62.6814 24.8056L72.8493 21.4479L72.8493 21.448C73.7765 24.2558 76.8043 25.7803 79.612 24.8531C82.4198 23.9259 83.9443 20.8982 83.0171 18.0904L83.0171 18.0903L93.1847 14.7328L93.1847 14.733C94.1119 17.5408 97.1397 19.0653 99.9474 18.1381C102.755 17.2109 104.28 14.1832 103.353 11.3754L103.352 11.3752L113.52 8.01758C113.52 8.01762 113.52 8.01765 113.52 8.01769C114.448 10.8255 117.475 12.35 120.283 11.4228Z" fill="white"/>
<path d="M123.688 4.65998L123.352 3.6432C122.791 3.82863 122.486 4.43418 122.671 4.99574L123.688 4.65998ZM133.856 1.30237L134.873 0.96661C134.687 0.405058 134.082 0.100153 133.52 0.28559L133.856 1.30237ZM176.618 147.872L176.954 148.889L176.618 147.872ZM54.6043 188.164L54.2685 187.147L54.6043 188.164ZM47.8416 184.759L48.8583 184.423L47.8416 184.759ZM1.67456 44.9512L1.3388 43.9344C1.06913 44.0234 0.845886 44.216 0.71817 44.4696C0.590454 44.7233 0.568731 45.0173 0.65778 45.2869L1.67456 44.9512ZM11.8424 41.5936L12.8592 41.2578C12.6738 40.6962 12.0682 40.3913 11.5067 40.5768L11.8424 41.5936ZM22.0102 38.236L23.027 37.9003L22.0102 38.236ZM22.0102 38.236L21.6745 37.2192C21.4048 37.3082 21.1815 37.5008 21.0538 37.7544C20.9261 38.0081 20.9044 38.3021 20.9934 38.5717L22.0102 38.236ZM32.1781 34.8783L33.1949 34.5426C33.0094 33.981 32.4039 33.6761 31.8423 33.8616L32.1781 34.8783ZM32.1782 34.8786L33.1949 34.5429L32.1782 34.8786ZM42.346 31.521L43.3628 31.1853L42.346 31.521ZM42.3459 31.5207L42.0101 30.504C41.7404 30.593 41.5172 30.7855 41.3895 31.0392C41.2618 31.2928 41.24 31.5868 41.3291 31.8565L42.3459 31.5207ZM52.5135 28.1632L53.5303 27.8274C53.4413 27.5578 53.2488 27.3345 52.9951 27.2068C52.7415 27.0791 52.4475 27.0574 52.1778 27.1464L52.5135 28.1632ZM52.5136 28.1633L51.4968 28.4991L52.5136 28.1633ZM62.6814 24.8056L62.3456 23.7888C61.784 23.9742 61.4791 24.5798 61.6646 25.1413L62.6814 24.8056ZM72.8493 21.4479L73.8661 21.1122C73.6806 20.5506 73.0751 20.2457 72.5135 20.4312L72.8493 21.4479ZM72.8493 21.448L73.8661 21.1123L72.8493 21.448ZM83.0171 18.0904L84.0339 17.7547L83.0171 18.0904ZM83.0171 18.0903L82.6813 17.0736C82.4117 17.1626 82.1884 17.3551 82.0607 17.6088C81.933 17.8624 81.9113 18.1564 82.0003 18.4261L83.0171 18.0903ZM93.1847 14.7328L94.2015 14.3971C94.016 13.8355 93.4105 13.5306 92.8489 13.716L93.1847 14.7328ZM103.352 11.3752L103.017 10.3584C102.455 10.5439 102.15 11.1494 102.336 11.711L103.352 11.3752ZM113.52 8.01758L114.537 7.68182C114.352 7.12026 113.746 6.81536 113.185 7.0008L113.52 8.01758ZM122.671 4.99585C123.413 7.24206 122.194 9.66428 119.947 10.406L120.619 12.4396C123.988 11.327 125.818 7.69365 124.705 4.32433L122.671 4.99585ZM122.671 4.99574C122.671 4.99575 122.671 4.99575 122.671 4.99577C122.671 4.99577 122.671 4.99577 122.671 4.99578C122.671 4.99579 122.671 4.99578 122.671 4.99579C122.671 4.99579 122.671 4.99579 122.671 4.99579C122.671 4.99579 122.671 4.99579 122.671 4.99579C122.671 4.99579 122.671 4.99579 122.671 4.99579C122.671 4.99579 122.671 4.99579 122.671 4.99579C122.671 4.99579 122.671 4.99579 122.671 4.99579C122.671 4.99579 122.671 4.99579 122.671 4.99579C122.671 4.99579 122.671 4.99579 122.671 4.99579C122.671 4.99579 122.671 4.99579 122.671 4.99579C122.671 4.99579 122.671 4.99579 122.671 4.99579C122.671 4.99579 122.671 4.99579 122.671 4.99579C122.671 4.99579 122.671 4.99579 122.671 4.99579C122.671 4.99579 122.671 4.99579 122.671 4.99579C122.671 4.99579 122.671 4.99579 122.671 4.99579C122.671 4.99579 122.671 4.99579 122.671 4.99579C122.671 4.99579 122.671 4.99579 122.671 4.99579C122.671 4.99579 122.671 4.99579 122.671 4.99579C122.671 4.99579 122.671 4.99579 122.671 4.99579C122.671 4.99579 122.671 4.99579 122.671 4.99579C122.671 4.99579 122.671 4.99579 122.671 4.99579C122.671 4.99579 122.671 4.99579 122.671 4.99579C122.671 4.99579 122.671 4.99579 122.671 4.99579C122.671 4.99579 122.671 4.99579 122.671 4.99579C122.671 4.99579 122.671 4.99579 122.671 4.99579C122.671 4.99579 122.671 4.99579 122.671 4.99579C122.671 4.99579 122.671 4.99579 122.671 4.99579C122.671 4.99579 122.671 4.99579 122.671 4.99579C122.671 4.99579 122.671 4.99579 122.671 4.99579C122.671 4.99579 122.671 4.99579 122.671 4.99579C122.671 4.99579 122.671 4.99579 122.671 4.99579C122.671 4.99579 122.671 4.99579 122.671 4.99579C122.671 4.99579 122.671 4.99579 122.671 4.99579C122.671 4.99579 122.671 4.99579 122.671 4.99579C122.671 4.99582 122.671 4.99583 122.671 4.99585L124.705 4.32433C124.705 4.32432 124.705 4.32431 124.705 4.3243C124.705 4.3243 124.705 4.32429 124.705 4.32429C124.705 4.32428 124.705 4.32429 124.705 4.32428C124.705 4.32428 124.705 4.32428 124.705 4.32428C124.705 4.32428 124.705 4.32428 124.705 4.32428C124.705 4.32428 124.705 4.32428 124.705 4.32428C124.705 4.32428 124.705 4.32428 124.705 4.32428C124.705 4.32428 124.705 4.32428 124.705 4.32428C124.705 4.32428 124.705 4.32428 124.705 4.32428C124.705 4.32428 124.705 4.32428 124.705 4.32428C124.705 4.32428 124.705 4.32428 124.705 4.32428C124.705 4.32428 124.705 4.32428 124.705 4.32428C124.705 4.32428 124.705 4.32428 124.705 4.32428C124.705 4.32428 124.705 4.32428 124.705 4.32428C124.705 4.32428 124.705 4.32428 124.705 4.32428C124.705 4.32428 124.705 4.32428 124.705 4.32428C124.705 4.32428 124.705 4.32428 124.705 4.32428C124.705 4.32428 124.705 4.32428 124.705 4.32428C124.705 4.32428 124.705 4.32428 124.705 4.32428C124.705 4.32428 124.705 4.32428 124.705 4.32428C124.705 4.32428 124.705 4.32428 124.705 4.32428C124.705 4.32428 124.705 4.32428 124.705 4.32428C124.705 4.32428 124.705 4.32428 124.705 4.32428C124.705 4.32428 124.705 4.32428 124.705 4.32428C124.705 4.32428 124.705 4.32428 124.705 4.32428C124.705 4.32428 124.705 4.32428 124.705 4.32428C124.705 4.32428 124.705 4.32428 124.705 4.32428C124.705 4.32428 124.705 4.32427 124.705 4.32427C124.705 4.32427 124.705 4.32427 124.705 4.32427C124.705 4.32427 124.705 4.32427 124.705 4.32427C124.705 4.32427 124.705 4.32427 124.705 4.32427C124.705 4.32427 124.705 4.32427 124.705 4.32427C124.705 4.32427 124.705 4.32427 124.705 4.32427C124.705 4.32427 124.705 4.32427 124.705 4.32427C124.705 4.32427 124.705 4.32427 124.705 4.32427C124.705 4.32425 124.705 4.32424 124.705 4.32422L122.671 4.99574ZM124.024 5.67676L134.192 2.31915L133.52 0.28559L123.352 3.6432L124.024 5.67676ZM132.839 1.63813L179.006 141.445L181.04 140.774L134.873 0.96661L132.839 1.63813ZM179.006 141.445C179.748 143.692 178.528 146.114 176.282 146.856L176.954 148.889C180.323 147.777 182.152 144.143 181.04 140.774L179.006 141.445ZM176.282 146.856L54.2685 187.147L54.94 189.18L176.954 148.889L176.282 146.856ZM54.2685 187.147C52.0223 187.889 49.6001 186.669 48.8583 184.423L46.8248 185.094C47.9374 188.464 51.5707 190.293 54.94 189.18L54.2685 187.147ZM48.8583 184.423L2.69134 44.6154L0.65778 45.2869L46.8248 185.094L48.8583 184.423ZM2.01032 45.968L12.1782 42.6103L11.5067 40.5768L1.3388 43.9344L2.01032 45.968ZM10.8256 41.9293L10.8257 41.9294L12.8592 41.2579L12.8592 41.2578L10.8256 41.9293ZM10.8257 41.9294C11.9383 45.2987 15.5716 47.1281 18.9409 46.0155L18.2694 43.982C16.0232 44.7237 13.601 43.5041 12.8592 41.2579L10.8257 41.9294ZM18.9409 46.0155C22.3102 44.9029 24.1396 41.2696 23.027 37.9003L20.9935 38.5718C21.7352 40.818 20.5156 43.2402 18.2694 43.982L18.9409 46.0155ZM23.027 37.9003L23.027 37.9002L20.9934 38.5717L20.9935 38.5718L23.027 37.9003ZM22.346 39.2527L32.5138 35.8951L31.8423 33.8616L21.6745 37.2192L22.346 39.2527ZM31.1613 35.2141L31.1614 35.2144L33.1949 34.5429L33.1949 34.5426L31.1613 35.2141ZM31.1614 35.2144C32.274 38.5837 35.9073 40.4131 39.2766 39.3005L38.6051 37.267C36.3589 38.0087 33.9367 36.7891 33.1949 34.5429L31.1614 35.2144ZM39.2766 39.3005C42.6459 38.1879 44.4754 34.5546 43.3628 31.1853L41.3292 31.8568C42.0709 34.103 40.8513 36.5252 38.6051 37.267L39.2766 39.3005ZM43.3628 31.1853L43.3627 31.185L41.3291 31.8565L41.3292 31.8568L43.3628 31.1853ZM42.6816 32.5375L52.8493 29.18L52.1778 27.1464L42.0101 30.504L42.6816 32.5375ZM51.4968 28.4989L51.4968 28.4991L53.5304 27.8276L53.5303 27.8274L51.4968 28.4989ZM51.4968 28.4991C52.6094 31.8684 56.2427 33.6978 59.6121 32.5852L58.9405 30.5516C56.6943 31.2934 54.2721 30.0738 53.5304 27.8276L51.4968 28.4991ZM59.6121 32.5852C62.9814 31.4726 64.8108 27.8393 63.6982 24.47L61.6646 25.1415C62.4064 27.3877 61.1867 29.8099 58.9405 30.5516L59.6121 32.5852ZM63.6982 24.47L63.6981 24.4698L61.6646 25.1413L61.6646 25.1415L63.6982 24.47ZM63.0171 25.8224L73.185 22.4647L72.5135 20.4312L62.3456 23.7888L63.0171 25.8224ZM71.8325 21.7837L71.8325 21.7838L73.8661 21.1123L73.8661 21.1122L71.8325 21.7837ZM71.8325 21.7838C72.9451 25.1531 76.5785 26.9825 79.9478 25.8699L79.2763 23.8363C77.03 24.5781 74.6078 23.3585 73.8661 21.1123L71.8325 21.7838ZM79.9478 25.8699C83.3171 24.7573 85.1465 21.124 84.0339 17.7547L82.0003 18.4262C82.7421 20.6724 81.5225 23.0946 79.2763 23.8363L79.9478 25.8699ZM84.0339 17.7547L84.0339 17.7546L82.0003 18.4261L82.0003 18.4262L84.0339 17.7547ZM83.3529 19.1071L93.5204 15.7496L92.8489 13.716L82.6813 17.0736L83.3529 19.1071ZM92.1679 15.0686L92.168 15.0688L94.2015 14.3972L94.2015 14.3971L92.1679 15.0686ZM92.168 15.0688C93.2806 18.4381 96.9139 20.2675 100.283 19.1549L99.6117 17.1213C97.3655 17.8631 94.9433 16.6434 94.2015 14.3972L92.168 15.0688ZM100.283 19.1549C103.653 18.0423 105.482 14.409 104.369 11.0396L102.336 11.7112C103.078 13.9574 101.858 16.3796 99.6117 17.1213L100.283 19.1549ZM104.369 11.0396L104.369 11.0395L102.336 11.711L102.336 11.7112L104.369 11.0396ZM103.688 12.392L113.856 9.03436L113.185 7.0008L103.017 10.3584L103.688 12.392ZM114.537 7.68193C114.537 7.68192 114.537 7.68189 114.537 7.68187C114.537 7.68185 114.537 7.68184 114.537 7.68182L112.504 8.35334C112.504 8.35335 112.504 8.35338 112.504 8.3534C112.504 8.35342 112.504 8.35343 112.504 8.35345L114.537 7.68193ZM119.947 10.406C117.701 11.1478 115.279 9.92814 114.537 7.68193L112.504 8.35345C113.616 11.7228 117.25 13.5522 120.619 12.4396L119.947 10.406Z" fill="white"/>
<line x1="28.673" y1="77.1951" x2="77.4785" y2="61.0786" stroke="#3063E9" stroke-width="5.35392" stroke-linecap="round"/>
<line x1="33.7094" y1="92.4468" x2="136.913" y2="58.3671" stroke="#FF9635" stroke-width="5.35392" stroke-linecap="round"/>
<path d="M125.16 42.022C120.335 32.1962 122.601 24.0507 129.837 19.8658C125.352 27.5952 124.365 32.8592 125.16 42.022Z" fill="#3063E9"/>
<path d="M122.522 39.2039C121.753 34.3136 118.328 32.8591 114.858 34.2654C118.819 34.7798 120.323 36.7249 122.522 39.2039Z" fill="#3063E9"/>
</svg>
