<svg width="223" height="138" viewBox="0 0 223 138" fill="none" xmlns="http://www.w3.org/2000/svg">
<path fill-rule="evenodd" clip-rule="evenodd" d="M166.522 16.038C170.416 14.7519 172.531 10.5521 171.245 6.65746C171.245 6.65736 171.245 6.65726 171.245 6.65716L185.348 1.99984L249.387 195.926C250.673 199.821 248.558 204.021 244.663 205.307L75.4186 261.194C71.524 262.48 67.3242 260.366 66.0381 256.471L2 62.5449L16.1036 57.8876L16.1037 57.8877C17.3897 61.7824 21.5895 63.897 25.4842 62.611C29.3788 61.3249 31.4935 57.1251 30.2074 53.2304L30.2074 53.2303L44.3111 48.573L44.3112 48.5732C45.5973 52.4679 49.7971 54.5825 53.6917 53.2964C57.5864 52.0104 59.701 47.8106 58.4149 43.9159L58.4148 43.9157L72.5184 39.2584L72.5184 39.2586C73.8045 43.1532 78.0043 45.2679 81.899 43.9818C85.7936 42.6957 87.9082 38.4959 86.6222 34.6013L86.6221 34.6011L100.726 29.9438L100.726 29.9439C102.012 33.8386 106.212 35.9532 110.106 34.6671C114.001 33.3811 116.116 29.1813 114.83 25.2866L114.83 25.2865L128.933 20.6292L128.933 20.6293C130.219 24.5239 134.419 26.6386 138.314 25.3525C142.208 24.0664 144.323 19.8666 143.037 15.972L143.037 15.9719L157.141 11.3145C157.141 11.3146 157.141 11.3147 157.141 11.3148C158.427 15.2094 162.627 17.3241 166.522 16.038Z" fill="white"/>
<path d="M171.245 6.65716L170.779 5.24679C170 5.50401 169.577 6.34397 169.834 7.12289L171.245 6.65716ZM185.348 1.99984L186.759 1.53411C186.502 0.755179 185.662 0.332247 184.883 0.589463L185.348 1.99984ZM2 62.5449L1.53427 61.1345C1.16021 61.2581 0.850549 61.5251 0.673394 61.877C0.496239 62.2288 0.466108 62.6366 0.589627 63.0107L2 62.5449ZM16.1036 57.8876L17.514 57.4219C17.2568 56.643 16.4168 56.2201 15.6379 56.4773L16.1036 57.8876ZM30.2074 53.2304L28.797 53.6962L30.2074 53.2304ZM30.2074 53.2303L29.7416 51.82C28.9627 52.0772 28.5398 52.9171 28.797 53.6961L30.2074 53.2303ZM44.3111 48.573L45.7215 48.1073C45.4643 47.3283 44.6243 46.9054 43.8454 47.1626L44.3111 48.573ZM58.4149 43.9159L57.0046 44.3817L58.4149 43.9159ZM58.4148 43.9157L57.9491 42.5053C57.1702 42.7625 56.7473 43.6025 57.0045 44.3814L58.4148 43.9157ZM72.5184 39.2584L73.9288 38.7927C73.8052 38.4186 73.5382 38.109 73.1864 37.9318C72.8345 37.7547 72.4267 37.7245 72.0527 37.8481L72.5184 39.2584ZM72.5184 39.2586L71.1081 39.7243L72.5184 39.2586ZM86.6222 34.6013L88.0325 34.1355L86.6222 34.6013ZM86.6221 34.6011L86.1564 33.1907C85.7823 33.3143 85.4727 33.5813 85.2955 33.9332C85.1183 34.285 85.0882 34.6928 85.2117 35.0669L86.6221 34.6011ZM100.726 29.9438L102.136 29.478C102.013 29.104 101.746 28.7943 101.394 28.6172C101.042 28.44 100.634 28.4099 100.26 28.5334L100.726 29.9438ZM100.726 29.9439L99.3156 30.4097L100.726 29.9439ZM114.83 25.2865L114.364 23.8761C113.585 24.1333 113.162 24.9733 113.419 25.7522L114.83 25.2865ZM128.933 20.6292L130.344 20.1635C130.22 19.7894 129.953 19.4798 129.601 19.3026C129.249 19.1254 128.842 19.0953 128.467 19.2188L128.933 20.6292ZM128.933 20.6293L127.523 21.095L128.933 20.6293ZM143.037 15.972L144.447 15.5062L143.037 15.972ZM143.037 15.9719L142.571 14.5615C142.197 14.685 141.887 14.9521 141.71 15.3039C141.533 15.6558 141.503 16.0636 141.627 16.4376L143.037 15.9719ZM157.141 11.3145L158.551 10.8487C158.294 10.0698 157.454 9.64689 156.675 9.9041L157.141 11.3145ZM169.834 7.12319C170.863 10.2389 169.172 13.5987 166.056 14.6276L166.987 17.4484C171.661 15.9051 174.198 10.8653 172.655 6.19173L169.834 7.12319ZM169.834 7.12289C169.834 7.12294 169.834 7.12299 169.834 7.12304C169.834 7.12309 169.834 7.12314 169.834 7.12319L172.655 6.19173C172.655 6.19168 172.655 6.19163 172.655 6.19158C172.655 6.19153 172.655 6.19148 172.655 6.19143L169.834 7.12289ZM171.71 8.06754L185.814 3.41021L184.883 0.589463L170.779 5.24679L171.71 8.06754ZM183.938 2.46557L247.976 196.392L250.797 195.46L186.759 1.53411L183.938 2.46557ZM247.976 196.392C249.005 199.508 247.313 202.867 244.198 203.896L245.129 206.717C249.803 205.174 252.34 200.134 250.797 195.46L247.976 196.392ZM244.198 203.896L74.9529 259.784L75.8843 262.605L245.129 206.717L244.198 203.896ZM74.9529 259.784C71.8372 260.813 68.4773 259.121 67.4484 256.005L64.6277 256.937C66.171 261.61 71.2108 264.148 75.8843 262.605L74.9529 259.784ZM67.4484 256.005L3.41037 62.0792L0.589627 63.0107L64.6277 256.937L67.4484 256.005ZM2.46573 63.9553L16.5694 59.298L15.6379 56.4773L1.53427 61.1345L2.46573 63.9553ZM14.6933 58.3534L14.6933 58.3535L17.514 57.422L17.514 57.4219L14.6933 58.3534ZM14.6933 58.3535C16.2366 63.027 21.2763 65.5646 25.9499 64.0213L25.0184 61.2006C21.9027 62.2294 18.5429 60.5377 17.514 57.422L14.6933 58.3535ZM25.9499 64.0213C30.6235 62.478 33.1611 57.4383 31.6178 52.7647L28.797 53.6962C29.8259 56.8119 28.1342 60.1717 25.0184 61.2006L25.9499 64.0213ZM31.6178 52.7647L31.6177 52.7646L28.797 53.6961L28.797 53.6962L31.6178 52.7647ZM30.6731 54.6407L44.7769 49.9834L43.8454 47.1626L29.7416 51.82L30.6731 54.6407ZM42.9007 49.0387L42.9008 49.039L45.7216 48.1075L45.7215 48.1073L42.9007 49.0387ZM42.9008 49.039C44.4441 53.7125 49.4839 56.2501 54.1575 54.7068L53.226 51.8861C50.1103 52.9149 46.7504 51.2232 45.7216 48.1075L42.9008 49.039ZM54.1575 54.7068C58.831 53.1635 61.3686 48.1238 59.8253 43.4502L57.0046 44.3817C58.0334 47.4974 56.3417 50.8572 53.226 51.8861L54.1575 54.7068ZM59.8253 43.4502L59.8252 43.45L57.0045 44.3814L57.0046 44.3817L59.8253 43.4502ZM58.8806 45.3261L72.9841 40.6688L72.0527 37.8481L57.9491 42.5053L58.8806 45.3261ZM71.108 39.7242L71.1081 39.7243L73.9288 38.7929L73.9288 38.7927L71.108 39.7242ZM71.1081 39.7243C72.6514 44.3979 77.6911 46.9355 82.3647 45.3922L81.4332 42.5714C78.3175 43.6003 74.9577 41.9086 73.9288 38.7929L71.1081 39.7243ZM82.3647 45.3922C87.0382 43.8489 89.5758 38.8091 88.0325 34.1355L85.2118 35.067C86.2407 38.1827 84.5489 41.5426 81.4332 42.5714L82.3647 45.3922ZM88.0325 34.1355L88.0325 34.1354L85.2117 35.0669L85.2118 35.067L88.0325 34.1355ZM87.0878 36.0115L101.192 31.3541L100.26 28.5334L86.1564 33.1907L87.0878 36.0115ZM99.3155 30.4095L99.3156 30.4097L102.136 29.4782L102.136 29.478L99.3155 30.4095ZM99.3156 30.4097C100.859 35.0832 105.899 37.6208 110.572 36.0775L109.641 33.2568C106.525 34.2856 103.165 32.5939 102.136 29.4782L99.3156 30.4097ZM110.572 36.0775C115.246 34.5342 117.783 29.4945 116.24 24.8209L113.419 25.7523C114.448 28.8681 112.756 32.2279 109.641 33.2568L110.572 36.0775ZM116.24 24.8209L116.24 24.8207L113.419 25.7522L113.419 25.7523L116.24 24.8209ZM115.295 26.6968L129.399 22.0396L128.467 19.2188L114.364 23.8761L115.295 26.6968ZM127.523 21.0949L127.523 21.095L130.344 20.1635L130.344 20.1635L127.523 21.0949ZM127.523 21.095C129.066 25.7686 134.106 28.3062 138.779 26.7629L137.848 23.9421C134.732 24.971 131.372 23.2793 130.344 20.1635L127.523 21.095ZM138.779 26.7629C143.453 25.2196 145.991 20.1798 144.447 15.5062L141.627 16.4377C142.655 19.5534 140.964 22.9132 137.848 23.9421L138.779 26.7629ZM144.447 15.5062L144.447 15.5062L141.627 16.4376L141.627 16.4377L144.447 15.5062ZM143.503 17.3823L157.607 12.7249L156.675 9.9041L142.571 14.5615L143.503 17.3823ZM158.551 10.849C158.551 10.849 158.551 10.849 158.551 10.849C158.551 10.849 158.551 10.849 158.551 10.849C158.551 10.849 158.551 10.849 158.551 10.849C158.551 10.849 158.551 10.849 158.551 10.849C158.551 10.849 158.551 10.849 158.551 10.849C158.551 10.849 158.551 10.849 158.551 10.849C158.551 10.849 158.551 10.849 158.551 10.849C158.551 10.849 158.551 10.849 158.551 10.849C158.551 10.849 158.551 10.849 158.551 10.849C158.551 10.849 158.551 10.849 158.551 10.849C158.551 10.849 158.551 10.849 158.551 10.849C158.551 10.849 158.551 10.849 158.551 10.849C158.551 10.849 158.551 10.849 158.551 10.849C158.551 10.849 158.551 10.849 158.551 10.849C158.551 10.849 158.551 10.849 158.551 10.849C158.551 10.849 158.551 10.849 158.551 10.849C158.551 10.849 158.551 10.849 158.551 10.849C158.551 10.849 158.551 10.849 158.551 10.849C158.551 10.849 158.551 10.849 158.551 10.849C158.551 10.849 158.551 10.849 158.551 10.849C158.551 10.849 158.551 10.849 158.551 10.849C158.551 10.849 158.551 10.849 158.551 10.849C158.551 10.849 158.551 10.849 158.551 10.849C158.551 10.849 158.551 10.849 158.551 10.849C158.551 10.849 158.551 10.849 158.551 10.849C158.551 10.849 158.551 10.849 158.551 10.849C158.551 10.849 158.551 10.849 158.551 10.849C158.551 10.849 158.551 10.849 158.551 10.849C158.551 10.849 158.551 10.849 158.551 10.849C158.551 10.849 158.551 10.849 158.551 10.849C158.551 10.849 158.551 10.849 158.551 10.849C158.551 10.849 158.551 10.849 158.551 10.849C158.551 10.849 158.551 10.849 158.551 10.849C158.551 10.849 158.551 10.849 158.551 10.849C158.551 10.849 158.551 10.849 158.551 10.849C158.551 10.849 158.551 10.849 158.551 10.849C158.551 10.849 158.551 10.849 158.551 10.849C158.551 10.849 158.551 10.849 158.551 10.849C158.551 10.849 158.551 10.849 158.551 10.849C158.551 10.849 158.551 10.849 158.551 10.849C158.551 10.849 158.551 10.849 158.551 10.849C158.551 10.849 158.551 10.849 158.551 10.849C158.551 10.849 158.551 10.849 158.551 10.849C158.551 10.849 158.551 10.849 158.551 10.849C158.551 10.849 158.551 10.849 158.551 10.849C158.551 10.849 158.551 10.849 158.551 10.849C158.551 10.849 158.551 10.849 158.551 10.849C158.551 10.849 158.551 10.849 158.551 10.849C158.551 10.849 158.551 10.849 158.551 10.849C158.551 10.849 158.551 10.849 158.551 10.849C158.551 10.849 158.551 10.849 158.551 10.849C158.551 10.849 158.551 10.849 158.551 10.849C158.551 10.849 158.551 10.849 158.551 10.849C158.551 10.849 158.551 10.849 158.551 10.849C158.551 10.849 158.551 10.849 158.551 10.849C158.551 10.849 158.551 10.849 158.551 10.849C158.551 10.849 158.551 10.849 158.551 10.849C158.551 10.849 158.551 10.849 158.551 10.849C158.551 10.849 158.551 10.849 158.551 10.849C158.551 10.849 158.551 10.849 158.551 10.849C158.551 10.849 158.551 10.849 158.551 10.849C158.551 10.849 158.551 10.849 158.551 10.849C158.551 10.849 158.551 10.849 158.551 10.849C158.551 10.849 158.551 10.849 158.551 10.849C158.551 10.849 158.551 10.849 158.551 10.849C158.551 10.849 158.551 10.849 158.551 10.849C158.551 10.849 158.551 10.849 158.551 10.849C158.551 10.849 158.551 10.849 158.551 10.849C158.551 10.849 158.551 10.849 158.551 10.849C158.551 10.849 158.551 10.849 158.551 10.849C158.551 10.849 158.551 10.849 158.551 10.849C158.551 10.849 158.551 10.849 158.551 10.849C158.551 10.849 158.551 10.849 158.551 10.849C158.551 10.849 158.551 10.849 158.551 10.849C158.551 10.849 158.551 10.849 158.551 10.849C158.551 10.849 158.551 10.849 158.551 10.849C158.551 10.849 158.551 10.849 158.551 10.849C158.551 10.849 158.551 10.849 158.551 10.849C158.551 10.849 158.551 10.849 158.551 10.849C158.551 10.849 158.551 10.849 158.551 10.849C158.551 10.849 158.551 10.849 158.551 10.849C158.551 10.849 158.551 10.849 158.551 10.849C158.551 10.849 158.551 10.849 158.551 10.849C158.551 10.849 158.551 10.849 158.551 10.849C158.551 10.849 158.551 10.849 158.551 10.849C158.551 10.849 158.551 10.849 158.551 10.849C158.551 10.849 158.551 10.849 158.551 10.849C158.551 10.849 158.551 10.849 158.551 10.849C158.551 10.849 158.551 10.849 158.551 10.849C158.551 10.849 158.551 10.849 158.551 10.849C158.551 10.849 158.551 10.849 158.551 10.849C158.551 10.849 158.551 10.849 158.551 10.849C158.551 10.849 158.551 10.849 158.551 10.849C158.551 10.849 158.551 10.849 158.551 10.849C158.551 10.849 158.551 10.849 158.551 10.849C158.551 10.849 158.551 10.849 158.551 10.849C158.551 10.849 158.551 10.849 158.551 10.849C158.551 10.849 158.551 10.849 158.551 10.849C158.551 10.849 158.551 10.849 158.551 10.849C158.551 10.849 158.551 10.849 158.551 10.849C158.551 10.849 158.551 10.849 158.551 10.849C158.551 10.849 158.551 10.849 158.551 10.849C158.551 10.849 158.551 10.849 158.551 10.849C158.551 10.849 158.551 10.849 158.551 10.849C158.551 10.849 158.551 10.849 158.551 10.849C158.551 10.849 158.551 10.849 158.551 10.849C158.551 10.849 158.551 10.849 158.551 10.849C158.551 10.849 158.551 10.849 158.551 10.849C158.551 10.849 158.551 10.849 158.551 10.849C158.551 10.849 158.551 10.849 158.551 10.849C158.551 10.849 158.551 10.849 158.551 10.849C158.551 10.849 158.551 10.849 158.551 10.849C158.551 10.849 158.551 10.849 158.551 10.849C158.551 10.849 158.551 10.849 158.551 10.849C158.551 10.849 158.551 10.849 158.551 10.849C158.551 10.849 158.551 10.849 158.551 10.849C158.551 10.849 158.551 10.849 158.551 10.849C158.551 10.849 158.551 10.849 158.551 10.849C158.551 10.849 158.551 10.849 158.551 10.849C158.551 10.849 158.551 10.849 158.551 10.849C158.551 10.849 158.551 10.849 158.551 10.849C158.551 10.849 158.551 10.849 158.551 10.849C158.551 10.849 158.551 10.849 158.551 10.849C158.551 10.849 158.551 10.849 158.551 10.849C158.551 10.849 158.551 10.849 158.551 10.849C158.551 10.849 158.551 10.849 158.551 10.849C158.551 10.849 158.551 10.849 158.551 10.849C158.551 10.849 158.551 10.849 158.551 10.849C158.551 10.849 158.551 10.849 158.551 10.849C158.551 10.849 158.551 10.849 158.551 10.849C158.551 10.849 158.551 10.849 158.551 10.849C158.551 10.849 158.551 10.849 158.551 10.849C158.551 10.849 158.551 10.849 158.551 10.849C158.551 10.849 158.551 10.849 158.551 10.849C158.551 10.849 158.551 10.849 158.551 10.849C158.551 10.849 158.551 10.849 158.551 10.849C158.551 10.849 158.551 10.849 158.551 10.849C158.551 10.849 158.551 10.849 158.551 10.849C158.551 10.849 158.551 10.849 158.551 10.849C158.551 10.849 158.551 10.849 158.551 10.849C158.551 10.849 158.551 10.849 158.551 10.849C158.551 10.849 158.551 10.849 158.551 10.849C158.551 10.849 158.551 10.849 158.551 10.849C158.551 10.849 158.551 10.849 158.551 10.849C158.551 10.849 158.551 10.849 158.551 10.849C158.551 10.849 158.551 10.849 158.551 10.849C158.551 10.849 158.551 10.849 158.551 10.849C158.551 10.849 158.551 10.849 158.551 10.849C158.551 10.849 158.551 10.849 158.551 10.849C158.551 10.849 158.551 10.849 158.551 10.849C158.551 10.849 158.551 10.849 158.551 10.849C158.551 10.849 158.551 10.849 158.551 10.849C158.551 10.849 158.551 10.849 158.551 10.849C158.551 10.849 158.551 10.849 158.551 10.849C158.551 10.849 158.551 10.849 158.551 10.849C158.551 10.849 158.551 10.849 158.551 10.849C158.551 10.849 158.551 10.849 158.551 10.849C158.551 10.849 158.551 10.849 158.551 10.849C158.551 10.849 158.551 10.849 158.551 10.849C158.551 10.849 158.551 10.849 158.551 10.849C158.551 10.849 158.551 10.849 158.551 10.849C158.551 10.849 158.551 10.849 158.551 10.849C158.551 10.849 158.551 10.849 158.551 10.849C158.551 10.849 158.551 10.849 158.551 10.849C158.551 10.849 158.551 10.849 158.551 10.849C158.551 10.8489 158.551 10.8489 158.551 10.8489C158.551 10.8489 158.551 10.8489 158.551 10.8489C158.551 10.8489 158.551 10.8489 158.551 10.8489C158.551 10.8489 158.551 10.8489 158.551 10.8489C158.551 10.8489 158.551 10.8489 158.551 10.8489C158.551 10.8489 158.551 10.8489 158.551 10.8489C158.551 10.8489 158.551 10.8489 158.551 10.8489C158.551 10.8489 158.551 10.8489 158.551 10.8489C158.551 10.8489 158.551 10.8489 158.551 10.8489C158.551 10.8489 158.551 10.8489 158.551 10.8489C158.551 10.8489 158.551 10.8489 158.551 10.8489C158.551 10.8489 158.551 10.8489 158.551 10.8489C158.551 10.8489 158.551 10.8489 158.551 10.8489C158.551 10.8489 158.551 10.8489 158.551 10.8489C158.551 10.8489 158.551 10.8489 158.551 10.8489C158.551 10.8489 158.551 10.8489 158.551 10.8489C158.551 10.8489 158.551 10.8489 158.551 10.8489C158.551 10.8489 158.551 10.8489 158.551 10.8489C158.551 10.8489 158.551 10.8489 158.551 10.8489C158.551 10.8489 158.551 10.8489 158.551 10.8489C158.551 10.8489 158.551 10.8489 158.551 10.8489C158.551 10.8489 158.551 10.8489 158.551 10.8489C158.551 10.8489 158.551 10.8489 158.551 10.8489C158.551 10.8489 158.551 10.8489 158.551 10.8489C158.551 10.8489 158.551 10.8489 158.551 10.8489C158.551 10.8489 158.551 10.8489 158.551 10.8489C158.551 10.8489 158.551 10.8489 158.551 10.8489C158.551 10.8489 158.551 10.8489 158.551 10.8489C158.551 10.8489 158.551 10.8489 158.551 10.8489C158.551 10.8489 158.551 10.8489 158.551 10.8489C158.551 10.8489 158.551 10.8489 158.551 10.8489C158.551 10.8489 158.551 10.8489 158.551 10.8489C158.551 10.8489 158.551 10.8489 158.551 10.8489C158.551 10.8489 158.551 10.8489 158.551 10.8489C158.551 10.8489 158.551 10.8489 158.551 10.8489C158.551 10.8489 158.551 10.8489 158.551 10.8489C158.551 10.8489 158.551 10.8489 158.551 10.8489C158.551 10.8489 158.551 10.8489 158.551 10.8489C158.551 10.8489 158.551 10.8489 158.551 10.8489C158.551 10.8489 158.551 10.8489 158.551 10.8489C158.551 10.8489 158.551 10.8489 158.551 10.8489C158.551 10.8489 158.551 10.8489 158.551 10.8489C158.551 10.8489 158.551 10.8489 158.551 10.8489C158.551 10.8489 158.551 10.8489 158.551 10.8489C158.551 10.8489 158.551 10.8489 158.551 10.8489C158.551 10.8489 158.551 10.8489 158.551 10.8489C158.551 10.8489 158.551 10.8489 158.551 10.8489C158.551 10.8489 158.551 10.8489 158.551 10.8489C158.551 10.8489 158.551 10.8489 158.551 10.8489C158.551 10.8489 158.551 10.8489 158.551 10.8489C158.551 10.8489 158.551 10.8489 158.551 10.8489C158.551 10.8489 158.551 10.8489 158.551 10.8489C158.551 10.8489 158.551 10.8489 158.551 10.8489C158.551 10.8489 158.551 10.8489 158.551 10.8489C158.551 10.8489 158.551 10.8489 158.551 10.8489C158.551 10.8489 158.551 10.8489 158.551 10.8489C158.551 10.8489 158.551 10.8489 158.551 10.8489C158.551 10.8489 158.551 10.8489 158.551 10.8489C158.551 10.8489 158.551 10.8489 158.551 10.8489C158.551 10.8489 158.551 10.8489 158.551 10.8489C158.551 10.8489 158.551 10.8489 158.551 10.8489C158.551 10.8489 158.551 10.8489 158.551 10.8489C158.551 10.8489 158.551 10.8489 158.551 10.8489C158.551 10.8489 158.551 10.8489 158.551 10.8489C158.551 10.8489 158.551 10.8489 158.551 10.8489C158.551 10.8489 158.551 10.8489 158.551 10.8489C158.551 10.8489 158.551 10.8489 158.551 10.8489C158.551 10.8489 158.551 10.8489 158.551 10.8489C158.551 10.8489 158.551 10.8489 158.551 10.8489C158.551 10.8489 158.551 10.8489 158.551 10.8489C158.551 10.8489 158.551 10.8489 158.551 10.8489C158.551 10.8489 158.551 10.8489 158.551 10.8489C158.551 10.8489 158.551 10.8489 158.551 10.8489C158.551 10.8489 158.551 10.8489 158.551 10.8489C158.551 10.8489 158.551 10.8489 158.551 10.8489C158.551 10.8489 158.551 10.8489 158.551 10.8489C158.551 10.8489 158.551 10.8489 158.551 10.8489C158.551 10.8489 158.551 10.8489 158.551 10.8489C158.551 10.8489 158.551 10.8489 158.551 10.8489C158.551 10.8489 158.551 10.8489 158.551 10.8489C158.551 10.8489 158.551 10.8489 158.551 10.8489C158.551 10.8489 158.551 10.8489 158.551 10.8489C158.551 10.8489 158.551 10.8489 158.551 10.8489C158.551 10.8489 158.551 10.8489 158.551 10.8489C158.551 10.8489 158.551 10.8489 158.551 10.8489C158.551 10.8489 158.551 10.8489 158.551 10.8489C158.551 10.8489 158.551 10.8489 158.551 10.8489C158.551 10.8489 158.551 10.8489 158.551 10.8489C158.551 10.8489 158.551 10.8489 158.551 10.8489C158.551 10.8489 158.551 10.8489 158.551 10.8489C158.551 10.8489 158.551 10.8489 158.551 10.8489C158.551 10.8489 158.551 10.8489 158.551 10.8489C158.551 10.8489 158.551 10.8489 158.551 10.8489C158.551 10.8489 158.551 10.8489 158.551 10.8489C158.551 10.8489 158.551 10.8489 158.551 10.8489C158.551 10.8489 158.551 10.8489 158.551 10.8489C158.551 10.8489 158.551 10.8489 158.551 10.8489C158.551 10.8489 158.551 10.8489 158.551 10.8489C158.551 10.8489 158.551 10.8489 158.551 10.8489C158.551 10.8489 158.551 10.8489 158.551 10.8489C158.551 10.8489 158.551 10.8489 158.551 10.8489C158.551 10.8489 158.551 10.8489 158.551 10.8489C158.551 10.8489 158.551 10.8489 158.551 10.8489C158.551 10.8489 158.551 10.8489 158.551 10.8489C158.551 10.8489 158.551 10.8489 158.551 10.8489C158.551 10.8489 158.551 10.8489 158.551 10.8489C158.551 10.8489 158.551 10.8489 158.551 10.8489C158.551 10.8489 158.551 10.8489 158.551 10.8489C158.551 10.8489 158.551 10.8489 158.551 10.8489C158.551 10.8489 158.551 10.8489 158.551 10.8489C158.551 10.8489 158.551 10.8489 158.551 10.8489C158.551 10.8489 158.551 10.8489 158.551 10.8489C158.551 10.8489 158.551 10.8489 158.551 10.8489C158.551 10.8489 158.551 10.8489 158.551 10.8489C158.551 10.8489 158.551 10.8489 158.551 10.8489C158.551 10.8489 158.551 10.8489 158.551 10.8489C158.551 10.8489 158.551 10.8489 158.551 10.8489C158.551 10.8489 158.551 10.8489 158.551 10.8489C158.551 10.8489 158.551 10.8489 158.551 10.8489C158.551 10.8489 158.551 10.8489 158.551 10.8489C158.551 10.8489 158.551 10.8489 158.551 10.8489C158.551 10.8489 158.551 10.8489 158.551 10.8489C158.551 10.8489 158.551 10.8489 158.551 10.8489C158.551 10.8489 158.551 10.8489 158.551 10.8489C158.551 10.8489 158.551 10.8489 158.551 10.8489C158.551 10.8489 158.551 10.8489 158.551 10.8489C158.551 10.8489 158.551 10.8489 158.551 10.8489C158.551 10.8489 158.551 10.8489 158.551 10.8489C158.551 10.8489 158.551 10.8489 158.551 10.8489C158.551 10.8489 158.551 10.8489 158.551 10.8489C158.551 10.8489 158.551 10.8489 158.551 10.8489C158.551 10.8489 158.551 10.8489 158.551 10.8489C158.551 10.8489 158.551 10.8489 158.551 10.8489C158.551 10.8489 158.551 10.8489 158.551 10.8489C158.551 10.8489 158.551 10.8489 158.551 10.8489C158.551 10.8489 158.551 10.8489 158.551 10.8489C158.551 10.8489 158.551 10.8489 158.551 10.8489C158.551 10.8489 158.551 10.8489 158.551 10.8489C158.551 10.8489 158.551 10.8489 158.551 10.8489C158.551 10.8489 158.551 10.8489 158.551 10.8489C158.551 10.8489 158.551 10.8489 158.551 10.8489C158.551 10.8489 158.551 10.8489 158.551 10.8489C158.551 10.8489 158.551 10.8489 158.551 10.8489C158.551 10.8489 158.551 10.8489 158.551 10.8489C158.551 10.8489 158.551 10.8489 158.551 10.8489C158.551 10.8489 158.551 10.8489 158.551 10.8489C158.551 10.8489 158.551 10.8489 158.551 10.8489C158.551 10.8489 158.551 10.8489 158.551 10.8489C158.551 10.8489 158.551 10.8489 158.551 10.8489C158.551 10.8489 158.551 10.8489 158.551 10.8489C158.551 10.8489 158.551 10.8489 158.551 10.8489C158.551 10.8489 158.551 10.8489 158.551 10.8489C158.551 10.8489 158.551 10.8489 158.551 10.8489C158.551 10.8489 158.551 10.8489 158.551 10.8489C158.551 10.8489 158.551 10.8489 158.551 10.8489C158.551 10.8489 158.551 10.8489 158.551 10.8489C158.551 10.8489 158.551 10.8489 158.551 10.8489C158.551 10.8489 158.551 10.8489 158.551 10.8489C158.551 10.8489 158.551 10.8489 158.551 10.8489C158.551 10.8489 158.551 10.8489 158.551 10.8489C158.551 10.8489 158.551 10.8489 158.551 10.8489C158.551 10.8489 158.551 10.8489 158.551 10.8489C158.551 10.8489 158.551 10.8489 158.551 10.8489C158.551 10.8489 158.551 10.8489 158.551 10.8489C158.551 10.8489 158.551 10.8489 158.551 10.8489C158.551 10.8489 158.551 10.8489 158.551 10.8489C158.551 10.8489 158.551 10.8489 158.551 10.8489C158.551 10.8489 158.551 10.8489 158.551 10.8489C158.551 10.8489 158.551 10.8489 158.551 10.8489C158.551 10.8489 158.551 10.8489 158.551 10.8489C158.551 10.8489 158.551 10.8489 158.551 10.8489C158.551 10.8489 158.551 10.8488 158.551 10.8488C158.551 10.8488 158.551 10.8488 158.551 10.8488C158.551 10.8488 158.551 10.8488 158.551 10.8488C158.551 10.8488 158.551 10.8488 158.551 10.8488C158.551 10.8488 158.551 10.8488 158.551 10.8488C158.551 10.8488 158.551 10.8488 158.551 10.8488C158.551 10.8488 158.551 10.8488 158.551 10.8488C158.551 10.8488 158.551 10.8488 158.551 10.8488C158.551 10.8488 158.551 10.8488 158.551 10.8488C158.551 10.8488 158.551 10.8488 158.551 10.8488C158.551 10.8488 158.551 10.8488 158.551 10.8488C158.551 10.8488 158.551 10.8488 158.551 10.8488C158.551 10.8488 158.551 10.8488 158.551 10.8488C158.551 10.8488 158.551 10.8488 158.551 10.8488C158.551 10.8488 158.551 10.8488 158.551 10.8488C158.551 10.8488 158.551 10.8488 158.551 10.8488C158.551 10.8488 158.551 10.8488 158.551 10.8488C158.551 10.8488 158.551 10.8488 158.551 10.8488C158.551 10.8488 158.551 10.8488 158.551 10.8488C158.551 10.8488 158.551 10.8488 158.551 10.8488C158.551 10.8488 158.551 10.8488 158.551 10.8488C158.551 10.8488 158.551 10.8488 158.551 10.8488C158.551 10.8488 158.551 10.8488 158.551 10.8488C158.551 10.8488 158.551 10.8488 158.551 10.8488C158.551 10.8488 158.551 10.8488 158.551 10.8488C158.551 10.8488 158.551 10.8488 158.551 10.8488C158.551 10.8488 158.551 10.8488 158.551 10.8488C158.551 10.8488 158.551 10.8488 158.551 10.8488C158.551 10.8488 158.551 10.8488 158.551 10.8488C158.551 10.8488 158.551 10.8488 158.551 10.8488C158.551 10.8488 158.551 10.8488 158.551 10.8488C158.551 10.8488 158.551 10.8488 158.551 10.8488C158.551 10.8488 158.551 10.8488 158.551 10.8488C158.551 10.8488 158.551 10.8488 158.551 10.8488C158.551 10.8488 158.551 10.8488 158.551 10.8488C158.551 10.8488 158.551 10.8488 158.551 10.8488C158.551 10.8488 158.551 10.8488 158.551 10.8488C158.551 10.8488 158.551 10.8488 158.551 10.8488C158.551 10.8488 158.551 10.8488 158.551 10.8488C158.551 10.8488 158.551 10.8488 158.551 10.8488C158.551 10.8488 158.551 10.8488 158.551 10.8488C158.551 10.8488 158.551 10.8488 158.551 10.8488C158.551 10.8488 158.551 10.8488 158.551 10.8488C158.551 10.8488 158.551 10.8488 158.551 10.8488C158.551 10.8488 158.551 10.8488 158.551 10.8488C158.551 10.8488 158.551 10.8488 158.551 10.8488C158.551 10.8488 158.551 10.8488 158.551 10.8488C158.551 10.8488 158.551 10.8488 158.551 10.8488C158.551 10.8488 158.551 10.8488 158.551 10.8488C158.551 10.8488 158.551 10.8488 158.551 10.8488C158.551 10.8488 158.551 10.8488 158.551 10.8488C158.551 10.8488 158.551 10.8488 158.551 10.8488C158.551 10.8488 158.551 10.8488 158.551 10.8488C158.551 10.8488 158.551 10.8488 158.551 10.8488C158.551 10.8488 158.551 10.8488 158.551 10.8488C158.551 10.8488 158.551 10.8488 158.551 10.8488C158.551 10.8488 158.551 10.8488 158.551 10.8488C158.551 10.8488 158.551 10.8488 158.551 10.8488C158.551 10.8488 158.551 10.8488 158.551 10.8488C158.551 10.8488 158.551 10.8488 158.551 10.8488C158.551 10.8488 158.551 10.8488 158.551 10.8488C158.551 10.8488 158.551 10.8488 158.551 10.8488C158.551 10.8488 158.551 10.8488 158.551 10.8488C158.551 10.8488 158.551 10.8488 158.551 10.8488C158.551 10.8488 158.551 10.8488 158.551 10.8488C158.551 10.8488 158.551 10.8488 158.551 10.8488C158.551 10.8488 158.551 10.8488 158.551 10.8488C158.551 10.8488 158.551 10.8488 158.551 10.8488C158.551 10.8488 158.551 10.8488 158.551 10.8488C158.551 10.8488 158.551 10.8488 158.551 10.8488C158.551 10.8488 158.551 10.8488 158.551 10.8488C158.551 10.8488 158.551 10.8488 158.551 10.8488C158.551 10.8488 158.551 10.8488 158.551 10.8488C158.551 10.8488 158.551 10.8488 158.551 10.8488C158.551 10.8488 158.551 10.8488 158.551 10.8488C158.551 10.8488 158.551 10.8488 158.551 10.8488C158.551 10.8488 158.551 10.8488 158.551 10.8488C158.551 10.8488 158.551 10.8488 158.551 10.8488C158.551 10.8488 158.551 10.8488 158.551 10.8488C158.551 10.8488 158.551 10.8488 158.551 10.8488C158.551 10.8488 158.551 10.8488 158.551 10.8488C158.551 10.8488 158.551 10.8488 158.551 10.8488C158.551 10.8488 158.551 10.8488 158.551 10.8488C158.551 10.8488 158.551 10.8488 158.551 10.8488C158.551 10.8488 158.551 10.8488 158.551 10.8488C158.551 10.8488 158.551 10.8488 158.551 10.8488C158.551 10.8488 158.551 10.8488 158.551 10.8488C158.551 10.8488 158.551 10.8488 158.551 10.8488C158.551 10.8488 158.551 10.8488 158.551 10.8488C158.551 10.8488 158.551 10.8488 158.551 10.8488C158.551 10.8488 158.551 10.8488 158.551 10.8488C158.551 10.8488 158.551 10.8488 158.551 10.8488C158.551 10.8488 158.551 10.8488 158.551 10.8488C158.551 10.8488 158.551 10.8488 158.551 10.8488C158.551 10.8488 158.551 10.8488 158.551 10.8488C158.551 10.8488 158.551 10.8488 158.551 10.8488C158.551 10.8488 158.551 10.8488 158.551 10.8488C158.551 10.8488 158.551 10.8488 158.551 10.8488C158.551 10.8488 158.551 10.8488 158.551 10.8488C158.551 10.8488 158.551 10.8488 158.551 10.8488C158.551 10.8488 158.551 10.8488 158.551 10.8488C158.551 10.8488 158.551 10.8488 158.551 10.8488C158.551 10.8488 158.551 10.8488 158.551 10.8488C158.551 10.8488 158.551 10.8488 158.551 10.8488C158.551 10.8488 158.551 10.8488 158.551 10.8488C158.551 10.8488 158.551 10.8488 158.551 10.8488C158.551 10.8488 158.551 10.8488 158.551 10.8488C158.551 10.8488 158.551 10.8488 158.551 10.8488C158.551 10.8488 158.551 10.8488 158.551 10.8488C158.551 10.8488 158.551 10.8488 158.551 10.8488C158.551 10.8488 158.551 10.8488 158.551 10.8488C158.551 10.8488 158.551 10.8488 158.551 10.8488C158.551 10.8488 158.551 10.8488 158.551 10.8488C158.551 10.8488 158.551 10.8488 158.551 10.8488C158.551 10.8488 158.551 10.8488 158.551 10.8488C158.551 10.8488 158.551 10.8488 158.551 10.8488C158.551 10.8488 158.551 10.8488 158.551 10.8488C158.551 10.8488 158.551 10.8488 158.551 10.8488C158.551 10.8488 158.551 10.8488 158.551 10.8488C158.551 10.8488 158.551 10.8488 158.551 10.8488C158.551 10.8488 158.551 10.8488 158.551 10.8488C158.551 10.8488 158.551 10.8488 158.551 10.8488C158.551 10.8488 158.551 10.8488 158.551 10.8488C158.551 10.8488 158.551 10.8488 158.551 10.8488C158.551 10.8488 158.551 10.8488 158.551 10.8488C158.551 10.8488 158.551 10.8488 158.551 10.8488C158.551 10.8488 158.551 10.8488 158.551 10.8488C158.551 10.8488 158.551 10.8488 158.551 10.8488C158.551 10.8488 158.551 10.8488 158.551 10.8488C158.551 10.8488 158.551 10.8488 158.551 10.8488C158.551 10.8488 158.551 10.8488 158.551 10.8488C158.551 10.8488 158.551 10.8488 158.551 10.8488C158.551 10.8488 158.551 10.8488 158.551 10.8488C158.551 10.8488 158.551 10.8488 158.551 10.8488C158.551 10.8488 158.551 10.8488 158.551 10.8488C158.551 10.8488 158.551 10.8488 158.551 10.8488C158.551 10.8488 158.551 10.8488 158.551 10.8488C158.551 10.8488 158.551 10.8488 158.551 10.8488C158.551 10.8488 158.551 10.8488 158.551 10.8488C158.551 10.8488 158.551 10.8488 158.551 10.8488C158.551 10.8488 158.551 10.8488 158.551 10.8488C158.551 10.8488 158.551 10.8488 158.551 10.8488C158.551 10.8488 158.551 10.8488 158.551 10.8488C158.551 10.8488 158.551 10.8488 158.551 10.8488C158.551 10.8488 158.551 10.8488 158.551 10.8488C158.551 10.8488 158.551 10.8488 158.551 10.8488C158.551 10.8488 158.551 10.8488 158.551 10.8488C158.551 10.8488 158.551 10.8488 158.551 10.8488C158.551 10.8488 158.551 10.8488 158.551 10.8488C158.551 10.8488 158.551 10.8488 158.551 10.8488C158.551 10.8488 158.551 10.8488 158.551 10.8488C158.551 10.8488 158.551 10.8488 158.551 10.8488C158.551 10.8488 158.551 10.8488 158.551 10.8488C158.551 10.8488 158.551 10.8488 158.551 10.8488C158.551 10.8488 158.551 10.8488 158.551 10.8488C158.551 10.8488 158.551 10.8488 158.551 10.8488C158.551 10.8488 158.551 10.8488 158.551 10.8488C158.551 10.8488 158.551 10.8488 158.551 10.8488C158.551 10.8488 158.551 10.8488 158.551 10.8488C158.551 10.8488 158.551 10.8488 158.551 10.8488C158.551 10.8488 158.551 10.8488 158.551 10.8488C158.551 10.8488 158.551 10.8488 158.551 10.8488C158.551 10.8488 158.551 10.8488 158.551 10.8488C158.551 10.8488 158.551 10.8488 158.551 10.8488C158.551 10.8488 158.551 10.8488 158.551 10.8488C158.551 10.8488 158.551 10.8488 158.551 10.8488C158.551 10.8488 158.551 10.8488 158.551 10.8488C158.551 10.8488 158.551 10.8488 158.551 10.8488C158.551 10.8488 158.551 10.8488 158.551 10.8488C158.551 10.8488 158.551 10.8488 158.551 10.8488C158.551 10.8488 158.551 10.8488 158.551 10.8488C158.551 10.8488 158.551 10.8488 158.551 10.8487C158.551 10.8487 158.551 10.8487 158.551 10.8487C158.551 10.8487 158.551 10.8487 158.551 10.8487C158.551 10.8487 158.551 10.8487 158.551 10.8487C158.551 10.8487 158.551 10.8487 158.551 10.8487L155.731 11.7802C155.731 11.7802 155.731 11.7802 155.731 11.7802C155.731 11.7802 155.731 11.7802 155.731 11.7802C155.731 11.7802 155.731 11.7802 155.731 11.7802C155.731 11.7802 155.731 11.7802 155.731 11.7802C155.731 11.7802 155.731 11.7802 155.731 11.7802C155.731 11.7802 155.731 11.7802 155.731 11.7802C155.731 11.7802 155.731 11.7802 155.731 11.7802C155.731 11.7802 155.731 11.7802 155.731 11.7802C155.731 11.7802 155.731 11.7802 155.731 11.7802C155.731 11.7802 155.731 11.7802 155.731 11.7802C155.731 11.7802 155.731 11.7802 155.731 11.7802C155.731 11.7802 155.731 11.7802 155.731 11.7802C155.731 11.7802 155.731 11.7802 155.731 11.7802C155.731 11.7802 155.731 11.7802 155.731 11.7802C155.731 11.7802 155.731 11.7802 155.731 11.7802C155.731 11.7802 155.731 11.7802 155.731 11.7802C155.731 11.7802 155.731 11.7802 155.731 11.7802C155.731 11.7802 155.731 11.7802 155.731 11.7802C155.731 11.7802 155.731 11.7802 155.731 11.7802C155.731 11.7802 155.731 11.7802 155.731 11.7802C155.731 11.7802 155.731 11.7802 155.731 11.7802C155.731 11.7802 155.731 11.7802 155.731 11.7802C155.731 11.7802 155.731 11.7802 155.731 11.7802C155.731 11.7802 155.731 11.7802 155.731 11.7802C155.731 11.7802 155.731 11.7802 155.731 11.7802C155.731 11.7802 155.731 11.7802 155.731 11.7802C155.731 11.7802 155.731 11.7802 155.731 11.7802C155.731 11.7802 155.731 11.7802 155.731 11.7802C155.731 11.7802 155.731 11.7802 155.731 11.7802C155.731 11.7802 155.731 11.7802 155.731 11.7802C155.731 11.7802 155.731 11.7802 155.731 11.7802C155.731 11.7802 155.731 11.7802 155.731 11.7802C155.731 11.7802 155.731 11.7802 155.731 11.7802C155.731 11.7802 155.731 11.7802 155.731 11.7802C155.731 11.7802 155.731 11.7802 155.731 11.7802C155.731 11.7802 155.731 11.7802 155.731 11.7802C155.731 11.7802 155.731 11.7802 155.731 11.7802C155.731 11.7802 155.731 11.7802 155.731 11.7802C155.731 11.7802 155.731 11.7802 155.731 11.7802C155.731 11.7802 155.731 11.7802 155.731 11.7802C155.731 11.7802 155.731 11.7802 155.731 11.7802C155.731 11.7802 155.731 11.7802 155.731 11.7802C155.731 11.7802 155.731 11.7802 155.731 11.7802C155.731 11.7802 155.731 11.7802 155.731 11.7802C155.731 11.7802 155.731 11.7802 155.731 11.7802C155.731 11.7802 155.731 11.7802 155.731 11.7802C155.731 11.7802 155.731 11.7802 155.731 11.7802C155.731 11.7802 155.731 11.7802 155.731 11.7802C155.731 11.7802 155.731 11.7802 155.731 11.7802C155.731 11.7802 155.731 11.7802 155.731 11.7802C155.731 11.7802 155.731 11.7802 155.731 11.7802C155.731 11.7802 155.731 11.7802 155.731 11.7802C155.731 11.7802 155.731 11.7802 155.731 11.7802C155.731 11.7802 155.731 11.7802 155.731 11.7802C155.731 11.7802 155.731 11.7802 155.731 11.7802C155.731 11.7802 155.731 11.7802 155.731 11.7802C155.731 11.7802 155.731 11.7802 155.731 11.7802C155.731 11.7802 155.731 11.7802 155.731 11.7802C155.731 11.7802 155.731 11.7802 155.731 11.7802C155.731 11.7802 155.731 11.7802 155.731 11.7802C155.731 11.7802 155.731 11.7802 155.731 11.7802C155.731 11.7802 155.731 11.7802 155.731 11.7802C155.731 11.7802 155.731 11.7802 155.731 11.7802C155.731 11.7802 155.731 11.7802 155.731 11.7802C155.731 11.7802 155.731 11.7802 155.731 11.7802C155.731 11.7802 155.731 11.7802 155.731 11.7802C155.731 11.7802 155.731 11.7802 155.731 11.7802C155.731 11.7802 155.731 11.7802 155.731 11.7802C155.731 11.7802 155.731 11.7802 155.731 11.7802C155.731 11.7802 155.731 11.7802 155.731 11.7802C155.731 11.7802 155.731 11.7802 155.731 11.7802C155.731 11.7802 155.731 11.7802 155.731 11.7802C155.731 11.7802 155.731 11.7802 155.731 11.7803C155.731 11.7803 155.731 11.7803 155.731 11.7803C155.731 11.7803 155.731 11.7803 155.731 11.7803C155.731 11.7803 155.731 11.7803 155.731 11.7803C155.731 11.7803 155.731 11.7803 155.731 11.7803C155.731 11.7803 155.731 11.7803 155.731 11.7803C155.731 11.7803 155.731 11.7803 155.731 11.7803C155.731 11.7803 155.731 11.7803 155.731 11.7803C155.731 11.7803 155.731 11.7803 155.731 11.7803C155.731 11.7803 155.731 11.7803 155.731 11.7803C155.731 11.7803 155.731 11.7803 155.731 11.7803C155.731 11.7803 155.731 11.7803 155.731 11.7803C155.731 11.7803 155.731 11.7803 155.731 11.7803C155.731 11.7803 155.731 11.7803 155.731 11.7803C155.731 11.7803 155.731 11.7803 155.731 11.7803C155.731 11.7803 155.731 11.7803 155.731 11.7803C155.731 11.7803 155.731 11.7803 155.731 11.7803C155.731 11.7803 155.731 11.7803 155.731 11.7803C155.731 11.7803 155.731 11.7803 155.731 11.7803C155.731 11.7803 155.731 11.7803 155.731 11.7803C155.731 11.7803 155.731 11.7803 155.731 11.7803C155.731 11.7803 155.731 11.7803 155.731 11.7803C155.731 11.7803 155.731 11.7803 155.731 11.7803C155.731 11.7803 155.731 11.7803 155.731 11.7803C155.731 11.7803 155.731 11.7803 155.731 11.7803C155.731 11.7803 155.731 11.7803 155.731 11.7803C155.731 11.7803 155.731 11.7803 155.731 11.7803C155.731 11.7803 155.731 11.7803 155.731 11.7803C155.731 11.7803 155.731 11.7803 155.731 11.7803C155.731 11.7803 155.731 11.7803 155.731 11.7803C155.731 11.7803 155.731 11.7803 155.731 11.7803C155.731 11.7803 155.731 11.7803 155.731 11.7803C155.731 11.7803 155.731 11.7803 155.731 11.7803C155.731 11.7803 155.731 11.7803 155.731 11.7803C155.731 11.7803 155.731 11.7803 155.731 11.7803C155.731 11.7803 155.731 11.7803 155.731 11.7803C155.731 11.7803 155.731 11.7803 155.731 11.7803C155.731 11.7803 155.731 11.7803 155.731 11.7803C155.731 11.7803 155.731 11.7803 155.731 11.7803C155.731 11.7803 155.731 11.7803 155.731 11.7803C155.731 11.7803 155.731 11.7803 155.731 11.7803C155.731 11.7803 155.731 11.7803 155.731 11.7803C155.731 11.7803 155.731 11.7803 155.731 11.7803C155.731 11.7803 155.731 11.7803 155.731 11.7803C155.731 11.7803 155.731 11.7803 155.731 11.7803C155.731 11.7803 155.731 11.7803 155.731 11.7803C155.731 11.7803 155.731 11.7803 155.731 11.7803C155.731 11.7803 155.731 11.7803 155.731 11.7803C155.731 11.7803 155.731 11.7803 155.731 11.7803C155.731 11.7803 155.731 11.7803 155.731 11.7803C155.731 11.7803 155.731 11.7803 155.731 11.7803C155.731 11.7803 155.731 11.7803 155.731 11.7803C155.731 11.7803 155.731 11.7803 155.731 11.7803C155.731 11.7803 155.731 11.7803 155.731 11.7803C155.731 11.7803 155.731 11.7803 155.731 11.7803C155.731 11.7803 155.731 11.7803 155.731 11.7803C155.731 11.7803 155.731 11.7803 155.731 11.7803C155.731 11.7803 155.731 11.7803 155.731 11.7803C155.731 11.7803 155.731 11.7803 155.731 11.7803C155.731 11.7803 155.731 11.7803 155.731 11.7803C155.731 11.7803 155.731 11.7803 155.731 11.7803C155.731 11.7803 155.731 11.7803 155.731 11.7803C155.731 11.7803 155.731 11.7803 155.731 11.7803C155.731 11.7803 155.731 11.7803 155.731 11.7803C155.731 11.7803 155.731 11.7803 155.731 11.7803C155.731 11.7803 155.731 11.7803 155.731 11.7803C155.731 11.7803 155.731 11.7803 155.731 11.7803C155.731 11.7803 155.731 11.7803 155.731 11.7803C155.731 11.7803 155.731 11.7803 155.731 11.7803C155.731 11.7803 155.731 11.7803 155.731 11.7803C155.731 11.7803 155.731 11.7803 155.731 11.7803C155.731 11.7803 155.731 11.7803 155.731 11.7803C155.731 11.7803 155.731 11.7803 155.731 11.7803C155.731 11.7803 155.731 11.7803 155.731 11.7803C155.731 11.7803 155.731 11.7803 155.731 11.7803C155.731 11.7803 155.731 11.7803 155.731 11.7803C155.731 11.7803 155.731 11.7803 155.731 11.7803C155.731 11.7803 155.731 11.7803 155.731 11.7803C155.731 11.7803 155.731 11.7803 155.731 11.7803C155.731 11.7803 155.731 11.7803 155.731 11.7803C155.731 11.7803 155.731 11.7803 155.731 11.7803C155.731 11.7803 155.731 11.7803 155.731 11.7803C155.731 11.7803 155.731 11.7803 155.731 11.7803C155.731 11.7803 155.731 11.7803 155.731 11.7803C155.731 11.7803 155.731 11.7803 155.731 11.7803C155.731 11.7803 155.731 11.7803 155.731 11.7803C155.731 11.7803 155.731 11.7803 155.731 11.7803C155.731 11.7803 155.731 11.7803 155.731 11.7803C155.731 11.7803 155.731 11.7803 155.731 11.7803C155.731 11.7803 155.731 11.7803 155.731 11.7803C155.731 11.7803 155.731 11.7803 155.731 11.7803C155.731 11.7803 155.731 11.7803 155.731 11.7803C155.731 11.7803 155.731 11.7803 155.731 11.7803C155.731 11.7803 155.731 11.7803 155.731 11.7803C155.731 11.7803 155.731 11.7803 155.731 11.7803C155.731 11.7803 155.731 11.7803 155.731 11.7803C155.731 11.7803 155.731 11.7803 155.731 11.7803C155.731 11.7803 155.731 11.7803 155.731 11.7803C155.731 11.7803 155.731 11.7803 155.731 11.7803C155.731 11.7803 155.731 11.7803 155.731 11.7803C155.731 11.7803 155.731 11.7803 155.731 11.7803C155.731 11.7803 155.731 11.7803 155.731 11.7803C155.731 11.7803 155.731 11.7803 155.731 11.7803C155.731 11.7803 155.731 11.7803 155.731 11.7803C155.731 11.7803 155.731 11.7803 155.731 11.7803C155.731 11.7803 155.731 11.7803 155.731 11.7803C155.731 11.7803 155.731 11.7803 155.731 11.7803C155.731 11.7803 155.731 11.7803 155.731 11.7803C155.731 11.7803 155.731 11.7803 155.731 11.7803C155.731 11.7803 155.731 11.7803 155.731 11.7803C155.731 11.7803 155.731 11.7803 155.731 11.7803C155.731 11.7803 155.731 11.7803 155.731 11.7803C155.731 11.7803 155.731 11.7803 155.731 11.7803C155.731 11.7803 155.731 11.7803 155.731 11.7803C155.731 11.7803 155.731 11.7803 155.731 11.7803C155.731 11.7803 155.731 11.7803 155.731 11.7803C155.731 11.7803 155.731 11.7803 155.731 11.7803C155.731 11.7803 155.731 11.7803 155.731 11.7803C155.731 11.7803 155.731 11.7803 155.731 11.7803C155.731 11.7803 155.731 11.7803 155.731 11.7803C155.731 11.7803 155.731 11.7803 155.731 11.7803C155.731 11.7803 155.731 11.7803 155.731 11.7803C155.731 11.7803 155.731 11.7803 155.731 11.7803C155.731 11.7803 155.731 11.7803 155.731 11.7803C155.731 11.7803 155.731 11.7803 155.731 11.7803C155.731 11.7803 155.731 11.7803 155.731 11.7803C155.731 11.7803 155.731 11.7803 155.731 11.7803C155.731 11.7803 155.731 11.7803 155.731 11.7803C155.731 11.7803 155.731 11.7803 155.731 11.7803C155.731 11.7803 155.731 11.7803 155.731 11.7803C155.731 11.7803 155.731 11.7803 155.731 11.7803C155.731 11.7803 155.731 11.7803 155.731 11.7803C155.731 11.7803 155.731 11.7803 155.731 11.7803C155.731 11.7803 155.731 11.7803 155.731 11.7803C155.731 11.7803 155.731 11.7803 155.731 11.7803C155.731 11.7803 155.731 11.7803 155.731 11.7803C155.731 11.7803 155.731 11.7803 155.731 11.7803C155.731 11.7803 155.731 11.7803 155.731 11.7803C155.731 11.7803 155.731 11.7803 155.731 11.7803C155.731 11.7803 155.731 11.7803 155.731 11.7803C155.731 11.7803 155.731 11.7803 155.731 11.7803C155.731 11.7803 155.731 11.7803 155.731 11.7803C155.731 11.7803 155.731 11.7803 155.731 11.7803C155.731 11.7803 155.731 11.7803 155.731 11.7803C155.731 11.7803 155.731 11.7803 155.731 11.7803C155.731 11.7803 155.731 11.7803 155.731 11.7803C155.731 11.7803 155.731 11.7803 155.731 11.7803C155.731 11.7803 155.731 11.7803 155.731 11.7803C155.731 11.7803 155.731 11.7803 155.731 11.7803C155.731 11.7803 155.731 11.7803 155.731 11.7803C155.731 11.7803 155.731 11.7803 155.731 11.7803C155.731 11.7803 155.731 11.7803 155.731 11.7803C155.731 11.7803 155.731 11.7803 155.731 11.7803C155.731 11.7803 155.731 11.7803 155.731 11.7803C155.731 11.7803 155.731 11.7803 155.731 11.7803C155.731 11.7803 155.731 11.7803 155.731 11.7803C155.731 11.7803 155.731 11.7803 155.731 11.7803C155.731 11.7803 155.731 11.7803 155.731 11.7803C155.731 11.7803 155.731 11.7803 155.731 11.7803C155.731 11.7803 155.731 11.7803 155.731 11.7803C155.731 11.7803 155.731 11.7803 155.731 11.7803C155.731 11.7803 155.731 11.7803 155.731 11.7803C155.731 11.7803 155.731 11.7803 155.731 11.7803C155.731 11.7803 155.731 11.7803 155.731 11.7803C155.731 11.7803 155.731 11.7803 155.731 11.7803C155.731 11.7803 155.731 11.7803 155.731 11.7803C155.731 11.7803 155.731 11.7803 155.731 11.7803C155.731 11.7803 155.731 11.7803 155.731 11.7803C155.731 11.7803 155.731 11.7803 155.731 11.7803C155.731 11.7803 155.731 11.7803 155.731 11.7803C155.731 11.7803 155.731 11.7803 155.731 11.7803C155.731 11.7803 155.731 11.7803 155.731 11.7803C155.731 11.7804 155.731 11.7804 155.731 11.7804C155.731 11.7804 155.731 11.7804 155.731 11.7804C155.731 11.7804 155.731 11.7804 155.731 11.7804C155.731 11.7804 155.731 11.7804 155.731 11.7804C155.731 11.7804 155.731 11.7804 155.731 11.7804C155.731 11.7804 155.731 11.7804 155.731 11.7804C155.731 11.7804 155.731 11.7804 155.731 11.7804C155.731 11.7804 155.731 11.7804 155.731 11.7804C155.731 11.7804 155.731 11.7804 155.731 11.7804C155.731 11.7804 155.731 11.7804 155.731 11.7804C155.731 11.7804 155.731 11.7804 155.731 11.7804C155.731 11.7804 155.731 11.7804 155.731 11.7804C155.731 11.7804 155.731 11.7804 155.731 11.7804C155.731 11.7804 155.731 11.7804 155.731 11.7804C155.731 11.7804 155.731 11.7804 155.731 11.7804C155.731 11.7804 155.731 11.7804 155.731 11.7804C155.731 11.7804 155.731 11.7804 155.731 11.7804C155.731 11.7804 155.731 11.7804 155.731 11.7804C155.731 11.7804 155.731 11.7804 155.731 11.7804C155.731 11.7804 155.731 11.7804 155.731 11.7804C155.731 11.7804 155.731 11.7804 155.731 11.7804C155.731 11.7804 155.731 11.7804 155.731 11.7804C155.731 11.7804 155.731 11.7804 155.731 11.7804C155.731 11.7804 155.731 11.7804 155.731 11.7804C155.731 11.7804 155.731 11.7804 155.731 11.7804C155.731 11.7804 155.731 11.7804 155.731 11.7804C155.731 11.7804 155.731 11.7804 155.731 11.7804C155.731 11.7804 155.731 11.7804 155.731 11.7804C155.731 11.7804 155.731 11.7804 155.731 11.7804C155.731 11.7804 155.731 11.7804 155.731 11.7804C155.731 11.7804 155.731 11.7804 155.731 11.7804C155.731 11.7804 155.731 11.7804 155.731 11.7804C155.731 11.7804 155.731 11.7804 155.731 11.7804C155.731 11.7804 155.731 11.7804 155.731 11.7804C155.731 11.7804 155.731 11.7804 155.731 11.7804C155.731 11.7804 155.731 11.7804 155.731 11.7804C155.731 11.7804 155.731 11.7804 155.731 11.7804C155.731 11.7804 155.731 11.7804 155.731 11.7804C155.731 11.7804 155.731 11.7804 155.731 11.7804C155.731 11.7804 155.731 11.7804 155.731 11.7804C155.731 11.7804 155.731 11.7804 155.731 11.7804C155.731 11.7804 155.731 11.7804 155.731 11.7804C155.731 11.7804 155.731 11.7804 155.731 11.7804C155.731 11.7804 155.731 11.7804 155.731 11.7804C155.731 11.7804 155.731 11.7804 155.731 11.7804C155.731 11.7804 155.731 11.7804 155.731 11.7804C155.731 11.7804 155.731 11.7804 155.731 11.7804C155.731 11.7804 155.731 11.7804 155.731 11.7804C155.731 11.7804 155.731 11.7804 155.731 11.7804C155.731 11.7804 155.731 11.7804 155.731 11.7804C155.731 11.7804 155.731 11.7804 155.731 11.7804C155.731 11.7804 155.731 11.7804 155.731 11.7804C155.731 11.7804 155.731 11.7804 155.731 11.7804C155.731 11.7804 155.731 11.7804 155.731 11.7804C155.731 11.7804 155.731 11.7804 155.731 11.7804C155.731 11.7804 155.731 11.7804 155.731 11.7804C155.731 11.7804 155.731 11.7804 155.731 11.7804C155.731 11.7804 155.731 11.7804 155.731 11.7804C155.731 11.7804 155.731 11.7804 155.731 11.7804C155.731 11.7804 155.731 11.7804 155.731 11.7804C155.731 11.7804 155.731 11.7804 155.731 11.7804C155.731 11.7804 155.731 11.7804 155.731 11.7804C155.731 11.7804 155.731 11.7804 155.731 11.7804C155.731 11.7804 155.731 11.7804 155.731 11.7804C155.731 11.7804 155.731 11.7804 155.731 11.7804C155.731 11.7804 155.731 11.7804 155.731 11.7804C155.731 11.7804 155.731 11.7804 155.731 11.7804C155.731 11.7804 155.731 11.7804 155.731 11.7804C155.731 11.7804 155.731 11.7804 155.731 11.7804C155.731 11.7804 155.731 11.7804 155.731 11.7804C155.731 11.7804 155.731 11.7804 155.731 11.7804C155.731 11.7804 155.731 11.7804 155.731 11.7804C155.731 11.7804 155.731 11.7804 155.731 11.7804C155.731 11.7804 155.731 11.7804 155.731 11.7804C155.731 11.7804 155.731 11.7804 155.731 11.7804C155.731 11.7804 155.731 11.7804 155.731 11.7804C155.731 11.7804 155.731 11.7804 155.731 11.7804C155.731 11.7804 155.731 11.7804 155.731 11.7804C155.731 11.7804 155.731 11.7804 155.731 11.7804C155.731 11.7804 155.731 11.7804 155.731 11.7804C155.731 11.7804 155.731 11.7804 155.731 11.7804C155.731 11.7804 155.731 11.7804 155.731 11.7804C155.731 11.7804 155.731 11.7804 155.731 11.7804C155.731 11.7804 155.731 11.7804 155.731 11.7804C155.731 11.7804 155.731 11.7804 155.731 11.7804C155.731 11.7804 155.731 11.7804 155.731 11.7804C155.731 11.7804 155.731 11.7804 155.731 11.7804C155.731 11.7804 155.731 11.7804 155.731 11.7804C155.731 11.7804 155.731 11.7804 155.731 11.7804C155.731 11.7804 155.731 11.7804 155.731 11.7804C155.731 11.7804 155.731 11.7804 155.731 11.7804C155.731 11.7804 155.731 11.7804 155.731 11.7804C155.731 11.7804 155.731 11.7804 155.731 11.7804C155.731 11.7804 155.731 11.7804 155.731 11.7804C155.731 11.7804 155.731 11.7804 155.731 11.7804C155.731 11.7804 155.731 11.7804 155.731 11.7804C155.731 11.7804 155.731 11.7804 155.731 11.7804C155.731 11.7804 155.731 11.7804 155.731 11.7804C155.731 11.7804 155.731 11.7804 155.731 11.7804C155.731 11.7804 155.731 11.7804 155.731 11.7804C155.731 11.7804 155.731 11.7804 155.731 11.7804C155.731 11.7804 155.731 11.7804 155.731 11.7804C155.731 11.7804 155.731 11.7804 155.731 11.7804C155.731 11.7804 155.731 11.7804 155.731 11.7804C155.731 11.7804 155.731 11.7804 155.731 11.7804C155.731 11.7804 155.731 11.7804 155.731 11.7804C155.731 11.7804 155.731 11.7804 155.731 11.7804C155.731 11.7804 155.731 11.7804 155.731 11.7804C155.731 11.7804 155.731 11.7804 155.731 11.7804C155.731 11.7804 155.731 11.7804 155.731 11.7804C155.731 11.7804 155.731 11.7804 155.731 11.7804C155.731 11.7804 155.731 11.7804 155.731 11.7804C155.731 11.7804 155.731 11.7804 155.731 11.7804C155.731 11.7804 155.731 11.7804 155.731 11.7804C155.731 11.7804 155.731 11.7804 155.731 11.7804C155.731 11.7804 155.731 11.7804 155.731 11.7804C155.731 11.7804 155.731 11.7804 155.731 11.7804C155.731 11.7804 155.731 11.7804 155.731 11.7804C155.731 11.7804 155.731 11.7804 155.731 11.7804C155.731 11.7804 155.731 11.7804 155.731 11.7804C155.731 11.7804 155.731 11.7804 155.731 11.7804C155.731 11.7804 155.731 11.7804 155.731 11.7804C155.731 11.7804 155.731 11.7804 155.731 11.7804C155.731 11.7804 155.731 11.7804 155.731 11.7804C155.731 11.7804 155.731 11.7804 155.731 11.7804C155.731 11.7804 155.731 11.7804 155.731 11.7804C155.731 11.7804 155.731 11.7804 155.731 11.7804C155.731 11.7804 155.731 11.7804 155.731 11.7804C155.731 11.7804 155.731 11.7804 155.731 11.7804C155.731 11.7804 155.731 11.7804 155.731 11.7804C155.731 11.7804 155.731 11.7804 155.731 11.7804C155.731 11.7804 155.731 11.7804 155.731 11.7804C155.731 11.7804 155.731 11.7804 155.731 11.7804C155.731 11.7804 155.731 11.7804 155.731 11.7804C155.731 11.7804 155.731 11.7804 155.731 11.7804C155.731 11.7804 155.731 11.7804 155.731 11.7804C155.731 11.7804 155.731 11.7804 155.731 11.7804C155.731 11.7804 155.731 11.7804 155.731 11.7804C155.731 11.7804 155.731 11.7804 155.731 11.7804C155.731 11.7804 155.731 11.7804 155.731 11.7804C155.731 11.7804 155.731 11.7804 155.731 11.7804C155.731 11.7804 155.731 11.7804 155.731 11.7804C155.731 11.7804 155.731 11.7804 155.731 11.7804C155.731 11.7804 155.731 11.7804 155.731 11.7804C155.731 11.7804 155.731 11.7804 155.731 11.7804C155.731 11.7804 155.731 11.7804 155.731 11.7804C155.731 11.7804 155.731 11.7804 155.731 11.7804C155.731 11.7804 155.731 11.7804 155.731 11.7804C155.731 11.7804 155.731 11.7804 155.731 11.7804C155.731 11.7804 155.731 11.7804 155.731 11.7804C155.731 11.7804 155.731 11.7804 155.731 11.7804C155.731 11.7804 155.731 11.7804 155.731 11.7804C155.731 11.7804 155.731 11.7804 155.731 11.7804C155.731 11.7804 155.731 11.7804 155.731 11.7804C155.731 11.7804 155.731 11.7804 155.731 11.7804C155.731 11.7804 155.731 11.7804 155.731 11.7804C155.731 11.7804 155.731 11.7804 155.731 11.7804C155.731 11.7804 155.731 11.7804 155.731 11.7804C155.731 11.7804 155.731 11.7804 155.731 11.7804C155.731 11.7804 155.731 11.7804 155.731 11.7804C155.731 11.7804 155.731 11.7804 155.731 11.7804C155.731 11.7804 155.731 11.7804 155.731 11.7804C155.731 11.7804 155.731 11.7804 155.731 11.7804C155.731 11.7804 155.731 11.7804 155.731 11.7804C155.731 11.7804 155.731 11.7804 155.731 11.7804C155.731 11.7804 155.731 11.7804 155.731 11.7804C155.731 11.7804 155.731 11.7804 155.731 11.7804C155.731 11.7804 155.731 11.7804 155.731 11.7804C155.731 11.7804 155.731 11.7804 155.731 11.7804C155.731 11.7804 155.731 11.7804 155.731 11.7804C155.731 11.7804 155.731 11.7804 155.731 11.7804C155.731 11.7804 155.731 11.7805 155.731 11.7805C155.731 11.7805 155.731 11.7805 155.731 11.7805C155.731 11.7805 155.731 11.7805 155.731 11.7805C155.731 11.7805 155.731 11.7805 155.731 11.7805C155.731 11.7805 155.731 11.7805 155.731 11.7805C155.731 11.7805 155.731 11.7805 155.731 11.7805C155.731 11.7805 155.731 11.7805 155.731 11.7805C155.731 11.7805 155.731 11.7805 155.731 11.7805C155.731 11.7805 155.731 11.7805 155.731 11.7805C155.731 11.7805 155.731 11.7805 155.731 11.7805C155.731 11.7805 155.731 11.7805 155.731 11.7805C155.731 11.7805 155.731 11.7805 155.731 11.7805C155.731 11.7805 155.731 11.7805 155.731 11.7805C155.731 11.7805 155.731 11.7805 155.731 11.7805C155.731 11.7805 155.731 11.7805 155.731 11.7805C155.731 11.7805 155.731 11.7805 155.731 11.7805C155.731 11.7805 155.731 11.7805 155.731 11.7805C155.731 11.7805 155.731 11.7805 155.731 11.7805C155.731 11.7805 155.731 11.7805 155.731 11.7805C155.731 11.7805 155.731 11.7805 155.731 11.7805C155.731 11.7805 155.731 11.7805 155.731 11.7805C155.731 11.7805 155.731 11.7805 155.731 11.7805C155.731 11.7805 155.731 11.7805 155.731 11.7805C155.731 11.7805 155.731 11.7805 155.731 11.7805C155.731 11.7805 155.731 11.7805 155.731 11.7805C155.731 11.7805 155.731 11.7805 155.731 11.7805C155.731 11.7805 155.731 11.7805 155.731 11.7805C155.731 11.7805 155.731 11.7805 155.731 11.7805C155.731 11.7805 155.731 11.7805 155.731 11.7805C155.731 11.7805 155.731 11.7805 155.731 11.7805C155.731 11.7805 155.731 11.7805 155.731 11.7805C155.731 11.7805 155.731 11.7805 155.731 11.7805C155.731 11.7805 155.731 11.7805 155.731 11.7805C155.731 11.7805 155.731 11.7805 155.731 11.7805C155.731 11.7805 155.731 11.7805 155.731 11.7805C155.731 11.7805 155.731 11.7805 155.731 11.7805C155.731 11.7805 155.731 11.7805 155.731 11.7805C155.731 11.7805 155.731 11.7805 155.731 11.7805C155.731 11.7805 155.731 11.7805 155.731 11.7805C155.731 11.7805 155.731 11.7805 155.731 11.7805C155.731 11.7805 155.731 11.7805 155.731 11.7805C155.731 11.7805 155.731 11.7805 155.731 11.7805C155.731 11.7805 155.731 11.7805 155.731 11.7805C155.731 11.7805 155.731 11.7805 155.731 11.7805C155.731 11.7805 155.731 11.7805 155.731 11.7805C155.731 11.7805 155.731 11.7805 155.731 11.7805C155.731 11.7805 155.731 11.7805 155.731 11.7805C155.731 11.7805 155.731 11.7805 155.731 11.7805C155.731 11.7805 155.731 11.7805 155.731 11.7805C155.731 11.7805 155.731 11.7805 155.731 11.7805C155.731 11.7805 155.731 11.7805 155.731 11.7805C155.731 11.7805 155.731 11.7805 155.731 11.7805C155.731 11.7805 155.731 11.7805 155.731 11.7805C155.731 11.7805 155.731 11.7805 155.731 11.7805C155.731 11.7805 155.731 11.7805 155.731 11.7805C155.731 11.7805 155.731 11.7805 155.731 11.7805C155.731 11.7805 155.731 11.7805 155.731 11.7805C155.731 11.7805 155.731 11.7805 155.731 11.7805C155.731 11.7805 155.731 11.7805 155.731 11.7805C155.731 11.7805 155.731 11.7805 155.731 11.7805C155.731 11.7805 155.731 11.7805 155.731 11.7805C155.731 11.7805 155.731 11.7805 155.731 11.7805C155.731 11.7805 155.731 11.7805 155.731 11.7805C155.731 11.7805 155.731 11.7805 155.731 11.7805C155.731 11.7805 155.731 11.7805 155.731 11.7805C155.731 11.7805 155.731 11.7805 155.731 11.7805C155.731 11.7805 155.731 11.7805 155.731 11.7805C155.731 11.7805 155.731 11.7805 155.731 11.7805C155.731 11.7805 155.731 11.7805 155.731 11.7805C155.731 11.7805 155.731 11.7805 155.731 11.7805C155.731 11.7805 155.731 11.7805 155.731 11.7805C155.731 11.7805 155.731 11.7805 155.731 11.7805C155.731 11.7805 155.731 11.7805 155.731 11.7805C155.731 11.7805 155.731 11.7805 155.731 11.7805C155.731 11.7805 155.731 11.7805 155.731 11.7805C155.731 11.7805 155.731 11.7805 155.731 11.7805C155.731 11.7805 155.731 11.7805 155.731 11.7805C155.731 11.7805 155.731 11.7805 155.731 11.7805C155.731 11.7805 155.731 11.7805 155.731 11.7805C155.731 11.7805 155.731 11.7805 155.731 11.7805C155.731 11.7805 155.731 11.7805 155.731 11.7805C155.731 11.7805 155.731 11.7805 155.731 11.7805C155.731 11.7805 155.731 11.7805 155.731 11.7805C155.731 11.7805 155.731 11.7805 155.731 11.7805C155.731 11.7805 155.731 11.7805 155.731 11.7805C155.731 11.7805 155.731 11.7805 155.731 11.7805C155.731 11.7805 155.731 11.7805 155.731 11.7805C155.731 11.7805 155.731 11.7805 155.731 11.7805C155.731 11.7805 155.731 11.7805 155.731 11.7805C155.731 11.7805 155.731 11.7805 155.731 11.7805C155.731 11.7805 155.731 11.7805 155.731 11.7805C155.731 11.7805 155.731 11.7805 155.731 11.7805C155.731 11.7805 155.731 11.7805 155.731 11.7805C155.731 11.7805 155.731 11.7805 155.731 11.7805C155.731 11.7805 155.731 11.7805 155.731 11.7805C155.731 11.7805 155.731 11.7805 155.731 11.7805C155.731 11.7805 155.731 11.7805 155.731 11.7805L158.551 10.849ZM166.056 14.6276C162.94 15.6565 159.58 13.9648 158.551 10.849L155.731 11.7805C157.274 16.4541 162.314 18.9917 166.987 17.4484L166.056 14.6276Z" fill="white"/>
<line x1="39.4495" y1="107.27" x2="107.147" y2="84.9153" stroke="#3063E9" stroke-width="7.4264" stroke-linecap="round"/>
<line x1="46.4356" y1="128.426" x2="189.588" y2="81.1542" stroke="#FF9635" stroke-width="7.4264" stroke-linecap="round"/>
<line x1="53.5933" y1="159.32" x2="163.602" y2="122.993" stroke="#898989" stroke-width="2.97056" stroke-linecap="round"/>
<line x1="184.059" y1="113.892" x2="198.163" y2="109.234" stroke="#898989" stroke-width="7.4264" stroke-linecap="round"/>
<path d="M173.286 58.4815C166.594 44.8521 169.737 33.5537 179.774 27.7487C173.552 38.4702 172.184 45.7718 173.286 58.4815Z" fill="#3063E9"/>
<path d="M169.626 54.5725C168.56 47.7892 163.809 45.7717 158.996 47.7224C164.49 48.4359 166.576 51.134 169.626 54.5725Z" fill="#3063E9"/>
</svg>
