<svg width="160" height="96" viewBox="0 0 160 96" fill="none" xmlns="http://www.w3.org/2000/svg">
<g clip-path="url(#clip0_971_12811)">
<rect x="0.5" y="0.0578613" width="159" height="95" rx="6" fill="#3063E9"/>
<g opacity="0.5">
<line x1="0.5" y1="79.4579" x2="159.5" y2="79.4579" stroke="#FF9635" stroke-width="0.2"/>
<line x1="0.5" y1="63.4579" x2="159.5" y2="63.4579" stroke="#FF9635" stroke-width="0.2"/>
<line x1="0.5" y1="47.4579" x2="159.5" y2="47.4579" stroke="#FF9635" stroke-width="0.2"/>
<line x1="0.5" y1="31.4579" x2="159.5" y2="31.4579" stroke="#FF9635" stroke-width="0.2"/>
<line x1="0.5" y1="15.4579" x2="159.5" y2="15.4579" stroke="#FF9635" stroke-width="0.2"/>
</g>
<g opacity="0.5">
<line x1="15.6" y1="0.0578613" x2="15.6" y2="95.0579" stroke="#FF9635" stroke-width="0.2"/>
<line x1="31.6" y1="0.0578613" x2="31.6" y2="95.0579" stroke="#FF9635" stroke-width="0.2"/>
<line x1="47.6" y1="0.0578613" x2="47.6" y2="95.0579" stroke="#FF9635" stroke-width="0.2"/>
<line x1="63.6" y1="0.0578613" x2="63.6" y2="95.0579" stroke="#FF9635" stroke-width="0.2"/>
<line x1="79.6" y1="0.0578613" x2="79.6" y2="95.0579" stroke="#FF9635" stroke-width="0.2"/>
<line x1="95.6" y1="0.0578613" x2="95.6" y2="95.0579" stroke="#FF9635" stroke-width="0.2"/>
<line x1="111.6" y1="0.0578613" x2="111.6" y2="95.0579" stroke="#FF9635" stroke-width="0.2"/>
<line x1="127.6" y1="0.0578613" x2="127.6" y2="95.0579" stroke="#FF9635" stroke-width="0.2"/>
<line x1="143.6" y1="0.0578613" x2="143.6" y2="95.0579" stroke="#FF9635" stroke-width="0.2"/>
</g>
<g filter="url(#filter0_f_971_12811)">
<circle cx="81.5" cy="36.0579" r="18" fill="#3063E9"/>
</g>
<g filter="url(#filter1_f_971_12811)">
<circle cx="109.5" cy="60.0579" r="18" fill="#3063E9"/>
</g>
<g filter="url(#filter2_f_971_12811)">
<circle cx="27.5" cy="54.0579" r="18" fill="#3063E9"/>
</g>
<g filter="url(#filter3_f_971_12811)">
<circle cx="145.5" cy="-1.94214" r="18" fill="#3063E9"/>
</g>
<g filter="url(#filter4_f_971_12811)">
<circle cx="144.5" cy="82.0579" r="18" fill="#3063E9"/>
</g>
<g filter="url(#filter5_f_971_12811)">
<circle cx="9.5" cy="13.0579" r="18" fill="#3063E9"/>
</g>
<g filter="url(#filter6_i_971_12811)">
<g clip-path="url(#clip1_971_12811)">
<rect x="11.5" y="23.6987" width="32" height="22.4" rx="3.2" fill="#FF9635"/>
<path d="M21.2598 23.6987C22.5956 26.6248 22.4872 28.2651 21.2598 31.1917C22.5318 34.1268 22.5418 35.8225 21.2598 38.946C22.4899 42.1284 22.4608 43.6858 21.2598 46.0987" stroke="#3063E9" stroke-width="0.256" stroke-linecap="round"/>
<path d="M33.9001 31.3787C32.2342 34.2045 32.2343 35.8639 33.9001 38.936C32.271 41.6155 32.1176 43.1727 33.9001 46.0987" stroke="#3063E9" stroke-width="0.256" stroke-linecap="round"/>
<line x1="11.5" y1="31.2507" x2="21.1" y2="31.2507" stroke="#3063E9" stroke-width="0.256"/>
<line x1="34.0281" y1="31.2507" x2="43.3721" y2="31.2507" stroke="#3063E9" stroke-width="0.256" stroke-linecap="round"/>
<line x1="23.0205" y1="26.1308" x2="32.6205" y2="26.1308" stroke="#3063E9" stroke-width="0.256"/>
<line x1="23.0205" y1="43.4106" x2="31.9805" y2="43.4106" stroke="#3063E9" stroke-width="0.256"/>
<line x1="11.5" y1="38.9308" x2="21.1" y2="38.9308" stroke="#3063E9" stroke-width="0.256"/>
<line x1="33.9001" y1="38.9308" x2="43.5001" y2="38.9308" stroke="#3063E9" stroke-width="0.256"/>
</g>
<rect x="11.564" y="23.7627" width="31.872" height="22.272" rx="3.136" stroke="#FF9635" stroke-width="0.128"/>
</g>
<path d="M16.052 65.0986H15.316L13.884 62.9226L12.444 65.0986H11.7L13.548 62.4106L11.86 59.8186H12.612L13.948 61.8746L15.3 59.8186H15.996L14.284 62.3786L16.052 65.0986ZM22.4567 65.0986H21.7207L20.2887 62.9226L18.8487 65.0986H18.1047L19.9527 62.4106L18.2647 59.8186H19.0167L20.3527 61.8746L21.7047 59.8186H22.4007L20.6887 62.3786L22.4567 65.0986ZM28.8614 65.0986H28.1254L26.6934 62.9226L25.2534 65.0986H24.5094L26.3574 62.4106L24.6694 59.8186H25.4214L26.7574 61.8746L28.1094 59.8186H28.8054L27.0934 62.3786L28.8614 65.0986ZM35.2661 65.0986H34.5301L33.0981 62.9226L31.6581 65.0986H30.9141L32.7621 62.4106L31.0741 59.8186H31.8261L33.1621 61.8746L34.5141 59.8186H35.2101L33.4981 62.3786L35.2661 65.0986ZM45.8333 65.0986H45.0973L43.6653 62.9226L42.2253 65.0986H41.4813L43.3293 62.4106L41.6413 59.8186H42.3933L43.7293 61.8746L45.0813 59.8186H45.7773L44.0653 62.3786L45.8333 65.0986ZM52.2379 65.0986H51.5019L50.0699 62.9226L48.6299 65.0986H47.8859L49.7339 62.4106L48.0459 59.8186H48.7979L50.1339 61.8746L51.4859 59.8186H52.1819L50.4699 62.3786L52.2379 65.0986ZM58.6426 65.0986H57.9066L56.4746 62.9226L55.0346 65.0986H54.2906L56.1386 62.4106L54.4506 59.8186H55.2026L56.5386 61.8746L57.8906 59.8186H58.5866L56.8746 62.3786L58.6426 65.0986ZM65.0473 65.0986H64.3113L62.8793 62.9226L61.4393 65.0986H60.6953L62.5433 62.4106L60.8553 59.8186H61.6073L62.9433 61.8746L64.2953 59.8186H64.9913L63.2793 62.3786L65.0473 65.0986ZM75.6145 65.0986H74.8785L73.4465 62.9226L72.0065 65.0986H71.2625L73.1105 62.4106L71.4225 59.8186H72.1745L73.5105 61.8746L74.8625 59.8186H75.5585L73.8465 62.3786L75.6145 65.0986ZM82.0192 65.0986H81.2832L79.8512 62.9226L78.4112 65.0986H77.6672L79.5152 62.4106L77.8272 59.8186H78.5792L79.9152 61.8746L81.2672 59.8186H81.9632L80.2512 62.3786L82.0192 65.0986ZM88.4239 65.0986H87.6879L86.2559 62.9226L84.8159 65.0986H84.0719L85.9199 62.4106L84.2319 59.8186H84.9839L86.3199 61.8746L87.6719 59.8186H88.3679L86.6559 62.3786L88.4239 65.0986ZM94.8286 65.0986H94.0926L92.6606 62.9226L91.2206 65.0986H90.4766L92.3246 62.4106L90.6366 59.8186H91.3886L92.7246 61.8746L94.0766 59.8186H94.7726L93.0606 62.3786L94.8286 65.0986ZM105.396 65.0986H104.66L103.228 62.9226L101.788 65.0986H101.044L102.892 62.4106L101.204 59.8186H101.956L103.292 61.8746L104.644 59.8186H105.34L103.628 62.3786L105.396 65.0986ZM111.8 65.0986H111.064L109.632 62.9226L108.192 65.0986H107.448L109.296 62.4106L107.608 59.8186H108.36L109.696 61.8746L111.048 59.8186H111.744L110.032 62.3786L111.8 65.0986ZM118.205 65.0986H117.469L116.037 62.9226L114.597 65.0986H113.853L115.701 62.4106L114.013 59.8186H114.765L116.101 61.8746L117.453 59.8186H118.149L116.437 62.3786L118.205 65.0986ZM124.61 65.0986H123.874L122.442 62.9226L121.002 65.0986H120.258L122.106 62.4106L120.418 59.8186H121.17L122.506 61.8746L123.858 59.8186H124.554L122.842 62.3786L124.61 65.0986Z" fill="white"/>
<path d="M16.508 74.8186V80.0986H15.868V74.8186H16.508ZM13.004 74.8186V80.0986H12.364V74.8186H13.004ZM16.164 77.1226V77.7226H12.7V77.1226H16.164ZM19.7125 76.0186C20.0912 76.0186 20.4245 76.1013 20.7125 76.2666C21.0058 76.432 21.2352 76.672 21.4005 76.9866C21.5658 77.296 21.6485 77.6666 21.6485 78.0986C21.6485 78.5306 21.5658 78.904 21.4005 79.2186C21.2352 79.528 21.0058 79.7653 20.7125 79.9306C20.4245 80.096 20.0912 80.1786 19.7125 80.1786C19.3392 80.1786 19.0058 80.096 18.7125 79.9306C18.4192 79.7653 18.1898 79.528 18.0245 79.2186C17.8592 78.904 17.7765 78.5306 17.7765 78.0986C17.7765 77.6666 17.8592 77.296 18.0245 76.9866C18.1898 76.672 18.4192 76.432 18.7125 76.2666C19.0058 76.1013 19.3392 76.0186 19.7125 76.0186ZM19.7125 76.5706C19.4405 76.5706 19.2085 76.632 19.0165 76.7546C18.8245 76.8773 18.6752 77.0533 18.5685 77.2826C18.4672 77.5066 18.4165 77.7786 18.4165 78.0986C18.4165 78.4133 18.4672 78.6853 18.5685 78.9146C18.6752 79.144 18.8245 79.32 19.0165 79.4426C19.2085 79.5653 19.4405 79.6266 19.7125 79.6266C19.9845 79.6266 20.2165 79.5653 20.4085 79.4426C20.6005 79.32 20.7472 79.144 20.8485 78.9146C20.9552 78.6853 21.0085 78.4133 21.0085 78.0986C21.0085 77.7786 20.9552 77.5066 20.8485 77.2826C20.7472 77.0533 20.6005 76.8773 20.4085 76.7546C20.2165 76.632 19.9845 76.5706 19.7125 76.5706ZM23.4614 74.2586V79.0826C23.4614 79.2853 23.4987 79.4266 23.5734 79.5066C23.648 79.5813 23.768 79.6186 23.9334 79.6186C24.04 79.6186 24.128 79.6106 24.1974 79.5946C24.2667 79.5786 24.36 79.5493 24.4774 79.5066L24.3734 80.0666C24.288 80.104 24.1947 80.1306 24.0934 80.1466C23.992 80.168 23.888 80.1786 23.7814 80.1786C23.456 80.1786 23.2134 80.0906 23.0534 79.9146C22.8987 79.7386 22.8214 79.4693 22.8214 79.1066V74.2586H23.4614ZM26.8587 80.1786C26.528 80.1786 26.224 80.096 25.9467 79.9306C25.6694 79.7653 25.448 79.528 25.2827 79.2186C25.1174 78.904 25.0347 78.5306 25.0347 78.0986C25.0347 77.656 25.1227 77.28 25.2987 76.9706C25.4747 76.6613 25.7067 76.4266 25.9947 76.2666C26.2827 76.1013 26.592 76.0186 26.9227 76.0186C27.2534 76.0186 27.5387 76.104 27.7787 76.2746C28.024 76.4453 28.1867 76.672 28.2667 76.9546L28.1867 77.0106V74.2586H28.8267V80.0986H28.2667L28.2107 79.1306L28.2987 79.0826C28.2614 79.3173 28.1707 79.5173 28.0267 79.6826C27.888 79.8426 27.7147 79.9653 27.5067 80.0506C27.304 80.136 27.088 80.1786 26.8587 80.1786ZM26.9227 79.6186C27.1787 79.6186 27.4 79.5546 27.5867 79.4266C27.7787 79.2986 27.9254 79.1173 28.0267 78.8826C28.1334 78.6426 28.1867 78.3626 28.1867 78.0426C28.1867 77.7386 28.1334 77.4773 28.0267 77.2586C27.9254 77.04 27.7814 76.872 27.5947 76.7546C27.4134 76.6373 27.2 76.5786 26.9547 76.5786C26.5494 76.5786 26.2347 76.7173 26.0107 76.9946C25.7867 77.272 25.6747 77.64 25.6747 78.0986C25.6747 78.5573 25.784 78.9253 26.0027 79.2026C26.2214 79.48 26.528 79.6186 26.9227 79.6186ZM31.9863 80.1786C31.6076 80.1786 31.269 80.096 30.9703 79.9306C30.677 79.7653 30.4476 79.528 30.2823 79.2186C30.117 78.904 30.0343 78.5306 30.0343 78.0986C30.0343 77.6666 30.117 77.296 30.2823 76.9866C30.4476 76.672 30.6743 76.432 30.9623 76.2666C31.2503 76.1013 31.5783 76.0186 31.9463 76.0186C32.3196 76.0186 32.637 76.0986 32.8983 76.2586C33.165 76.4186 33.3676 76.6373 33.5063 76.9146C33.645 77.1866 33.7143 77.4933 33.7143 77.8346C33.7143 77.9253 33.7116 78.008 33.7063 78.0826C33.701 78.1573 33.693 78.224 33.6823 78.2826H30.4503V77.7146H33.4023L33.0743 77.7786C33.0743 77.3946 32.9676 77.0986 32.7543 76.8906C32.5463 76.6826 32.2716 76.5786 31.9303 76.5786C31.669 76.5786 31.4423 76.64 31.2503 76.7626C31.0636 76.88 30.917 77.0533 30.8103 77.2826C30.709 77.5066 30.6583 77.7786 30.6583 78.0986C30.6583 78.4133 30.7116 78.6853 30.8183 78.9146C30.925 79.144 31.0743 79.32 31.2663 79.4426C31.4636 79.56 31.6983 79.6186 31.9703 79.6186C32.2636 79.6186 32.501 79.5626 32.6823 79.4506C32.869 79.3386 33.0183 79.1866 33.1303 78.9946L33.6343 79.2906C33.533 79.472 33.4023 79.6293 33.2423 79.7626C33.0876 79.896 32.9036 80 32.6903 80.0746C32.4823 80.144 32.2476 80.1786 31.9863 80.1786ZM34.9315 80.0986V76.0986H35.4515L35.5395 76.7546C35.6515 76.5093 35.8142 76.3253 36.0275 76.2026C36.2462 76.08 36.5102 76.0186 36.8195 76.0186C36.8888 76.0186 36.9635 76.024 37.0435 76.0346C37.1288 76.0453 37.2008 76.0666 37.2595 76.0986L37.1475 76.6826C37.0888 76.6613 37.0248 76.6453 36.9555 76.6346C36.8862 76.624 36.7875 76.6186 36.6595 76.6186C36.4942 76.6186 36.3262 76.6666 36.1555 76.7626C35.9902 76.8586 35.8515 77.0053 35.7395 77.2026C35.6275 77.3946 35.5715 77.64 35.5715 77.9386V80.0986H34.9315Z" fill="white"/>
<g clip-path="url(#clip2_971_12811)">
<path d="M137.521 30.0786C137.333 29.891 137.079 29.7857 136.814 29.7857C136.548 29.7857 136.294 29.891 136.106 30.0786C135.919 30.2661 135.814 30.5205 135.814 30.7857C135.814 31.0509 135.919 31.3052 136.106 31.4928C137.044 32.4305 137.571 33.7022 137.571 35.0283C137.571 36.3544 137.044 37.6262 136.106 38.5638C135.919 38.7514 135.814 39.0057 135.814 39.271C135.814 39.5362 135.919 39.7905 136.106 39.9781C136.294 40.1656 136.548 40.271 136.814 40.271C137.079 40.271 137.333 40.1656 137.521 39.9781C138.833 38.6653 139.571 36.8848 139.571 35.0283C139.571 33.1718 138.833 31.3913 137.521 30.0786ZM143.178 24.4217C142.99 24.2342 142.736 24.1288 142.47 24.1288C142.205 24.1288 141.951 24.2342 141.763 24.4217C141.576 24.6092 141.47 24.8636 141.47 25.1288C141.47 25.394 141.576 25.6484 141.763 25.8359C144.201 28.2739 145.571 31.5805 145.571 35.0283C145.571 38.4761 144.201 41.7827 141.763 44.2207C141.576 44.4082 141.47 44.6626 141.47 44.9278C141.47 45.193 141.576 45.4474 141.763 45.6349C141.951 45.8224 142.205 45.9278 142.47 45.9278C142.736 45.9278 142.99 45.8224 143.178 45.6349C145.991 42.8219 147.571 39.0066 147.571 35.0283C147.571 31.0501 145.991 27.2348 143.178 24.4217V24.4217ZM140.349 27.2501C140.162 27.0626 139.907 26.9572 139.642 26.9572C139.377 26.9572 139.122 27.0626 138.935 27.2501C138.747 27.4377 138.642 27.692 138.642 27.9572C138.642 28.2225 138.747 28.4768 138.935 28.6643C140.623 30.3522 141.571 32.6414 141.571 35.0283C141.571 37.4153 140.623 39.7044 138.935 41.3923C138.747 41.5798 138.642 41.8342 138.642 42.0994C138.642 42.3646 138.747 42.6189 138.935 42.8065C139.122 42.994 139.377 43.0994 139.642 43.0994C139.907 43.0994 140.162 42.994 140.349 42.8065C142.412 40.7436 143.571 37.9457 143.571 35.0283C143.571 32.1109 142.412 29.313 140.349 27.2501V27.2501Z" fill="white"/>
</g>
</g>
<defs>
<filter id="filter0_f_971_12811" x="47.5" y="2.05786" width="68" height="68" filterUnits="userSpaceOnUse" color-interpolation-filters="sRGB">
<feFlood flood-opacity="0" result="BackgroundImageFix"/>
<feBlend mode="normal" in="SourceGraphic" in2="BackgroundImageFix" result="shape"/>
<feGaussianBlur stdDeviation="8" result="effect1_foregroundBlur_971_12811"/>
</filter>
<filter id="filter1_f_971_12811" x="75.5" y="26.0579" width="68" height="68" filterUnits="userSpaceOnUse" color-interpolation-filters="sRGB">
<feFlood flood-opacity="0" result="BackgroundImageFix"/>
<feBlend mode="normal" in="SourceGraphic" in2="BackgroundImageFix" result="shape"/>
<feGaussianBlur stdDeviation="8" result="effect1_foregroundBlur_971_12811"/>
</filter>
<filter id="filter2_f_971_12811" x="-6.5" y="20.0579" width="68" height="68" filterUnits="userSpaceOnUse" color-interpolation-filters="sRGB">
<feFlood flood-opacity="0" result="BackgroundImageFix"/>
<feBlend mode="normal" in="SourceGraphic" in2="BackgroundImageFix" result="shape"/>
<feGaussianBlur stdDeviation="8" result="effect1_foregroundBlur_971_12811"/>
</filter>
<filter id="filter3_f_971_12811" x="111.5" y="-35.9421" width="68" height="68" filterUnits="userSpaceOnUse" color-interpolation-filters="sRGB">
<feFlood flood-opacity="0" result="BackgroundImageFix"/>
<feBlend mode="normal" in="SourceGraphic" in2="BackgroundImageFix" result="shape"/>
<feGaussianBlur stdDeviation="8" result="effect1_foregroundBlur_971_12811"/>
</filter>
<filter id="filter4_f_971_12811" x="110.5" y="48.0579" width="68" height="68" filterUnits="userSpaceOnUse" color-interpolation-filters="sRGB">
<feFlood flood-opacity="0" result="BackgroundImageFix"/>
<feBlend mode="normal" in="SourceGraphic" in2="BackgroundImageFix" result="shape"/>
<feGaussianBlur stdDeviation="8" result="effect1_foregroundBlur_971_12811"/>
</filter>
<filter id="filter5_f_971_12811" x="-24.5" y="-20.9421" width="68" height="68" filterUnits="userSpaceOnUse" color-interpolation-filters="sRGB">
<feFlood flood-opacity="0" result="BackgroundImageFix"/>
<feBlend mode="normal" in="SourceGraphic" in2="BackgroundImageFix" result="shape"/>
<feGaussianBlur stdDeviation="8" result="effect1_foregroundBlur_971_12811"/>
</filter>
<filter id="filter6_i_971_12811" x="11.5" y="23.6987" width="32" height="22.7199" filterUnits="userSpaceOnUse" color-interpolation-filters="sRGB">
<feFlood flood-opacity="0" result="BackgroundImageFix"/>
<feBlend mode="normal" in="SourceGraphic" in2="BackgroundImageFix" result="shape"/>
<feColorMatrix in="SourceAlpha" type="matrix" values="0 0 0 0 0 0 0 0 0 0 0 0 0 0 0 0 0 0 127 0" result="hardAlpha"/>
<feOffset dy="0.32"/>
<feGaussianBlur stdDeviation="0.64"/>
<feComposite in2="hardAlpha" operator="arithmetic" k2="-1" k3="1"/>
<feColorMatrix type="matrix" values="0 0 0 0 0.678431 0 0 0 0 0.478431 0 0 0 0 0.0745098 0 0 0 1 0"/>
<feBlend mode="normal" in2="shape" result="effect1_innerShadow_971_12811"/>
</filter>
<clipPath id="clip0_971_12811">
<rect x="0.5" y="0.0578613" width="159" height="95" rx="6" fill="white"/>
</clipPath>
<clipPath id="clip1_971_12811">
<rect x="11.5" y="23.6987" width="32" height="22.4" rx="3.2" fill="white"/>
</clipPath>
<clipPath id="clip2_971_12811">
<rect width="24" height="24" fill="white" transform="translate(142.47 18.0579) rotate(45)"/>
</clipPath>
</defs>
</svg>
