<svg width="491" height="504" viewBox="0 0 491 504" fill="none" xmlns="http://www.w3.org/2000/svg">
<path d="M487.423 1.81802C487.523 0.995713 488.271 0.410575 489.094 0.51108C489.916 0.611584 490.501 1.35967 490.401 2.18198L487.423 1.81802ZM12.9116 200L14.3497 200.427L12.9116 200ZM231.972 490.939C232.558 491.525 232.558 492.475 231.972 493.061L222.426 502.607C221.841 503.192 220.891 503.192 220.305 502.607C219.719 502.021 219.719 501.071 220.305 500.485L228.79 492L220.305 483.515C219.719 482.929 219.719 481.979 220.305 481.393C220.891 480.808 221.841 480.808 222.426 481.393L231.972 490.939ZM489.468 8.43182C489.323 9.24749 488.545 9.79132 487.729 9.64649C486.913 9.50166 486.369 8.72303 486.514 7.90736L489.468 8.43182ZM483.799 19.2498C484.043 18.4582 484.883 18.0142 485.674 18.2583C486.466 18.5023 486.91 19.3419 486.666 20.1336L483.799 19.2498ZM482.237 31.4324C481.875 32.1772 480.977 32.4871 480.232 32.1245C479.487 31.7619 479.177 30.8641 479.54 30.1192L482.237 31.4324ZM473.477 40.1745C473.969 39.5079 474.908 39.3665 475.575 39.8584C476.241 40.3504 476.383 41.2896 475.891 41.9561L473.477 40.1745ZM467.692 51.069C467.081 51.6285 466.132 51.5867 465.572 50.9757C465.013 50.3646 465.055 49.4158 465.666 48.8564L467.692 51.069ZM456.354 55.9156C457.056 55.4757 457.981 55.6882 458.421 56.3902C458.861 57.0922 458.649 58.0179 457.947 58.4578L456.354 55.9156ZM447.143 64.0886C446.382 64.4161 445.499 64.0647 445.172 63.3038C444.844 62.5428 445.196 61.6605 445.957 61.333L447.143 64.0886ZM434.872 65.2935C435.667 65.0604 436.501 65.516 436.734 66.311C436.967 67.106 436.511 67.9393 435.716 68.1723L434.872 65.2935ZM423.946 71.0073C423.133 71.1652 422.346 70.6339 422.188 69.8207C422.03 69.0074 422.562 68.2202 423.375 68.0623L423.946 71.0073ZM411.622 69.8915C412.444 69.7921 413.192 70.3782 413.291 71.2006C413.39 72.0231 412.804 72.7704 411.982 72.8698L411.622 69.8915ZM399.898 73.9811C399.072 74.0354 398.358 73.4092 398.303 72.5826C398.249 71.756 398.875 71.0418 399.702 70.9876L399.898 73.9811ZM387.813 71.5091C388.641 71.4893 389.329 72.1445 389.349 72.9727C389.369 73.8009 388.713 74.4884 387.885 74.5083L387.813 71.5091ZM375.888 74.597C375.06 74.5905 374.394 73.9138 374.4 73.0854C374.407 72.257 375.083 71.5906 375.912 71.5971L375.888 74.597ZM363.924 71.3518C364.752 71.3783 365.401 72.071 365.375 72.899C365.348 73.727 364.656 74.3767 363.828 74.3502L363.924 71.3518ZM351.795 73.8516C350.968 73.8103 350.33 73.106 350.372 72.2786C350.413 71.4512 351.117 70.814 351.945 70.8553L351.795 73.8516ZM340.035 70.1799C340.862 70.2317 341.49 70.944 341.439 71.7708C341.387 72.5976 340.675 73.2259 339.848 73.174L340.035 70.1799ZM327.835 72.3662C327.009 72.3074 326.387 71.5899 326.446 70.7636C326.504 69.9372 327.222 69.315 328.048 69.3738L327.835 72.3662ZM316.101 68.4933C316.927 68.5558 317.546 69.2762 317.484 70.1022C317.421 70.9283 316.701 71.5473 315.875 71.4848L316.101 68.4933ZM303.926 70.5709C303.1 70.5075 302.482 69.7865 302.546 68.9605C302.609 68.1345 303.33 67.5163 304.156 67.5797L303.926 70.5709ZM292.161 66.6685C292.987 66.7302 293.607 67.4499 293.545 68.276C293.483 69.1021 292.764 69.7218 291.937 69.6602L292.161 66.6685ZM280.01 68.7975C279.183 68.7401 278.56 68.0236 278.617 67.1971C278.675 66.3707 279.391 65.7473 280.218 65.8048L280.01 68.7975ZM268.229 65.017C269.056 65.0677 269.685 65.7792 269.634 66.6061C269.583 67.433 268.872 68.0621 268.045 68.0113L268.229 65.017ZM256.089 67.3398C255.261 67.2981 254.625 66.5936 254.666 65.7662C254.708 64.9388 255.413 64.3019 256.24 64.3436L256.089 67.3398ZM244.235 63.8192C245.063 63.8494 245.709 64.545 245.679 65.3729C245.649 66.2007 244.953 66.8474 244.125 66.8172L244.235 63.8192ZM232.169 66.4801C231.341 66.464 230.682 65.7795 230.698 64.9513C230.714 64.123 231.399 63.4646 232.227 63.4807L232.169 66.4801ZM220.196 63.3656C221.024 63.3649 221.697 64.0359 221.697 64.8644C221.698 65.6928 221.027 66.3649 220.199 66.3656L220.196 63.3656ZM208.244 66.514C207.416 66.5344 206.728 65.8795 206.708 65.0513C206.687 64.2231 207.342 63.5353 208.17 63.5149L208.244 66.514ZM196.153 63.9713C196.981 63.9282 197.686 64.564 197.729 65.3913C197.772 66.2186 197.137 66.9242 196.309 66.9672L196.153 63.9713ZM184.377 67.7725C183.551 67.8416 182.826 67.2284 182.757 66.4028C182.688 65.5773 183.301 64.852 184.127 64.783L184.377 67.7725ZM172.17 65.9947C172.993 65.8961 173.739 66.483 173.838 67.3055C173.937 68.1281 173.35 68.8748 172.527 68.9734L172.17 65.9947ZM160.692 70.6311C159.874 70.763 159.104 70.207 158.972 69.3891C158.841 68.5713 159.397 67.8013 160.214 67.6694L160.692 70.6311ZM148.358 69.8553C149.169 69.6861 149.964 70.2065 150.133 71.0174C150.302 71.8284 149.782 72.623 148.971 72.7921L148.358 69.8553ZM137.396 75.5102C136.594 75.7204 135.774 75.2413 135.564 74.44C135.354 73.6387 135.833 72.8187 136.634 72.6084L137.396 75.5102ZM125.028 76.003C125.816 75.7476 126.662 76.1794 126.917 76.9675C127.173 77.7556 126.741 78.6015 125.953 78.8569L125.028 76.003ZM114.769 82.8644C113.998 83.1684 113.127 82.7901 112.823 82.0194C112.519 81.2487 112.898 80.3776 113.668 80.0737L114.769 82.8644ZM102.578 84.8818C103.327 84.5265 104.221 84.845 104.577 85.5933C104.932 86.3417 104.614 87.2364 103.865 87.5918L102.578 84.8818ZM93.3372 93.0615C92.6165 93.47 91.7011 93.2169 91.2926 92.4962C90.8841 91.7755 91.1372 90.8601 91.8579 90.4516L93.3372 93.0615ZM81.566 96.8105C82.2536 96.3484 83.1856 96.5312 83.6477 97.2188C84.1098 97.9064 83.927 98.8384 83.2394 99.3005L81.566 96.8105ZM73.659 106.297C73.0097 106.811 72.0662 106.702 71.5517 106.053C71.0373 105.404 71.1465 104.46 71.7959 103.946L73.659 106.297ZM62.6459 111.802C63.2527 111.238 64.2018 111.272 64.7658 111.879C65.3297 112.486 65.295 113.435 64.6882 113.999L62.6459 111.802ZM56.2654 122.469C55.7047 123.079 54.7558 123.119 54.146 122.558C53.5361 121.997 53.4963 121.049 54.0571 120.439L56.2654 122.469ZM46.2794 129.564C46.793 128.914 47.7363 128.804 48.3863 129.317C49.0363 129.831 49.1469 130.774 48.6333 131.424L46.2794 129.564ZM41.5993 141.023C41.1337 141.708 40.2008 141.886 39.5156 141.421C38.8304 140.955 38.6523 140.022 39.1179 139.337L41.5993 141.023ZM32.6788 149.542C33.0974 148.827 34.0163 148.587 34.7312 149.005C35.446 149.424 35.6862 150.343 35.2676 151.058L32.6788 149.542ZM29.6029 161.467C29.2294 162.207 28.3271 162.503 27.5877 162.13C26.8483 161.756 26.5517 160.854 26.9253 160.115L29.6029 161.467ZM21.7793 171.081C22.1099 170.322 22.9937 169.974 23.7533 170.304C24.5129 170.635 24.8606 171.519 24.53 172.278L21.7793 171.081ZM20.0935 183.251C19.8026 184.027 18.938 184.42 18.1623 184.129C17.3866 183.838 16.9936 182.974 17.2845 182.198L20.0935 183.251ZM13.3155 193.613C13.5692 192.825 14.4142 192.391 15.2028 192.645C15.9914 192.898 16.425 193.743 16.1714 194.532L13.3155 193.613ZM12.7191 206.135C12.4998 206.934 11.6743 207.404 10.8755 207.184C10.0766 206.965 9.60681 206.139 9.82614 205.341L12.7191 206.135ZM6.94873 216.74C7.13449 215.933 7.93954 215.429 8.74689 215.615C9.5542 215.801 10.0581 216.606 9.87231 217.413L6.94873 216.74ZM7.48792 228.935C7.33829 229.75 6.55649 230.289 5.74167 230.139C4.92688 229.99 4.38763 229.208 4.53723 228.393L7.48792 228.935ZM2.66776 240.092C2.77921 239.271 3.53503 238.696 4.35593 238.808C5.17682 238.919 5.75195 239.675 5.6405 240.496L2.66776 240.092ZM4.35098 252.088C4.27963 252.913 3.5527 253.525 2.72736 253.453C1.90201 253.382 1.29077 252.655 1.36215 251.83L4.35098 252.088ZM0.641327 263.635C0.670624 262.807 1.36554 262.16 2.19342 262.189C3.02133 262.219 3.66873 262.913 3.63943 263.741L0.641327 263.635ZM3.53403 275.462C3.54871 276.29 2.88913 276.974 2.06082 276.988C1.23251 277.003 0.549164 276.343 0.534515 275.515L3.53403 275.462ZM1.06693 287.359C1.00699 286.532 1.6282 285.814 2.45447 285.754C3.28073 285.694 3.99915 286.315 4.05908 287.142L1.06693 287.359ZM5.22894 298.757C5.33514 299.578 4.75522 300.331 3.93362 300.437C3.11203 300.543 2.35989 299.963 2.25369 299.142L5.22894 298.757ZM4.10599 310.834C3.95291 310.019 4.48883 309.235 5.30301 309.082C6.11716 308.929 6.90128 309.465 7.05435 310.279L4.10599 310.834ZM9.54266 321.682C9.7428 322.486 9.25333 323.3 8.44943 323.5C7.64554 323.7 6.83163 323.211 6.63153 322.407L9.54266 321.682ZM9.83578 333.838C9.58884 333.047 10.0297 332.206 10.8205 331.959C11.6113 331.712 12.4525 332.153 12.6994 332.944L9.83578 333.838ZM16.5089 343.992C16.8018 344.767 16.4111 345.632 15.6362 345.925C14.8612 346.218 13.9956 345.827 13.7027 345.052L16.5089 343.992ZM18.2176 356.017C17.88 355.26 18.2195 354.373 18.976 354.035C19.7325 353.698 20.6195 354.037 20.9572 354.794L18.2176 356.017ZM26.0247 365.318C26.4055 366.054 26.1177 366.959 25.382 367.34C24.6463 367.721 23.7412 367.433 23.3604 366.697L26.0247 365.318ZM29.106 377.063C28.684 376.351 28.9199 375.431 29.6328 375.009C30.3456 374.587 31.2657 374.822 31.6876 375.535L29.106 377.063ZM37.918 385.419C38.3791 386.107 38.1949 387.039 37.5067 387.5C36.8185 387.961 35.8867 387.777 35.4256 387.089L37.918 385.419ZM42.2878 396.749C41.7899 396.087 41.923 395.146 42.5851 394.648C43.2472 394.15 44.1876 394.284 44.6855 394.946L42.2878 396.749ZM51.9578 404.096C52.4903 404.731 52.4074 405.677 51.7728 406.209C51.1381 406.742 50.192 406.659 49.6595 406.024L51.9578 404.096ZM57.5085 414.9C56.9438 414.293 56.9775 413.344 57.5837 412.78C58.1899 412.215 59.1391 412.249 59.7037 412.855L57.5085 414.9ZM67.8907 421.209C68.4853 421.786 68.4996 422.735 67.9227 423.33C67.3459 423.924 66.3962 423.939 65.8016 423.362L67.8907 421.209ZM74.5052 431.398C73.883 430.851 73.8218 429.903 74.3687 429.281C74.9156 428.659 75.8633 428.598 76.4856 429.144L74.5052 431.398ZM85.4583 436.653C86.1062 437.169 86.2129 438.113 85.6967 438.761C85.1804 439.409 84.2367 439.516 83.5888 438.999L85.4583 436.653ZM93.0232 446.158C92.3517 445.673 92.2005 444.736 92.6856 444.064C93.1707 443.392 94.1084 443.241 94.7799 443.726L93.0232 446.158ZM104.423 450.357C105.117 450.81 105.311 451.74 104.858 452.433C104.404 453.126 103.475 453.321 102.781 452.867L104.423 450.357ZM112.838 459.119C112.124 458.698 111.887 457.778 112.309 457.065C112.73 456.351 113.649 456.115 114.363 456.536L112.838 459.119ZM124.574 462.255C125.306 462.643 125.585 463.551 125.196 464.283C124.808 465.015 123.9 465.293 123.168 464.905L124.574 462.255ZM133.751 470.216C133.002 469.861 132.682 468.967 133.037 468.218C133.392 467.469 134.286 467.15 135.035 467.504L133.751 470.216ZM145.723 472.272C146.487 472.592 146.847 473.471 146.527 474.235C146.207 474.999 145.328 475.359 144.564 475.039L145.723 472.272ZM155.588 479.361C154.81 479.076 154.41 478.215 154.694 477.437C154.979 476.659 155.84 476.259 156.618 476.543L155.588 479.361ZM167.7 480.3C168.49 480.547 168.931 481.389 168.683 482.179C168.436 482.97 167.595 483.411 166.804 483.163L167.7 480.3ZM178.191 486.424C177.39 486.216 176.909 485.397 177.117 484.595C177.326 483.793 178.145 483.312 178.947 483.521L178.191 486.424ZM190.337 486.179C191.148 486.346 191.67 487.14 191.503 487.951C191.335 488.763 190.542 489.284 189.73 489.117L190.337 486.179ZM201.398 491.207C200.579 491.083 200.015 490.318 200.14 489.499C200.264 488.68 201.028 488.116 201.847 488.241L201.398 491.207ZM213.449 489.666C214.273 489.743 214.879 490.474 214.802 491.299C214.725 492.124 213.993 492.73 213.168 492.653L213.449 489.666ZM225.01 493.404C224.182 493.377 223.532 492.684 223.559 491.856C223.586 491.028 224.279 490.379 225.107 490.405L225.01 493.404ZM490.401 2.18198C490.139 4.32367 489.828 6.40647 489.468 8.43182L486.514 7.90736C486.864 5.93729 487.167 3.90806 487.423 1.81802L490.401 2.18198ZM486.666 20.1336C485.422 24.1699 483.942 27.9309 482.237 31.4324L479.54 30.1192C481.173 26.764 482.598 23.1473 483.799 19.2498L486.666 20.1336ZM475.891 41.9561C473.421 45.3024 470.681 48.3316 467.692 51.069L465.666 48.8564C468.515 46.2481 471.124 43.3628 473.477 40.1745L475.891 41.9561ZM457.947 58.4578C454.555 60.5827 450.948 62.451 447.143 64.0886L445.957 61.333C449.633 59.7507 453.103 57.9523 456.354 55.9156L457.947 58.4578ZM435.716 68.1723C431.938 69.2797 428.01 70.2184 423.946 71.0073L423.375 68.0623C427.357 67.2892 431.193 66.3718 434.872 65.2935L435.716 68.1723ZM411.982 72.8698C408.056 73.3444 404.025 73.7102 399.898 73.9811L399.702 70.9876C403.78 70.7198 407.756 70.3588 411.622 69.8915L411.982 72.8698ZM387.885 74.5083C383.957 74.6025 379.956 74.6286 375.888 74.597L375.912 71.5971C379.951 71.6284 383.92 71.6025 387.813 71.5091L387.885 74.5083ZM363.828 74.3502C359.868 74.2236 355.855 74.0544 351.795 73.8516L351.945 70.8553C355.99 71.0574 359.984 71.2258 363.924 71.3518L363.828 74.3502ZM339.848 73.174C335.88 72.9253 331.874 72.6535 327.835 72.3662L328.048 69.3738C332.081 69.6606 336.078 69.9318 340.035 70.1799L339.848 73.174ZM315.875 71.4848C311.917 71.1853 307.932 70.8784 303.926 70.5709L304.156 67.5797C308.163 67.8872 312.146 68.194 316.101 68.4933L315.875 71.4848ZM291.937 69.6602C287.977 69.3645 283.999 69.0749 280.01 68.7975L280.218 65.8048C284.214 66.0825 288.196 66.3726 292.161 66.6685L291.937 69.6602ZM268.045 68.0113C264.066 67.7669 260.079 67.541 256.089 67.3398L256.24 64.3436C260.243 64.5454 264.24 64.772 268.229 65.017L268.045 68.0113ZM244.125 66.8172C240.138 66.6719 236.151 66.5574 232.169 66.4801L232.227 63.4807C236.228 63.5584 240.232 63.6733 244.235 63.8192L244.125 66.8172ZM220.199 66.3656C216.203 66.369 212.217 66.4164 208.244 66.514L208.17 63.5149C212.168 63.4167 216.178 63.3691 220.196 63.3656L220.199 66.3656ZM196.309 66.9672C192.312 67.1752 188.333 67.4414 184.377 67.7725L184.127 64.783C188.116 64.4491 192.126 64.1808 196.153 63.9713L196.309 66.9672ZM172.527 68.9734C168.552 69.4497 164.605 70 160.692 70.6311L160.214 67.6694C164.17 67.0314 168.157 66.4755 172.17 65.9947L172.527 68.9734ZM148.971 72.7921C145.072 73.6053 141.212 74.5089 137.396 75.5102L136.634 72.6084C140.502 71.5935 144.412 70.6783 148.358 69.8553L148.971 72.7921ZM125.953 78.8569C122.173 80.082 118.443 81.4154 114.769 82.8644L113.668 80.0737C117.403 78.6008 121.191 77.2466 125.028 76.003L125.953 78.8569ZM103.865 87.5918C100.293 89.2881 96.7822 91.1088 93.3372 93.0615L91.8579 90.4516C95.3677 88.4622 98.943 86.6082 102.578 84.8818L103.865 87.5918ZM83.2394 99.3005C79.9755 101.494 76.7804 103.824 73.659 106.297L71.7959 103.946C74.9797 101.423 78.2381 99.0471 81.566 96.8105L83.2394 99.3005ZM64.6882 113.999C61.8057 116.678 58.9966 119.499 56.2654 122.469L54.0571 120.439C56.8415 117.411 59.706 114.534 62.6459 111.802L64.6882 113.999ZM48.6333 131.424C46.2153 134.484 43.8694 137.682 41.5993 141.023L39.1179 139.337C41.4279 135.937 43.8163 132.682 46.2794 129.564L48.6333 131.424ZM35.2676 151.058C33.3108 154.399 31.4216 157.868 29.6029 161.467L26.9253 160.115C28.7712 156.461 30.69 152.938 32.6788 149.542L35.2676 151.058ZM24.53 172.278C22.9884 175.82 21.5088 179.477 20.0935 183.251L17.2845 182.198C18.7174 178.376 20.2165 174.672 21.7793 171.081L24.53 172.278ZM16.1714 194.532C15.5485 196.468 14.9411 198.433 14.3497 200.427L11.4736 199.573C12.0714 197.558 12.6855 195.572 13.3155 193.613L16.1714 194.532ZM14.3497 200.427C13.7827 202.338 13.2393 204.24 12.7191 206.135L9.82614 205.341C10.3518 203.426 10.9008 201.504 11.4736 199.573L14.3497 200.427ZM9.87231 217.413C8.98038 221.29 8.18649 225.13 7.48792 228.935L4.53723 228.393C5.24396 224.544 6.04691 220.66 6.94873 216.74L9.87231 217.413ZM5.6405 240.496C5.11041 244.4 4.68164 248.264 4.35098 252.088L1.36215 251.83C1.69702 247.957 2.1312 244.044 2.66776 240.092L5.6405 240.496ZM3.63943 263.741C3.49957 267.694 3.46567 271.601 3.53403 275.462L0.534515 275.515C0.46521 271.601 0.499603 267.64 0.641327 263.635L3.63943 263.741ZM4.05908 287.142C4.34363 291.064 4.73495 294.936 5.22894 298.757L2.25369 299.142C1.7525 295.265 1.35553 291.337 1.06693 287.359L4.05908 287.142ZM7.05435 310.279C7.77939 314.136 8.61035 317.937 9.54266 321.682L6.63153 322.407C5.68518 318.605 4.8418 314.747 4.10599 310.834L7.05435 310.279ZM12.6994 332.944C13.8682 336.686 15.1397 340.369 16.5089 343.992L13.7027 345.052C12.3129 341.376 11.0222 337.637 9.83578 333.838L12.6994 332.944ZM20.9572 354.794C22.5515 358.366 24.2425 361.874 26.0247 365.318L23.3604 366.697C21.5519 363.203 19.8358 359.642 18.2176 356.017L20.9572 354.794ZM31.6876 375.535C33.6778 378.897 35.7564 382.192 37.918 385.419L35.4256 387.089C33.2334 383.816 31.125 380.474 29.106 377.063L31.6876 375.535ZM44.6855 394.946C47.0326 398.067 49.4586 401.117 51.9578 404.096L49.6595 406.024C47.1266 403.005 44.6674 399.913 42.2878 396.749L44.6855 394.946ZM59.7037 412.855C62.3661 415.713 65.0971 418.498 67.8907 421.209L65.8016 423.362C62.9723 420.617 60.2059 417.796 57.5085 414.9L59.7037 412.855ZM76.4856 429.144C79.4211 431.724 82.414 434.227 85.4583 436.653L83.5888 438.999C80.5072 436.544 77.4774 434.01 74.5052 431.398L76.4856 429.144ZM94.7799 443.726C97.9503 446.017 101.167 448.227 104.423 450.357L102.781 452.867C99.4865 450.713 96.2317 448.476 93.0232 446.158L94.7799 443.726ZM114.363 456.536C117.734 458.526 121.14 460.433 124.574 462.255L123.168 464.905C119.694 463.062 116.249 461.133 112.838 459.119L114.363 456.536ZM135.035 467.504C138.578 469.183 142.143 470.772 145.723 472.272L144.564 475.039C140.942 473.522 137.335 471.914 133.751 470.216L135.035 467.504ZM156.618 476.543C160.306 477.891 164.002 479.144 167.7 480.3L166.804 483.163C163.061 481.993 159.32 480.725 155.588 479.361L156.618 476.543ZM178.947 483.521C182.753 484.511 186.553 485.397 190.337 486.179L189.73 489.117C185.895 488.325 182.046 487.427 178.191 486.424L178.947 483.521ZM201.847 488.241C205.743 488.831 209.613 489.306 213.449 489.666L213.168 492.653C209.275 492.287 205.348 491.805 201.398 491.207L201.847 488.241ZM225.107 490.405C227.054 490.468 228.989 490.5 230.912 490.5V493.5C228.956 493.5 226.989 493.468 225.01 493.404L225.107 490.405Z" fill="#FF9635"/>
</svg>
