<svg width="20" height="20" viewBox="0 0 20 20" fill="none" xmlns="http://www.w3.org/2000/svg">
<path d="M13.3333 16.667H6.66667C6.00363 16.667 5.36774 16.4036 4.8989 15.9348C4.43006 15.4659 4.16667 14.83 4.16667 14.167V5.83366C4.16667 5.61265 4.07887 5.40068 3.92259 5.2444C3.76631 5.08812 3.55435 5.00033 3.33333 5.00033C3.11232 5.00033 2.90036 5.08812 2.74408 5.2444C2.5878 5.40068 2.5 5.61265 2.5 5.83366V14.167C2.5 15.2721 2.93899 16.3319 3.72039 17.1133C4.50179 17.8947 5.5616 18.3337 6.66667 18.3337H13.3333C13.5543 18.3337 13.7663 18.2459 13.9226 18.0896C14.0789 17.9333 14.1667 17.7213 14.1667 17.5003C14.1667 17.2793 14.0789 17.0674 13.9226 16.9111C13.7663 16.7548 13.5543 16.667 13.3333 16.667ZM17.5 7.45033C17.4913 7.37377 17.4746 7.29835 17.45 7.22533V7.15033C17.4099 7.06464 17.3565 6.98588 17.2917 6.91699L12.2917 1.91699C12.2228 1.85217 12.144 1.79873 12.0583 1.75866H11.9833L11.7167 1.66699H8.33333C7.67029 1.66699 7.03441 1.93038 6.56557 2.39923C6.09673 2.86807 5.83333 3.50395 5.83333 4.16699V12.5003C5.83333 13.1634 6.09673 13.7993 6.56557 14.2681C7.03441 14.7369 7.67029 15.0003 8.33333 15.0003H15C15.663 15.0003 16.2989 14.7369 16.7678 14.2681C17.2366 13.7993 17.5 13.1634 17.5 12.5003V7.50033C17.5 7.50033 17.5 7.50033 17.5 7.45033ZM12.5 4.50866L14.6583 6.66699H13.3333C13.1123 6.66699 12.9004 6.5792 12.7441 6.42291C12.5878 6.26663 12.5 6.05467 12.5 5.83366V4.50866ZM15.8333 12.5003C15.8333 12.7213 15.7455 12.9333 15.5893 13.0896C15.433 13.2459 15.221 13.3337 15 13.3337H8.33333C8.11232 13.3337 7.90036 13.2459 7.74408 13.0896C7.5878 12.9333 7.5 12.7213 7.5 12.5003V4.16699C7.5 3.94598 7.5878 3.73402 7.74408 3.57774C7.90036 3.42146 8.11232 3.33366 8.33333 3.33366H10.8333V5.83366C10.8333 6.4967 11.0967 7.13259 11.5656 7.60143C12.0344 8.07027 12.6703 8.33366 13.3333 8.33366H15.8333V12.5003Z" fill="#3063E9"/>
</svg>
