<svg width="20" height="20" viewBox="0 0 20 20" fill="none" xmlns="http://www.w3.org/2000/svg">
<path d="M14.9064 9.08044C16.0689 8.91711 16.9639 7.92044 16.9664 6.71294C16.9664 5.52294 16.0989 4.53628 14.9614 4.34961" stroke="#262626" stroke-width="1.5" stroke-linecap="round" stroke-linejoin="round"/>
<path d="M16.4404 11.875C17.5663 12.0433 18.3521 12.4375 18.3521 13.25C18.3521 13.8092 17.9821 14.1725 17.3838 14.4008" stroke="#262626" stroke-width="1.5" stroke-linecap="round" stroke-linejoin="round"/>
<path fill-rule="evenodd" clip-rule="evenodd" d="M9.90553 12.2197C7.2272 12.2197 4.9397 12.6256 4.9397 14.2464C4.9397 15.8664 7.21303 16.2839 9.90553 16.2839C12.5839 16.2839 14.8705 15.8822 14.8705 14.2606C14.8705 12.6389 12.598 12.2197 9.90553 12.2197Z" stroke="#262626" stroke-width="1.5" stroke-linecap="round" stroke-linejoin="round"/>
<path fill-rule="evenodd" clip-rule="evenodd" d="M9.90555 9.9065C11.663 9.9065 13.088 8.48234 13.088 6.724C13.088 4.9665 11.663 3.5415 9.90555 3.5415C8.14805 3.5415 6.72305 4.9665 6.72305 6.724C6.71638 8.47567 8.13055 9.90067 9.88221 9.9065H9.90555Z" stroke="#262626" stroke-width="1.5" stroke-linecap="round" stroke-linejoin="round"/>
<path d="M4.90399 9.08044C3.74066 8.91711 2.84649 7.92044 2.84399 6.71294C2.84399 5.52294 3.71149 4.53628 4.84899 4.34961" stroke="#262626" stroke-width="1.5" stroke-linecap="round" stroke-linejoin="round"/>
<path d="M3.36992 11.875C2.24409 12.0433 1.45825 12.4375 1.45825 13.25C1.45825 13.8092 1.82825 14.1725 2.42659 14.4008" stroke="#262626" stroke-width="1.5" stroke-linecap="round" stroke-linejoin="round"/>
</svg>
