<svg width="44" height="44" viewBox="0 0 44 44" fill="none" xmlns="http://www.w3.org/2000/svg">
<rect width="44" height="44" rx="10" fill="#FF9635"/>
<path d="M31 15.98C27.67 15.65 24.32 15.48 20.98 15.48C19 15.48 17.02 15.58 15.04 15.78L13 15.98" stroke="white" stroke-width="1.5" stroke-linecap="round" stroke-linejoin="round"/>
<path d="M18.5 14.97L18.72 13.66C18.88 12.71 19 12 20.69 12H23.31C25 12 25.13 12.75 25.28 13.67L25.5 14.97" stroke="white" stroke-width="1.5" stroke-linecap="round" stroke-linejoin="round"/>
<path d="M28.8504 19.1399L28.2004 29.2099C28.0904 30.7799 28.0004 31.9999 25.2104 31.9999H18.7904C16.0004 31.9999 15.9104 30.7799 15.8004 29.2099L15.1504 19.1399" stroke="white" stroke-width="1.5" stroke-linecap="round" stroke-linejoin="round"/>
<path d="M20.3301 26.5H23.6601" stroke="white" stroke-width="1.5" stroke-linecap="round" stroke-linejoin="round"/>
<path d="M19.5 22.5H24.5" stroke="white" stroke-width="1.5" stroke-linecap="round" stroke-linejoin="round"/>
</svg>
