<svg width="18" height="20" viewBox="0 0 18 20" fill="none" xmlns="http://www.w3.org/2000/svg">
<path d="M6.63105 17.3093V14.7537C6.63104 14.1037 7.16097 13.5755 7.81755 13.5712H10.2226C10.8823 13.5712 11.4171 14.1006 11.4171 14.7537V14.7537V17.3173C11.417 17.8692 11.8619 18.3202 12.4192 18.3332H14.0226C15.621 18.3332 16.9167 17.0504 16.9167 15.468V15.468V8.19803C16.9082 7.57553 16.6129 6.99096 16.115 6.6107L10.6315 2.23759C9.67082 1.47614 8.30521 1.47614 7.34456 2.23759L1.88506 6.61863C1.38526 6.99736 1.08953 7.58289 1.08337 8.20597V15.468C1.08337 17.0504 2.3791 18.3332 3.97747 18.3332H5.58084C6.152 18.3332 6.61502 17.8748 6.61502 17.3093V17.3093" stroke="#262626" stroke-width="1.5" stroke-linecap="round" stroke-linejoin="round"/>
</svg>
