<svg width="17" height="18" viewBox="0 0 17 18" fill="none" xmlns="http://www.w3.org/2000/svg">
<path fill-rule="evenodd" clip-rule="evenodd" d="M15.6067 5.44534L15.0881 4.54526C14.6492 3.78366 13.6768 3.52093 12.9141 3.95792V3.95792C12.5511 4.17178 12.1179 4.23245 11.7101 4.12657C11.3023 4.02068 10.9534 3.75692 10.7402 3.39347C10.6031 3.16245 10.5294 2.89932 10.5267 2.63069V2.63069C10.539 2.20001 10.3765 1.78266 10.0762 1.47372C9.77589 1.16477 9.36331 0.990545 8.93245 0.990723H7.88745C7.46534 0.990718 7.06062 1.15892 6.76286 1.45811C6.4651 1.75731 6.29884 2.16282 6.30087 2.58493V2.58493C6.28836 3.45643 5.57826 4.15634 4.70667 4.15625C4.43804 4.15346 4.17491 4.07978 3.94389 3.94267V3.94267C3.18125 3.50567 2.20879 3.76841 1.76998 4.53001L1.21315 5.44534C0.774871 6.20599 1.03403 7.17783 1.79286 7.61925V7.61925C2.28612 7.90403 2.58997 8.43032 2.58997 8.99988C2.58997 9.56943 2.28612 10.0957 1.79286 10.3805V10.3805C1.03499 10.8189 0.775552 11.7884 1.21315 12.5468V12.5468L1.73947 13.4545C1.94507 13.8255 2.29003 14.0992 2.69802 14.2152C3.10602 14.3311 3.5434 14.2797 3.91338 14.0723V14.0723C4.2771 13.8601 4.71052 13.802 5.11731 13.9108C5.52411 14.0197 5.87056 14.2865 6.07967 14.6521C6.21678 14.8831 6.29045 15.1462 6.29324 15.4148V15.4148C6.29324 16.2953 7.00699 17.009 7.88745 17.009H8.93245C9.80993 17.009 10.5225 16.2999 10.5267 15.4225V15.4225C10.5246 14.999 10.6919 14.5923 10.9913 14.2929C11.2907 13.9935 11.6974 13.8262 12.1209 13.8283C12.3888 13.8354 12.6509 13.9088 12.8836 14.0418V14.0418C13.6443 14.4801 14.6161 14.221 15.0575 13.4621V13.4621L15.6067 12.5468C15.8193 12.1819 15.8777 11.7473 15.7689 11.3393C15.6601 10.9313 15.3931 10.5835 15.027 10.3729V10.3729C14.661 10.1623 14.394 9.81447 14.2852 9.40644C14.1764 8.99841 14.2347 8.56384 14.4473 8.19896C14.5856 7.95761 14.7857 7.75749 15.027 7.61925V7.61925C15.7813 7.17807 16.0399 6.2119 15.6067 5.45297V5.45297V5.44534Z" stroke="white" stroke-width="1.5" stroke-linecap="round" stroke-linejoin="round"/>
<ellipse cx="8.41372" cy="9.00002" rx="2.1968" ry="2.1968" stroke="white" stroke-width="1.5" stroke-linecap="round" stroke-linejoin="round"/>
</svg>
